<?xml version="1.0" encoding="utf-8"?>
<!-- Generator: Adobe Illustrator 17.0.0, SVG Export Plug-In . SVG Version: 6.00 Build 0)  -->
<!DOCTYPE svg PUBLIC "-//W3C//DTD SVG 1.1//EN" "http://www.w3.org/Graphics/SVG/1.1/DTD/svg11.dtd">
<svg version="1.1"
	 id="svg2313" inkscape:version="0.45" xmlns:dc="http://purl.org/dc/elements/1.1/" xmlns:cc="http://web.resource.org/cc/" xmlns:rdf="http://www.w3.org/1999/02/22-rdf-syntax-ns#" xmlns:svg="http://www.w3.org/2000/svg" xmlns:inkscape="http://www.inkscape.org/namespaces/inkscape" xmlns:sodipodi="http://sodipodi.sourceforge.net/DTD/sodipodi-0.dtd" sodipodi:version="0.32" sodipodi:modified="true"
	 xmlns="http://www.w3.org/2000/svg" xmlns:xlink="http://www.w3.org/1999/xlink" x="0px" y="0px" width="450px" height="450px"
	 viewBox="-85.831 0 450 450" enable-background="new -85.831 0 450 450" xml:space="preserve">
<sodipodi:namedview  id="base" inkscape:document-units="px" inkscape:window-y="-4" inkscape:current-layer="layer1" inkscape:pageopacity="0.0" inkscape:window-width="1024" inkscape:window-height="742" inkscape:pageshadow="2" inkscape:window-x="-4" borderlayer="true" guidetolerance="10000" gridtolerance="10000" objecttolerance="10000" showgrid="true" inkscape:zoom="1.2044445" borderopacity="1.0" pagecolor="#ffffff" bordercolor="#666666" inkscape:cx="139.16916" inkscape:cy="225" inkscape:object-nodes="true" inkscape:object-bbox="true" inkscape:grid-points="true" inkscape:object-points="true" inkscape:guide-points="true">
	</sodipodi:namedview>
<g id="layer1" transform="translate(-278.48947,-138.76257)" inkscape:label="Layer 1" inkscape:groupmode="layer">
	<path id="path9" fill="#FFFFFF" stroke="#000000" stroke-width="23.0938" d="M417.659,577.216
		c69.571,0,127.622-95.568,127.622-213.453S487.23,150.309,417.659,150.309s-127.622,95.568-127.622,213.453
		S348.087,577.216,417.659,577.216z"/>
	<path id="path11" fill="none" stroke="#EA2A2D" stroke-width="8.2478" d="M417.659,577.216
		c69.571,0,127.622-95.568,127.622-213.453S487.23,150.309,417.659,150.309s-127.622,95.568-127.622,213.453
		S348.087,577.216,417.659,577.216z"/>
	<path id="polygon13" d="M396.187,481.706V249.669h-21.389v223.789L396.187,481.706z"/>
	<path id="polygon15" fill="#EA2A2D" d="M374.743,473.458V249.669l-21.389,13.196V465.21L374.743,473.458z"/>
	<path id="polygon17" d="M353.299,465.21V262.865l-21.389,16.496v169.354L353.299,465.21z"/>
	<path id="polygon19" fill="#EA2A2D" d="M331.854,448.715V279.361l-21.389,32.991v103.372L331.854,448.715z"/>
	<path id="polygon21" d="M310.41,419.023v-111.62l-9.843,24.743v67.082L310.41,419.023z"/>
	<path id="line23" fill="none" stroke="#000000" stroke-width="8.2478" stroke-linecap="square" d="M458.898,254.48v218.978"/>
	<path id="line25" fill="none" stroke="#000000" stroke-width="8.2478" stroke-linecap="square" d="M488.59,270.15v187.637"/>
	<path id="line27" fill="none" stroke="#000000" stroke-width="8.2478" stroke-linecap="square" d="M421.824,378.65h111.923"/>
	<path id="line29" fill="none" stroke="#000000" stroke-width="8.2478" stroke-linecap="square" d="M421.824,348.958h111.923"/>
	<path id="polygon31" fill="#EA2A2D" d="M538.626,353.012h-54.188v-85.199l-21.389-13.196v98.395h-45.418V243.07l-21.389,3.299
		v235.336h21.389V374.401h45.418v99.057l21.389-8.248v-90.809h54.188V353.012z"/>
	<path id="line33" fill="none" stroke="#000000" stroke-width="8.2478" stroke-linecap="square" d="M421.783,246.232v235.886"/>
	<path id="circle35" fill="none" stroke="#000000" stroke-width="8.2478" d="M536.633,363.763
		c0,65.674-53.3,118.974-118.974,118.974s-118.974-53.3-118.974-118.974s53.3-118.974,118.974-118.974
		S536.633,298.089,536.633,363.763z"/>
	<path id="path37" d="M357.794,489.08l1.092,0.395c7.371,2.666,10.593-0.097,11.709-2.669l6.279,2.271l-12.745,35.243l-7.645-2.764
		l8.779-24.274l-9.228-3.337L357.794,489.08z"/>
	<path id="path39" d="M393.97,508.426c-3.445-0.521-4.861-3.191-4.529-5.383c0.41-2.714,2.589-4.307,6.206-3.759
		c2.583,0.391,4.439,2.486,4.013,5.305C399.257,507.251,397.127,508.904,393.97,508.426z M406.369,521.567
		c0.726-4.802-1.1-7.481-4.736-9.846c3.509-1.07,5.355-3.567,5.837-6.751c0.774-5.115-3.017-10.333-11.457-11.61
		c-7.119-1.077-13.264,1.89-14.219,8.206c-0.521,3.445,0.846,6.054,3.84,8.001c-6.595,1.672-7.337,6.578-7.621,8.457
		c-0.766,5.062,1.911,11.82,12.418,13.41C401.223,533.068,405.658,526.265,406.369,521.567z M398.055,520.63
		c-0.387,2.557-2.492,5.602-6.683,4.968c-3.674-0.556-5.558-3.244-5.021-6.792c0.608-4.018,3.682-5.315,6.609-4.872
		C397.439,514.611,398.45,518.02,398.055,520.63z"/>
	<path id="path41" d="M421.811,507.297c-0.445-5.366,3.238-6.625,5.321-6.797c4.167-0.346,6.41,2.117,6.763,6.378
		c0.366,4.419-2.606,6.519-5.441,6.754C425.387,513.886,422.278,512.926,421.811,507.297z M415.877,524.262
		c1.187,5.886,6.527,9.151,13.528,8.571c7.407-0.615,14.541-5.92,13.341-20.386c-0.437-5.26-1.824-19.181-16.059-18.001
		c-8.043,0.667-13.65,5.422-12.89,14.575c0.519,6.26,5.539,11.299,13.409,10.646c2.777-0.23,5.908-1.125,7.55-3.804l0.124,0.096
		c0.592,7.843-2.55,10.699-5.906,10.977c-2.488,0.207-4.374-0.75-5.05-3.289l-0.004-0.052L415.877,524.262z"/>
	<path id="path43" d="M456.448,501.65c-1.738-5.096,1.526-7.214,3.504-7.889c3.957-1.351,6.733,0.491,8.113,4.537
		c1.432,4.197-0.938,6.958-3.632,7.876C461.522,507.169,458.272,506.995,456.448,501.65z M454.826,519.549
		c2.586,5.421,8.56,7.286,15.209,5.017c7.034-2.4,12.66-9.284,7.972-23.022c-1.704-4.995-6.442-18.16-19.96-13.546
		c-7.639,2.606-11.918,8.584-8.952,17.277c2.028,5.944,8.125,9.609,15.599,7.058c2.638-0.9,5.455-2.531,6.396-5.529l0.143,0.062
		c2.486,7.462,0.133,10.998-3.053,12.086c-2.363,0.806-4.425,0.338-5.7-1.96l-0.017-0.05L454.826,519.549z"/>
	<path id="path45" d="M419.655,185.193c-11.462,0.189-21.541,9.203-21.36,20.147c0.18,10.87,10.468,19.547,22.012,19.357
		c5.69-0.094,11.017-2.132,14.753-5.642l5.778,5.303c-5.199,4.809-12.491,7.779-20.49,7.911
		c-16.491,0.272-30.216-11.722-30.464-26.789c-0.249-15.067,12.824-27.58,29.644-27.858c7.999-0.132,15.217,2.448,20.492,7.235
		l-5.6,5.491C430.571,186.962,425.426,185.098,419.655,185.193z"/>
	<path id="polygon47" d="M453.949,187.26l-13.196,45.981l6.598,1.65l8.248-26.393l6.598,31.342h3.093l8.454-19.795l10.104,29.898
		l9.485,6.598l-14.846-51.136l-5.98-3.505l-6.392,17.32l-5.773-28.661L453.949,187.26z"/>
	<path id="path49" d="M393.946,233.448l-12.784-46.188l-11.134,6.392l-31.548,64.333l12.784-8.248l8.248-16.702l22.681-8.66
		l3.299,11.135L393.946,233.448z M363.636,223.138l12.372-24.95l4.33,18.351L363.636,223.138z"/>
</g>
</svg>
