<svg xmlns="http://www.w3.org/2000/svg" viewBox="0 0 240 234" enable-background="new 0 0 240 234"><radialGradient id="a" cx="-183.829" cy="512.474" r=".76" gradientTransform="matrix(220 0 0 -213 40525 109215)" gradientUnits="userSpaceOnUse"><stop offset="0" stop-color="#442F55" stop-opacity=".98"/><stop offset="1" stop-color="#12002C"/></radialGradient><path fill="url(#a)" d="M10 10h220v214H10z"/><g fill="#D8A1FF"><path d="M10 10h220v214H10V10zM0 234h240V0H0v234zM169.8 112.8c5.1 0 6.9 0 7.4-.2 0-.7.2-1.2.2-1.7 0-5.4-2.6-15.4-13-15.4-9.6 0-13.7 8.4-14.7 17.3h20.1zm-20.3 13.7c.2 13.5 6.6 22.6 21.8 22.6 5.9 0 11-.8 16.3-3.1.7-.3 1.2-.2 1.2.7v12.5c0 1-.3 1.5-1 2-5.3 2.6-11.9 3.8-20.1 3.8-26.4 0-36.3-19.5-36.3-41.2 0-23.6 12.2-42.9 33.7-42.9 21.8 0 29.4 18.3 29.4 33.2 0 4.8-.3 8.7-.8 10.6-.2.8-.5 1.1-1.3 1.3-2 .3-7.9.7-16.7.7h-26.2v-.2zm-53.6-10.2c-2.8-11.1-9.6-35.3-12.1-47h-.2c-2.1 11.7-7.6 31.5-11.7 47h24zm-28.1 16.2l-7.9 29.9c-.2.8-.5 1.1-1.5 1.1H43.7c-1 0-1.2-.3-1-1.5l28.4-99.3c.5-1.8.8-3.2 1-8.2 0-.7.3-1 .8-1h21c.7 0 1 .2 1.2 1l31.8 107.7c.2.8 0 1.3-.8 1.3h-16.5c-.8 0-1.3-.3-1.5-1l-8.2-30H67.8z"/></g></svg>
