<?xml version="1.0" encoding="utf-8"?>
<!-- Generator: Adobe Illustrator 17.0.0, SVG Export Plug-In . SVG Version: 6.00 Build 0)  -->
<!DOCTYPE svg PUBLIC "-//W3C//DTD SVG 1.1//EN" "http://www.w3.org/Graphics/SVG/1.1/DTD/svg11.dtd">
<svg version="1.1" id="图层_1" xmlns="http://www.w3.org/2000/svg" xmlns:xlink="http://www.w3.org/1999/xlink" x="0px" y="0px"
	 width="179.978px" height="179.978px" viewBox="0 0 179.978 179.978" enable-background="new 0 0 179.978 179.978"
	 xml:space="preserve">
<g id="圖層_1" display="none">
	
		<image display="inline" overflow="visible" enable-background="new    " width="180" height="180" xlink:href="F57DE46.png"  transform="matrix(0.9999 0 0 0.9999 0 0)">
	</image>
</g>
<g id="圖層_1_拷貝">
	<g>
		<rect y="0" fill="#FFFFFF" width="179.978" height="179.977"/>
		<path fill="#1CACEB" d="M179.978,147.981c0,10.666,0,21.33,0,31.996c-59.993,0-119.985,0-179.978,0C0,119.985,0,59.992,0,0
			c59.992,0,119.985,0,179.978,0c0,40.328,0,80.657,0,120.985c-20.285-5.578-42.072-12.242-61.103-20.36
			c4.605-11.936,10.875-23.5,13.75-35.875c-3.347-0.276-34.5,0-34.5,0l0.25-12h41.5v-6.875L98,45.625l0.25-20
			c0,0-13.369,0.239-18.819,0.444c-0.617,4.323-0.306,19.806-0.306,19.806l-42.25-0.125L37,53.125L78.375,53L78.5,64.5l-34.125,0.25
			l-0.115,6.996L111,71.875c0,0-3.199,7.991-4.25,10.625c-1.239,3.104-5,12.25-5,12.25s-21.079-6.265-29.375-8
			c-12.678-2.652-27.056-4.762-39.25,1.375c-11.283,5.679-17.068,16.268-16.875,29c0.189,12.502,7.888,22.153,19.5,25.625
			c8.871,2.652,14.744,3.534,22.875,2.75c19.125-3.125,31.774-11.181,44.375-25c2.537-2.782,4.5-4.549,4.5-4.549
			s25.234,11.322,33.75,15.174C154.277,137.017,166.762,142.522,179.978,147.981z"/>
		<path fill="#1CACEB" d="M91.455,108.25c-9.68,15.477-28.52,26.844-48.705,25.245C36.5,133,35.107,131.483,33.875,131
			c-6.375-2.5-12.397-10.945-11.75-17.407c0.798-7.974,6.047-11.987,12.989-15.427C41,95.25,46.602,95.274,52,95.25
			C66.226,95.184,78.584,102.146,91.455,108.25z"/>
	</g>
</g>
</svg>
