<?xml version="1.0" encoding="utf-8"?>
<!-- Generator: Adobe Illustrator 17.0.0, SVG Export Plug-In . SVG Version: 6.00 Build 0)  -->
<!DOCTYPE svg PUBLIC "-//W3C//DTD SVG 1.1//EN" "http://www.w3.org/Graphics/SVG/1.1/DTD/svg11.dtd">
<svg version="1.1" id="图层_1" xmlns="http://www.w3.org/2000/svg" xmlns:xlink="http://www.w3.org/1999/xlink" x="0px" y="0px"
	 width="500px" height="500px" viewBox="0 0 500 500" enable-background="new 0 0 500 500" xml:space="preserve">
<path fill="#FF9900" d="M430.573,413.518c2.768-1.107,5.168-1.384,7.198-0.831c2.03,0.554,3.045,2.169,3.045,4.845
	s-1.384,5.768-4.153,9.274c-2.399,2.953-6.46,6.967-12.181,12.043c-5.721,5.075-14.534,11.35-26.438,18.825
	c-11.904,7.475-24.916,14.303-39.035,20.486c-14.119,6.183-31.468,11.535-52.046,16.057c-20.578,4.522-41.757,6.783-63.535,6.783
	c-21.963,0-43.925-2.861-65.888-8.582s-41.249-12.781-57.86-21.178s-32.529-17.995-47.755-28.791s-27.453-20.486-36.681-29.068
	c-9.228-8.582-16.98-16.657-23.255-24.224c-1.476-1.661-2.399-3.184-2.768-4.568c-0.369-1.384-0.277-2.492,0.277-3.322
	c0.554-0.831,1.292-1.476,2.215-1.938s1.984-0.646,3.184-0.554c1.2,0.092,2.261,0.508,3.184,1.246
	c35.436,21.594,63.12,36.912,83.052,45.956c71.794,32.483,145.526,40.788,221.196,24.916
	C357.395,443.509,393.476,431.052,430.573,413.518z M487.879,381.682c2.03,2.953,2.261,9.366,0.692,19.24
	c-1.569,9.874-4.199,19.333-7.89,28.376c-6.275,15.319-14.119,26.761-23.531,34.328c-3.138,2.584-5.537,3.414-7.198,2.492
	c-1.661-0.923-1.661-3.138,0-6.644c3.876-8.305,7.982-19.517,12.319-33.636c4.337-14.119,4.937-23.208,1.799-27.269
	c-0.923-1.292-2.353-2.353-4.291-3.184c-1.938-0.831-4.429-1.384-7.475-1.661c-3.045-0.277-5.768-0.508-8.167-0.692
	c-2.399-0.185-5.629-0.185-9.689,0c-4.06,0.185-6.967,0.369-8.72,0.554c-1.753,0.185-4.614,0.461-8.582,0.831
	c-3.968,0.369-6.044,0.554-6.229,0.554c-1.107,0.185-2.307,0.323-3.599,0.415c-1.292,0.092-2.307,0.185-3.045,0.277
	c-0.738,0.092-1.523,0.185-2.353,0.277c-0.831,0.092-1.477,0.138-1.938,0.138h-2.768l-0.831-0.138l-0.554-0.415l-0.415-0.831
	c-1.107-2.953,3.23-6.644,13.012-11.074c9.782-4.429,19.287-7.198,28.515-8.305c8.49-1.292,18.456-1.384,29.899-0.277
	C478.282,376.145,485.295,378.36,487.879,381.682z"/>
<path fill="#FFFFFF" d="M372.364,273.041c0,5.721,1.246,11.627,3.737,17.718c2.492,6.091,5.445,11.443,8.859,16.057
	c3.414,4.614,6.875,8.859,10.382,12.735c3.507,3.876,6.552,6.829,9.136,8.859l3.599,3.045l-62.843,62.012
	c-7.382-6.829-14.673-13.796-21.87-20.901c-7.198-7.106-12.55-12.504-16.057-16.195l-5.26-5.537c-2.03-2.03-4.337-5.075-6.921-9.136
	c-7.013,10.889-16.011,20.348-26.992,28.376s-22.747,13.888-35.297,17.579s-25.469,5.814-38.758,6.367
	c-13.288,0.554-25.977-1.384-38.066-5.814c-12.089-4.429-22.932-10.474-32.529-18.133s-17.256-18.087-22.978-31.283
	c-5.721-13.196-8.582-28.192-8.582-44.987c0-15.503,2.584-29.714,7.752-42.633c5.168-12.919,11.812-23.67,19.933-32.252
	c8.121-8.582,17.949-16.241,29.484-22.978c11.535-6.736,22.839-11.996,33.913-15.78c11.074-3.783,23.07-6.967,35.989-9.551
	c12.919-2.584,23.947-4.291,33.082-5.122c9.136-0.831,18.318-1.43,27.546-1.799V128.53c0-11.996-1.938-20.948-5.814-26.854
	c-6.275-9.782-17.441-14.673-33.498-14.673c-1.107,0-2.63,0.092-4.568,0.277c-1.938,0.185-5.675,1.292-11.212,3.322
	c-5.537,2.03-10.705,4.752-15.503,8.167c-4.799,3.414-9.966,8.905-15.503,16.472c-5.537,7.567-9.966,16.426-13.288,26.577
	l-81.391-7.475c0-11.074,2.03-22.055,6.09-32.944c4.06-10.889,10.243-21.317,18.548-31.283c8.305-9.966,18.271-18.733,29.899-26.3
	c11.627-7.567,25.608-13.611,41.941-18.133s33.913-6.783,52.738-6.783c18.456,0,35.159,2.307,50.108,6.921
	s26.9,10.289,35.851,17.026s16.426,14.396,22.424,22.978s10.151,16.518,12.458,23.808s3.461,14.073,3.461,20.348V273.041z
	 M186.327,278.855c0,15.872,6.46,28.145,19.379,36.82c12.181,8.121,25.008,10.151,38.481,6.09
	c15.503-4.614,26.023-15.964,31.56-34.051c2.584-8.305,3.876-17.626,3.876-27.961v-44.848c-10.889,0.369-21.132,1.476-30.729,3.322
	c-9.597,1.846-19.425,4.937-29.484,9.274c-10.059,4.337-18.087,10.889-24.085,19.656
	C189.326,255.923,186.327,266.489,186.327,278.855z"/>
</svg>
