<?xml version="1.0" encoding="utf-8"?>
<!-- Generator: Adobe Illustrator 17.0.0, SVG Export Plug-In . SVG Version: 6.00 Build 0)  -->
<!DOCTYPE svg PUBLIC "-//W3C//DTD SVG 1.1//EN" "http://www.w3.org/Graphics/SVG/1.1/DTD/svg11.dtd">
<svg version="1.1" id="图层_1" xmlns="http://www.w3.org/2000/svg" xmlns:xlink="http://www.w3.org/1999/xlink" x="0px" y="0px"
	 width="500px" height="500px" viewBox="0 0 500 500" enable-background="new 0 0 500 500" xml:space="preserve">
<g id="g48">
	<polygon id="polygon50" fill="#B3B3B3" points="55.678,392.235 252.451,500.385 450.237,390.77 487.108,84.978 252.203,4.29 
		18.794,86.431 	"/>
	<polygon id="polygon52" fill="#A6120D" points="251.658,474.546 429.465,376.14 463.826,102.651 251.658,30.299 	"/>
	<polygon id="polygon54" fill="#DD1B16" points="251.655,474.546 251.655,30.29 44.986,103.955 76.592,377.447 	"/>
	<path id="path56" fill="#F2F2F2" d="M310.06,266.793l-58.402,27.31h-61.555l-28.936,72.375l-53.821,0.996L251.658,46.431
		L310.06,266.793z M304.415,253.043l-52.37-103.676l-42.956,101.892h42.567L304.415,253.043z"/>
	<polygon id="polygon58" fill="#B3B3B3" points="300.785,251.338 251.765,251.338 251.655,294.038 319.437,294.103 351.117,367.485 
		402.615,368.439 251.655,46.431 252.042,149.367 	"/>
</g>
</svg>
