<svg xmlns="http://www.w3.org/2000/svg" viewBox="0 0 97.03 120.58"><defs><style>.a{fill:#002a41;}.a,.b{stroke:#848484;stroke-miterlimit:2.61;stroke-width:0.13px;fill-rule:evenodd;}.b{fill:#0071b5;}</style></defs><title>backbone-js</title><polygon class="a" points="0.07 0.12 0.07 65.2 48.51 92.82 48.51 74.05 16.1 55.57 16.1 26.55 48.51 45.03 48.51 27.73 0.07 0.12 0.07 0.12"/><polygon class="b" points="96.96 0.12 96.96 65.2 48.51 92.82 48.51 74.05 80.92 55.57 80.92 26.55 48.51 45.03 48.51 27.73 96.96 0.12 96.96 0.12"/><polygon class="b" points="0.07 120.46 0.07 55.38 48.51 27.76 48.51 46.53 16.1 65.01 16.1 92.55 48.51 74.08 48.51 92.85 0.07 120.46 0.07 120.46"/><polygon class="a" points="96.96 120.46 96.96 55.38 48.51 27.76 48.51 46.53 80.92 65.01 80.92 92.55 48.51 74.08 48.51 92.85 96.96 120.46 96.96 120.46"/></svg>