<?xml version="1.0" encoding="utf-8"?>
<!-- Generator: Adobe Illustrator 17.0.0, SVG Export Plug-In . SVG Version: 6.00 Build 0)  -->
<!DOCTYPE svg PUBLIC "-//W3C//DTD SVG 1.1//EN" "http://www.w3.org/Graphics/SVG/1.1/DTD/svg11.dtd">
<svg version="1.1"
	 id="图层_1" xmlns:rdf="http://www.w3.org/1999/02/22-rdf-syntax-ns#" xmlns:cc="http://creativecommons.org/ns#" xmlns:dc="http://purl.org/dc/elements/1.1/"
	 xmlns="http://www.w3.org/2000/svg" xmlns:xlink="http://www.w3.org/1999/xlink" x="0px" y="0px" width="64px" height="64px"
	 viewBox="0 0 64 64" enable-background="new 0 0 64 64" xml:space="preserve">
<g transform="translate(0.00630876,-0.00301984)">
	<path fill="#F7931A" d="M63.033,39.744C58.759,56.887,41.396,67.32,24.251,63.045C7.113,58.771-3.32,41.407,0.956,24.265
		C5.228,7.12,22.591-3.314,39.731,0.96C56.875,5.234,67.307,22.6,63.033,39.744z"/>
	<path fill="#FFFFFF" d="M46.103,27.444c0.637-4.258-2.605-6.547-7.038-8.074l1.438-5.768l-3.511-0.875l-1.4,5.616
		c-0.923-0.23-1.871-0.447-2.813-0.662l1.41-5.653l-3.509-0.875l-1.439,5.766c-0.764-0.174-1.514-0.346-2.242-0.527l0.004-0.018
		l-4.842-1.209l-0.934,3.75c0,0,2.605,0.597,2.55,0.634c1.422,0.355,1.679,1.296,1.636,2.042l-1.638,6.571
		c0.098,0.025,0.225,0.061,0.365,0.117c-0.117-0.029-0.242-0.061-0.371-0.092l-2.296,9.205c-0.174,0.432-0.615,1.08-1.609,0.834
		c0.035,0.051-2.552-0.637-2.552-0.637l-1.743,4.019l4.569,1.139c0.85,0.213,1.683,0.436,2.503,0.646l-1.453,5.834l3.507,0.875
		l1.439-5.772c0.958,0.26,1.888,0.5,2.798,0.726l-1.434,5.745l3.511,0.875l1.453-5.823c5.987,1.133,10.489,0.676,12.384-4.739
		c1.527-4.36-0.076-6.875-3.226-8.515C43.914,32.07,45.642,30.561,46.103,27.444z M38.081,38.693
		c-1.085,4.36-8.426,2.003-10.806,1.412l1.928-7.729C31.583,32.97,39.215,34.146,38.081,38.693z M39.167,27.381
		c-0.99,3.966-7.1,1.951-9.082,1.457l1.748-7.01C33.815,22.322,40.198,23.244,39.167,27.381z"/>
</g>
</svg>
