<?xml version="1.0" encoding="utf-8"?>
<!-- Generator: Adobe Illustrator 17.0.0, SVG Export Plug-In . SVG Version: 6.00 Build 0)  -->
<!DOCTYPE svg PUBLIC "-//W3C//DTD SVG 1.1//EN" "http://www.w3.org/Graphics/SVG/1.1/DTD/svg11.dtd">
<svg version="1.1" id="图层_1" xmlns="http://www.w3.org/2000/svg" xmlns:xlink="http://www.w3.org/1999/xlink" x="0px" y="0px"
	 width="500px" height="500px" viewBox="0 0 500 500" enable-background="new 0 0 500 500" xml:space="preserve">
<path id="_229236672" fill="#FFFFFF" d="M383.378,384.216c27.629,0,46.046-23.021,46.046-50.649
	c0-23.021-18.418-46.044-46.046-46.044h-96.694v96.693H383.378z M383.378,218.456c23.023,0,41.441-18.417,41.441-41.441
	c0-23.021-18.418-41.438-41.441-41.438h-96.694v82.879H383.378L383.378,218.456z M148.55,287.523v23.023H88.692v-23.023v-69.067
	v-23.023h59.858v23.023h59.858v-82.879H65.671v27.626H5.813v-27.626V75.718h377.565c55.255,0,105.905,46.044,105.905,105.902
	c0,27.626-9.209,50.649-27.629,69.067c18.42,23.023,32.232,50.65,32.232,78.276c0,64.462-50.65,115.111-110.508,115.111H5.813
	v-59.859v-32.23h59.858v32.23h142.738v-96.693L148.55,287.523L148.55,287.523z"/>
</svg>
