<?xml version="1.0" encoding="utf-8"?>
<!-- Generator: Adobe Illustrator 17.0.0, SVG Export Plug-In . SVG Version: 6.00 Build 0)  -->
<!DOCTYPE svg PUBLIC "-//W3C//DTD SVG 1.1//EN" "http://www.w3.org/Graphics/SVG/1.1/DTD/svg11.dtd">
<svg version="1.1" id="图层_1" xmlns="http://www.w3.org/2000/svg" xmlns:xlink="http://www.w3.org/1999/xlink" x="0px" y="0px"
	 width="500px" height="500px" viewBox="0 0 500 500" enable-background="new 0 0 500 500" xml:space="preserve">
<path fill="#FFFFFF" d="M485.695,180.051c-0.107-0.562-0.198-1.124-0.351-1.673c-0.091-0.333-0.204-0.644-0.311-0.97
	c-0.156-0.489-0.317-0.974-0.513-1.451c-0.138-0.333-0.293-0.65-0.443-0.967c-0.214-0.452-0.433-0.895-0.684-1.326
	c-0.174-0.32-0.372-0.62-0.568-0.928c-0.269-0.412-0.543-0.819-0.843-1.212c-0.22-0.293-0.445-0.574-0.683-0.859
	c-0.311-0.372-0.65-0.73-0.986-1.081c-0.263-0.263-0.525-0.525-0.8-0.782c-0.363-0.33-0.738-0.644-1.132-0.944
	c-0.3-0.232-0.595-0.47-0.907-0.681c-0.113-0.083-0.214-0.177-0.333-0.25L264.939,25.447c-6.699-4.473-15.434-4.473-22.13,0
	L30.592,166.923c-0.119,0.073-0.213,0.168-0.333,0.251c-0.311,0.216-0.608,0.448-0.907,0.68c-0.388,0.306-0.77,0.62-1.133,0.937
	c-0.275,0.251-0.537,0.513-0.794,0.782c-0.348,0.351-0.675,0.708-0.992,1.081c-0.238,0.281-0.464,0.565-0.684,0.876
	c-0.299,0.394-0.574,0.794-0.842,1.212c-0.193,0.308-0.388,0.607-0.568,0.928c-0.25,0.431-0.47,0.874-0.678,1.313
	c-0.149,0.318-0.311,0.641-0.443,0.968c-0.192,0.476-0.363,0.962-0.519,1.45c-0.107,0.326-0.219,0.644-0.305,0.937
	c-0.144,0.553-0.25,1.108-0.351,1.676c-0.054,0.287-0.125,0.571-0.161,0.864c-0.113,0.864-0.178,1.725-0.178,2.608v141.506
	c0,0.874,0.064,1.753,0.189,2.608c0.043,0.318,0.125,0.562,0.186,0.867c0.101,0.561,0.189,1.124,0.376,1.685
	c0.088,0.311,0.189,0.623,0.315,0.965c0.156,0.501,0.311,1.002,0.497,1.46c0.131,0.311,0.315,0.629,0.44,0.934
	c0.204,0.44,0.436,0.88,0.687,1.338c0.174,0.311,0.376,0.629,0.562,0.91c0.268,0.44,0.565,0.819,0.876,1.191
	c0.22,0.311,0.436,0.562,0.687,0.861c0.32,0.379,0.626,0.751,1.001,1.087c0.256,0.244,0.501,0.561,0.812,0.745
	c0.363,0.318,0.751,0.623,1.127,0.952c0.299,0.251,0.626,0.44,0.876,0.684c0.119,0.061,0.186,0.183,0.311,0.245l212.162,141.549
	c3.35,2.247,7.19,3.371,11.068,3.359c3.875-0.024,7.716-1.124,11.069-3.359l212.216-141.476c0.116-0.073,0.217-0.165,0.33-0.245
	c0.315-0.219,0.607-0.451,0.907-0.683c0.388-0.306,0.769-0.623,1.133-0.953c0.275-0.244,0.537-0.513,0.8-0.769
	c0.345-0.354,0.675-0.708,0.989-1.087c0.235-0.281,0.461-0.562,0.681-0.861c0.299-0.397,0.574-0.8,0.842-1.215
	c0.196-0.293,0.388-0.605,0.571-0.91c0.251-0.433,0.468-0.885,0.681-1.331c0.15-0.323,0.306-0.641,0.443-0.965
	c0.196-0.482,0.358-0.971,0.513-1.46c0.107-0.318,0.219-0.641,0.315-0.965c0.143-0.55,0.241-1.111,0.348-1.673
	c0.052-0.293,0.125-0.574,0.156-0.867c0.113-0.861,0.177-1.722,0.177-2.608V183.523c0-0.882-0.07-1.743-0.177-2.608
	c-0.049-0.305-0.143-0.556-0.204-0.864H485.695z M253.871,301.464l-70.567-47.2l70.567-47.203l70.57,47.203L253.871,301.464z
	 M233.92,172.4l-86.505,57.859l-69.827-46.712L233.92,79.328V172.4z M111.531,254.258l-49.912,33.381v-66.766L111.531,254.258z
	 M147.415,278.284l86.505,57.853v93.069L77.588,324.975l69.827-46.703V278.284z M273.824,336.125l86.505-57.853l69.834,46.703
	l-156.339,104.22V336.125z M396.213,254.27l49.918-33.391v66.772l-49.918-33.393V254.27z M360.329,230.259l-86.505-57.853V79.328
	l156.339,104.22L360.329,230.259z"/>
</svg>
