<?xml version="1.0" encoding="utf-8"?>
<!-- Generator: Adobe Illustrator 17.0.0, SVG Export Plug-In . SVG Version: 6.00 Build 0)  -->
<!DOCTYPE svg PUBLIC "-//W3C//DTD SVG 1.1//EN" "http://www.w3.org/Graphics/SVG/1.1/DTD/svg11.dtd">
<svg version="1.1" id="图层_1" xmlns="http://www.w3.org/2000/svg" xmlns:xlink="http://www.w3.org/1999/xlink" x="0px" y="0px"
	 width="2500px" height="2100px" viewBox="0 0 2500 2100" enable-background="new 0 0 2500 2100" xml:space="preserve">
<g>
	<path fill="#364548" d="M1309.864,642.852h249.328V897.73h126.06c58.227,0,118.1-10.37,173.23-29.048
		c27.096-9.192,57.496-21.971,84.222-38.055c-35.198-45.949-53.167-103.968-58.445-161.159
		c-7.197-77.799,8.505-179.053,61.149-239.94l26.213-30.313l31.229,25.112c78.628,63.166,144.76,151.444,156.416,252.076
		c94.678-27.849,205.844-21.263,289.291,26.9l34.238,19.758l-18.013,35.176c-70.581,137.738-218.143,180.416-362.402,172.859
		c-215.864,537.659-685.832,792.2-1255.658,792.2c-294.405,0-564.494-110.053-718.304-371.244l-2.519-4.253l-22.407-45.6
		c-51.99-114.97-69.261-240.921-57.551-366.774l3.522-37.695h213.214V642.852h249.317V393.523h498.667V144.195h299.203V642.852"/>
	<path fill="#22A0C8" d="M2117.645,737.148c16.716-129.931-80.514-231.98-140.813-280.437
		c-69.49,80.34-80.285,290.894,28.732,379.542c-60.844,54.04-189.041,103.02-320.312,103.02H87.342
		c-12.758,137.029,11.296,263.22,66.241,371.223l18.177,33.257c11.509,19.52,24.086,38.391,37.673,56.526
		c65.696,4.22,126.267,5.67,181.68,4.449h0.022c108.897-2.399,197.753-15.266,265.095-38.6c10.126-3.15,20.889,2.506,24.038,12.632
		c3.007,9.669-2.01,20.011-11.466,23.634c-8.963,3.119-18.297,6.019-27.936,8.778h-0.033
		c-53.026,15.146-109.889,25.33-183.251,29.855c4.362,0.076-4.536,0.654-4.558,0.654c-2.497,0.164-5.637,0.523-8.145,0.654
		c-28.874,1.625-60.037,1.963-91.898,1.963c-34.849,0-69.163-0.654-107.534-2.617l-0.981,0.654
		c133.136,149.645,341.313,239.395,602.265,239.395c552.26,0,1020.69-244.814,1228.126-794.424
		c147.159,15.102,288.593-22.429,352.926-148.02C2325.309,680.153,2193.525,699.006,2117.645,737.148"/>
	<path fill="#37B1D9" d="M2117.645,737.148c16.716-129.931-80.514-231.98-140.813-280.437
		c-69.49,80.34-80.285,290.894,28.732,379.542c-60.844,54.04-189.041,103.02-320.312,103.02H181.966
		c-6.521,209.856,71.355,369.151,209.136,465.454h0.033c108.897-2.399,197.753-15.265,265.095-38.6
		c10.126-3.15,20.889,2.506,24.038,12.633c3.007,9.669-2.01,20.011-11.466,23.634c-8.963,3.119-18.297,6.019-27.936,8.778h-0.033
		c-53.026,15.146-114.774,26.638-188.135,31.163c-0.022,0-1.777-1.69-1.799-1.69c187.95,96.412,460.471,96.063,772.922-23.956
		c350.342-134.597,676.357-391.013,903.823-684.295C2124.22,733.943,2120.883,735.524,2117.645,737.148"/>
	<path fill="#1B81A5" d="M90.341,1105.765c9.923,73.405,31.403,142.132,63.242,204.731l18.177,33.257
		c11.507,19.521,24.084,38.392,37.673,56.526c65.707,4.22,126.278,5.67,181.702,4.449c108.897-2.399,197.753-15.266,265.095-38.6
		c10.126-3.15,20.889,2.506,24.038,12.632c3.007,9.669-2.01,20.011-11.466,23.634c-8.963,3.119-18.297,6.019-27.936,8.778h-0.033
		c-53.026,15.146-114.447,25.984-187.808,30.52c-2.519,0.153-6.913,0.185-9.454,0.327c-28.852,1.614-59.699,2.606-91.571,2.606
		c-34.838,0-70.472-0.665-108.821-2.617c133.136,149.645,342.6,239.722,603.552,239.722c472.792,0,884.13-179.456,1122.871-575.965
		H90.341"/>
	<path fill="#1D91B4" d="M196.348,1105.765c28.263,128.884,96.183,230.061,194.787,298.963
		c108.897-2.399,197.753-15.266,265.095-38.6c10.126-3.15,20.889,2.506,24.038,12.632c3.007,9.669-2.01,20.011-11.466,23.634
		c-8.963,3.119-18.297,6.019-27.936,8.778h-0.033c-53.026,15.146-115.745,25.984-189.117,30.52
		c187.939,96.39,459.675,95.005,772.104-25.003c189.008-72.62,370.917-180.721,534.115-310.924H196.348"/>
	<path fill="#23A3C2" d="M304.22,684.406h216.093v216.093H304.22V684.406z M322.223,702.419h17.054v180.078h-17.054V702.419z
		 M354.28,702.419h17.741v180.078h-17.73V702.419H354.28z M387.014,702.419h17.741v180.078h-17.741V702.419z M419.769,702.419h17.73
		v180.078h-17.73V702.419z M452.513,702.419h17.73v180.078h-17.73L452.513,702.419L452.513,702.419z M485.247,702.419h17.065
		v180.078h-17.065V702.419z M553.549,435.078h216.104V651.16H553.538V435.078H553.549z M571.562,453.091h17.043v180.067h-17.043
		V453.091z M603.619,453.091h17.73v180.067H603.63V453.091H603.619z M636.353,453.091h17.73v180.067h-17.73V453.091z
		 M669.097,453.091h17.73v180.067h-17.73V453.091z M701.841,453.091h17.741v180.067h-17.741V453.091z M734.575,453.091h17.076
		v180.067h-17.076V453.091z"/>
	<path fill="#34BBDE" d="M553.549,684.406h216.104v216.093H553.538V684.406H553.549z M571.562,702.419h17.043v180.078h-17.043
		V702.419z M603.619,702.419h17.73v180.078H603.63V702.419H603.619z M636.353,702.419h17.73v180.078h-17.73V702.419z
		 M669.097,702.419h17.73v180.078h-17.73V702.419z M701.841,702.419h17.741v180.078h-17.741V702.419z M734.575,702.419h17.076
		v180.078h-17.076V702.419z"/>
	<path fill="#23A3C2" d="M802.887,684.406h216.093v216.093H802.887V684.406z M820.89,702.419h17.043v180.078H820.89V702.419z
		 M852.947,702.419h17.73v180.078h-17.73V702.419z M885.692,702.419h17.73v180.078h-17.73V702.419z M918.436,702.419h17.73v180.078
		h-17.73V702.419z M951.169,702.419h17.752v180.078h-17.752V702.419z M983.914,702.419h17.054v180.078h-17.054V702.419z"/>
	<path fill="#34BBDE" d="M802.887,435.078h216.093V651.16H802.887V435.078z M820.89,453.091h17.043v180.067H820.89V453.091z
		 M852.947,453.091h17.73v180.067h-17.73V453.091z M885.692,453.091h17.73v180.067h-17.73V453.091z M918.436,453.091h17.73v180.067
		h-17.73V453.091z M951.169,453.091h17.752v180.067h-17.752V453.091z M983.914,453.091h17.054v180.067h-17.054V453.091z
		 M1052.216,684.406h216.093v216.093h-216.093V684.406z M1070.229,702.419h17.043v180.078h-17.043V702.419z M1102.286,702.419h17.73
		v180.078h-17.73V702.419z M1135.02,702.419h17.73v180.078h-17.73V702.419z M1167.764,702.419h17.741v180.078h-17.741V702.419z
		 M1200.509,702.419h17.741v180.078h-17.741V702.419z M1233.253,702.419h17.054v180.078h-17.054V702.419z"/>
	<path fill="#23A3C2" d="M1052.216,435.078h216.093V651.16h-216.093V435.078z M1070.229,453.091h17.043v180.067h-17.043V453.091z
		 M1102.286,453.091h17.73v180.067h-17.73V453.091z M1135.02,453.091h17.73v180.067h-17.73V453.091z M1167.764,453.091h17.741
		v180.067h-17.741V453.091z M1200.509,453.091h17.741v180.067h-17.741V453.091z M1233.253,453.091h17.054v180.067h-17.054V453.091z"
		/>
	<path fill="#34BBDE" d="M1052.216,185.739h216.093v216.115h-216.093V185.739z M1070.229,203.741h17.043V383.83h-17.043V203.73
		V203.741z M1102.286,203.741h17.73V383.83h-17.73V203.73V203.741z M1135.02,203.741h17.73V383.83h-17.73V203.73V203.741z
		 M1167.764,203.741h17.741V383.83h-17.741V203.73V203.741z M1200.509,203.741h17.741V383.83h-17.741V203.73V203.741z
		 M1233.253,203.741h17.054V383.83h-17.054V203.73V203.741z"/>
	<path fill="#23A3C2" d="M1301.544,684.406h216.093v216.093h-216.093V684.406z M1319.535,702.419h17.065v180.078h-17.054V702.419
		H1319.535z M1351.593,702.419h17.741v180.078h-17.73V702.419H1351.593z M1384.348,702.419h17.741v180.078h-17.741V702.419z
		 M1417.081,702.419h17.741v180.078h-17.741V702.419z M1449.836,702.419h17.73v180.078h-17.73V702.419z M1482.57,702.419h17.054
		v180.078h-17.054V702.419z"/>
	<path fill="#D3ECEC" d="M756.121,1250.852c32.926-0.437,59.971,25.901,60.408,58.827c0.437,32.926-25.901,59.971-58.827,60.408
		c-0.534,0.007-1.068,0.007-1.603,0c-32.926-0.445-59.256-27.497-58.811-60.423C697.725,1277.357,723.814,1251.276,756.121,1250.852
		"/>
	<path fill="#364548" d="M756.121,1267.764c5.452,0,10.653,1.025,15.451,2.89c-8.323,4.831-11.153,15.495-6.321,23.817
		c3.11,5.357,8.829,8.66,15.023,8.676c6.597,0,12.321-3.653,15.287-9.061c9.039,21.775-1.285,46.754-23.06,55.793
		c-21.775,9.039-46.754-1.285-55.793-23.06c-9.039-21.775,1.285-46.754,23.06-55.793
		C744.951,1268.874,750.508,1267.765,756.121,1267.764 M-298.328,1127.311h2773.151c-60.375-15.309-191.036-36.005-169.49-115.145
		c-109.802,127.052-374.581,89.139-441.411,26.496c-74.408,107.927-507.619,66.895-537.834-17.185
		c-93.294,109.486-382.366,109.486-475.66,0c-30.237,84.08-463.437,125.111-537.856,17.174
		c-66.819,62.654-331.587,100.567-441.389-26.475c21.546,79.129-109.115,99.825-169.512,115.145"/>
	<path fill="#BDD9D7" d="M914.587,1680.443c-147.639-70.057-228.665-165.303-273.753-269.26
		c-54.846,15.647-120.76,25.657-197.36,29.953c-28.852,1.614-59.208,2.442-91.047,2.442c-36.724,0-75.422-1.09-116.05-3.238
		c135.393,135.317,301.95,239.493,610.356,241.39C869.499,1681.729,892.092,1681.293,914.587,1680.443"/>
	<path fill="#D3ECEC" d="M695.67,1507.115c-20.423-27.729-40.235-62.577-54.803-95.954
		c-54.846,15.669-120.782,25.679-197.393,29.986c52.622,28.557,127.87,55.021,252.207,65.969"/>
</g>
</svg>
