<?xml version="1.0" encoding="utf-8"?>
<!-- Generator: Adobe Illustrator 18.1.1, SVG Export Plug-In . SVG Version: 6.00 Build 0)  -->
<!DOCTYPE svg PUBLIC "-//W3C//DTD SVG 1.1//EN" "http://www.w3.org/Graphics/SVG/1.1/DTD/svg11.dtd">
<svg version="1.1" id="dw_x5F_cc_x5F_app_x5F_RGB" xmlns="http://www.w3.org/2000/svg" xmlns:xlink="http://www.w3.org/1999/xlink"
	 x="0px" y="0px" viewBox="0 0 240.001 233.9995" enable-background="new 0 0 240.001 233.9995" xml:space="preserve">
<g>
	<radialGradient id="SVGID_1_" cx="97.7105" cy="81.2863" r="143.4321" gradientUnits="userSpaceOnUse">
		<stop  offset="0" style="stop-color:#071800;stop-opacity:0.85"/>
		<stop  offset="0.7669" style="stop-color:#071800"/>
	</radialGradient>
	<rect x="10" y="10" fill-rule="evenodd" clip-rule="evenodd" fill="url(#SVGID_1_)" width="220" height="214.0004"/>
</g>
<g>
	<path fill-rule="evenodd" clip-rule="evenodd" fill="#6BFD00" d="M0,0v233.9995h240.001V0H0z M10,10h220.001v213.9995H10V10z"/>
</g>
<path fill-rule="evenodd" clip-rule="evenodd" fill="#6BFD00" d="M31.25,55.0849c0-0.8247,0.1651-1.1548,1.1553-1.3198
	C36.2002,53.6,47.1001,53.27,58.3204,53.27c33.4946,0,50.1596,21.6152,50.1596,53.2949c0,44.0547-28.875,57.4199-51.1499,57.4199
	c-8.415,0-20.6347-0.165-25.0898-0.3301c-0.6602,0-0.9903-0.4941-0.9903-1.3203V55.0849z M49.25,147.8149
	c2.8047,0.165,5.2803,0.3301,8.4151,0.3301c18.48,0,32.1699-13.0352,32.3349-41.085c0.1651-27.3901-14.02-37.9502-31.6748-37.9502
	c-3.4653,0-6.2705,0.1651-9.0752,0.3301V147.8149z M176.127,163.5004c-1.1543,0-1.4844-0.4453-1.6494-1.4355
	c-4.9502-27.5547-9.0752-47.0352-10.8897-60.5645h-0.165c-2.1455,12.209-6.1055,32.5147-12.7051,60.7295
	c-0.3301,0.9893-0.6601,1.2705-1.4853,1.2705h-16.17c-1.1552,0-1.4853-0.166-1.8149-1.1562l-17.6548-78.7744
	c-0.165-0.6597,0.1651-1.3198,1.1548-1.3198h16.1699c0.6597,0,1.1548,0.2299,1.3199,0.8901
	c6.2705,35.4746,8.9101,53.8496,9.9003,61.1103h0.6602c1.1543-8.58,4.6201-26.4609,12.0449-60.7802
	c0.3301-0.9903,0.3301-1.2202,1.3194-1.2202h16.9951c0.8252,0,0.9902,0.3999,1.1552,1.225
	c5.7754,32.5049,9.5704,53.0254,10.5606,61.2754h0.4941c1.6504-10.5605,3.795-24.8105,10.8907-61.4404
	c0.165-0.6601,0.33-1.06,1.1543-1.06h15.1806c0.6592,0,1.1553,0.33,0.8252,1.1547l-19.6357,78.9395
	c-0.1651,0.8262-0.3301,1.1562-1.4844,1.1562H176.127z"/>
</svg>
