<svg width="83" height="40" xmlns="http://www.w3.org/2000/svg"><g fill="#E04E39" fill-rule="nonzero"><path d="M81.013 21.94s-2.005 1.558-3.77 1.384c-1.764-.174-1.21-4.126-1.21-4.126s.38-3.625-.66-3.93c-1.036-.302-2.315.945-2.315.945s-1.591 1.769-2.352 4.024l-.21.069s.243-3.955-.033-4.856c-.207-.45-2.11-.415-2.421.381-.312.799-1.834 6.346-1.939 8.67 0 0-2.975 2.533-5.567 2.947-2.595.418-3.218-1.213-3.218-1.213s7.057-1.976 6.814-7.629c-.24-5.652-5.69-3.56-6.306-3.097-.597.45-3.782 2.375-4.711 7.708-.031.179-.087.973-.087.973s-2.733 1.835-4.255 2.321c0 0 4.255-7.178-.932-10.437-1.459-.88-2.73-.07-3.487.674-.464.456 6.288-6.948 4.73-13.574-.74-3.153-2.313-3.491-3.756-2.98-2.191.866-3.021 2.148-3.021 2.148S39.469 6.47 38.81 12.608c-.657 6.136-1.625 13.558-1.625 13.558s-1.35 1.318-2.594 1.387c-1.247.067-.693-3.712-.693-3.712s.968-5.755.902-6.727c-.072-.97-.14-1.49-1.282-1.836-1.142-.348-2.388 1.109-2.388 1.109s-3.284 4.992-3.56 5.755l-.176.314-.171-.21s2.316-6.796.104-6.899c-2.214-.105-3.667 2.427-3.667 2.427s-2.526 4.232-2.63 4.716l-.171-.208s1.036-4.923.83-6.139c-.21-1.213-1.349-.97-1.349-.97s-1.453-.174-1.834.763c-.38.937-1.764 7.142-1.938 9.119 0 0-3.631 2.6-6.02 2.634-2.385.036-2.142-1.515-2.142-1.515s8.752-3.003 6.364-8.932c-1.072-1.526-2.316-2.005-4.08-1.972-1.766.036-3.954 1.114-5.372 4.304-.679 1.52-.924 2.967-1.065 4.057 0 0-1.53.315-2.36-.378-.832-.694-1.258 0-1.258 0S-.79 25.075.628 25.628c1.42.556 3.632.814 3.632.814a6.64 6.64 0 0 0 2.523 3.935c2.594 1.976 7.572-.182 7.572-.182l2.04-1.147s.07 1.877 1.558 2.15c1.487.275 2.11-.004 4.704-6.315 1.523-3.225 1.627-3.051 1.627-3.051.171-.036-1.003 6.136-.554 7.8.45 1.667 2.421 1.493 2.421 1.493s1.073.207 1.938-2.845c.864-3.051 2.526-6.415 2.526-6.415.205 0-.52 6.31.585 8.323 1.108 2.012 3.979.675 3.979.675s2.007-1.013 2.319-1.326c0 0 2.38 2.033 5.738 1.664 7.509-1.482 10.18-3.484 10.18-3.484s1.29 3.277 5.286 3.582c4.564.345 7.057-2.532 7.057-2.532s-.036 1.871 1.555 2.532c1.594.658 2.664-3.047 2.664-3.047l2.663-7.357c.243 0 .38 4.784 3.011 5.547 2.628.763 6.053-1.787 6.053-1.787s.83-.458.692-1.845c-.14-1.388-1.384-.87-1.384-.87zm-69.286-3.472c.932.901.587 2.842-1.177 4.055-1.762 1.216-2.56.973-2.56.973.105-4.127 2.805-5.932 3.737-5.028zM46.145 4.216c.588 3.121-5.153 12.414-5.153 12.414C41.06 14.549 43.1 7.51 43.1 7.51s2.454-6.415 3.044-3.295zM40.471 27.9s-.45-1.526.83-5.79c1.282-4.266 4.29-2.602 4.29-2.602s2.076 1.595.45 5.86c-1.625 4.265-5.57 2.532-5.57 2.532zm17.504-8.356c1.417-2.6 2.525-1.18 2.525-1.18s1.21 1.318-.173 3.295c-1.385 1.976-3.39 1.838-3.39 1.838s-.38-1.354 1.038-3.953z"/><path d="M72.133 30.067v-.498h.315c.044 0 .087.005.133.01.046.006.09.018.127.034.039.016.069.039.092.069.025.03.036.071.036.122 0 .115-.034.19-.103.22a.68.68 0 0 1-.267.043h-.333zm-.375-.79v1.894h.375v-.809h.234l.46.81h.394l-.506-.828a.892.892 0 0 0 .195-.042c.06-.02.113-.05.156-.09.046-.039.08-.09.106-.152a.548.548 0 0 0 .04-.224c0-.205-.065-.35-.192-.433-.128-.085-.312-.127-.55-.127h-.712zm-.6.949c0-.194.032-.371.099-.533.066-.16.156-.3.27-.417a1.23 1.23 0 0 1 .902-.376 1.24 1.24 0 0 1 .9.376 1.34 1.34 0 0 1 .374.95c0 .194-.034.371-.1.535a1.362 1.362 0 0 1-.274.422 1.23 1.23 0 0 1-.9.378c-.177 0-.342-.033-.499-.1a1.203 1.203 0 0 1-.402-.278 1.316 1.316 0 0 1-.271-.422 1.4 1.4 0 0 1-.1-.535zm-.463 0c0 .26.049.493.143.7.097.21.223.388.382.536.16.147.345.26.554.338.21.079.428.118.655.118.23 0 .449-.04.658-.118.21-.078.393-.19.554-.338.16-.148.286-.325.382-.535.094-.208.14-.44.14-.701 0-.256-.046-.489-.14-.696a1.64 1.64 0 0 0-.936-.872c-.21-.08-.428-.12-.658-.12a1.805 1.805 0 0 0-1.21.46 1.64 1.64 0 0 0-.524 1.228z"/></g></svg>
