<?xml version="1.0" encoding="utf-8"?>
<!-- Generator: Adobe Illustrator 17.0.0, SVG Export Plug-In . SVG Version: 6.00 Build 0)  -->
<!DOCTYPE svg PUBLIC "-//W3C//DTD SVG 1.1//EN" "http://www.w3.org/Graphics/SVG/1.1/DTD/svg11.dtd">
<svg version="1.1" id="Layer_1" xmlns="http://www.w3.org/2000/svg" xmlns:xlink="http://www.w3.org/1999/xlink" x="0px" y="0px"
	 width="500px" height="500px" viewBox="0 0 500 500" enable-background="new 0 0 500 500" xml:space="preserve">
<g>
	<path fill="#8080F2" d="M150.391,201.962l95.183-54.953c2.382-1.376,5.318-1.376,7.7,0l95.185,54.953
		c2.38,1.376,3.85,3.917,3.85,6.668v109.907c0,2.749-1.47,5.293-3.85,6.67l-95.185,54.953c-2.382,1.376-5.318,1.376-7.7,0
		l-95.183-54.953c-2.382-1.376-3.85-3.919-3.85-6.67V208.63C146.543,205.879,148.011,203.338,150.391,201.962"/>
	<path fill="#4B32C3" d="M496.901,252.022L383.175,54.173c-4.131-7.154-11.762-12.43-20.022-12.43H135.699
		c-8.262,0-15.895,5.277-20.026,12.43L1.948,251.586c-4.131,7.156-4.131,16.186,0,23.342l113.725,196.228
		c4.131,7.154,11.764,10.811,20.026,10.811h227.452c8.26,0,15.893-3.547,20.022-10.703l113.725-196.548
		C501.034,267.563,501.034,259.176,496.901,252.022 M402.73,347.161c0,2.909-1.751,5.599-4.273,7.055l-144.861,83.578
		c-2.52,1.454-5.676,1.454-8.195,0l-144.973-83.578c-2.519-1.456-4.282-4.145-4.282-7.055V180.004c0-2.911,1.737-5.599,4.259-7.055
		L245.26,89.371c2.519-1.456,5.672-1.456,8.191,0l144.983,83.578c2.521,1.456,4.296,4.145,4.296,7.055V347.161z"/>
</g>
</svg>
