<?xml version="1.0" encoding="utf-8"?>
<!-- Generator: Adobe Illustrator 18.1.1, SVG Export Plug-In . SVG Version: 6.00 Build 0)  -->
<!DOCTYPE svg PUBLIC "-//W3C//DTD SVG 1.1//EN" "http://www.w3.org/Graphics/SVG/1.1/DTD/svg11.dtd">
<svg version="1.1" id="fl_x5F_cc_x5F_app_x5F_RGB" xmlns="http://www.w3.org/2000/svg" xmlns:xlink="http://www.w3.org/1999/xlink"
	 x="0px" y="0px" viewBox="0 0 240.001 233.9995" enable-background="new 0 0 240.001 233.9995" xml:space="preserve">
<g>
	<radialGradient id="SVGID_1_" cx="97.7109" cy="81.286" r="143.432" gradientUnits="userSpaceOnUse">
		<stop  offset="0" style="stop-color:#190500;stop-opacity:0.85"/>
		<stop  offset="0.7669" style="stop-color:#190500"/>
	</radialGradient>
	<rect x="10" y="10" fill-rule="evenodd" clip-rule="evenodd" fill="url(#SVGID_1_)" width="220.001" height="213.9995"/>
</g>
<g>
	<path fill-rule="evenodd" clip-rule="evenodd" fill="#FE3A0C" d="M0,0v233.9995h240.001V0H0z M10,10h220.001v213.9995H10V10z"/>
</g>
<path fill-rule="evenodd" clip-rule="evenodd" fill="#FE3A0C" d="M87.25,161.9604c0,0.9902-0.33,1.2891-1.1552,1.2891H70.4053
	c-0.8252,0-1.1553-0.3301-1.1553-1.3203V54.4052c0-0.8252,0.3301-1.1552,1.1553-1.1552H125.23c0.9898,0,1.1548,0.33,1.3199,1.1552
	l1.6503,13.7749c0.1651,0.9898-0.33,1.3199-1.3203,1.3199H87.25v31.25h35.73c0.8277,0,1.02,0.165,1.02,1.1552v13.94
	c0,0.9902-0.33,1.1543-1.1552,1.1543H87.25V161.9604z M146.25,54.2402c0-0.6602,0.1641-0.9902,1.1543-0.9902h15.5254
	c0.9903,0,1.3203,0.33,1.3203,0.9902v89.7905c0,3.959,1.4844,5.4434,4.4551,5.4434c1.3203,0,1.8946-0.1641,2.7188-0.3301
	c0.6601,0,0.8261,0.166,0.8261,0.9902v11.7149c0,0.9902-0.166,1.3203-0.8261,1.6504c-2.1446,0.8261-5.209,1.1562-8.6739,1.1562
	c-8.746,0-16.5-3.3008-16.5-19.1406V54.2402z"/>
</svg>
