<?xml version="1.0" encoding="utf-8"?>
<!-- Generator: Adobe Illustrator 17.0.0, SVG Export Plug-In . SVG Version: 6.00 Build 0)  -->
<!DOCTYPE svg PUBLIC "-//W3C//DTD SVG 1.1//EN" "http://www.w3.org/Graphics/SVG/1.1/DTD/svg11.dtd">
<svg version="1.1" id="图层_1" xmlns="http://www.w3.org/2000/svg" xmlns:xlink="http://www.w3.org/1999/xlink" x="0px" y="0px"
	 width="500px" height="500px" viewBox="0 0 500 500" enable-background="new 0 0 500 500" xml:space="preserve">
<g id="Page-1" transform="translate(81.000000, 381.000000)">
	<path id="Fill-1" fill="#3681FC" d="M143.66,7.794c7.872,0,14.276,6.393,14.276,14.247c0,7.851-6.404,14.244-14.276,14.244
		c-7.868,0-14.272-6.393-14.272-14.244C129.388,14.186,135.792,7.794,143.66,7.794 M367.802-80.45
		c-7.872,0-14.276-6.393-14.276-14.247s6.404-14.247,14.276-14.247c7.865,0,14.269,6.393,14.269,14.247S375.667-80.45,367.802-80.45
		 M367.802-138.817c-24.37,0-44.202,19.796-44.202,44.12c0,4.74,0.79,9.455,2.345,14.039L179.941-3.075
		c-8.296-11.931-21.741-19.008-36.281-19.008c-16.846,0-32.204,9.622-39.634,24.664L-27.146-66.449
		c-13.855-7.275-24.228-30.057-23.129-50.794c0.57-10.816,4.317-19.213,10.018-22.456c3.621-2.049,7.976-1.872,12.592,0.545
		l0.877,0.458C7.963-120.417,121.714-60.609,126.5-58.39c7.392,3.413,11.503,4.795,24.092-1.163l235.134-122.071
		c3.444-1.299,7.461-4.594,7.461-9.598c0-6.945-7.19-9.684-7.211-9.684c-13.368-6.4-33.93-16.008-53.976-25.376
		c-42.855-20.032-91.429-42.734-112.76-53.884c-18.415-9.622-33.241-1.51-35.884,0.128l-5.134,2.538
		C82.219-230.109-46.26-166.592-53.572-162.148c-13.1,7.955-21.212,23.803-22.263,43.481c-1.638,31.192,14.304,63.711,37.088,75.642
		L99.956,28.381c3.124,21.602,21.751,37.779,43.704,37.779c24.144,0,43.833-19.431,44.195-43.45l152.763-82.642
		c7.747,6.042,17.347,9.355,27.185,9.355c24.367,0,44.198-19.793,44.198-44.12C412-119.021,392.169-138.817,367.802-138.817"/>
</g>
</svg>
