<?xml version="1.0" encoding="utf-8"?>
<!-- Generator: Adobe Illustrator 17.0.0, SVG Export Plug-In . SVG Version: 6.00 Build 0)  -->
<!DOCTYPE svg PUBLIC "-//W3C//DTD SVG 1.1//EN" "http://www.w3.org/Graphics/SVG/1.1/DTD/svg11.dtd">
<svg version="1.1" id="图层_1" xmlns="http://www.w3.org/2000/svg" xmlns:xlink="http://www.w3.org/1999/xlink" x="0px" y="0px"
	 width="32px" height="32px" viewBox="0 0 32 32" enable-background="new 0 0 32 32" xml:space="preserve">
<path fill="#FFFFFF" d="M16,0C7.16,0,0,7.16,0,16c0,7.08,4.58,13.06,10.94,15.18c0.8,0.14,1.1-0.34,1.1-0.76
	c0-0.38-0.02-1.64-0.02-2.98C8,28.18,6.96,26.46,6.64,25.56C6.46,25.1,5.68,23.68,5,23.3c-0.56-0.3-1.36-1.04-0.02-1.06
	c1.26-0.02,2.16,1.16,2.46,1.64c1.44,2.42,3.74,1.74,4.66,1.32c0.14-1.04,0.56-1.74,1.02-2.14c-3.56-0.4-7.28-1.78-7.28-7.9
	c0-1.74,0.62-3.18,1.64-4.3c-0.16-0.4-0.72-2.04,0.16-4.24c0,0,1.34-0.42,4.4,1.64c1.28-0.36,2.64-0.54,4-0.54s2.72,0.18,4,0.54
	c3.06-2.08,4.4-1.64,4.4-1.64c0.88,2.2,0.32,3.84,0.16,4.24c1.02,1.12,1.64,2.54,1.64,4.3c0,6.14-3.74,7.5-7.3,7.9
	c0.58,0.5,1.08,1.46,1.08,2.96c0,2.14-0.02,3.86-0.02,4.4c0,0.42,0.3,0.92,1.1,0.76C27.613,28.981,31.998,22.874,32,16
	C32,7.16,24.84,0,16,0z"/>
</svg>
