<?xml version="1.0" encoding="utf-8"?>
<!-- Generator: Adobe Illustrator 17.0.0, SVG Export Plug-In . SVG Version: 6.00 Build 0)  -->
<!DOCTYPE svg PUBLIC "-//W3C//DTD SVG 1.1//EN" "http://www.w3.org/Graphics/SVG/1.1/DTD/svg11.dtd">
<svg version="1.1"
	 id="Layer_1" xmlns:inkscape="http://www.inkscape.org/namespaces/inkscape" xmlns:svg="http://www.w3.org/2000/svg" xmlns:sodipodi="http://sodipodi.sourceforge.net/DTD/sodipodi-0.dtd" xmlns:rdf="http://www.w3.org/1999/02/22-rdf-syntax-ns#" xmlns:dc="http://purl.org/dc/elements/1.1/" xmlns:cc="http://creativecommons.org/ns#"
	 xmlns="http://www.w3.org/2000/svg" xmlns:xlink="http://www.w3.org/1999/xlink" x="0px" y="0px" width="512px" height="512px"
	 viewBox="0 0 512 512" enable-background="new 0 0 512 512" xml:space="preserve">
<g id="g4518" transform="translate(-866.20581,-605.4602)">
	<path id="path8-6" fill="#FFFFFF" d="M1147.848,1112.602c7.374-2.302,13.349-5.565,20.11-10.982
		c15.158-12.145,25.66-26.324,64.867-87.574c29.477-46.049,40.538-66.631,48.764-90.732c3.787-11.097,8.131-30.186,8.131-35.735
		c0-2.225-0.237-2.698-1.255-2.503c-1.819,0.346-5.63,6.402-7.006,11.134c-1.474,5.071-6.932,18.8-12.265,30.85
		c-6.858,15.497-18.853,35.804-37.189,62.958c-34.964,51.779-33.927,50.341-35.805,49.621c-0.993-0.381-1.001-0.75-0.076-3.37
		c1.28-3.627,6.972-13.353,14.476-24.734c3.121-4.734,7.718-12.454,10.215-17.156c2.497-4.702,6.112-10.957,8.033-13.899
		c2.43-3.723,3.492-6.085,3.492-7.768c0-1.33-0.351-2.419-0.781-2.419s-2.441,1.452-4.47,3.228
		c-3.343,2.924-6.285,4.349-5.133,2.485c0.253-0.409,5.643-6.622,11.978-13.807c18.1-20.527,23.964-29.119,27.519-40.319
		c2.025-6.38,3.2-17.573,1.845-17.573c-1.667,0-7.208,8.294-16.606,24.857c-5.321,9.377-10.836,18.514-12.254,20.304
		c-14.461,18.247-41.451,30.936-70.954,33.361c-2.958,0.243-9.712,1.267-15.008,2.275c-9.449,1.8-9.877,1.818-22.952,0.992
		c-15.303-0.967-22.57-2.231-24.785-4.311c-1.313-1.234-2.508-1.449-8.051-1.449c-7.936,0-15.395-1.357-26.135-4.755
		c-18.633-5.895-33.901-13.707-45.376-23.217c-8.811-7.302-11.973-11.835-22.238-31.885c-6.915-13.509-10.693-19.758-11.942-19.758
		c-2.028,0,2.84,16.012,7.582,24.942c7.435,13.998,14.799,23.142,33.516,41.613c26.712,26.36,32.188,30.273,51.271,36.634
		c16.093,5.364,24.859,6.548,48.51,6.549c14.949,0,14.96,0,17.111,1.813c1.736,1.46,2.624,1.723,4.586,1.354
		c1.575-0.295,2.434-0.176,2.434,0.336c0,0.436-1.984,3.458-4.409,6.715c-6.108,8.202-7.393,11.239-7.362,17.397
		c0.02,4.115,0.535,6.315,2.85,12.193c2.816,7.151,2.824,7.2,2.75,16.855c-0.07,9.068-0.283,10.48-3.356,22.235
		c-4.682,17.91-5.247,25.104-1.972,25.104C1141.272,1114.46,1144.574,1113.624,1147.848,1112.602L1147.848,1112.602z
		 M1108.461,1108.005c-0.085-2.564-1.479-9.988-3.098-16.497c-4.804-19.32-5.813-27.506-4.231-34.364
		c0.401-1.74,2.33-6.608,4.286-10.818c3.206-6.9,3.554-8.142,3.527-12.616c-0.034-5.705-1.499-10.326-4.703-14.836
		c-2.647-3.725-5.048-4.961-14.344-7.375c-3.854-1.001-10.74-3.398-15.303-5.327c-4.563-1.928-10.652-4.242-13.532-5.142
		c-6.3-1.967-7.87-1.463-7.341,2.357c0.355,2.567,0.34,8.845-0.046,18.189c-0.202,4.9,0.1,6.782,2.069,12.882
		c2.325,7.205,2.793,10.7,1.673,12.467c-1.663,2.624-5.785-3.122-10.466-14.59c-3.543-8.68-14.419-29.711-22.632-43.764
		c-6.492-11.108-18.169-29.716-33.974-54.14c-8.902-13.757-14.194-23.786-18.804-35.636c-5.638-14.495-11.407-23.895-14.666-23.895
		c-2.584,0-2.33,2.999,1.16,13.698c11.679,35.795,29.149,70.375,64.826,128.317c14.132,22.951,18.811,29.871,24.559,36.322
		c2.411,2.705,9.403,12.504,15.538,21.775c9.108,13.763,12.411,18.119,18.006,23.745c3.768,3.789,8.387,7.775,10.263,8.857
		c4.731,2.729,12.657,5.451,15.237,5.234l2.152-0.181L1108.461,1108.005L1108.461,1108.005z M1127.923,1065.884
		c-0.063-3.23-1.503-5.735-2.641-4.597c-0.39,0.39-0.464,2.257-0.173,4.372c0.399,2.9,0.762,3.64,1.69,3.451
		C1127.682,1068.932,1127.967,1068.115,1127.923,1065.884L1127.923,1065.884z M1144.833,979.439c0-0.493-0.641-1.865-1.419-3.048
		c-1.925-2.928-14.849-16.822-17.883-19.224c-2.348-1.86-2.53-1.892-4.304-0.772c-2.145,1.354-1.842,1.015-11.1,12.415
		c-4.851,5.973-6.864,8.971-6.361,9.474c0.734,0.734,17.719,1.734,33.002,1.943C1142.806,980.307,1144.836,980.11,1144.833,979.439
		L1144.833,979.439z M1186.107,952.051c20.504-4.967,31.421-11.721,43.076-26.647c5.458-6.991,11.048-15.897,11.048-17.605
		c0-1.349-0.726-1.48-15.417-2.787c-14.792-1.316-21.521-3.562-21.521-7.183c0-1.734,0.1-1.766,5.021-1.547
		c2.761,0.123,8.946,0.688,13.745,1.255c11.567,1.368,15.959,1.305,28.854-0.415c11.623-1.551,16.09-2.936,21.877-6.788
		c5.476-3.644,17.649-14.724,20.994-19.11c3.722-4.879,4.713-6.882,6.698-13.538c1.438-4.821,1.641-7.398,1.958-24.863l0.354-19.483
		l-4.205-0.467c-2.313-0.257-8.038-1.092-12.723-1.855c-10.352-1.686-12.689-1.712-17.303-0.188c-3.026,1-8.964,1.27-38.014,1.732
		c-18.935,0.3-37.171,0.769-40.524,1.043c-8.459,0.688-11.383-0.23-16.611-5.218c-2.304-2.197-4.189-4.375-4.189-4.839
		c0-1.874,4.446-7.321,7.677-9.405c8.618-5.559,21.099-12.657,24.647-14.017c9.633-3.694,26.543-4.584,38.684-2.036
		c12.225,2.565,23.579,9.084,29.048,16.678c3.524,4.893,4.166,5.303,10.32,6.598c2.707,0.57,6.011,1.666,7.343,2.437
		c2.884,1.669,11.549,4.394,13.972,4.394c1.703,0,1.717-0.065,1.717-7.558c0-8.598-1.085-36.593-2.181-56.277
		c-2.229-40.035-8.297-70.69-17.641-89.131c-9.72-19.181-31.076-30.543-73.062-38.868c-31.516-6.249-62.83-8.85-91.449-7.594
		c-68.549,3.007-112.981,13.349-134.021,31.193c-11.203,9.502-17.865,23.645-23.331,49.531c-7.136,33.8-9.659,60.868-10.261,110.097
		l-0.417,34.069l2.322,6.814c5.704,16.741,15.817,33.962,24.856,42.328c4.979,4.607,12.9,9.161,17.43,10.02
		c5.573,1.057,22.531,0.866,34.125-0.384c5.523-0.596,13.35-1.281,17.393-1.523c7.151-0.427,7.352-0.398,7.352,1.082
		c0,2.196-2.338,3.368-10.041,5.034c-15.639,3.382-19.004,3.839-27.767,3.766c-10.514-0.089-10.766,0.125-7.351,6.193
		c5.882,10.455,13.472,19.129,21.52,24.594c9.211,6.254,31.117,15.613,40.283,17.21c6.054,1.054,10.897-0.214,15.764-4.128
		c4.901-3.942,6.615-6.422,6.531-9.446c-0.059-2.137-0.693-3.15-3.692-5.91c-1.991-1.832-3.811-4.091-4.044-5.021
		c-0.233-0.93,0.073-4.756,0.682-8.504c1.886-11.624,1.053-19.677-1.987-19.22c-0.779,0.118-1.773,0.859-2.208,1.648
		c-0.435,0.789-1.828,2.916-3.097,4.725c-3.611,5.15-5.224,9.577-5.224,14.328c0,3.928-0.13,4.263-1.814,4.686
		c-1.321,0.331-2.593-0.085-4.682-1.532c-5.77-3.999-9.288-11.038-9.28-18.571c0.013-8.04,3.081-12.664,11.47-17.262
		c6.026-3.304,10.159-7.639,11.834-12.413c1.45-4.134,5.089-24.584,6.534-36.719c0.662-5.562,1.105-16.327,1.168-28.356l0.1-19.39
		l-5.693-11.011c-5.097-9.859-6.173-11.433-10.285-15.038c-2.526-2.215-8.335-7.362-12.91-11.438
		c-14.251-12.698-20.694-16.592-31.159-18.833c-10.129-2.168-14.815-4.443-14.815-7.193c0-2.644,4.358-3.743,12.91-3.254
		c17.046,0.973,27.23,6.401,51.102,27.237c17.178,14.993,21.125,19.83,26.152,32.047c1.217,2.959,2.876,8.123,3.687,11.476
		c2.881,11.923,3.108,17.631,2.296,57.641c-0.421,20.716-0.911,38.089-1.089,38.606c-1.304,3.783-5.427,34.525-5.464,40.732
		c-0.04,7.026,0.044,7.449,1.873,9.359c4.72,4.927,16.422,7.885,25.574,6.465c5.656-0.877,8.225-2.001,12.511-5.472
		c1.627-1.318,3.842-2.798,4.922-3.29c2.192-0.999,0.98-2.028,11.252,9.556C1166.967,953.935,1172.535,955.339,1186.107,952.051
		L1186.107,952.051z M1177.9,909.507c-1.078-5.071-4.434-12.223-6.763-14.412c-0.954-0.897-3.407-2.071-5.451-2.61
		c-2.044-0.539-4.182-1.367-4.751-1.84c-2.585-2.145,0.125-7.723,3.358-6.911c2.955,0.742,10.236,5.834,12.589,8.806
		c5.651,7.135,7.588,15.272,4.552,19.119c-0.856,1.085-1.805,1.973-2.108,1.973C1179.024,913.631,1178.382,911.776,1177.9,909.507
		L1177.9,909.507z M968.395,824.277c0-1.018,0.854-3.984,1.897-6.592c1.89-4.724,1.892-4.755,0.623-8.012
		c-0.701-1.798-1.427-4.136-1.613-5.194c-0.365-2.077-1.001-1.762,8.586-4.245c1.788-0.463,3.338-1.579,4.662-3.357
		c3.466-4.655,9.046-9.823,13.125-12.157c10.186-5.828,24.753-8.484,40.141-7.32c9.091,0.687,14.555,2.318,24.028,7.171
		c16.12,8.258,22.77,13.028,23.793,17.068c0.992,3.917-3.898,9.37-10.068,11.227c-4.801,1.445-16.632,2.371-46.223,3.62
		c-14.717,0.621-29.242,1.554-32.276,2.072c-10.909,1.865-22.001,4.785-23.494,6.184
		C969.542,826.645,968.395,826.478,968.395,824.277L968.395,824.277z M1153.205,784.766c-0.949-0.949-0.46-8.235,0.703-10.495
		c4.98-9.676,14.476-20.101,30.019-32.953c17.968-14.858,30.892-20.626,46.219-20.626c6.373,0,9.368,1.039,9.368,3.249
		c0,2.953-4.486,5.239-16.904,8.611c-8.827,2.398-10.906,3.444-17.982,9.055c-15.211,12.061-39.179,34.175-45.625,42.094
		C1157.798,785.182,1154.269,785.83,1153.205,784.766z M1088.986,753.496c-1.724-0.882-7.044-5.274-11.823-9.76
		c-10.349-9.714-14.586-12.695-25.144-17.694c-15.076-7.137-24.579-9.308-38.362-8.76c-14.344,0.571-21.18,3.667-32.339,14.649
		c-3.74,3.681-7.048,6.692-7.352,6.692c-1.996,0,2.006-7.91,7.445-14.718c7.379-9.234,19.495-17.243,30.375-20.076
		c8.055-2.097,18.928-2.85,27.81-1.924c21.007,2.19,38.6,10.074,53.094,23.794c8.879,8.404,11.789,14.965,9.844,22.19
		C1100.704,754.689,1095.513,756.837,1088.986,753.496L1088.986,753.496z M1154.961,753.949c-4.185-2.931-5.651-11.933-2.897-17.791
		c1.868-3.974,12.85-14.67,19.759-19.245c23.086-15.285,47.316-20.286,68.687-14.175c12.101,3.461,25.174,12.619,33.138,23.213
		c3.613,4.806,6.968,10.94,6.596,12.058c-0.129,0.388-3.595-2.371-7.7-6.132c-12.903-11.82-21.885-15.192-38.767-14.555
		c-20.101,0.757-33.999,7.226-58.814,27.373C1161.647,755.505,1158.958,756.748,1154.961,753.949L1154.961,753.949z"/>
</g>
</svg>
