<svg height="124" preserveAspectRatio="xMidYMid" viewBox="0 0 512 124" width="512" xmlns="http://www.w3.org/2000/svg"><path d="m188.431907.00086924c17.799136-.07753212 36.052388 5.02851223 49.886314 16.53649496 7.088641 5.7373776 12.814934 12.9367893 17.677299 20.6013938 8.750043-14.1440752 21.531748-26.1615548 37.292901-31.95431227 19.205789-7.2104878 40.914753-6.71206699 60.087312.35443257 16.746915 6.113962 31.389392 16.7690915 44.669518 28.4875187 10.38929 9.1709429 20.003261 19.2058153 30.702679 28.0334018 5.637685 4.5743955 11.696258 8.8608145 18.629836 11.2310822 9.215234 3.1455893 20.114019.1772164 26.704241-6.9225112 6.102878-6.6456108 5.726294-18.1314418-.99684-24.2010995-4.275337-3.6883141-11.585498-2.9462208-14.609247 1.9715311-2.647165 3.8987584-1.162979 8.7611304.908233 12.5380526-5.504773-4.0205945-11.020622-9.6250598-10.998471-16.9352318-1.140829-8.4510019 5.128189-15.9051619 12.637718-18.8624589 14.653552-5.8592135 33.028639-.8085493 42.277102 12.0950118 8.89403 12.0396318 9.602893 27.8672616 8.052253 42.2107051-1.871845 13.6235023-9.492135 26.3387708-20.789657 34.2248958-15.860834 11.319691-35.96378 14.830789-55.092034 14.587116-18.386165-.498421-36.584037-4.651928-53.618928-11.519059-28.487479-11.452602-55.147417-27.2802325-84.565279-36.4290233-9.757958-3.7879983-20.136172-5.8370617-30.569766-6.4683946-8.307001-.0553801-16.18204-.4430408-24.02385.0886081-9.569665.9193096-19.083952 2.8797648-28.044437 6.3908625-29.916283 9.3038553-56.974956 25.5302213-86.005158 37.0049763-24.511194 9.536452-51.6695514 13.966859-77.6870809 8.672522-14.553867-2.946221-29.0412782-9.381387-38.8656922-20.845066-8.40668582-9.7468956-12.43835068-22.794445-12.03961459-35.5761698-.4651921-12.0617838 2.18197246-24.8767368 10.15669419-34.2692002 7.4209215-8.9051185 19.3719282-13.4241339 30.8466665-12.4272923 7.3876935.3433566 14.8750712 3.5664778 19.4383843 9.5142995 3.5886247 4.7073077 3.8101447 11.1535503 2.2373523 16.6583313-1.9161483 4.9509802-5.8702812 8.8165104-10.1677702 11.7848833 2.1930485-3.69939 3.5221689-8.5839141.9303843-12.4494444-3.1898887-5.1503483-11.0427745-5.6709213-15.1962753-1.4398824-5.1171131 5.2611087-6.1914853 13.8560988-2.7579246 20.3023413 3.7215368 6.756371 11.4193585 10.6108253 18.873508 11.3972225 11.2753706.9746897 21.0554806-6.0142777 29.3292543-12.7928007 17.1234999-14.7421802 32.5412949-31.6109557 51.5366389-44.0825522 15.661468-10.5000652 34.114088-17.5997928 53.153736-17.51118466z" fill="#423426"/></svg>