<svg xmlns="http://www.w3.org/2000/svg" viewBox="0 0 240 234" enable-background="new 0 0 240 234"><radialGradient id="a" cx="-183.829" cy="512.474" r=".76" gradientTransform="matrix(220 0 0 -213 40525 109215)" gradientUnits="userSpaceOnUse"><stop offset="0" stop-color="#423325" stop-opacity=".98"/><stop offset="1" stop-color="#1C0A00"/></radialGradient><path fill="url(#a)" d="M10 10h220v214H10z"/><path fill="#FF7F18" d="M10 10h220v214H10V10zM0 234h240V0H0v234zM157.2 83.4c0-.8.3-1.2 1.2-1.2h15.7c.8 0 1.2.3 1.2 1.2v78.9c0 .8-.2 1.2-1.2 1.2h-15.5c-1 0-1.3-.5-1.3-1.3V83.4h-.1zm-1.1-22.7c0-6.4 4.5-10.2 10.2-10.2 6.1 0 10.2 4.1 10.2 10.2 0 6.6-4.3 10.2-10.4 10.2-5.8 0-10-3.6-10-10.2zm-45 55.6c-2.8-11.1-9.4-35.3-11.9-47H99c-2.1 11.7-7.4 31.5-11.6 47h23.7zm-27.8 16.2l-7.9 30c-.2.8-.5 1-1.5 1H59.2c-1 0-1.2-.3-1-1.5l28.4-99.4c.5-1.8.8-3.4 1-8.3 0-.7.3-1 .8-1h21c.7 0 1 .2 1.2 1l31.8 107.9c.2.8 0 1.3-.8 1.3H125c-.8 0-1.3-.2-1.5-.9l-8.2-30.1h-32z"/></svg>