<?xml version="1.0" encoding="utf-8"?>
<!-- Generator: Adobe Illustrator 17.0.0, SVG Export Plug-In . SVG Version: 6.00 Build 0)  -->
<!DOCTYPE svg PUBLIC "-//W3C//DTD SVG 1.1//EN" "http://www.w3.org/Graphics/SVG/1.1/DTD/svg11.dtd">
<svg version="1.1" id="图层_1" xmlns="http://www.w3.org/2000/svg" xmlns:xlink="http://www.w3.org/1999/xlink" x="0px" y="0px"
	 width="256px" height="256px" viewBox="0 -0.5 256 256" enable-background="new 0 -0.5 256 256" xml:space="preserve">
<g transform="translate(128.000000, 127.000000) scale(1, -1) translate(-128.000000, -127.000000) translate(0.000000, -1.000000)">
	<path fill="#8A4182" d="M118.267,149.666h19.795l4.918,6.733v52.728h-29.627v-52.733L118.267,149.666"/>
	<path fill="#8A4182" d="M105.509,126.149l6.115,18.717l-4.918,6.731L56.271,167.89l-9.154-28.015l50.439-16.296L105.509,126.149"/>
	<path fill="#8A4182" d="M124.06,106.813l-16.012,11.571l-7.959-2.573L68.92,73.152l23.967-17.314l31.172,42.661V106.813"/>
	<path fill="#8A4182" d="M148.285,118.386l-16.016-11.569l0.004-8.32l31.169-42.659l23.969,17.314l-31.175,42.663L148.285,118.386"
		/>
	<path fill="#8A4182" d="M144.702,144.87l6.118-18.719l7.958-2.569l50.435,16.293l-9.156,28.017l-50.436-16.296L144.702,144.87"/>
	<path fill="#8A4182" d="M128.171,254.894c-70.461,0-127.787-56.993-127.787-127.045C0.383,57.77,57.709,0.761,128.171,0.761
		c70.455,0,127.775,57.008,127.775,127.087C255.945,197.901,198.625,254.894,128.171,254.894L128.171,254.894L128.171,254.894z
		 M128.171,229.169c56.269,0,101.9-45.357,101.9-101.321c0-55.982-45.631-101.359-101.9-101.359
		c-56.288,0-101.913,45.377-101.913,101.359C26.258,183.812,71.883,229.169,128.171,229.169L128.171,229.169z"/>
	<path fill="#8A4182" d="M205.565,99.609l-38.338,12.388l2.535,7.765l38.338-12.388L205.565,99.609"/>
	<path fill="#8A4182" d="M156.669,160.81l-6.644,4.798l23.693,32.428l6.644-4.798L156.669,160.81"/>
	<path fill="#8A4182" d="M100.072,161.105l-23.69,32.43l6.644,4.798l23.69-32.428L100.072,161.105"/>
	<path fill="#8A4182" d="M50.608,100.093l-2.536,7.765l38.334,12.382l2.536-7.765L50.608,100.093"/>
	<path fill="#8A4182" d="M123.807,46.841h8.211v40.085h-8.211V46.841L123.807,46.841z"/>
</g>
</svg>
