<?xml version="1.0" encoding="utf-8"?>
<!-- Generator: Adobe Illustrator 17.0.0, SVG Export Plug-In . SVG Version: 6.00 Build 0)  -->
<!DOCTYPE svg PUBLIC "-//W3C//DTD SVG 1.1//EN" "http://www.w3.org/Graphics/SVG/1.1/DTD/svg11.dtd">
<svg version="1.1" id="图层_1" xmlns="http://www.w3.org/2000/svg" xmlns:xlink="http://www.w3.org/1999/xlink" x="0px" y="0px"
	 width="500px" height="500px" viewBox="0 0 500 500" enable-background="new 0 0 500 500" xml:space="preserve">
<g>
	<path fill="#304B84" d="M253.426,491.682c85.669-67.434,126.016-154.761,144.262-223.853
		c18.239-70.198,21.002-138.184,21.002-140.392v-3.87l-2.764-2.212C345.729,56.687,255.083,21.867,251.214,20.761l-2.216-1.106
		l-2.764,1.106c-3.87,1.106-92.306,35.926-164.158,100.597l-3.318,2.212v3.87c0,2.209,2.212,70.194,21.002,140.392
		c17.687,65.222,55.274,159.182,144.262,223.853l4.976,3.315L253.426,491.682L253.426,491.682z M249.001,481.179
		C103.637,367.874,94.24,186.025,94.24,157.835c53.062-39.796,139.286-69.092,154.761-73.509
		c14.927,4.421,101.703,33.714,154.206,73.509C403.208,186.025,390.496,367.874,249.001,481.179z"/>
	<path fill="#CBAC3B" d="M248.45,462.389l35.371-12.711c7.736-7.192,14.369-14.927,21.002-22.667l-56.373-8.842L248.45,462.389
		L248.45,462.389z M248.45,240.193l85.122-14.369l58.582,18.239c2.212-9.397,3.877-18.239,5.534-26.529l-64.116,8.291
		l-85.122-29.848L248.45,240.193L248.45,240.193z M302.06,104.226c-25.974-11.054-46.976-17.687-53.609-19.9v22.663L302.06,104.226z
		 M248.45,195.973l85.122-11.054l65.222,22.663c1.657-11.609,2.764-21.557,3.315-29.293l-68.537,6.078l-85.122-33.162
		L248.45,195.973L248.45,195.973z"/>
	<path fill="#CBAC3B" d="M248.45,284.965l85.122-17.687l49.189,13.266c2.212-7.739,4.428-15.479,6.078-22.663l-55.267,8.845
		l-85.122-26.533V284.965L248.45,284.965z M248.45,481.179c7.188-4.976,13.266-10.499,19.9-16.026l-19.9-2.764V481.179
		L248.45,481.179z M402.66,170.55c0.544-5.527,0.544-9.948,0.544-12.711c-7.732-6.078-16.581-11.605-25.423-17.132l-44.213,2.764
		l-85.122-36.481v44.216l85.122-7.736L402.66,170.55z M248.45,329.181l85.122-21.002l36.477,8.842
		c2.212-6.078,4.421-12.16,6.633-17.684l-43.107,8.842l-85.122-23.214v44.216H248.45L248.45,329.181z M248.45,418.169l82.358-26.529
		c0.551-0.551,1.106-1.106,1.106-1.657l-83.461-16.589v44.775H248.45L248.45,418.169z M248.45,373.394l85.122-23.766l19.345,3.87
		c2.212-3.315,3.87-6.633,5.527-9.948l-24.872,5.527l-85.122-19.896V373.394L248.45,373.394z"/>
	<path fill="#E0C13D" d="M192.621,427.011c6.078,7.736,13.266,15.475,20.451,22.667l35.375,12.711v-44.22L192.621,427.011z
		 M163.883,225.821l-64.116-8.291c1.223,8.919,2.884,17.773,4.976,26.529L163.883,225.821l84.567,14.369v-44.216L163.883,225.821z
		 M194.833,104.226l53.617,2.764V84.326C241.817,86.535,220.811,93.168,194.833,104.226L194.833,104.226z"/>
	<path fill="#E0C13D" d="M163.883,184.368l-69.092-6.078c0.551,8.291,1.657,18.239,3.318,29.293l65.773-22.663l84.567,11.054
		v-44.216L163.883,184.368z M163.883,266.722l-55.825-9.397c2.212,7.736,3.87,15.475,6.633,23.214l49.192-13.266l84.567,17.687
		v-44.768L163.883,266.722z M229.102,465.152c6.196,5.641,12.652,10.989,19.348,16.026v-18.79L229.102,465.152z M163.883,143.466
		l-44.22-2.764c-8.947,5.261-17.618,10.98-25.978,17.132c0,2.764,0.551,7.184,0.551,12.711L163.883,143.466l84.567,7.736v-44.213
		L163.883,143.466z M163.883,308.179l-43.114-8.842c2.212,5.527,4.425,11.605,6.633,17.684L163.883,308.179l84.567,21.002v-44.216
		L163.883,308.179z M164.986,389.982c0.551,0.551,0.551,1.106,1.106,1.657l82.358,26.529v-44.775L164.986,389.982L164.986,389.982z
		 M163.883,349.077l-24.872-5.527l4.976,9.948l19.9-3.87l84.567,23.766v-44.213L163.883,349.077z"/>
	<path fill="#C56C48" d="M248.45,106.989l-53.617-2.764c-23.214,9.397-50.85,22.108-75.17,36.481l44.22,2.764L248.45,106.989
		L248.45,106.989z M248.45,151.205l-84.567-7.736L94.24,170.554c0,2.212,0.551,4.976,0.551,7.739l69.092,6.078L248.45,151.205
		L248.45,151.205z M248.45,195.973l-84.567-11.054L98.11,207.582l1.657,9.952l64.116,8.291L248.45,195.973L248.45,195.973z
		 M248.45,240.193l-84.567-14.369l-59.14,18.239l3.315,13.266l55.825,9.397L248.45,240.193L248.45,240.193z M248.45,284.965
		l-84.567-17.687l-49.192,13.266c1.657,6.078,3.87,12.16,6.078,18.793l43.114,8.842L248.45,284.965L248.45,284.965z"/>
	<path fill="#C56C48" d="M248.45,329.181l-84.567-21.002l-36.481,8.842c3.404,9.04,7.279,17.895,11.609,26.529l24.872,5.527
		L248.45,329.181L248.45,329.181z M163.883,349.628l-19.9,3.87c6.078,12.16,13.263,24.324,21.002,36.484l83.464-16.589
		L163.883,349.628z M166.092,391.64c7.736,12.16,16.581,23.766,26.529,35.371l55.825-8.842L166.092,391.64z M213.076,449.677
		c4.976,4.968,10.499,10.499,16.026,15.475l19.348-2.764L213.076,449.677z"/>
	<path fill="#B76543" d="M333.568,143.466l44.213-2.764c-24.872-14.373-51.952-27.084-75.721-36.481l-53.609,2.764L333.568,143.466
		L333.568,143.466z M248.45,151.205l85.122,33.162l68.537-6.078c0.551-2.764,0.551-5.527,0.551-7.739l-69.092-27.084L248.45,151.205
		L248.45,151.205z M333.568,184.923l-85.122,11.054l85.122,29.848l64.116-8.291c0.551-3.318,1.106-6.633,1.106-9.952
		L333.568,184.923L333.568,184.923z M248.45,240.193l85.122,26.533l55.267-8.845c1.106-4.976,2.212-9.397,3.315-13.818
		l-58.582-18.239L248.45,240.193L248.45,240.193z M248.45,284.965l85.122,23.214l43.107-8.842c2.212-6.082,3.87-12.715,6.078-18.793
		l-49.189-13.266L248.45,284.965L248.45,284.965z"/>
	<path fill="#B76543" d="M248.45,329.181l85.122,19.896l24.872-5.527l11.605-26.529l-36.477-8.842L248.45,329.181L248.45,329.181z
		 M248.45,373.394l83.461,16.589c7.736-12.16,14.924-24.324,21.002-36.484l-19.345-3.87L248.45,373.394z M304.823,427.011
		c9.397-11.605,18.246-23.211,25.982-35.371l-82.358,26.529L304.823,427.011z M268.346,465.152
		c5.43-4.879,10.596-10.045,15.475-15.475l-35.371,12.711L268.346,465.152z"/>
	<path fill="#E0C13D" d="M245.132,31.815l0.551,8.842c-3.318-2.212-7.739-3.315-12.712-3.315c-2.212,0-4.972,0.551-7.736,1.661
		l0.551,5.523c2.764-1.657,4.976-1.657,7.736-1.657c7.188,0,12.16,5.527,12.16,12.711s-4.976,12.16-12.712,12.16
		c-2.764,0-5.527-0.551-7.184-1.106l-0.551,5.527c2.764,1.106,5.527,1.106,7.736,1.106c4.976,0,9.397-0.551,12.712-2.764
		l-0.551,7.736h3.318V31.815H245.132z"/>
	<path fill="#CBAC3B" d="M271.665,72.166v-5.527c-1.657,0.551-4.976,1.106-7.736,1.106c-7.736,0-12.16-4.976-12.16-12.16
		c0-7.188,4.421-12.711,12.16-12.711c2.212,0,4.421,0,7.184,1.657l0.551-5.523c-2.212-1.106-5.527-1.661-7.736-1.661
		c-4.976,0-8.842,1.106-11.605,2.764v-8.291h-3.87v46.429h3.87v-7.736c2.764,2.212,7.184,2.764,11.605,2.764
		C266.689,73.272,269.452,73.272,271.665,72.166L271.665,72.166z"/>
</g>
</svg>
