<?xml version="1.0" encoding="utf-8"?>
<!-- Generator: Adobe Illustrator 17.0.0, SVG Export Plug-In . SVG Version: 6.00 Build 0)  -->
<!DOCTYPE svg PUBLIC "-//W3C//DTD SVG 1.1//EN" "http://www.w3.org/Graphics/SVG/1.1/DTD/svg11.dtd">
<svg version="1.1"
	 id="svg2" xmlns:dc="http://purl.org/dc/elements/1.1/" xmlns:rdf="http://www.w3.org/1999/02/22-rdf-syntax-ns#" xmlns:svg="http://www.w3.org/2000/svg" xmlns:cc="http://creativecommons.org/ns#"
	 xmlns="http://www.w3.org/2000/svg" xmlns:xlink="http://www.w3.org/1999/xlink" x="0px" y="0px" width="500px" height="500px"
	 viewBox="-75 -50 500 500" enable-background="new -75 -50 500 500" xml:space="preserve">
<g id="g3854" transform="translate(-2.3121387,3.8535645)">
	<path id="path3040" fill="#F7DE9F" d="M167.614,437.36c-6.833-3.838-26.352-18.847-41.853-32.182
		c-25.727-22.133-48.288-46.509-68.473-73.982C13.849,272.07-13.014,203.289-24.76,121.115
		c-5.604-39.209-7.778-93.976-4.216-106.197C-26.72,7.181-21.589-0.023-15.1-4.563C-8.086-9.47,14.316-18.306,34.41-24.092
		c42.582-12.26,89.613-18.133,145.422-18.161c71.147-0.035,129.376,9.461,178.5,29.111C375.871-6.126,382.36-1.095,387.424,9.41
		l3.327,6.902l-0.079,30.196c-0.219,83.914-19.145,165.488-53.661,231.288c-8.798,16.771-29.595,49.21-39.885,62.21
		c-19.04,24.056-41.053,47.138-62.895,65.951c-14.749,12.704-36.575,29.265-42.625,32.343
		C184.169,442.084,175.414,441.741,167.614,437.36L167.614,437.36z M182.376,435.203c-1.141-0.304-3.009-0.304-4.15,0
		c-1.141,0.304-0.208,0.552,2.075,0.552C182.583,435.755,183.517,435.507,182.376,435.203z M135.247,405.384
		c0-0.251-0.934-1.202-2.075-2.114c-1.88-1.502-1.922-1.46-0.448,0.456C134.273,405.738,135.247,406.378,135.247,405.384
		L135.247,405.384z M128.133,399.407c0-0.216-1.467-1.711-3.26-3.322l-3.261-2.928l2.874,3.322
		C127.173,399.583,128.133,400.354,128.133,399.407z M111.534,383.495c-4.201-4.318-7.905-7.851-8.231-7.851
		c-0.326,0,2.844,3.533,7.045,7.851c4.201,4.318,7.905,7.851,8.231,7.851C118.905,391.346,115.735,387.813,111.534,383.495z
		 M93.749,365.377c-4.201-4.318-7.905-7.851-8.231-7.851c-0.326,0,2.844,3.533,7.045,7.851c4.201,4.318,7.905,7.851,8.231,7.851
		C101.121,373.228,97.95,369.695,93.749,365.377z M83.079,353.509c0-0.216-1.467-1.711-3.261-3.322l-3.261-2.928l2.874,3.322
		C82.119,353.686,83.079,354.457,83.079,353.509z M75.965,345.031c0-0.229-1.2-1.452-2.668-2.718l-2.668-2.301l2.259,2.718
		C75.011,345.284,75.965,345.998,75.965,345.031z M71.222,338.992c0-0.229-1.2-1.452-2.668-2.718l-2.668-2.301l2.259,2.718
		C70.268,339.245,71.222,339.958,71.222,338.992L71.222,338.992z M66.48,332.913c0-0.251-0.934-1.202-2.075-2.114
		c-1.88-1.502-1.922-1.46-0.448,0.456C65.506,333.268,66.48,333.908,66.48,332.913z M62.923,328.082
		c0-0.251-0.934-1.202-2.075-2.114c-1.88-1.502-1.922-1.46-0.448,0.456C61.949,328.436,62.923,329.076,62.923,328.082
		L62.923,328.082z M59.366,323.251c0-0.251-0.934-1.202-2.075-2.114c-1.88-1.502-1.922-1.46-0.448,0.456
		C58.392,323.605,59.366,324.245,59.366,323.251L59.366,323.251z M42.767,298.342c-0.698-1.329-1.536-2.416-1.862-2.416
		c-0.326,0-0.022,1.087,0.676,2.416c0.698,1.329,1.536,2.416,1.862,2.416S43.465,299.671,42.767,298.342z M39.21,292.303
		c-0.698-1.329-1.536-2.416-1.862-2.416s-0.022,1.087,0.676,2.416c0.698,1.329,1.536,2.416,1.862,2.416
		C40.212,294.719,39.908,293.632,39.21,292.303z M35.653,286.264c-0.698-1.329-1.536-2.416-1.862-2.416
		c-0.326,0-0.022,1.087,0.676,2.416c0.698,1.329,1.536,2.416,1.862,2.416S36.351,287.592,35.653,286.264z M24.729,265.176
		c-3.392-6.948-6.356-12.44-6.587-12.205c-0.525,0.535,11.392,24.838,12.179,24.838C30.638,277.809,28.121,272.124,24.729,265.176z
		 M14.456,243.174c-1.398-2.449-1.735-1.665-0.591,1.373c0.407,1.079,0.989,1.708,1.294,1.397
		C15.465,245.633,15.149,244.387,14.456,243.174z M128.355,34.209c-0.856-0.349-1.878-0.306-2.272,0.095
		c-0.394,0.401,0.306,0.687,1.556,0.634C129.02,34.881,129.301,34.595,128.355,34.209z M-20.805,11.419
		c0.405-1.075,0.206-1.56-0.466-1.137c-0.645,0.406-1.172,1.249-1.172,1.874C-22.443,13.894-21.593,13.511-20.805,11.419z
		 M383.045,12.219c0-0.591-1.106-2.357-2.458-3.925l-2.458-2.851l2.12,3.925C382.449,13.438,383.045,14.046,383.045,12.219z
		 M102.271-5.65c-0.856-0.349-1.878-0.306-2.272,0.095c-0.394,0.401,0.306,0.687,1.556,0.634
		C102.936-4.978,103.217-5.264,102.271-5.65z M153.624-7.24c1.18-1.329,1.879-2.416,1.553-2.416s-1.559,1.087-2.739,2.416
		s-1.879,2.416-1.553,2.416C151.211-4.825,152.444-5.912,153.624-7.24z M123.613-8.065c-0.856-0.349-1.879-0.306-2.272,0.095
		c-0.394,0.401,0.306,0.687,1.556,0.634C124.278-7.393,124.558-7.68,123.613-8.065z M265.889-31.014
		c-0.856-0.349-1.879-0.306-2.272,0.095c-0.394,0.401,0.306,0.687,1.556,0.634C266.554-30.342,266.835-30.629,265.889-31.014z
		 M256.404-32.222c-0.856-0.349-1.878-0.306-2.272,0.095c-0.394,0.401,0.306,0.687,1.556,0.634
		C257.069-31.55,257.35-31.836,256.404-32.222z M246.993-33.405c-0.815-0.335-2.149-0.335-2.964,0
		c-0.815,0.335-0.148,0.609,1.482,0.609C247.141-32.795,247.808-33.07,246.993-33.405z M129.541-34.638
		c-0.856-0.349-1.878-0.306-2.272,0.095c-0.394,0.401,0.306,0.687,1.556,0.634C130.206-33.966,130.487-34.252,129.541-34.638z
		 M233.336-34.65c-1.154-0.306-2.754-0.286-3.557,0.045c-0.803,0.331,0.141,0.581,2.097,0.557
		C233.832-34.073,234.489-34.343,233.336-34.65z M152.121-35.896c-2.131-0.269-5.332-0.263-7.114,0.012
		c-1.782,0.276-0.038,0.496,3.875,0.489C152.794-35.401,154.252-35.627,152.121-35.896z M214.96-35.896
		c-2.131-0.269-5.332-0.263-7.114,0.012c-1.782,0.276-0.038,0.496,3.875,0.489C215.633-35.401,217.091-35.627,214.96-35.896
		L214.96-35.896z"/>
	<path id="path3038" fill="#F9CE5C" d="M169.159,437.835c-21.23-11.356-70.822-56.298-96.616-87.556
		C6.899,270.729-25.852,174.611-30.298,48.463C-31.4,17.206-29.361,9.105-17.71-1.567C-2.823-15.202,55.8-32.158,107.977-37.921
		c96.897-10.702,189.918-0.655,256.358,27.689c18.57,7.922,25.775,18.469,26.752,39.158c0.641,13.57-1.464,54.143-3.939,75.944
		c-15.248,134.28-70.397,235.923-171.198,315.527c-21.128,16.685-26.158,19.642-34.247,20.135
		C176.255,440.863,173.854,440.347,169.159,437.835z M196.532,428.816c38.344-26.503,77.858-65.734,106.456-105.694
		c37.845-52.881,62.798-115.567,75.252-189.045c7.303-43.089,10.4-105.206,5.991-120.18c-2.596-8.818-10.592-15.133-27.989-22.107
		C305.558-28.526,236.207-38.997,165.48-37.012C101.158-35.206,49.212-25.924,4.655-8.276C-8.082-3.231-11.317-1.39-16.856,3.968
		c-6.384,6.175-6.55,6.507-8.006,16.023c-1.717,11.221-0.123,54.522,3.044,82.682c15.376,136.752,71.569,238.732,175.525,318.547
		c16.299,12.514,20.456,14.816,26.755,14.816C185.379,436.035,187.401,435.127,196.532,428.816z M168.422,429.805
		c-5.523-3.422-21.101-15.453-33.175-25.621C70.715,349.836,26.241,283.685,0.693,204.052
		c-9.827-30.632-17.223-66.645-21.331-103.867c-1.988-18.016-4.331-69.674-3.421-75.417c1.446-9.118,1.495-9.21,4.144-7.766
		c3.765,2.053,5.447-0.378,2.949-4.263c-1.538-2.392-1.699-3.648-0.707-5.535c6.491-12.356,65.895-31.255,119.13-37.902
		c25.721-3.211,45.918-4.316,78.969-4.319c63.849-0.006,112.011,6.782,158.158,22.291c20.856,7.009,33.43,12.615,36.797,16.404
		c2.097,2.361,2.102,2.619,0.117,6.043c-2.596,4.477-1.726,5.988,3.445,5.988c4.299,0,4.216-0.135,5.797,9.483
		c0.975,5.93-1.421,58.54-3.527,77.481c-9.711,87.298-36.938,161.673-81.661,223.07c-26.35,36.174-66.829,76.111-102.524,101.152
		l-8.493,5.958l-1.907-2.773c-1.62-2.356-2.635-2.674-6.743-2.112c-2.66,0.363-5.427,1.484-6.148,2.489
		C172.582,432.065,171.943,431.987,168.422,429.805L168.422,429.805z M142.869,279.534c2.086-2.126,2.495-5.349,0.677-5.349
		c-0.652,0-1.186,0.533-1.186,1.185s-1.334,1.526-2.964,1.943c-2.968,0.759-3.655,1.806-2.174,3.314
		C138.555,281.984,140.912,281.528,142.869,279.534z M111.534,263.848c0-0.293-0.534-0.533-1.186-0.533s-1.186,0.576-1.186,1.279
		s0.534,0.943,1.186,0.533S111.534,264.141,111.534,263.848z M194.388,253.606c-1.991-3.296-3.809-5.993-4.04-5.993
		s1.015,2.906,2.769,6.457s3.572,6.248,4.04,5.993C197.625,259.807,196.378,256.902,194.388,253.606z M214.091,233.121
		c0.421-0.694-0.412-1.079-1.961-0.906c-2.126,0.237-2.859-0.462-3.485-3.323c-0.74-3.381-0.802-3.417-0.933-0.544
		C207.499,233.008,212.08,236.436,214.091,233.121L214.091,233.121z M187.302,214.556c5.336-1.027,7.227-2.785,7.227-6.719
		c0-3.533-3.45-9.485-3.519-6.072c-0.021,1.024-2.394,4.218-5.274,7.097s-5.51,6.304-5.846,7.61
		c-0.546,2.127-0.402,2.191,1.383,0.617C182.368,216.124,185.082,214.984,187.302,214.556L187.302,214.556z M225.326,212.616
		c-7.854-1.033-10.579-2.397-14.663-7.342c-5.084-6.156-3.684-13.229,3.226-16.291l3.76-1.666l-4.223-0.047
		c-12.433-0.139-12.633,17.356-0.274,24.001c3.151,1.694,6.625,2.386,11.61,2.312l7.114-0.105L225.326,212.616L225.326,212.616z
		 M258.459,201.111c-0.052-1.329-0.363-1.736-0.692-0.906c-0.329,0.83-1.621,1.51-2.87,1.51s-2.272,0.408-2.272,0.906
		s1.334,0.906,2.964,0.906C257.794,203.527,258.529,202.908,258.459,201.111L258.459,201.111z M132.234,194.112
		c1.983-3.093,4.854-5.98,6.379-6.415c3.243-0.925,11.248,1.42,15.889,4.655c4.662,3.25,10.708,4.028,12.661,1.631
		c0.865-1.061,2.974-1.947,4.688-1.968c2.995-0.037,3.027-0.107,0.814-1.812c-1.428-1.1-5.029-1.78-9.485-1.791
		c-8.72-0.022-12.527-1.81-14.949-7.022l-1.837-3.953l-2.248,2.53c-3.186,3.587-6.953,2.707-7.728-1.804l-0.622-3.624l-3.665,5.435
		c-5.193,7.7-7.555,12.718-7.555,16.044C124.576,202.402,127.363,201.708,132.234,194.112L132.234,194.112z M203.717,180.045
		c1.213-0.29-0.141-8.287-2.048-12.095c-1.787-3.568-3.267-4.867-6.225-5.463c-11.663-2.349-14.544-5.939-13.47-16.782
		c0.818-8.257,0.737-8.45-5.608-13.269c-2.49-1.892-5.11-4.742-5.822-6.334c-1.695-3.791-3.404-3.656-11.557,0.91
		c-9.563,5.356-10.445,7.212-6.097,12.836c1.931,2.497,3.836,6.779,4.284,9.63c0.451,2.867,1.462,5.133,2.291,5.133
		c2.189,0,4.236,5.436,4.236,11.25c0,4.297,0.818,6.049,5.21,11.164l5.21,6.067l14.649-1.488
		C196.829,180.785,203.554,180.084,203.717,180.045L203.717,180.045z M229.441,170.858c-1.607-4.349-4.538-14.269-6.514-22.043
		c-2.087-8.214-5.854-18.815-8.993-25.307c-5.125-10.6-6.613-12.485-8.021-10.163c-0.782,1.289,5.435,16.902,9.909,24.885
		c1.884,3.362,4.833,11.82,6.554,18.795c1.801,7.302,4.423,14.604,6.179,17.212c1.678,2.491,3.221,4.529,3.43,4.529
		C232.192,178.766,231.048,175.208,229.441,170.858z M201.346,108.321c-6.146-5.126-3.023-8.895,4.484-5.411
		c2.395,1.112,2.989,2.108,2.574,4.319c-0.348,1.856-0.132,2.459,0.61,1.703c2.128-2.167,0.365-5.64-3.955-7.792
		c-7.769-3.87-11.755,0.686-5.669,6.478c2.028,1.93,4.032,3.49,4.452,3.466C204.263,111.06,203.139,109.817,201.346,108.321z
		 M250.907,100.9c0.945-2.304,1.716-5.429,1.714-6.945c-0.006-3.693-3.965-10.11-7.342-11.902l-2.731-1.449l2.52,2.882
		c5.52,6.313,6.547,11.797,3.378,18.039c-1.121,2.209-1.324,3.564-0.532,3.564C248.614,105.089,249.962,103.204,250.907,100.9z
		 M163.922,72.443c-5.253-3.262-4.883-7.782,0.965-11.793c3.325-2.281,5.387-2.769,10.376-2.455
		c4.244,0.267,6.226-0.067,6.225-1.048c-0.001-0.792,2.533-2.258,5.63-3.259l5.632-1.819l-7.114,0.634
		c-10.893,0.97-18.624,3.594-23.659,8.028c-3.864,3.403-4.452,4.531-3.782,7.254c0.437,1.773,2.255,4.031,4.04,5.018
		C167.099,75.691,168.438,75.247,163.922,72.443L163.922,72.443z M8.215,42.583c-0.394-23.721-0.381-23.861,2.257-25.047
		c3.945-1.773,3.213-3.108-0.903-1.646l-3.557,1.263v24.642c0,17.063,0.4,24.642,1.3,24.642C8.224,66.438,8.493,59.32,8.215,42.583z
		 M203.818,65.379c1.227-0.793,1.087-1.154-0.628-1.611c-1.216-0.324-2.882,0.144-3.704,1.04c-1.217,1.327-1.1,1.626,0.628,1.611
		C201.281,66.409,202.947,65.941,203.818,65.379z M350.761,17.032c1.819,0.7,2.717,0.742,2.05,0.096
		c-0.652-0.631-2.386-1.518-3.853-1.969l-2.668-0.821l0.27,25.144l0.27,25.144l0.347-24.419l0.347-24.419L350.761,17.032
		L350.761,17.032z M29.132,52.855c0.776-0.775,0.162-0.878-1.778-0.299c-4.636,1.383-10.671,4.034-10.671,4.687
		C16.683,58.129,27.761,54.224,29.132,52.855z M40.506,29.726c5.046-22.248,5.266-22.862,8.757-24.411l3.581-1.59L49.73,3.678
		c-1.713-0.026-3.65,0.632-4.303,1.463c-1.18,1.5-12.214,47.891-12.07,50.746C33.516,59.045,35.518,51.719,40.506,29.726z
		 M328.65,51.128c-1.398-2.449-1.735-1.665-0.591,1.373c0.407,1.079,0.989,1.708,1.294,1.397
		C329.659,53.587,329.342,52.341,328.65,51.128z M312.489,5.132c1.597,0.311,2.621,0.1,2.276-0.468
		c-0.345-0.568-1.929-1.033-3.521-1.033h-2.894l0.27,24.459l0.27,24.459l0.348-23.991l0.348-23.991
		C309.586,4.566,312.489,5.132,312.489,5.132z M56.336,45.368c-0.446-2.424-1.078-4.135-1.404-3.803s-0.228,2.587,0.219,5.011
		c0.446,2.424,1.078,4.135,1.404,3.803C56.881,50.047,56.782,47.792,56.336,45.368z M71.592,23.988
		C71.814,0.743,71.83,0.609,74.483,0.225c1.467-0.212,2.668-0.955,2.668-1.651c0-0.722-1.145-0.952-2.668-0.536
		c-1.467,0.401-3.068,0.736-3.557,0.745c-0.489,0.009-0.889,11.249-0.889,24.978s0.3,24.656,0.666,24.283
		C71.069,47.671,71.47,36.846,71.592,23.988z M296.222,0.869c2.981-0.461,2.933-0.515-0.618-0.682l-3.853-0.181l0.27,24.459
		l0.27,24.459l0.348-23.777l0.348-23.777L296.222,0.869L296.222,0.869z M84.378,34.473c-1.667-4.921-3.218-8.758-3.446-8.526
		c-0.228,0.232,0.815,4.789,2.317,10.126c1.502,5.337,3.052,9.174,3.446,8.526C87.088,43.951,86.045,39.394,84.378,34.473z
		 M276.023,29.297c-0.244-3.155-0.444-0.574-0.444,5.737s0.2,8.893,0.444,5.737C276.268,37.616,276.268,32.452,276.023,29.297z
		 M98.492,30.605c0-7.086-0.195-12.657-0.434-12.38c-1.017,1.179-1.626,25.264-0.64,25.264
		C98.009,43.489,98.492,37.691,98.492,30.605z M115.091,17.523V-5.884l5.317-0.812c2.924-0.447,7.192-0.589,9.484-0.317
		c2.292,0.273,3.717,0.037,3.166-0.524c-0.55-0.561-5.218-0.859-10.373-0.663l-9.373,0.356l-0.321,25.149
		c-0.215,16.875,0.077,24.899,0.889,24.387C114.636,41.217,115.091,32.139,115.091,17.523L115.091,17.523z M258.282-4.945
		l3.235-0.12l-2.964-0.897c-1.63-0.493-3.364-0.679-3.853-0.412c-0.489,0.267-0.768,11.459-0.619,24.872l0.27,24.387l0.348-23.855
		l0.348-23.855C255.046-4.825,258.282-4.945,258.282-4.945z M334.174,11.31c3.15,0.66,3.143,0.638-0.333-0.972l-3.557-1.647
		l-0.593,14.681c-0.326,8.075-0.326,15.497,0,16.493c0.326,0.996,0.743-5.173,0.926-13.71l0.333-15.522
		C330.949,10.634,334.174,11.31,334.174,11.31z M152.591,34.998c-3.663-4.434-4.866-9.851-4.745-21.365
		c0.104-9.876,2.879-18.729,6.733-21.48c1.395-0.995,4.685-1.826,7.311-1.846c3.941-0.03,4.398-0.26,2.614-1.317
		c-2.97-1.76-7.867-0.305-11.798,3.505c-8.356,8.098-9.2,34.514-1.377,43.113C155.236,39.902,156.24,39.416,152.591,34.998z
		 M194.447-9.477c5.144,0.238,8.734,0.032,7.978-0.459c-0.756-0.49-5.243-0.9-9.971-0.91l-8.596-0.018l0.27,25.063l0.27,25.063
		l0.347-24.585l0.347-24.585L194.447-9.477L194.447-9.477z M202.235,31.411c-1.111-3.408-2.287-5.924-2.613-5.592
		c-0.326,0.332,0.316,3.392,1.427,6.8s2.287,5.924,2.613,5.592S203.346,34.818,202.235,31.411z M131.782,33.137
		c2.807-2.588,3.048-9.95,0.435-13.272c-1.781-2.265-1.801-2.255-0.593,0.294c3.105,6.548,0.121,13.651-5.75,13.686
		c-1.692,0.01-3.877,0.597-4.855,1.304c-1.329,0.961-0.481,1.134,3.353,0.688C127.194,35.508,130.528,34.293,131.782,33.137
		L131.782,33.137z M221.027,32.316c-2.663-5.182-3.578-22.094-1.587-29.339c2.035-7.403,7.176-11.787,13.144-11.207
		c2.435,0.237,4.175,0.013,3.865-0.498c-0.31-0.51-2.707-0.928-5.327-0.928c-5.858,0-10.84,4.516-12.762,11.57
		c-2.139,7.848-1.591,23.301,1.035,29.195c1.258,2.823,2.594,5.133,2.969,5.133C222.738,36.242,222.137,34.475,221.027,32.316
		L221.027,32.316z M52.042,33.984c1.289-0.833,1.241-2.065-0.273-6.927l-1.842-5.914l0.67,5.507
		c0.599,4.917,0.374,5.652-2.098,6.863c-2.514,1.232-2.551,1.362-0.397,1.42C49.407,34.969,51.179,34.541,52.042,33.984z
		 M238.355,32.698c0.675-1.285,1.219-3.051,1.21-3.925c-0.01-0.874-0.705-0.23-1.545,1.43c-1.234,2.439-2.364,2.994-5.879,2.885
		c-2.394-0.074-4.068,0.333-3.72,0.906C229.692,36.089,237.08,35.125,238.355,32.698z M167.554,28.995
		c1.486-3.029,2.073-7.137,2.073-14.494c0-12.908-2.302-18.538-7.804-19.085c-2.175-0.216-4.253,0.367-5.126,1.438
		c-1.286,1.578-1.003,1.624,2.279,0.364c3.38-1.297,3.963-1.167,5.95,1.331c4.297,5.402,4.644,24.86,0.558,31.214
		c-1.552,2.413-2.742,2.986-5.381,2.591c-1.864-0.279-3.1-0.031-2.747,0.551s2.325,0.891,4.384,0.687
		C164.66,33.303,165.935,32.296,167.554,28.995z M98.084-3.627c0.55-0.529,2.068-1.224,3.372-1.544
		c1.595-0.391,1.16-0.627-1.328-0.721l-3.7-0.14L92.711,6.952c-2.045,7.141-3.684,13.8-3.644,14.796
		c0.04,0.996,1.861-4.089,4.045-11.3C95.296,3.236,97.534-3.098,98.084-3.627z M239.954,16.597l6.15-0.441l-6.817-0.223
		c-6.735-0.221-6.815-0.183-6.656,3.098c0.134,2.756,0.248,2.869,0.667,0.664C233.728,17.439,234.733,16.971,239.954,16.597z
		 M138.26,16.997c-0.43-0.709-1.349-1.288-2.042-1.288c-0.786,0-0.696,0.693,0.239,1.841C138.082,19.546,139.536,19.1,138.26,16.997
		z M276.338,7.123v-9.794l3.26,0.772c2.419,0.572,2.802,0.455,1.482-0.454c-0.978-0.674-2.712-1.234-3.853-1.245
		c-1.805-0.016-2.075,1.24-2.075,9.655v9.673l-6.225-0.475c-4.845-0.37-5.305-0.276-2.075,0.422
		C276.618,17.787,276.338,18.04,276.338,7.123L276.338,7.123z M130.57,11.066c3.375-2.784,3.634-9.096,0.493-12.022
		c-2.024-1.885-2.083-1.887-0.71-0.021c1.932,2.625,1.266,9.528-1.035,10.726c-0.978,0.509-3.646,1.46-5.928,2.112l-4.15,1.186
		l4.315,0.123C126.136,13.243,128.956,12.398,130.57,11.066L130.57,11.066z M202.828,9.67c2.836-2.889,3.098-8.75,0.508-11.388
		c-2.694-2.745-3.311-2.33-1.168,0.786c4.123,5.996,1.529,10.497-6.853,11.893l-4.936,0.822l5.039,0.151
		C199.017,12.042,201.134,11.395,202.828,9.67L202.828,9.67z M237.928,1.542c-0.394-0.401-0.674,0.312-0.623,1.585
		c0.057,1.407,0.338,1.693,0.716,0.73C238.364,2.985,238.322,1.943,237.928,1.542L237.928,1.542z"/>
	<path id="path3036" fill="#D8A016" d="M170.214,438.094c-14.26-6.928-51.585-38.364-76.477-64.41
		C25.816,302.615-12.082,218.55-25.99,108.108c-1.848-14.676-4.731-58.835-4.742-72.645C-30.751,13.076-23.747-0.58-8.455-7.972
		C7.921-15.887,40.769-26.19,65.887-31.289c43.881-8.908,105.309-12.856,151.762-9.752c52.045,3.477,91.219,10.792,128.961,24.082
		c26.964,9.495,35.047,14.977,41.044,27.837c3.074,6.592,3.096,6.847,2.877,33.215c-0.9,108.34-29.028,203.907-82.39,279.926
		c-25.078,35.725-60.622,72.198-98.912,101.497C188.77,441.17,181.421,443.539,170.214,438.094L170.214,438.094z M196.004,429.611
		c27.947-19.005,71.939-60.431,93.868-88.39c23.519-29.987,48.531-73.266,61.079-105.686
		c19.291-49.841,30.108-100.853,34.45-162.454c1.45-20.573,1.514-49.109,0.124-55.204c-0.698-3.061-0.603-4.617,0.3-4.923
		c1.738-0.59-2.266-6.907-4.379-6.907c-0.849,0-2.838-1.413-4.419-3.139c-11.154-12.182-68.542-29.29-120.845-36.027
		c-38.008-4.895-101.947-5.507-139.905-1.339C57.908-28.049-4.345-10.356-16.993,3.419c-1.893,2.062-3.833,3.502-4.312,3.201
		c-6.129-3.859-6.056,53.56,0.133,103.3c13.59,109.233,52.561,193.762,121.987,264.593c24.481,24.977,54.254,50.077,70.264,59.239
		C179.676,438.671,183.653,438.01,196.004,429.611L196.004,429.611z M173.618,423.537c-2.698-1.599-10.392-7.141-17.099-12.315
		c-6.707-5.174-12.896-9.408-13.754-9.408c-0.858,0-3.301-1.579-5.428-3.509l-3.868-3.509l4.446,3.25
		c5.979,4.37,5.653,3.148-0.504-1.893c-2.723-2.229-4.559-3.407-4.08-2.618c1.975,3.255-1.476,1.09-5.846-3.668
		c-2.578-2.806-3.353-4.034-1.723-2.727c1.63,1.306-5.855-6.86-16.635-18.148c-19.003-19.9-37.174-41.795-49.108-59.174
		c-6.8-9.903-8.595-12.023-6.646-7.851l1.41,3.02l-2.43-3.02c-1.336-1.661-2.179-3.727-1.872-4.592
		c0.307-0.865,0.053-1.255-0.563-0.866c-1.186,0.747-5.107-5.884-4.092-6.918c0.326-0.332-2.033-5.529-5.243-11.548
		c-8.511-15.958-15.07-30.076-22.691-48.847c-3.709-9.134-7.062-16.282-7.452-15.884s-0.432-0.554-0.094-2.115
		c0.402-1.853,0.249-2.316-0.442-1.335c-1.5,2.13-5.502-9.616-4.505-13.219c0.62-2.24,0.511-2.427-0.566-0.965
		c-1.039,1.41-1.172,0.875-0.599-2.416c0.582-3.341,0.45-3.848-0.633-2.416c-1.161,1.536-1.263,1.476-0.667-0.395
		c0.386-1.213-0.6-7.464-2.191-13.89c-7.713-31.15-15.755-86.582-16.152-111.33c-0.061-3.808-0.358-4.732-0.99-3.084
		c-0.836,2.177-0.96,2.133-1.679-0.604c-0.427-1.625-0.783-5.808-0.792-9.296c-0.025-9.612-2.347-8.375-3.969,2.114
		c-0.257,1.661-0.531-5.133-0.61-15.098c-0.079-9.965,0.249-18.661,0.728-19.325c0.479-0.664,2.464-1.208,4.412-1.208
		c4.266,0,5.132-2.61,2.589-7.803c-1.661-3.391-1.589-3.743,1.395-6.828C-11.295,0.965-0.124-4.871,6.012-6.528
		c2.864-0.773,2.854-0.736-0.296,1.094c-1.793,1.042-3.26,2.421-3.26,3.064c0,1.497-0.033,1.5,5.928-0.642
		c6.007-2.159,7.533-2.271,6.443-0.475c-0.529,0.872-0.039,1.09,1.412,0.625c25.518-8.18,47.367-13.643,70.397-17.6
		c10.907-1.874,18.514-3.679,17.192-4.078c-1.304-0.394,0.296-0.445,3.557-0.113c4.529,0.461,5.508,0.287,4.15-0.741
		c-1.354-1.024-0.222-1.203,4.743-0.752c3.587,0.326,17.992,0.125,32.012-0.446c47.271-1.927,66.996-2.348,65.52-1.397
		c-0.808,0.52,6.449,1.609,16.125,2.42c21.497,1.802,54.252,6.567,71.979,10.472c7.244,1.596,14.457,2.61,16.029,2.255
		c2.336-0.528,2.533-0.392,1.079,0.746c-1.466,1.147-1.327,1.263,0.788,0.66c3.067-0.874,8.926,0.427,8.094,1.798
		c-0.322,0.531,0.565,0.66,1.972,0.285c1.863-0.496,2.306-0.266,1.632,0.846c-0.69,1.138-0.246,1.307,1.742,0.665
		c1.707-0.552,2.398-0.417,1.918,0.374c-0.431,0.71,1.905,2.131,5.483,3.336c11.837,3.985,25.215,10.342,28.57,13.578
		c7.041,6.789,7.327,8.204,7.064,34.968c-0.204,20.76-2.502,57.661-4.53,72.755c-0.638,4.747-0.278,3.934,3.205-7.247
		c1.345-4.318,2.906-8.44,3.469-9.16c0.563-0.72,1.536-4.253,2.164-7.851c1.082-6.206,1.108-6.077,0.517,2.517
		c-4.148,60.292-24.632,132.076-52.154,182.767c-23.419,43.134-57.262,85.837-90.574,114.285l-7.69,6.567l5.394-5.963
		c2.967-3.28,6.263-7.938,7.325-10.352c1.062-2.414,3.677-6.49,5.81-9.059l3.879-4.67l-4.09,3.689
		c-2.249,2.029-7.558,6.886-11.797,10.794c-9.267,8.544-33.279,28.162-44.079,36.013
		C183.297,426.646,180.011,427.327,173.618,423.537L173.618,423.537z M143.546,280.225c5.029-5.124,2.003-8.751-3.828-4.589
		c-2.133,1.523-4.088,2.893-4.344,3.046c-0.962,0.573,2.602,3.959,4.167,3.959C140.44,282.64,142.242,281.553,143.546,280.225z
		 M112.265,262.066c0.097-1.97-0.204-3.583-0.67-3.583c-1.61,0-3.931,5.884-3.144,7.971
		C109.588,269.474,112.039,266.654,112.265,262.066z M199.147,261.34c2.174-1.104,2.394-1.603,1.069-2.425
		c-0.917-0.569-2.804-2.937-4.192-5.262c-3.132-5.245-7.454-10.035-8.288-9.185c-0.344,0.351,1.111,3.395,3.234,6.766
		c3.185,5.056,3.751,6.952,3.239,10.84c-0.685,5.206,0.522,7.9,1.551,3.46C196.117,263.992,197.641,262.105,199.147,261.34
		L199.147,261.34z M262.092,259.389c-0.01-0.83-0.477-2.247-1.037-3.149c-1.303-2.094-3.018,0.336-2.051,2.904
		C259.812,261.292,262.117,261.474,262.092,259.389z M214.684,233.032c0-0.57-1.067-1.618-2.371-2.329
		c-1.304-0.711-2.371-2.089-2.371-3.062c0-0.973-0.534-1.769-1.186-1.769c-2.031,0-1.335,7.042,0.818,8.269
		C211.726,235.368,214.684,234.726,214.684,233.032L214.684,233.032z M121.342,216.209l0.646-6.643l-1.836,4.227
		c-1.01,2.325-2.028,6.945-2.262,10.267c-0.419,5.944-0.4,5.982,1.19,2.416C119.968,224.483,120.986,219.863,121.342,216.209z
		 M183.616,223.879c0.298-2.04,1.23-2.395,6.098-2.321c6.65,0.101,10.172-2.371,11.383-7.988c0.588-2.728,0.173-4.251-1.719-6.302
		c-1.372-1.488-4.561-6.921-7.087-12.073c-5.2-10.607-4.993-11.056,4.659-10.111c3.233,0.316,5.878,0.199,5.878-0.261
		c0-1.585,6.05-3.64,10.716-3.64c3.393,0,5.083,0.663,6.158,2.416c0.814,1.329,2.286,2.399,3.271,2.379
		c1.419-0.029,1.36-0.292-0.285-1.268c-3.689-2.189-2.197-3.653,1.655-1.624c2.875,1.515,3.35,2.209,2.075,3.032
		c-1.212,0.782-0.861,1.063,1.309,1.05c2.96-0.017,2.959-0.021-0.908-3.605c-2.956-2.739-5.008-3.588-8.674-3.588
		c-2.641,0-5.834-0.563-7.095-1.25c-2.813-1.533-3.175-5.392-0.405-4.309c1.039,0.406,3.306,1.046,5.039,1.421l3.15,0.683
		l-2.964-2.655c-1.63-1.46-4.431-3.182-6.225-3.826c-3.91-1.404-4.254-4.261-0.675-5.61c2.436-0.918,2.385-1.017-0.889-1.709
		c-2.23-0.471-4.218-2.09-5.549-4.518c-1.827-3.334-2.503-3.688-5.68-2.977c-4.05,0.906-9.438-1.874-9.438-4.87
		c0-0.981,1.123-2.928,2.496-4.327l2.496-2.543l-2.289-7.422c-2.192-7.105-2.569-7.559-8.852-10.642
		c-9.735-4.776-10.071-8.77-1.253-14.874c5.335-3.693,9.519-3.84,15.838-0.556c5.129,2.666,8.163,7.95,8.163,14.218
		c0,2.336,2.138,6.449,6.443,12.395c6.681,9.227,9.449,16.275,8.772,22.332c-0.321,2.872-1.054,3.625-3.951,4.064
		c-3.127,0.474-2.912,0.62,1.778,1.208c4.461,0.559,5.633,1.275,7.152,4.37c2.439,4.969,8.232,12.368,8.248,10.536
		c0.007-0.806-1.099-4.339-2.459-7.851c-1.36-3.512-4.312-13.452-6.561-22.088c-2.363-9.074-6.199-20.007-9.088-25.9
		c-2.749-5.609-5.177-10.637-5.394-11.172c-0.217-0.536,0.698-0.974,2.034-0.974c3.93,0,10.606,6.981,15.675,16.389
		c4.986,9.254,9.001,12.993,13.287,12.372c2.238-0.325,2.568-1.07,2.385-5.391c-0.246-5.8-4.12-14.256-7.522-16.42
		c-3.454-2.197-2.865-3.325,1.736-3.325c4.094,0,6.44-1.621,4.298-2.97c-0.63-0.397-5.113-1.755-9.961-3.018
		c-4.848-1.263-14.213-4.817-20.81-7.898c-7.281-3.4-12.868-5.319-14.218-4.882c-1.223,0.395-5.103,3.285-8.622,6.422
		c-9.722,8.664-17.407,14.046-25.906,18.14c-14.26,6.87-17.192,11.705-20.622,34.005c-1.068,6.942-2.37,12.921-2.893,13.286
		c-2.227,1.552-13.444,17.548-15.048,21.457c-2.108,5.139-2.189,7.7-0.372,11.762c1.715,3.834,6.091,4.091,8.559,0.502
		c2.743-3.99,5.504-2.147,4.666,3.115c-0.445,2.797-0.217,4.291,0.657,4.291c2.1,0,6.123-4.633,8.003-9.217
		c2.25-5.487,4.436-6.155,9.898-3.028c5.695,3.261,12.36,3.336,16.293,0.183c1.647-1.32,3.428-2.126,3.958-1.792
		c1.291,0.813,2.907-1.879,2.907-4.845c0-3.258,3.686-3.766,5.282-0.727c0.956,1.821,0.912,3.082-0.172,4.849
		c-2.097,3.421-0.187,4.595,3.742,2.297l3.365-1.967l0.503,4.386c0.451,3.936-0.079,4.964-5.164,10.009
		c-6.261,6.212-7.958,10.557-5.911,15.133C180.519,227.681,183.091,227.478,183.616,223.879L183.616,223.879z M137.618,198.616
		c0-3.589,1.937-7.772,3.599-7.772c1.642,0,1.414,7.697-0.279,9.421C138.714,202.532,137.618,201.987,137.618,198.616z
		 M153.609,182.806c-1.079-1.1-2.443-3.288-3.031-4.862c-1.561-4.183-4.337-4.74-7.681-1.54c-3.502,3.352-4.86,2.44-3.17-2.128
		c0.684-1.848,1.881-8.475,2.661-14.725c2.226-17.847,7.281-20.789,11.331-6.595c1.018,3.566,2.613,7.261,3.545,8.211
		c0.932,0.949,1.695,3.906,1.695,6.57c0,3.916,0.909,5.914,4.743,10.426c2.608,3.07,4.743,5.821,4.743,6.113
		c0,0.292-2.896,0.53-6.436,0.53C157.6,184.806,154.954,184.176,153.609,182.806L153.609,182.806z M201.05,106.923
		c-2.856-2.397-3.228-3.207-1.886-4.11c3.283-2.21,10.578,2.63,8.258,5.478C205.637,110.482,205.171,110.382,201.05,106.923z
		 M236.225,212.866c1.157-1.179-0.324-1.488-7.135-1.488c-12.966,0-19.148-4.316-19.148-13.368c0-9.96,12.454-12.708,15.623-3.448
		c0.664,1.941,1.708,3.53,2.319,3.53c0.651,0,0.603-0.967-0.116-2.336c-2.005-3.817-1.441-4.903,2.626-5.052
		c2.882-0.106,2.264-0.411-2.453-1.21c-3.468-0.588-7.302-1.611-8.518-2.274c-4.841-2.639-12.94-0.885-16.261,3.521
		c-4.163,5.523,0.689,16.945,9.151,21.545c4.518,2.455,6.647,2.836,13.893,2.485C230.913,214.541,235.421,213.685,236.225,212.866
		L236.225,212.866z M260.232,205.175c-0.458-0.755-0.889-2.476-0.959-3.825c-0.07-1.349-0.868-2.705-1.774-3.012
		c-1-0.339-1.322-0.022-0.819,0.806c0.507,0.836-0.068,1.365-1.487,1.365c-1.273,0-2.622,0.815-2.997,1.812
		c-0.51,1.355,0.188,1.812,2.767,1.812c1.897,0,3.779,0.544,4.182,1.208c0.403,0.664,1,1.208,1.326,1.208
		C260.797,206.547,260.69,205.929,260.232,205.175L260.232,205.175z M255.461,174.443c0.886-2.353-0.433-11.378-1.664-11.378
		c-1.885,0-3.239,10.778-1.568,12.481C253.527,176.868,254.698,176.468,255.461,174.443L255.461,174.443z M132.901,167.709
		c2.594-4.089,4.71-8.029,4.702-8.757c-0.009-0.727-1.332,1.026-2.943,3.896c-1.611,2.87-4.041,6.811-5.402,8.757
		c-1.36,1.946-2.159,3.539-1.774,3.539C127.87,175.143,130.307,171.798,132.901,167.709L132.901,167.709z M259.102,141.061
		c-0.84-5.067-2.644-6.956-4.221-4.421c-1.75,2.814-1.184,9.399,1.004,11.674c1.991,2.071,2.113,2.06,3.024-0.269
		C259.431,146.709,259.518,143.566,259.102,141.061z M139.52,142.858c-0.394-0.401-0.674,0.312-0.623,1.585
		c0.057,1.407,0.338,1.693,0.716,0.73C139.956,144.302,139.914,143.26,139.52,142.858L139.52,142.858z M148.882,125.622
		c1.18-1.329,1.879-2.416,1.553-2.416s-1.559,1.087-2.739,2.416c-1.18,1.329-1.879,2.416-1.553,2.416
		C146.469,128.037,147.701,126.95,148.882,125.622z M253.261,97.428c1.566-8.506-6.029-17.779-16.069-19.615
		c-4.109-0.752-4.103-0.741,1.195,2.087c9.329,4.98,13.528,15.678,8.833,22.506c-1.016,1.478-1.464,3.318-0.995,4.09
		C247.488,108.578,252.365,102.291,253.261,97.428z M182.079,103.881c1.18-1.329,1.879-2.416,1.553-2.416
		c-0.326,0-1.559,1.087-2.739,2.416c-1.18,1.329-1.879,2.416-1.553,2.416S180.899,105.209,182.079,103.881z M189.786,97.238
		c0.812-0.996,1.209-1.812,0.883-1.812s-1.257,0.815-2.069,1.812c-0.812,0.996-1.209,1.812-0.883,1.812
		C188.043,99.049,188.974,98.234,189.786,97.238z M169.037,74.194c-10.238-3.749-10.749-10.742-1.061-14.512
		c4.693-1.826,7.672-1.771,12.807,0.237c1.252,0.49,1.889,0.074,1.889-1.233c0-2.605,4.659-4.299,12.23-4.447
		c4.857-0.095,5.525-0.323,3.183-1.087c-12.153-3.965-34.579,2.332-39.689,11.144l-2.174,3.749l4.315,4.028
		c3.358,3.135,5.305,4.009,8.778,3.943l4.464-0.085L169.037,74.194L169.037,74.194z M8.384,42.339c0-20.18,0.28-24.066,1.778-24.651
		c1.539-0.602,1.778,2.145,1.778,20.404c0,23.439-0.436,22.427,8.299,19.287c5.797-2.083,7.114-2.225,7.114-0.766
		c0,0.575-4.027,2.542-8.949,4.371c-4.922,1.829-8.74,3.537-8.486,3.797c0.255,0.26,4.505-1.009,9.445-2.819
		c7.947-2.912,9.037-3.68,9.468-6.67c0.535-3.711,0.045-3.722-8.44-0.184c-7.635,3.183-7.407,3.816-7.022-19.472
		c0.192-11.626,0.296-21.138,0.23-21.137c-0.066,0.001-1.8,0.598-3.853,1.327l-3.734,1.326v25.318c0,16.571,0.41,25.06,1.186,24.571
		C7.924,66.585,8.384,57.007,8.384,42.339z M205.003,65.379c1.184-0.764,0.896-1.205-1.143-1.748
		c-1.499-0.399-3.016-0.247-3.371,0.338c-0.355,0.585-2.508,1.293-4.785,1.573c-3.327,0.409-2.976,0.543,1.789,0.684
		C200.753,66.322,204.133,65.941,205.003,65.379z M347.723,40.327l-0.346-23.698l3.31,0.833c3.911,0.984,2.397-1.033-1.729-2.303
		l-2.668-0.821V39.18c0,13.663,0.4,24.843,0.889,24.843S347.913,53.361,347.723,40.327L347.723,40.327z M324.811,40.006
		c-4.022-10.075-7.527-18.1-7.788-17.833c-0.261,0.266,2.272,7.481,5.63,16.034s6.597,16.848,7.198,18.435
		c0.601,1.587,1.358,2.615,1.683,2.284C331.858,58.594,328.833,50.08,324.811,40.006L324.811,40.006z M40.974,49.809
		c1.123-7.627,1.562-8.42,5.139-9.288c1.746-0.424,4.066-1.039,5.155-1.368c1.581-0.477,2.252,0.734,3.327,6.01l1.347,6.608
		l3.607-1.281c4.191-1.488,4.473,1.265-2.83-27.612l-5.06-20.007l-3.647,0.964c-3.422,0.904-3.772,1.543-5.673,10.345
		c-1.114,5.159-3.786,17.047-5.938,26.418L32.49,57.634l3.843-1.202C39.722,55.372,40.27,54.591,40.974,49.809z M37.248,50.08
		c-0.386-1.025-0.437-2.134-0.113-2.464c0.324-0.33,0.873,0.509,1.221,1.864C39.095,52.358,38.274,52.803,37.248,50.08L37.248,50.08
		z M38.118,44.193c-0.051-1.273,0.229-1.987,0.623-1.585c0.394,0.401,0.436,1.443,0.094,2.315
		C38.456,45.887,38.175,45.601,38.118,44.193L38.118,44.193z M40.489,33.323c-0.051-1.273,0.229-1.987,0.623-1.585
		c0.394,0.401,0.436,1.443,0.094,2.315C40.827,35.016,40.546,34.73,40.489,33.323L40.489,33.323z M45.252,30.505
		c0.063-1.827,0.759-6.039,1.548-9.361l1.434-6.039l1.483,8.341c1.211,6.815,1.199,8.525-0.066,9.342
		C46.717,34.684,45.137,33.864,45.252,30.505z M41.675,28.492c-0.051-1.273,0.229-1.987,0.623-1.585
		c0.394,0.401,0.436,1.443,0.094,2.315C42.013,30.185,41.732,29.899,41.675,28.492L41.675,28.492z M43.52,21.144
		c1.342-8.086,2.866-11.615,2.087-4.831c-0.382,3.322-1.188,6.854-1.791,7.851C43.101,25.344,42.998,24.291,43.52,21.144z
		 M46.342,8.16c-0.012-1.42,0.857-2.082,2.65-2.018c1.783,0.064,2.078,0.324,0.889,0.785c-0.978,0.379-2.17,1.288-2.65,2.018
		C46.694,9.764,46.353,9.463,46.342,8.16z M310.721,28.558V5.173l3.26,0.531c2.549,0.415,2.872,0.251,1.482-0.753
		c-0.978-0.706-2.979-1.292-4.446-1.302L308.35,3.63v24.157c0,15.299,0.435,24.157,1.186,24.157
		C310.285,51.944,310.721,43.343,310.721,28.558z M75.469,47.112c1.359,0,1.712-3.071,1.843-16.004
		c0.089-8.802,0.396-14.645,0.683-12.984c0.832,4.812,7.646,27.077,8.617,28.157c0.485,0.54,1.226-1.091,1.645-3.624
		c0.419-2.533,2.603-10.312,4.852-17.287l4.089-12.682l-0.696,15.818l-0.696,15.818l3.668-0.548l3.668-0.548l0.342-24.632
		l0.342-24.632l-3.738,0.001c-3.609,0.001-3.828,0.303-6.351,8.758c-1.437,4.816-3.536,12.455-4.664,16.974l-2.051,8.217
		L82.68,14.112C80.291,6.52,78.336-0.303,78.336-1.05c0-1.512-1.643-1.686-5.632-0.597c-2.656,0.725-2.668,0.833-2.668,25.477
		c0,22.072,0.203,24.67,1.875,24.016C72.944,47.442,74.544,47.112,75.469,47.112z M293.183,24.625l-0.346-23.698l3.014,0.771
		c1.658,0.424,3.014,0.278,3.014-0.323s-1.601-1.333-3.557-1.626l-3.557-0.532v24.551c0,13.503,0.4,24.552,0.889,24.553
		S293.374,37.659,293.183,24.625L293.183,24.625z M276.026,27.485c-0.239-3.488-0.435-0.634-0.435,6.341s0.196,9.829,0.435,6.341
		C276.266,36.68,276.266,30.973,276.026,27.485z M129.396,39.768c6.465-1.657,9.708-5.954,10.339-13.696
		c0.468-5.745,0.174-6.933-2.355-9.508c-2.822-2.874-2.839-3.007-0.733-5.656c3.317-4.173,2.903-12.666-0.802-16.44
		c-2.746-2.797-3.66-2.988-12.746-2.663l-9.787,0.351l-0.32,24.888l-0.32,24.888l6.248-0.54
		C122.357,41.094,127.071,40.364,129.396,39.768z M119.833,25.975v-7.851h4.559c5.47,0,8.483,2.863,8.483,8.061
		c0,4.761-3.276,7.641-8.689,7.641h-4.353V25.975z M120.306,10.391c-0.342-0.909-0.455-4.025-0.251-6.924
		c0.332-4.717,0.708-5.311,3.573-5.648c5.141-0.604,8.062,1.681,8.062,6.31c0,4.643-1.403,6.107-6.863,7.161
		C122.084,11.82,120.744,11.554,120.306,10.391L120.306,10.391z M256.182,18.587c0-23.099,0.06-23.678,2.371-23.062
		c1.304,0.347,2.371,0.202,2.371-0.322c0-0.854-3.925-2.384-6.225-2.427c-0.489-0.009-0.889,11.126-0.889,24.744
		c0,15.702,0.434,24.761,1.186,24.761C255.746,42.281,256.182,33.578,256.182,18.587z M334.172,11.474
		c3.198,0.62,3.195,0.61-0.331-1.078l-3.557-1.703l-0.336,13.951c-0.302,12.554-0.51,13.721-2.082,11.661
		c-1.597-2.095-1.642-1.981-0.519,1.333c2.603,7.681,2.946,6.76,3.267-8.771l0.331-16.018L334.172,11.474L334.172,11.474z
		 M239.583,39.135c1.942-1.214,2.146-1.559,0.593-1.002c-1.304,0.468-4.239,1.258-6.521,1.756c-4.078,0.89-4.088,0.908-0.593,1.002
		C235.018,40.944,237.953,40.154,239.583,39.135z M167.034,37.419c4.758-2.955,7.218-8.551,8.129-18.485
		c1.887-20.583-7.357-34.822-18.963-29.212c-5.96,2.881-9.362,10.466-10.039,22.379C144.924,33.872,154.345,45.3,167.034,37.419z
		 M156.674,30.29c-4.877-4.969-4.945-25.617-0.101-30.87c3.616-3.921,6.553-3.847,9.177,0.232c1.643,2.555,2.102,5.797,2.102,14.849
		s-0.459,12.294-2.102,14.849C163.279,33.191,159.868,33.544,156.674,30.29L156.674,30.29z M209.942,37.4
		c0-0.541-1.535-5.402-3.411-10.803l-3.411-9.82l2.81-1.876c6.367-4.25,6.174-18.077-0.326-23.285
		c-2.526-2.024-4.81-2.48-12.421-2.48h-9.325v24.761v24.761h2.964c2.942,0,2.964-0.081,2.964-10.871V16.917l3.26,0.013
		c3.078,0.013,3.45,0.641,6.643,11.247c3.338,11.089,3.426,11.227,6.817,10.72C208.396,38.615,209.942,37.941,209.942,37.4
		L209.942,37.4z M204.836,36.544c-0.277-0.498-1.953-5.39-3.724-10.871l-3.221-9.965h-4.645c-2.931,0-4.642-0.557-4.636-1.51
		c0.006-1.001,2.22-1.575,6.569-1.704c3.608-0.107,7.286-0.809,8.174-1.559c4.393-3.714,2.924-13.114-2.439-15.603
		c-3.519-1.633-10.722-1.803-11.649-0.275c-0.364,0.599-0.765,7.107-0.892,14.462c-0.127,7.354-0.528,13.07-0.891,12.701
		c-0.363-0.369-0.927-7.421-1.253-15.672l-0.593-15.001l8.332,0.002c9.694,0.002,12.775,1.64,14.79,7.861
		c1.853,5.72,0.526,10.87-3.662,14.209l-3.478,2.773l3.493,10.529c2.663,8.026,3.105,10.529,1.86,10.529
		C206.074,37.45,205.113,37.042,204.836,36.544L204.836,36.544z M190.271,9.214c-0.345-0.915-0.461-4.312-0.259-7.549
		c0.353-5.661,0.514-5.9,4.201-6.263c7.659-0.753,13.021,9.417,7.166,13.595C198.103,11.335,191.121,11.471,190.271,9.214z
		 M225.525,36.806c-4.632-3.971-6.483-9.904-6.581-21.098c-0.106-12.09,2.826-20.14,8.16-22.411
		c5.402-2.299,11.821-0.149,14.622,4.897c0.738,1.329,1.357,1.695,1.377,0.813c0.02-0.881-1.523-3.191-3.43-5.133
		c-2.658-2.708-4.555-3.531-8.14-3.531c-10.272,0-14.974,8.815-14.276,26.76c0.481,12.364,3.023,19.785,7.393,21.586
		C228.966,40.467,229.202,39.958,225.525,36.806z M237.577,34.489c4.149-4.226,3.38-13.949-1.103-13.949
		c-0.898,0-1.633-0.873-1.633-1.941c0-1.274,0.645-1.689,1.875-1.208c1.031,0.403,3.138,0.733,4.681,0.733
		c2.538,0,2.847,0.603,3.241,6.341l0.435,6.341l0.219-7.549l0.219-7.549h-6.521c-6.118,0-6.521,0.182-6.521,2.939
		c0,2.309,0.7,3.021,3.261,3.322c2.862,0.335,3.21,0.825,2.843,4.006c-0.615,5.345-2.301,7.854-5.256,7.824
		c-4.399-0.045-7.904-3.792-9.031-9.652c-0.709-3.69-1.083-4.384-1.172-2.176C222.716,31.912,232.118,40.05,237.577,34.489z
		 M244.096,33.19c-0.365-0.372-1.028,0.298-1.473,1.49c-0.643,1.721-0.507,1.86,0.664,0.676
		C244.097,34.537,244.461,33.562,244.096,33.19z M276.338,7.786c0-8.837,0.051-8.987,3.034-8.987c1.721,0,2.717-0.523,2.301-1.208
		c-0.403-0.664-2.035-1.208-3.627-1.208c-2.827,0-2.894,0.223-2.894,9.663c0,6.963-0.414,9.643-1.482,9.591
		c-0.815-0.04-4.016-0.497-7.114-1.016c-3.097-0.519-5.632-0.52-5.632-0.002c0,0.518,2.534,1.29,5.632,1.715
		c3.097,0.425,6.165,0.929,6.817,1.119C275.833,18.17,276.338,16.524,276.338,7.786L276.338,7.786z M224.731,5.677
		c0.416-2.528,1.793-5.653,3.061-6.945c1.268-1.292,1.784-2.348,1.147-2.348c-2.094,0-4.974,5.851-5.477,11.126
		C222.893,13.476,223.622,12.425,224.731,5.677L224.731,5.677z M239.583,4.291c0-1.628-2.892-6.645-4.103-7.118
		c-0.938-0.367-0.785,0.813,0.457,3.518C237.518,4.136,239.583,6.175,239.583,4.291L239.583,4.291z M244.325,2.46
		c0-0.643-0.8-0.857-1.778-0.475s-1.778,0.909-1.778,1.17s0.8,0.475,1.778,0.475S244.325,3.104,244.325,2.46z M0.708-0.968
		C0.343-1.34-0.613-0.969-1.418-0.143C-2.58,1.05-2.444,1.189-0.754,0.533C0.415,0.08,1.073-0.596,0.708-0.968z"/>
	<path id="path2991" fill="#9F6B08" d="M177.424,439.76c-4.466-0.626-7.488-2.099-13.872-6.759
		c-21.878-15.97-39.958-30.778-56.153-45.988c-6.213-5.835-19.859-19.857-24.653-25.332c-19.594-22.379-35.851-45.315-55.756-78.665
		c-4.388-7.351-9.74-18.332-17.049-34.979c-23.736-54.059-36.133-108.635-39.79-175.178c-0.712-12.954-0.948-22.942-0.887-37.615
		c0.05-12.134,0.11-13.591,0.689-16.793c1.097-6.061,3.221-11.805,5.796-15.669C-21.067-2.001-12.424-8.9-5.503-12.187
		c9.776-4.642,33.587-11.833,55.041-16.622c5.826-1.3,17.317-3.653,21.215-4.343c1.142-0.202,3.546-0.633,5.341-0.957
		c1.795-0.324,4.199-0.716,5.341-0.871c1.142-0.155,3.012-0.479,4.154-0.72c1.142-0.241,3.279-0.594,4.748-0.784
		c1.469-0.19,4.54-0.605,6.825-0.922c2.285-0.317,4.755-0.649,5.489-0.737c7.163-0.859,9.484-1.127,14.243-1.644
		c24.145-2.623,56.225-3.861,79.373-3.062c10.163,0.351,33.219,1.682,35.044,2.024c0.507,0.095,2.777,0.278,5.044,0.406
		c2.268,0.129,5.992,0.462,8.277,0.741c2.285,0.279,5.957,0.712,8.16,0.963c10.335,1.173,19.307,2.341,23.144,3.012
		c1.387,0.243,5.059,0.848,8.16,1.346c32.656,5.244,59.698,12.887,79.818,22.557c8.702,4.183,12.18,6.534,16.409,11.092
		c4.932,5.317,7.868,10.927,9.411,17.984c1.307,5.978,0.72,43.229-1.055,66.888c-2.422,32.288-6.594,59.463-13.49,87.875
		c-7.452,30.701-17.447,58.827-31.98,89.989c-4.914,10.538-6.246,13.128-10.324,20.081c-2.191,3.737-4.051,6.933-4.133,7.103
		c-0.082,0.17-0.549,0.919-1.039,1.666s-1.05,1.627-1.246,1.956c-0.196,0.329-0.93,1.55-1.632,2.713
		c-0.702,1.163-1.33,2.25-1.395,2.416c-0.065,0.166-0.202,0.37-0.303,0.453c-0.102,0.083-0.77,1.102-1.486,2.265
		c-0.716,1.163-1.814,2.883-2.441,3.823s-1.14,1.846-1.14,2.013c0,0.167-0.1,0.35-0.223,0.405c-0.304,0.138-1.854,2.588-1.854,2.931
		c0,0.152-0.2,0.354-0.445,0.45c-0.245,0.095-0.445,0.312-0.445,0.481s-0.734,1.386-1.632,2.705s-1.632,2.529-1.632,2.689
		c0,0.161-0.2,0.37-0.445,0.466c-0.245,0.095-0.445,0.382-0.445,0.636c0,0.254-0.111,0.462-0.247,0.462
		c-0.136,0-0.436,0.374-0.668,0.83c-0.232,0.457-0.523,0.966-0.647,1.132c-0.999,1.335-2.208,3.042-4.373,6.178
		c-2.12,3.071-4.373,6.205-7.39,10.28c-26.709,36.081-54.642,63.178-98.517,95.569c-6.404,4.728-9.405,6.413-13.142,7.38
		C183.349,439.789,179.639,440.07,177.424,439.76L177.424,439.76z M185.017,437.021c3.697-0.956,6.768-2.653,12.628-6.978
		c56.044-41.358,87.357-74.991,123.048-132.161c9.594-15.368,14.245-23.505,18.061-31.599
		c10.388-22.034,17.866-40.381,24.013-58.912c14.939-45.037,23.004-92.659,25.033-147.818c0.476-12.95,0.387-38.039-0.147-41.154
		c-1.455-8.493-6.578-16.57-14.12-22.261c-2.741-2.068-12.466-7.074-18.681-9.614c-18.416-7.529-39.476-13.182-67.048-17.998
		c-16.188-2.827-37.329-5.43-57.712-7.105c-2.122-0.174-4.592-0.384-5.489-0.466c-2.774-0.253-15.808-1.024-23.292-1.378
		c-14.282-0.675-40.179-0.326-58.305,0.786C95.574-36.726,43.531-27.222,7.849-14.955c-9.822,3.377-13.317,4.954-18.387,8.297
		c-8.237,5.432-11.994,9.567-14.704,16.18c-3.171,7.741-3.737,14.279-3.259,37.649c0.607,29.645,2.344,52.757,5.789,77.004
		c6.842,48.164,18.83,88.808,39.323,133.323c7.971,17.314,10.264,21.495,22.944,41.824c3.135,5.026,11.663,17.913,15.189,22.954
		c23.889,34.143,47.014,58.808,81.466,86.888c8.947,7.292,30.229,23.449,33.825,25.68c1.304,0.809,4.738,2.147,6.35,2.476
		C178.682,437.787,182.575,437.652,185.017,437.021L185.017,437.021z M177.038,424.835c-1.811-0.519-5.935-3.398-14.367-10.029
		c-51.791-40.727-81.036-72.61-110.224-120.164c-3.907-6.365-9.118-15.275-12.629-21.591c-3.504-6.303-14.666-29.948-20.244-42.881
		c-19.772-45.844-30.636-93.413-33.966-148.724C-15.563,62-15.739,35.365-14.733,29.808c1.105-6.109,3.101-11.449,5.825-15.589
		c2.97-4.513,8.455-8.997,13.674-11.178c10.721-4.479,34.982-11.473,55.751-16.07c36.129-7.997,69.85-12.131,107.709-13.204
		c10.415-0.295,28.512-0.196,32.194,0.176c0.653,0.066,3.19,0.201,5.638,0.299c23.431,0.943,54.881,4.327,77.444,8.333
		c27.851,4.945,49.057,11.222,67.207,19.894c2.856,1.365,6.191,2.952,7.411,3.528c10.038,4.738,14.627,12.05,16.142,25.722
		c0.745,6.729-1.035,40.024-3.394,63.468c-6.687,66.449-20.116,114.984-45.4,164.081c-10.207,19.821-26.523,46.91-38.858,64.515
		c-21.155,30.194-41.644,51.291-82.892,85.353c-0.834,0.689-4.321,3.581-7.748,6.428c-3.427,2.847-7.129,5.79-8.226,6.542
		C183.874,424.753,180.106,425.715,177.038,424.835L177.038,424.835z M100.129,316.887c3.641-1.685,4.848-4.255,5.337-11.374
		c0.326-4.735,1.239-6.531,3.574-7.027l1.177-0.25l-0.148-2.854c-0.222-4.263-0.179-10.594,0.077-11.526
		c0.124-0.451,1.602-2.558,3.284-4.681c3.988-5.034,6.367-8.52,7.036-10.314c0.297-0.796,0.826-3.406,1.175-5.801
		c0.714-4.892,0.404-4.191,5.762-13.079c1.591-2.64,3.976-7.039,5.299-9.777c1.442-2.982,2.857-5.469,3.529-6.202
		c0.617-0.674,1.391-1.54,1.72-1.925c0.329-0.385,0.728-0.7,0.886-0.7c0.607,0,2.376,1.9,3.033,3.259
		c0.66,1.363,0.688,1.709,0.688,8.468c0,7.042,0.001,7.048,0.7,7.625c0.385,0.318,1.006,0.578,1.38,0.578
		c0.674,0,0.672-0.012-0.158-0.913c-1.213-1.321-1.493-3.137-1.276-8.259c0.171-4.02,0.131-4.549-0.472-6.366
		c-0.362-1.09-0.616-2.422-0.565-2.961c0.088-0.929,0.162-0.985,1.428-1.076c1.507-0.109,2.189-0.615,2.996-2.224
		c0.567-1.131,0.717-2.046,0.62-3.775c-0.047-0.827-0.27-1.082-1.589-1.812c-2.027-1.122-2.586-1.972-2.954-4.489
		c-0.424-2.906-0.078-11.896,0.538-13.957c0.542-1.815,0.789-1.846,2.912-0.368c2.072,1.443,8.369,4.166,11.478,4.964
		c3.81,0.978,8.991,1.093,10.639,0.236c1.428-0.743,6.741-4.876,8.968-6.977c1.018-0.96,2.652-2.337,3.631-3.06
		c0.979-0.723,2.305-1.765,2.946-2.317c0.641-0.552,1.471-1.003,1.843-1.003c1.049,0,3.875,1.171,4.858,2.013
		c1.788,1.531,0.891,3.079-3.453,5.953c-3.428,2.268-7.093,6.308-8.785,9.683c-0.779,1.553-4.383,12.417-4.383,13.211
		c0,1.274,0.973,3.921,1.948,5.298c3.571,5.043,5.292,7.874,5.659,9.304c0.221,0.863,0.605,2.063,0.853,2.667
		c0.962,2.344-0.192,3.644-4.093,4.611c-1.505,0.373-3.496,0.77-4.425,0.882l-1.689,0.204l0.477,0.741
		c0.409,0.635,0.515,0.673,0.74,0.265c0.215-0.391,0.872-0.477,3.649-0.477c2.73,0,3.69-0.121,4.951-0.628l1.565-0.628l0.746,0.945
		c0.834,1.056,5.641,6.089,5.641,5.905c0-0.761-2.296-6.069-4.118-9.52c-1.272-2.408-2.913-5.67-3.648-7.247
		c-0.752-1.615-2.397-4.308-3.764-6.161c-1.335-1.811-2.524-3.645-2.643-4.077c-0.417-1.522-0.197-4.098,0.529-6.18
		c1.146-3.287,2.059-3.067,2.067,0.498c0.006,2.589,0.337,3.373,3.188,7.541c3.271,4.783,3.503,5.204,5.134,9.309
		c1.382,3.479,3.08,6.675,5.089,9.583c0.991,1.434,2.912,6.646,2.912,7.901c0,0.505-0.364,1.153-1,1.78l-1,0.987l-0.636-0.823
		c-0.35-0.452-0.728-0.729-0.841-0.614c-0.113,0.115-0.26,1.084-0.327,2.155c-0.12,1.918-0.106,1.96,0.951,2.913
		c1.01,0.91,1.073,1.074,1.073,2.798c0.001,2.181,0.642,3.665,1.977,4.572c0.545,0.37,2.323,0.919,4.238,1.307l3.299,0.669
		l1.169-0.942c2.045-1.648,4.436-4.566,4.767-5.817c0.383-1.446,0.142-2.696-0.662-3.436c-0.334-0.307-0.787-0.913-1.007-1.345
		c-0.6-1.181-0.082-1.48,2.57-1.48c2.159,0,2.329-0.05,3.01-0.873c0.789-0.954,2.8-5.439,3.98-8.878
		c0.603-1.757,0.745-2.729,0.731-5.027c-0.014-2.327,0.126-3.268,0.764-5.134c1.055-3.089,1.064-5.394,0.029-7.418
		c-0.873-1.706-1.5-2.338-3.724-3.753c-2.429-1.545-2.12-2.515,1.209-3.797c1.905-0.734,2.871-1.547,2.871-2.417
		c0-0.709-0.016-0.712-2.626-0.54c-2.613,0.172-2.628,0.169-3.19-0.66c-1.639-2.422-2.578-2.772-4.266-1.59
		c-1.832,1.283-5.942,8.857-5.942,10.95c0,1.217,1.344,2.448,3.788,3.472c1.262,0.528,2.602,1.159,2.977,1.401
		c1.225,0.792,1.838,2.204,1.839,4.238c0.001,1.027,0.14,2.239,0.309,2.692c0.169,0.454,0.315,1.699,0.323,2.768
		c0.012,1.58-0.157,2.297-0.902,3.838c-1.196,2.473-4.927,7.366-5.904,7.744c-1.06,0.41-2.161-0.466-2.693-2.144
		c-0.382-1.203-0.362-1.413,0.259-2.842c1.403-3.224,1.566-4.425,1.232-9.083c-0.169-2.362-0.472-4.661-0.673-5.111
		c-0.614-1.372-1.587-0.952-3.647,1.573c-1.936,2.372-3.193,3.373-4.24,3.376c-1.016,0-1.371-1.024-1.19-3.45
		c0.181-2.436,0.71-4.079,2.83-8.797c1.6-3.56,4.128-10.279,4.992-13.269c0.661-2.289,0.736-8.032,0.136-10.415
		c-0.321-1.275-0.774-2.041-1.962-3.322c-2.675-2.883-6.182-7.877-8.061-11.478c-2.15-4.123-3.599-8.455-2.827-8.455
		c0.404,0,3.698,4.285,5.047,6.564c1.652,2.793,2.514,3.508,3.984,3.309c1.077-0.146,1.109-0.121,1.282,0.953
		c0.574,3.572,2.256,7.085,4.883,10.201c1.212,1.437,6.241,5.543,7.698,6.285c1.695,0.863,4.471,1.788,7.731,2.575
		c1.988,0.48,3.546,0.609,7.353,0.611c5.067,0,6.22-0.222,7.423-1.447c0.322-0.328,1.368-0.882,2.326-1.231
		c0.957-0.349,2.061-0.807,2.453-1.016c1.036-0.554,1.83-1.78,1.634-2.525c-0.155-0.588-0.437-0.647-3.928-0.819
		c-4.497-0.221-8.489-1.168-11.561-2.743c-1.167-0.598-3.023-1.433-4.126-1.855c-3.485-1.335-6.133-3.49-6.744-5.489
		c-0.306-1.001,0.293-1.847,1.467-2.071c0.571-0.109,1.111-0.319,1.201-0.466c0.089-0.147,0.388-0.27,0.664-0.272
		c1.265-0.012,1.343-0.381,0.683-3.242c-0.79-3.426-0.797-4.001-0.047-4.001c1.215,0,2.086,0.757,3.766,3.274
		c0.955,1.431,2.49,3.386,3.412,4.344c1.494,1.554,1.805,1.743,2.876,1.743c0.66,0,1.28-0.131,1.377-0.292
		c0.097-0.16-0.095-0.834-0.428-1.498c-0.37-0.738-0.605-1.793-0.605-2.718c0-1.26,0.153-1.689,0.921-2.579
		c0.854-0.989,1.046-1.067,2.627-1.067c2.003,0,3.313,0.738,4.439,2.501c0.654,1.023,0.837,1.123,2.061,1.123
		c0.97,0,1.659-0.222,2.479-0.8c0.963-0.679,1.245-0.75,1.86-0.464c0.399,0.185,1.048,0.851,1.444,1.48
		c0.395,0.629,1.126,1.534,1.623,2.012c0.839,0.806,1.018,0.853,2.499,0.665c0.886-0.113,1.942-0.068,2.375,0.099
		c1.345,0.52,1.503,1.241,0.934,4.25c-0.477,2.524-0.478,2.771-0.009,4.02c0.275,0.732,0.902,1.789,1.393,2.349
		c1.006,1.147,1.022,1.201,1.475,5.001c0.431,3.619,0.071,6.181-1.428,10.146c-0.645,1.706-1.656,4.397-2.248,5.98
		c-0.592,1.582-1.456,3.34-1.92,3.906l-0.844,1.029l1.212,0.938c1.567,1.212,2.755,3.258,4.437,7.641
		c2.402,6.257,2.621,7.034,2.658,9.428c0.03,1.915-0.158,2.858-1.218,6.102c-1.677,5.136-1.724,7.115-0.215,9.127
		c0.571,0.762,1.039,1.612,1.039,1.89c0,0.278-0.733,1.739-1.629,3.246c-3.705,6.233-3.692,9.065,0.058,12.553
		c1.96,1.823,3.692,2.785,4.783,2.656c0.74-0.087,0.8-0.206,0.886-1.754c0.104-1.863,0.935-3.108,1.974-2.957
		c0.517,0.076,0.633,0.387,0.805,2.152c0.248,2.554,0.381,2.919,1.067,2.919c1.23,0,5.361-3.279,6.193-4.915l0.449-0.884
		l-1.284,0.905c-0.706,0.498-1.608,1.259-2.004,1.692c-0.862,0.944-1.752,1.001-2.779,0.179c-1.045-0.836-1.221-2.006-0.644-4.267
		c0.674-2.64,0.461-4.687-0.584-5.602c-0.681-0.596-1.126-0.698-3.079-0.702c-1.256,0-2.476-0.129-2.711-0.28
		c-0.798-0.514,0.115-1.736,2.032-2.72c2.782-1.429,2.93-2.44,0.538-3.681c-1.586-0.823-1.973-1.351-1.984-2.705
		c-0.014-1.559,1.057-3.022,2.648-3.62c1.904-0.716,2.683-1.774,2.683-3.643c0-2.071-0.705-3.425-2.497-4.796
		c-2.92-2.235-2.844-2.106-2.844-4.81c0-1.957,0.106-2.535,0.548-2.984c0.407-0.415,0.59-1.189,0.713-3.016
		c0.107-1.585,0.386-2.923,0.787-3.765c0.982-2.064,0.882-2.595-1.039-5.495c-1.227-1.852-1.603-3.732-1.603-8.024
		c0-1.793-0.123-3.589-0.273-3.99c-0.385-1.029-0.039-4.457,0.47-4.655c0.863-0.337,2.194,0.6,3.142,2.214
		c1.043,1.775,1.261,1.923,1.494,1.018c0.248-0.967,1.693-0.751,5.112,0.764c7.747,3.433,16.43,4.133,21.112,1.702
		c2.671-1.387,7.48-5.63,8.713-7.687c1.151-1.921,1.077-1.956-3.718-1.791c-4.855,0.168-7.769-0.194-10.98-1.362
		c-2.723-0.991-5.734-3.043-7.43-5.064c-0.75-0.893-2.743-2.789-4.428-4.213c-1.685-1.424-3.141-2.791-3.234-3.038
		c-0.093-0.248-0.383-0.45-0.645-0.45c-0.908,0-4.922-1.887-7.122-3.349c-1.217-0.809-2.762-1.755-3.434-2.104
		c-2.137-1.109-10.262-2.788-15.314-3.164l-2.737-0.204l-0.199-1.101c-0.364-2.012-0.965-3.354-2.772-6.194
		c-1.493-2.346-1.792-3.035-1.798-4.145c-0.007-1.594-0.653-3.115-2.793-6.584c-1.067-1.73-1.821-3.402-2.253-5.001
		c-0.358-1.321-1.164-3.59-1.791-5.042c-1.432-3.311-1.931-5.129-2.351-8.561c-0.465-3.806-0.987-5.94-2.333-9.551
		c-0.642-1.722-1.463-4.627-1.824-6.454c-0.937-4.743-1.288-5.617-3.708-9.228c-1.19-1.775-2.261-3.687-2.381-4.248
		c-0.12-0.561-0.579-1.44-1.021-1.954c-0.442-0.514-1.321-1.805-1.954-2.869c-0.633-1.064-1.456-2.395-1.83-2.958
		c-0.373-0.563-0.679-1.396-0.679-1.85c0-1.286,0.71-1.667,2.94-1.578c4.699,0.186,8.332,3.771,13.083,12.908
		c3.775,7.26,6.875,11.005,10.736,12.971c1.516,0.772,2.493,1.071,3.5,1.071c1.772,0,2.416-0.664,2.607-2.69
		c0.165-1.746-0.174-3.353-1.786-8.483c-0.928-2.953-1.227-4.447-1.371-6.862c-0.224-3.734-0.392-3.964-3.756-5.147
		c-2.894-1.018-3.065-1.55-0.694-2.161c2.347-0.605,4.85,0.04,7.597,1.956c1.799,1.255,2.143,1.387,3.283,1.257
		c1.033-0.118,1.597-0.452,2.982-1.766c1.563-1.483,1.698-1.713,1.587-2.701c-0.136-1.215,0.662-3.082,1.733-4.053
		c0.879-0.797,1.378-2.045,2.403-6.005c1.366-5.276,1.009-9.677-1.081-13.322c-1.669-2.911-9.598-9.323-14.203-11.486
		c-4.205-1.975-4.411-1.992-27.186-2.263c-25.404-0.302-36.708-0.867-39.991-1.997c-4.741-1.632-8.155-4.589-7.652-6.628
		c0.287-1.166,1.879-2.765,3.302-3.318c2.642-1.027,6.375-0.295,13.631,2.67c6.652,2.719,10.682,3.408,18.379,3.146
		c6.834-0.233,12.233-1.065,13.621-2.097c0.508-0.378,0.508-0.414-0.009-0.885c-0.296-0.27-2.475-0.995-4.841-1.611
		c-5.185-1.35-8.011-2.44-8.011-3.088c0-0.405,0.513-0.444,3.932-0.295c3.975,0.173,8.405,0.932,11.844,2.03
		c2.129,0.679,6.935,0.835,8.511,0.276c1.037-0.368,1.226-1.14,0.468-1.911c-1.901-1.935-12.334-5.729-20.352-7.402
		c-5.054-1.054-8.969-1.311-17.396-1.143c-10.371,0.207-14.657,0.977-19.616,3.525c-4.049,2.08-8.784,6.461-10.275,9.504
		c-1.746,3.566-0.569,5.943,4.458,9.006c3.478,2.119,6.201,2.988,12.017,3.837c10.53,1.536,17.966,1.9,38.425,1.879
		c9.992-0.012,17.956,0.107,18.99,0.28c3.075,0.514,6.691,1.829,8.574,3.117c2.212,1.514,4.929,4.756,6.347,7.574
		c0.932,1.852,1.067,2.395,1.083,4.379c0.016,1.951-0.099,2.482-0.836,3.834c-1.146,2.104-3.499,4.747-4.665,5.238
		c-1.388,0.585-4.741-0.012-8.707-1.537c-2.756-1.063-3.745-1.29-6.528-1.496c-3.614-0.268-4.021-0.39-9.393-2.809
		c-5.489-2.472-13.841-5.23-18.028-5.954c-1.997-0.345-3.939,0.046-6.717,1.354c-2.808,1.321-4.421,2.621-10.002,8.058
		c-5.259,5.123-7.647,7.032-10.585,8.463c-5.339,2.6-20.592,11.319-22.01,12.581c-2.082,1.854-5.59,6.179-7.067,8.715
		c-2.704,4.642-3.541,8.293-3.863,16.852c-0.219,5.827-0.261,6.127-1.185,8.521c-1.032,2.674-3.779,7.489-7.488,13.126
		c-3.486,5.298-5.997,9.517-7.672,12.89c-3.299,6.645-3.867,9.19-4.153,18.61l-0.21,6.946l-1.075,3.186
		c-0.591,1.752-1.827,5.013-2.745,7.247c-3.405,8.281-3.338,7.858-3.654,23.086l-0.232,11.173l-1.244,2.499
		c-0.684,1.374-1.829,3.367-2.543,4.429c-1.644,2.445-2.108,4.407-2.716,11.493c-0.256,2.99-0.529,6.001-0.607,6.691
		c-0.124,1.107-0.584,1.751-3.882,5.436c-6.286,7.024-8.693,10.683-8.693,13.215c0,1.254-0.093,1.42-1.265,2.241
		c-2.3,1.61-5.539,5.379-6.625,7.707c-1.283,2.75-1.585,5.309-0.807,6.837c0.872,1.713,1.452,1.428,3.905-1.913l2.18-2.97
		l0.713,0.682c0.392,0.375,0.713,0.852,0.713,1.06c0,0.208-0.539,1.509-1.197,2.892c-0.663,1.391-1.159,2.851-1.113,3.269
		c0.113,1.013,1.145,1.166,7.354,1.095C98.14,317.579,98.799,317.503,100.129,316.887L100.129,316.887z M97.371,300.508
		c-1.026-0.408-2.556-3.906-2.304-5.271c0.216-1.169,0.504-1.253,2.049-0.596c1.601,0.681,2.386,0.559,3.883-0.604
		c1.46-1.134,1.924-1.264,2.483-0.695c0.525,0.534,0.435,1.472-0.27,2.82c-0.344,0.658-0.825,1.577-1.068,2.042
		C101.312,299.799,98.726,301.047,97.371,300.508z M106.94,272.007c-0.659-0.67-0.728-0.986-0.728-3.297
		c0-1.406-0.065-2.737-0.145-2.958c-0.08-0.221-0.015-0.606,0.144-0.855c0.242-0.379,0.438-0.292,1.199,0.528
		c0.741,0.8,1.137,0.981,2.137,0.981c0.843,0,1.437-0.201,1.899-0.642c0.906-0.866,1.598-0.554,1.569,0.708
		c-0.047,2.042-1.327,4.346-3.044,5.48C108.472,272.94,107.868,272.951,106.94,272.007L106.94,272.007z M201.366,269.297
		c-0.785-0.215-1.562-0.527-1.726-0.694c-0.513-0.522-1.003-4.205-0.683-5.134c0.625-1.816,2.865-0.977,3.424,1.283
		c0.324,1.31,0.372,1.354,1.476,1.354c1.313,0,1.756,0.557,1.756,2.207c0,0.922-0.104,1.06-0.927,1.228
		C203.459,269.789,203.058,269.76,201.366,269.297L201.366,269.297z M113.129,244.23c-1.242-0.56-1.679-2.042-1.529-5.182
		c0.139-2.892,1.302-5.589,2.877-6.669l0.989-0.678l0.74,0.895c0.449,0.543,1.026,0.895,1.465,0.895
		c1.088,0,3.339-1.301,5.008-2.894c0.816-0.779,2.241-2.088,3.168-2.911c2.098-1.862,2.623-3.111,2.605-6.206
		c-0.022-4.01-0.299-4.843-2.18-6.562c-1.896-1.733-2.631-3.257-2.636-5.467c-0.006-2.591,1.241-4.045,3.467-4.045
		c1.225,0,2.079,0.828,3.624,3.517c2.546,4.431,6.261,6.147,8.706,4.021c1.169-1.017,1.556-1.09,2.215-0.419
		c0.381,0.387,0.466,1.271,0.466,4.812c0,2.386,0.123,4.666,0.273,5.067c0.186,0.497,0.805,0.949,1.942,1.419
		c2.026,0.837,2.673,1.853,2.452,3.848c-0.179,1.614-1.089,2.691-2.633,3.114c-1.659,0.455-2.883,0.012-7.963-2.879
		c-1.535-0.873-3.249-0.982-4.312-0.273c-0.399,0.266-1.406,1.418-2.238,2.56c-1.178,1.618-2.162,2.519-4.46,4.086
		c-3.232,2.204-4.158,3.144-6.041,6.134c-1.348,2.14-2.958,3.946-3.524,3.953c-0.191,0-0.615,0.068-0.942,0.147
		C114.342,244.592,113.649,244.464,113.129,244.23L113.129,244.23z M160.808,180.312c-1.061-0.5-2.596-1.054-3.412-1.231
		c-1.899-0.411-2.994-0.985-3.563-1.87c-0.407-0.632-0.406-0.892,0.011-2.549c0.537-2.133,0.262-3.806-0.784-4.764
		c-0.527-0.483-1.043-0.568-3.191-0.527c-1.473,0.029-3.114,0.253-3.86,0.528c-0.714,0.263-1.332,0.479-1.373,0.479
		c-0.14,0,0.205-2.867,0.48-3.98c0.194-0.786,0.582-1.305,1.322-1.77c1.772-1.114,2.017-1.759,1.824-4.79
		c-0.232-3.641,0.222-5.438,1.379-5.459c0.142,0,0.755,0.505,1.364,1.128c0.769,0.787,1.314,1.777,1.786,3.246
		c1.157,3.597,1.648,4.378,2.755,4.383c1.775,0.012,1.848,0.186,1.848,4.439c0,4.649,0.287,5.369,3.375,8.474
		C165.521,180.824,165.536,182.542,160.808,180.312L160.808,180.312z M209.055,156.048c-0.109-0.44-0.108-2.001,0.001-3.469
		l0.198-2.669l-0.844-0.562c-0.753-0.501-1.505-0.563-6.939-0.571c-5.323-0.012-6.245-0.081-7.282-0.575l-1.187-0.565l0.89-0.22
		c0.49-0.121,2.159-0.237,3.709-0.257c3.257-0.043,4.531-0.339,5.908-1.373c3.862-2.899,3.083-6.486-2.664-12.265
		c-3.58-3.601-4.207-4.588-4.077-6.419l0.09-1.266l1.484,1.528c0.816,0.84,1.949,2.335,2.517,3.322
		c1.629,2.828,7.032,10.347,9.061,12.611c2.953,3.295,4.057,6.169,3.578,9.316c-0.254,1.666-1.998,3.795-3.322,4.054
		C209.359,156.828,209.229,156.757,209.055,156.048L209.055,156.048z M202.6,108.246c-0.412-0.457-1.057-1.286-1.433-1.844
		c-0.376-0.557-1.318-1.751-2.093-2.652c-1.693-1.969-1.927-2.668-1.155-3.454c0.793-0.807,4.148-0.819,5.62-0.021
		c1.497,0.812,2.638,3.216,2.871,6.046l0.183,2.219l-0.898-0.201c-0.668-0.149-0.944-0.081-1.075,0.268
		C204.349,109.33,203.43,109.165,202.6,108.246L202.6,108.246z M193.892,65.677c-0.326-0.081-1.223-0.419-1.993-0.753
		c-1.692-0.733-2.101-1.607-1.127-2.409c0.862-0.71,1.533-0.69,3.037,0.09c0.675,0.351,2.039,0.706,3.03,0.789
		c1.255,0.105,2.139,0.382,2.915,0.914c1.22,0.836,1.353,1.126,0.643,1.403C199.854,65.922,194.777,65.896,193.892,65.677
		L193.892,65.677z M132.8,301.657c2.042-1.067,3.922-3.277,5.599-6.581c0.829-1.635,1.976-3.341,2.839-4.223
		c1.745-1.786,2.105-2.464,2.922-5.51c0.769-2.868,2.076-5.563,4.458-9.186c2.696-4.101,3.899-5.266,7.444-7.202
		c5.59-3.053,5.922-3.462,6.276-7.714c0.138-1.659,0.447-3.403,0.688-3.876c0.555-1.092,3.347-3.67,5.619-5.189l1.752-1.171h-8.221
		c-6.378,0-8.677,0.105-10.255,0.471c-1.118,0.259-2.68,0.429-3.471,0.377l-1.437-0.093l-1.848,4.681
		c-1.016,2.574-1.851,4.944-1.855,5.265c-0.011,1.002-0.947,4.498-1.501,5.606c-0.767,1.533-5.803,6.871-7.136,7.563
		c-0.625,0.325-1.525,0.59-1.999,0.59c-1.041,0-2.217,0.883-2.7,2.028c-0.196,0.465-1.294,1.515-2.455,2.351
		c-2.665,1.916-5.95,4.999-6.777,6.362c-0.986,1.624-1.464,3.933-1.468,7.097c-0.004,3.219,0.626,6.019,1.354,6.019
		c0.245,0,1.395-0.679,2.557-1.51c3.396-2.427,4.087-1.91,2.02,1.51c-0.653,1.08-1.187,2.119-1.187,2.31
		c0,0.589,2.103,0.987,4.747,0.9C130.796,302.466,131.578,302.296,132.8,301.657L132.8,301.657z M135.705,285.19
		c-1.907-1.419-3.679-3.241-3.679-3.784c0-0.303,0.702-0.856,1.81-1.425l1.81-0.93l1.202,0.81c1.636,1.102,2.985,1.235,4.92,0.486
		c2.16-0.837,2.399-0.693,2.073,1.251c-0.145,0.863-0.426,1.898-0.624,2.299c-0.469,0.947-2.383,1.795-4.561,2.02
		C137.06,286.081,136.825,286.024,135.705,285.19L135.705,285.19z M166.891,285.733c0.667-0.173,0.346-0.239-1.283-0.266
		c-1.898-0.031-2.161-0.103-2.077-0.564c0.053-0.291,0.788-0.868,1.635-1.283s1.648-0.868,1.78-1.007
		c0.133-0.139,0.241-1.324,0.241-2.634c0-2.85,0.411-3.449,2.658-3.876c1.551-0.295,2.237-0.92,2.237-2.039
		c0-0.517-0.318-0.826-1.31-1.273c-1.635-0.736-2.197-1.637-1.442-2.308c0.289-0.257,1.63-1.436,2.979-2.62
		c2.171-1.906,2.499-2.33,2.854-3.692c0.773-2.969,1.385-6.734,1.185-7.305c-0.283-0.809-1.328-1.935-1.796-1.935
		c-0.216,0-0.66-0.272-0.987-0.604c-0.396-0.403-0.593-0.47-0.593-0.201c0,0.222-0.887,1.886-1.971,3.699
		c-1.084,1.813-2.507,4.427-3.163,5.809c-1.063,2.242-1.386,2.647-2.999,3.76c-4.511,3.113-6.927,7.058-7.585,12.387
		c-0.308,2.493-0.108,4.14,0.502,4.14c0.238,0,1.136-0.612,1.996-1.359c0.86-0.747,1.796-1.359,2.08-1.359
		c0.461,0,0.495,0.223,0.314,2.063l-0.204,2.063l0.989,0.322C164.088,286.027,165.632,286.059,166.891,285.733L166.891,285.733z
		 M259.541,181.665c0.56-0.435,1.61-1.608,2.333-2.608l1.315-1.818l-0.748-0.94c-2.968-3.726-4.816-6.509-6.235-9.387
		c-0.903-1.831-1.637-3.534-1.631-3.783c0.017-0.733,0.922-1.679,2.704-2.823c4.027-2.587,4.465-3.673,4.641-11.497
		c0.082-3.682,0.004-6.367-0.222-7.549c-0.482-2.532-1.867-5.272-3.702-7.327l-1.546-1.731l-1.162,0.357
		c-1.421,0.437-3.584,2.515-4.316,4.147c-0.775,1.728-0.683,3.756,0.356,7.87c0.621,2.457,0.911,4.333,0.914,5.892
		c0.004,2.722-0.108,3.431-1.38,8.736c-1.286,5.366-1.668,8.3-1.66,12.768c0.006,3.966,0.398,5.898,1.538,7.591
		C252.707,182.486,257.125,183.541,259.541,181.665z M9.194,67.273c2.734-1.477,9.967-4.581,15.938-6.841l5.117-1.937l0.001-4.152
		c0.001-2.34-0.119-4.152-0.273-4.152c-0.368,0-9.074,3.593-12.003,4.954c-1.285,0.597-2.453,1.086-2.596,1.086
		c-0.146,0-0.26-9.322-0.26-21.289c0-11.709-0.1-21.292-0.223-21.294c-0.122,0-2.176,0.915-4.564,2.038l-4.341,2.043L5.865,42.793
		c-0.069,13.785-0.078,25.166-0.018,25.29C6.081,68.573,7.362,68.263,9.194,67.273L9.194,67.273z M353.435,56.608
		c-0.051-5.938-0.184-17.361-0.297-25.385l-0.204-14.589l-3.857-1.642c-2.122-0.903-4.225-1.642-4.673-1.642l-0.816,0v25.179v25.179
		l1.261,0.34c0.694,0.187,2.797,1.006,4.673,1.821s3.546,1.493,3.709,1.508C353.425,67.394,353.496,63.679,353.435,56.608
		L353.435,56.608z M337.018,24.495l0.041-14.071l-3.338-1.125c-1.836-0.619-3.57-1.251-3.853-1.406
		c-0.283-0.154-0.918-0.281-1.409-0.281h-0.894l-0.035,12.758c-0.019,7.017-0.013,12.928,0.013,13.136
		c0.214,1.679-1.259-1.627-6.508-14.607c-4.545-11.238-6.211-15.049-6.664-15.243c-1.117-0.48-6.637-1.782-7.556-1.782h-0.911
		v25.366v25.366h0.759c0.617,0,6.417,1.361,8.516,1.998c0.495,0.15,0.512-0.642,0.333-15.339
		c-0.13-10.709-0.094-15.404,0.119-15.195c0.169,0.166,3.444,8.044,7.276,17.506l6.968,17.204l3.369,1.075l3.369,1.075l0.181-11.183
		C336.895,43.598,336.995,32.233,337.018,24.495L337.018,24.495z M34.305,57.293c0.484-0.246,2.199-0.86,3.81-1.365
		c1.611-0.505,2.948-0.949,2.971-0.987c0.023-0.038,0.687-3.298,1.476-7.244l1.435-7.175l1.362-0.409
		c4.683-1.406,7.802-2.087,8.008-1.749c0.119,0.196,0.797,2.972,1.506,6.167c0.709,3.196,1.376,5.913,1.481,6.039
		c0.106,0.126,2.12-0.23,4.477-0.791c3.526-0.839,4.27-1.108,4.196-1.522c-0.049-0.276-1.16-4.201-2.469-8.722
		c-1.309-4.521-4.317-14.945-6.684-23.165c-2.368-8.22-4.36-15.002-4.427-15.07c-0.067-0.068-1.492,0.234-3.167,0.671
		c-1.674,0.438-3.374,0.833-3.776,0.878C43.788,2.93,43.7,3.263,40.151,19.39c-1.992,9.052-4.684,21.259-5.982,27.126
		c-2.339,10.574-2.354,10.671-1.73,10.928C33.304,57.799,33.311,57.798,34.305,57.293z M45.384,33.948
		c0-0.478,2.967-15.288,3.159-15.766c0.216-0.539,0.586,0.825,2.316,8.53l1.271,5.661l-1.222,0.319
		c-1.28,0.334-4.117,1.117-5.005,1.381C45.618,34.157,45.384,34.102,45.384,33.948z M299.478,25.222l0.178-25.12l-1.698-0.347
		c-0.934-0.191-3.1-0.658-4.813-1.038c-1.714-0.38-3.349-0.686-3.635-0.68c-0.488,0.012-0.524,1.111-0.593,18.156
		c-0.072,17.582,0.029,32.233,0.224,32.436c0.224,0.234,9.808,2.049,9.975,1.889C299.217,50.422,299.38,39.038,299.478,25.222
		L299.478,25.222z M73.75,47.021c2.087-0.415,3.834-0.755,3.882-0.755c0.048,0,0.123-5.741,0.165-12.758
		c0.058-9.516,0.159-12.567,0.4-12.004c0.178,0.415,2.169,5.817,4.425,12.004c2.256,6.187,4.247,11.247,4.425,11.244
		c0.96-0.014,0.871,0.252,7.054-21.134c0.84-2.907,1.639-5.414,1.775-5.571c0.136-0.158,0.247,5.448,0.247,12.457
		c0,7.009,0.1,12.742,0.223,12.741c0.356,0,6.957-0.877,7.953-1.052l0.906-0.159l-0.101-24.382
		c-0.055-13.41-0.171-24.837-0.258-25.393c-0.147-0.947-0.217-1.001-1.103-0.847c-2.542,0.444-6.801,0.858-7.474,0.727
		c-0.415-0.081-0.81-0.058-0.876,0.051c-0.066,0.109-1.938,6.104-4.16,13.322c-2.222,7.218-4.181,13.574-4.353,14.125
		c-0.172,0.551-0.371,0.943-0.442,0.87c-0.071-0.072-1.996-5.619-4.278-12.326C79.88,1.473,77.96-4.164,77.896-4.348
		c-0.081-0.231-1.198-0.118-3.63,0.37c-1.932,0.387-3.925,0.707-4.429,0.711l-0.916,0.012l-0.196,9.562
		c-0.108,5.259-0.196,16.664-0.196,25.344c0,16.874-0.078,15.858,1.233,16.094c0.107,0.019,1.902-0.305,3.989-0.72L73.75,47.021z
		 M282.391,22.013l0.076-25.259l-0.669-0.146c-2.893-0.629-7.285-1.377-8.089-1.377h-0.978l0.164,9.814
		c0.159,9.503,0.146,9.814-0.4,9.814c-0.31,0-2.768-0.338-5.46-0.75c-2.693-0.413-4.996-0.752-5.118-0.755
		c-0.122,0-0.223-4.486-0.223-9.964v-9.959l-0.668-0.14c-1.322-0.278-7.51-1.083-8.308-1.081h-0.816V17.52v25.311l4.673,0.619
		c2.57,0.341,4.754,0.573,4.853,0.517c0.099-0.056,0.113-5.289,0.031-11.629L261.31,20.81l0.71,0.168
		c0.391,0.092,2.88,0.473,5.532,0.847l4.822,0.679v11.729v11.729l0.964,0.016c0.53,0.012,2.633,0.33,4.673,0.714
		c2.04,0.384,3.843,0.671,4.006,0.638c0.194-0.038,0.323-8.782,0.373-25.318L282.391,22.013z M236.567,41.888
		c4.507-1.195,7.439-4.062,8.841-8.646c0.491-1.606,0.559-2.849,0.559-10.256v-8.428h-6.825h-6.825v1.464
		c0,0.805-0.086,2.504-0.192,3.775l-0.192,2.31h2.891h2.891l-0.103,4.024c-0.097,3.762-0.155,4.103-0.893,5.237
		c-2.192,3.37-6.728,2.774-9.376-1.231c-1.918-2.901-2-3.577-2-16.335c0-11.231,0.014-11.501,0.65-12.712
		c0.79-1.503,2.484-3.069,3.584-3.314c0.446-0.099,0.967-0.229,1.159-0.288c0.701-0.216,2.513,0.517,3.534,1.429
		c1.287,1.15,2.152,2.818,2.394,4.616l0.183,1.36h4.41c5.039,0,4.678,0.277,3.984-3.057C243.81-5.042,238.267-9.6,231.334-9.6
		c-6.845,0-12.458,4.34-14.498,11.211c-0.297,1.001-0.391,4.216-0.388,13.249c0.005,13.178,0.171,14.754,1.928,18.332
		c1.124,2.289,3.562,5.043,5.721,6.463c1.603,1.054,4.389,2.177,6.144,2.476C231.963,42.425,234.981,42.309,236.567,41.888
		L236.567,41.888z M124.311,40.237c10.166-0.867,10.825-1.057,13.402-3.861c4.743-5.16,5.403-15.85,1.242-20.127
		c-0.932-0.958-2.886-1.976-3.815-1.986c-0.384,0-0.138-0.236,0.7-0.658c4.48-2.257,5.807-11.676,2.611-18.525
		c-1.242-2.662-2.946-4.473-5.19-5.519l-1.671-0.779l-4.901,0.369c-5.018,0.378-14.641,1.276-14.758,1.376
		c-0.036,0.031-0.158,11.451-0.271,25.378l-0.206,25.322l2.793-0.185C115.785,40.94,120.313,40.578,124.311,40.237z M120.38,33.105
		c-0.122-0.125-0.223-3.378-0.223-7.229v-7.002l4.377-0.172l4.377-0.172l0.977,0.954c0.537,0.525,1.339,1.703,1.78,2.619
		c0.693,1.435,0.803,2.039,0.803,4.382c0,2.43-0.087,2.869-0.828,4.15c-1.258,2.179-2.013,2.463-6.887,2.589
		C122.472,33.285,120.502,33.225,120.38,33.105L120.38,33.105z M121.858,11.013l-1.712-0.109l0.08-6.553l0.08-6.553l4.045-0.084
		l4.045-0.084l1.372,1.553c3.222,3.648,2.861,9.548-0.697,11.374C127.718,11.25,126.649,11.318,121.858,11.013L121.858,11.013z
		 M164.75,39.177c6.19-1.335,10.448-5.788,11.175-11.687c0.15-1.217,0.241-7.648,0.203-14.291
		C176.051-0.124,176-0.558,174.067-4.316c-1.13-2.197-3.963-5.146-6.012-6.259c-1.966-1.068-4.566-1.812-6.887-1.97
		c-5.189-0.355-10.879,3.554-13.737,9.437c-2.033,4.183-2.138,5.239-1.898,19.019c0.226,12.947,0.345,14.04,1.847,16.847
		C150.124,37.89,157.714,40.695,164.75,39.177L164.75,39.177z M158.4,31.354c-1.636-0.595-2.853-1.601-3.685-3.047l-0.755-1.31
		l-0.063-12.636l-0.063-12.636l0.819-1.698c2.071-4.291,7-5.069,10.556-1.666c1.351,1.293,2.135,2.952,2.431,5.145
		c0.137,1.013,0.289,6.598,0.339,12.411c0.09,10.493,0.086,10.579-0.589,11.979C165.882,31.03,161.812,32.595,158.4,31.354
		L158.4,31.354z M211.844,38.939c0-0.21-1.936-5.305-4.302-11.323c-2.366-6.018-4.302-11.063-4.302-11.211
		c0-0.148,0.495-0.364,1.099-0.479c4.398-0.84,6.9-5.219,6.906-12.088c0.005-6.509-2.682-12.435-6.737-14.853
		c-1.52-0.907-3.934-1.134-15.436-1.454l-7.195-0.2v25.356v25.356l0.964,0.149c0.53,0.082,2.606,0.172,4.613,0.199l3.648,0.05
		l-0.043-10.809l-0.043-10.809l2.489-0.087l2.489-0.087l2.654,8.693c1.46,4.781,3,9.78,3.422,11.108l0.768,2.416l3.242,0.085
		c1.783,0.047,3.442,0.133,3.687,0.191c1.066,0.253,2.077,0.152,2.077-0.206L211.844,38.939z M190.974,9.827
		c-0.109-0.11-0.198-3.288-0.198-7.06v-6.859l3.655-0.215c4.047-0.237,5.226,0.035,6.8,1.568c2.58,2.515,2.435,9.45-0.247,11.847
		l-1.03,0.92h-4.391C193.148,10.028,191.083,9.938,190.974,9.827z"/>
	<path id="path3032" fill="#5C4B21" d="M172.257,421.851c-9.913-6.15-34.635-26.267-51.238-41.694
		c-27.249-25.319-54.575-59.244-73.199-90.874C8.105,221.834-12.527,143.182-14.956,49.981c-0.709-27.214-0.66-28.075,1.923-33.509
		c3.423-7.203,6.498-9.32,22.79-15.69c44.981-17.587,92.469-25.724,157.502-26.987c73.426-1.427,134.133,7.433,182.993,26.707
		c16.933,6.679,19.946,8.738,23.386,15.977c2.591,5.452,2.636,6.259,1.912,34.113c-3.979,153.057-56.482,266.574-163.613,353.746
		c-12.993,10.572-26.55,20.212-29.927,21.28C180.338,426.146,177.269,424.961,172.257,421.851L172.257,421.851z M100.26,317.452
		c1.858-0.863,3.221-3.078,4.224-6.87c0.815-3.078,2.311-6.579,3.324-7.779c1.117-1.322,2.04-5.34,2.344-10.197
		c0.443-7.09,1.025-8.691,5.046-13.872c2.595-3.344,5.372-8.816,6.471-12.752c1.059-3.792,2.758-8.525,3.775-10.518
		c7.608-14.912,12.52-23.553,13.389-23.553c2.619,0,4.713,5.727,4.713,12.891c0,5.648,0.474,7.792,1.902,8.607
		c1.699,0.969,1.717,1.458,0.166,4.589c-0.955,1.928-2.113,5.102-2.574,7.055c-1.147,4.86-4.947,10.028-8.908,12.114
		c-1.814,0.956-5.773,4.188-8.799,7.184c-4.362,4.318-5.497,6.269-5.483,9.417c0.024,5.324,1.731,8.107,3.727,6.074
		c2.388-2.432,3.471-1.728,2.624,1.706c-0.762,3.093-0.65,3.178,3.176,2.398c4.91-1,9.354-3.877,10.167-6.58
		c0.338-1.124,1.085-2.859,1.66-3.855c0.575-0.996,2.771-5.528,4.88-10.07c2.625-5.654,5.505-9.652,9.129-12.678
		c2.912-2.431,6.071-6.311,7.019-8.623c2.801-6.83,10.953-12.661,10.953-7.835c0,2.832-4.586,11.376-7.94,14.794
		c-4.216,4.295-7.464,10.052-7.469,13.241c-0.005,2.798,1.662,3.648,2.96,1.51c1.291-2.129,2.763-1.291,2.122,1.208
		c-0.521,2.03-0.036,2.416,3.035,2.416c6.092,0,11.823-3.495,12.704-7.748c0.425-2.05,1.801-5.454,3.059-7.565
		c1.497-2.512,2.028-4.89,1.538-6.881c-0.801-3.251,1.374-11.625,3.019-11.625c1.226,0,5.518,9.004,6.621,13.89
		c0.45,1.993,1.865,4.8,3.145,6.238c2.167,2.434,3.113,2.569,13.776,1.961c11.03-0.629,11.557-0.789,14.413-4.379
		c2.149-2.702,3.148-5.733,3.633-11.02c0.855-9.321,4.874-15.664,14.106-22.261l6.905-4.934l1.701,2.704
		c0.936,1.487,2.96,5.833,4.499,9.658c2.571,6.391,2.676,7.438,1.294,12.932c-0.827,3.288-1.149,7.115-0.716,8.505
		c0.439,1.408-0.144,5.166-1.316,8.486l-2.103,5.959l2.805,3.041c3.184,3.452,5.38,3.876,6.377,1.229
		c0.903-2.398,3.128-2.326,3.128,0.101c0,2.569,2.328,1.626,5.005-2.027c2.05-2.797,2.069-3.318,0.312-8.379
		c-1.03-2.968-1.635-6.334-1.343-7.479c0.292-1.145,0.001-4.406-0.646-7.247c-1.478-6.49-1.398-14.092,0.231-22.086
		c1.145-5.617,0.983-6.833-1.691-12.712c-1.626-3.575-2.734-6.728-2.462-7.005s2.518,0.306,4.99,1.296
		c11.496,4.604,20.478,3.554,25.932-3.031l3.232-3.903l-6.999-0.609c-7.957-0.692-8.321-0.874-16.719-8.365
		c-5.918-5.279-6.137-5.693-5.501-10.415c0.375-2.787-0.21-8.909-1.351-14.134c-1.855-8.496-1.866-9.733-0.131-15.813
		c1.035-3.628,1.882-8.193,1.882-10.144c0-5.836-3.193-14.844-6.95-19.607c-1.94-2.459-4.105-6.657-4.811-9.33
		c-0.706-2.673-2.594-6.826-4.196-9.229c-2.745-4.12-2.812-4.611-1.184-8.582c0.95-2.316,1.727-7.2,1.727-10.852
		c0-5.769-0.506-7.226-3.853-11.111c-7.266-8.43-10.665-9.198-45.351-10.241c-40.04-1.204-46.347-2.735-40.128-9.736
		c2.546-2.866,6.696-2.791,15.34,0.276c9.44,3.349,20.99,4.181,27.752,1.999c5.805-1.873,5.91-1.775-4.15-3.902
		c-1.63-0.345-2.964-1.231-2.964-1.969c0-0.903,1.843-1.092,5.632-0.579c15.501,2.101,18.081,2.254,18.081,1.077
		c0-1.96-10.411-5.987-21.274-8.228c-17.465-3.604-34.3-0.617-42.267,7.498c-4.897,4.988-5.456,10.287-1.373,12.999
		c5.136,3.411,13.577,4.457,43.728,5.417c27.572,0.878,30.88,1.209,35.672,3.572c5.895,2.907,8.455,6.702,8.299,12.3
		c-0.13,4.647-3.185,9.606-5.917,9.605c-4.626-0.002-19.944-3.914-30.789-7.864c-6.363-2.317-12.637-4.21-13.941-4.207
		c-2.945,0.007-6.402,2.319-16.65,11.132c-4.42,3.801-12.286,9.164-17.48,11.916c-16.812,8.91-22.001,15.995-24.338,33.231
		c-1.266,9.336-2.835,13.07-10.066,23.95c-6.003,9.032-10.253,21.171-10.285,29.377c-0.016,3.962-1.406,10.31-3.703,16.91
		c-3.042,8.738-3.724,12.657-3.944,22.645c-0.228,10.359-0.696,12.88-3.287,17.709c-1.866,3.478-3.341,8.68-3.859,13.605
		c-0.764,7.266-1.355,8.589-6.66,14.902c-3.202,3.81-5.826,7.589-5.832,8.396c-0.006,0.807-1.621,3.336-3.589,5.62
		c-4.524,5.249-6.741,11.268-4.857,13.186c1.001,1.02,1.811,0.689,3.179-1.299c2.6-3.782,4.091-3.325,2.905,0.889
		c-0.682,2.424-0.562,3.753,0.379,4.171C90.005,320.149,96.747,319.083,100.26,317.452L100.26,317.452z M191.006,64.069
		c-3.328-2.144-0.156-2.705,4.931-0.872l5.113,1.842l-4.15,0.077C194.618,65.158,191.965,64.687,191.006,64.069z M19.944,62.595
		c9.189-3.412,9.782-3.845,9.782-7.142c0-1.93-0.183-3.509-0.407-3.509c-0.224,0-3.509,1.087-7.299,2.416
		c-3.791,1.329-7.075,2.416-7.299,2.416c-0.224,0-0.407-9.512-0.407-21.137s-0.187-21.137-0.416-21.137
		c-0.229,0-2.096,0.597-4.15,1.326l-3.734,1.326v25.376c0,23.681,0.139,25.32,2.075,24.537
		C9.228,66.605,14.564,64.593,19.944,62.595z M354.59,42.399V17.153l-3.734-1.326c-2.054-0.729-3.921-1.326-4.15-1.326
		c-0.229,0-0.416,11.335-0.416,25.19v25.19l3.853,1.259c2.119,0.693,3.987,1.315,4.15,1.383
		C354.456,67.59,354.59,56.285,354.59,42.399L354.59,42.399z M336.533,35.422l-0.32-24.977l-3.26-0.887l-3.26-0.887l-0.018,13.484
		c-0.021,15.453-0.141,15.407-7.241-2.822C317.228,5.973,315.536,3.63,311.087,3.63h-2.738v24.761
		c0,18.994,0.345,24.764,1.482,24.777c0.815,0.009,2.666,0.34,4.112,0.735c2.598,0.71,2.634,0.541,2.964-13.991l0.334-14.71
		l6.483,16.478c3.566,9.063,7.301,16.966,8.299,17.562C336.738,62.054,336.866,61.38,336.533,35.422z M40.554,56.045
		c0.413-0.245,1.117-3.434,1.565-7.086c0.914-7.456,0.838-7.359,6.739-8.487l4.294-0.821l1.435,6.094
		c1.408,5.978,1.507,6.08,5.182,5.369c2.061-0.399,3.965-0.914,4.231-1.145c0.597-0.518-10.648-45.45-11.631-46.473
		c-0.39-0.406-2.343-0.281-4.341,0.278c-3.603,1.008-3.667,1.172-8.058,20.667c-2.434,10.808-5.161,22.811-6.06,26.672l-1.633,7.021
		l3.764-0.822C38.109,56.861,40.141,56.29,40.554,56.045z M45.692,31.536c0.392-1.26,1.127-4.657,1.631-7.549l0.918-5.259
		l1.563,6.477c1.315,5.451,1.304,6.644-0.069,7.53C46.875,34.581,44.924,34.002,45.692,31.536L45.692,31.536z M300.05,26.047
		c0-13.579-0.4-24.918-0.889-25.198s-2.356-0.865-4.15-1.302l-3.26-0.794V24.06v25.307l3.26,0.503
		c1.793,0.277,3.661,0.585,4.15,0.684C299.65,50.654,300.05,39.626,300.05,26.047L300.05,26.047z M76.164,47.706
		c1.155-0.449,1.476-2.809,1.196-8.794c-0.211-4.499-0.211-10.337,0-12.974c0.355-4.444,0.721-3.786,4.997,9.004l4.613,13.799
		l4.279-15.474l4.279-15.474l0.336,13.565c0.289,11.664,0.594,13.464,2.172,12.847c1.01-0.395,2.859-0.718,4.11-0.718
		c2.169,0,2.274-1.162,2.274-25.122V-6.755l-4.047,0.481c-3.964,0.471-4.11,0.694-7.18,10.93c-1.723,5.747-3.831,12.623-4.684,15.28
		l-1.551,4.831l-3.859-12.682C80.978,5.11,78.824-1.06,78.313-1.625c-0.511-0.565-2.582-0.658-4.603-0.206l-3.674,0.822v24.665
		c0,23.509,0.107,24.665,2.274,24.665C73.562,48.32,75.296,48.044,76.164,47.706z M281.993,22.05l-0.32-25.063l-3.26-0.382
		l-3.26-0.382V5.98v9.757l-5.039-0.719c-8.269-1.18-8.003-0.802-8.003-11.35c0-6.946-0.421-9.705-1.482-9.717
		c-0.815-0.009-2.682-0.344-4.15-0.745l-2.668-0.728v25.373v25.373l4.15,0.494l4.15,0.494V32.98c0-12.441-0.388-11.969,8.596-10.457
		l4.446,0.749V34.5c0,9.678,0.286,11.304,2.075,11.78C282.456,47.672,282.329,48.314,281.993,22.05L281.993,22.05z M132.769,39.444
		c4.871-2.37,7.63-7.372,7.726-14.007c0.067-4.647-0.501-6.634-2.47-8.641c-2.539-2.589-2.541-2.633-0.301-6.376
		c2.721-4.546,2.884-9.314,0.479-14.052c-2.237-4.407-7.957-6.005-17.777-4.965l-7.114,0.753l-0.321,25.188l-0.321,25.188
		l8.62-0.848C126.032,41.216,131.197,40.209,132.769,39.444L132.769,39.444z M121.019,26.793c0-6.285,0.311-7.262,2.499-7.845
		c6.638-1.768,11.445,4.926,8.021,11.171c-1.268,2.313-2.824,3.199-6.111,3.478l-4.409,0.375
		C121.019,33.972,121.019,26.793,121.019,26.793z M121.019,5.412v-6.613h3.913c4.741,0,6.758,1.83,6.758,6.133
		c0,3.84-1.616,5.345-6.817,6.349l-3.853,0.744C121.019,12.025,121.019,5.412,121.019,5.412z M241.537,39.255
		c3.141-2.097,5.144-8.563,5.153-16.639c0.007-6.351-0.093-6.437-8.589-7.267l-5.632-0.551v4.079c0,3.546,0.388,4.079,2.964,4.079
		c2.392,0,2.964,0.599,2.964,3.099c0,7.157-5.649,10.342-9.884,5.574c-5.812-6.542-4.515-31.461,1.743-33.485
		c2.61-0.844,6.956,2.324,6.956,5.07c0,1.051,1.464,1.625,4.15,1.625c4.707,0,5.235-1.605,2.378-7.234
		c-2.508-4.94-6.299-7.26-11.863-7.26c-10.178,0-14.783,7.735-14.742,24.761c0.027,11.256,1.719,18.362,5.345,22.443
		C226.668,42.264,235.803,43.083,241.537,39.255L241.537,39.255z M168.197,37.974c1.458-1.04,3.814-4.166,5.235-6.945
		c3.718-7.27,3.79-25.52,0.133-33.654c-2.493-5.544-7.326-9.446-11.699-9.446c-4.144,0-9.729,3.889-12.314,8.573
		c-5.51,9.988-4.432,32.094,1.942,39.811c2.479,3.002,3.797,3.553,8.494,3.553C163.113,39.865,166.706,39.038,168.197,37.974
		L168.197,37.974z M156.912,29.354c-1.532-2.379-2.198-6.229-2.454-14.192c-0.301-9.351,0.002-11.505,2.105-14.933
		c3.069-5.002,6.917-4.847,9.5,0.382c2.673,5.412,2.466,24.419-0.313,28.739C163.069,33.518,159.594,33.519,156.912,29.354
		L156.912,29.354z M190.972,28.609c0-10.2,0.108-10.636,2.537-10.267c2.02,0.307,3.284,2.542,6.199,10.955l3.662,10.569h4.433h4.433
		l-3.894-11.385l-3.894-11.385l3.182-3.059c3.887-3.737,5.098-9.181,3.44-15.455c-1.849-6.994-6.495-9.434-17.976-9.44l-9.142-0.004
		L183.608,14c-0.189,13.675-0.254,24.953-0.145,25.063c0.109,0.109,1.843,0.199,3.853,0.199h3.656V28.609L190.972,28.609z
		 M191.861,10.178c-0.489-0.501-0.889-3.882-0.889-7.512v-6.601l4.997,0.683c7.099,0.97,10.104,5.967,6.559,10.906
		C200.93,9.88,193.326,11.68,191.861,10.178z M-30.555,43.489c0-1.661,0.269-2.34,0.598-1.51c0.329,0.83,0.329,2.189,0,3.02
		C-30.286,45.829-30.555,45.15-30.555,43.489z M-30.387,32.618c0-3.654,0.222-5.148,0.494-3.322c0.272,1.827,0.272,4.816,0,6.643
		C-30.165,37.767-30.387,36.272-30.387,32.618z"/>
	<path id="path3030" fill="#282928" d="M168.866,415.975c-29.139-21.193-65.507-55.638-85.945-81.398
		C21.183,256.76-8.058,169.175-12.443,48.924c-1.166-31.959,0.45-35.885,17.81-43.288c45.395-19.359,103.768-29.04,174.934-29.012
		c53.642,0.02,91.103,4.245,132.199,14.907c18.621,4.831,44.695,14.052,51.29,18.138c4.924,3.051,8.293,8.701,9.34,15.663
		c1.043,6.936-1.326,55.869-3.745,77.341c-12.496,110.93-52.487,196.778-125.116,268.584
		c-23.328,23.064-58.663,51.492-64.003,51.492C179.118,422.749,173.988,419.701,168.866,415.975L168.866,415.975z M100.503,317.721
		c2.792-1.734,4.007-3.561,4.618-6.941c0.456-2.523,1.819-5.883,3.028-7.467c1.607-2.104,2.2-4.918,2.2-10.437
		c0-7.049,0.321-7.951,4.778-13.425c3.275-4.023,5.665-8.801,7.599-15.191c1.552-5.127,3.869-10.834,5.15-12.682
		c1.281-1.848,4.005-6.757,6.053-10.909c2.048-4.152,4.185-7.549,4.748-7.549c2.519,0,4.175,4.225,3.928,10.019
		c-0.316,7.403,0.522,10.514,2.832,10.514c1.497,0,1.486,0.478-0.08,3.564c-0.995,1.96-1.809,4.234-1.809,5.054
		c0,3.692-5.246,12.036-9.088,14.455c-2.298,1.447-5.368,3.777-6.822,5.179c-1.455,1.402-3.805,3.494-5.223,4.65
		c-2.404,1.96-3.192,5.332-2.613,11.184c0.345,3.486,2.122,4.999,3.828,3.261c2.238-2.28,3.532-1.694,2.134,0.966
		c-1.15,2.188-0.902,2.415,2.626,2.411c4.464-0.005,11.602-3.982,11.602-6.464c0-1.668,8.39-18.686,11.32-22.961
		c0.849-1.239,3.192-3.274,5.205-4.521c2.014-1.248,4.566-4.31,5.671-6.806c2.663-6.013,6.172-9.973,8.837-9.973
		c1.191,0,2.165,0.287,2.165,0.638c0,2.043-7.293,14.875-8.786,15.459c-2.216,0.866-8.159,12.552-7.193,14.144
		c0.931,1.534,4.122,1.499,4.122-0.045c0-0.664,0.517-1.208,1.148-1.208s0.821,0.87,0.42,1.934
		c-1.039,2.757,1.572,3.947,6.285,2.864c6.172-1.418,9.931-4.406,9.931-7.894c0-1.672,1.142-4.615,2.539-6.539
		c1.943-2.677,2.375-4.528,1.84-7.883c-0.686-4.305,0.995-10.262,2.895-10.262c1.37,0,4.09,5.71,5.754,12.078
		c2.323,8.889,3.233,9.4,16.754,9.4c8.979,0,12.205-0.43,13.271-1.767c0.775-0.972,2.435-2.91,3.69-4.307
		c1.631-1.816,2.336-4.512,2.471-9.455c0.158-5.773,0.858-7.863,4.239-12.656c5.068-7.184,14.949-14.431,17.144-12.575
		c0.837,0.708,2.942,4.899,4.677,9.314c2.858,7.274,3.021,8.512,1.736,13.19c-0.78,2.84-1.136,6.673-0.789,8.518
		c0.346,1.846-0.122,5.189-1.041,7.429c-2.361,5.756-2.092,8.29,1.24,11.684c3.61,3.677,5.173,3.737,6.497,0.247l1.031-2.718
		l1.119,2.959l1.119,2.959l3.147-3.206c3.55-3.616,3.931-6.721,1.432-11.645c-0.943-1.858-1.409-4.572-1.034-6.03
		s-0.001-5.926-0.835-9.928c-1.23-5.904-1.23-9.145-0.002-17.185c1.434-9.388,1.381-10.159-1.007-14.698
		c-3.812-7.245-3.365-7.94,3.421-5.313c10.267,3.974,21.06,2.32,25.324-3.881c2.984-4.34,2.486-5.95-1.582-5.121
		c-6.297,1.283-11.319-0.589-18.32-6.83l-6.735-6.004l-0.608-10.579c-0.638-11.105-0.67-17.564-0.173-35.143
		c0.301-10.634,0.285-10.7-4.395-17.816c-2.583-3.928-5.575-9.743-6.649-12.921c-1.074-3.178-3.137-7.063-4.585-8.634
		c-2.507-2.718-2.542-3.033-0.741-6.581c5.655-11.14,2.277-22.133-8.717-28.365l-6.418-3.639l-30.336-0.961
		c-38.475-1.219-45.731-2.638-42.726-8.358c1.969-3.749,6.176-3.899,16.465-0.588c10.437,3.359,21.897,4.082,28.352,1.79
		c4.342-1.542,3.865-3.506-0.851-3.506c-1.793,0-4.296-0.843-5.562-1.874c-2.156-1.755-2.001-1.833,2.441-1.229
		c14.514,1.973,19.563,2.182,19.563,0.81c0-0.779-2.268-2.399-5.039-3.6c-17.161-7.437-38.914-8.246-51.363-1.912
		c-6.321,3.217-12.365,9.507-12.365,12.869c0,2.226,5.782,6.862,10.223,8.197c2.529,0.76,18.47,1.909,35.424,2.554
		c33.279,1.265,38.864,2.297,43.263,7.995c3.198,4.142,3.064,10.277-0.311,14.274l-2.695,3.192l-9.24-1.944
		c-5.082-1.069-13.873-3.636-19.535-5.704c-17.756-6.485-17.846-6.469-31.922,5.51c-4.758,4.05-14.08,10.386-20.715,14.08
		c-16.883,9.401-20.289,14.815-22.902,36.409c-0.489,4.043-2.435,8.401-6.738,15.098c-9.083,14.134-11.647,20.663-12.837,32.681
		c-0.616,6.223-2.517,14.767-4.633,20.82c-2.987,8.546-3.591,12.114-3.604,21.287c-0.014,9.379-0.443,11.807-2.886,16.306
		c-1.579,2.907-3.208,8.003-3.622,11.325c-1.274,10.238-1.685,11.253-7.056,17.414c-2.867,3.289-5.599,7.238-6.07,8.777
		c-0.472,1.539-2.378,4.574-4.237,6.745c-3.769,4.402-5.266,8.866-4.043,12.053c0.71,1.851,1.186,1.661,3.794-1.507l2.982-3.624
		l-0.755,4.529l-0.755,4.529l5.093-0.005C94.575,320.076,98.304,319.085,100.503,317.721L100.503,317.721z M191.516,63.942
		c-1.23-2.027-0.266-2.132,4.198-0.455l4.15,1.559l-3.783,0.092C194,65.189,191.946,64.65,191.516,63.942L191.516,63.942z
		 M9.989,167.594C4.441,138.597,0.786,105.695-1.047,68.25c-1.928-39.387-1.972-39.842-4.189-43.289
		c-1.137-1.767-2.539-3.213-3.116-3.213c-3.433,0,1.044,68.517,6.788,103.874c3.293,20.271,10.684,50.729,12.311,50.729
		C11.252,176.351,10.911,172.41,9.989,167.594L9.989,167.594z M30.908,55.265c0.001-2.491-0.181-4.529-0.405-4.529
		c-0.224,0-3.513,1.088-7.308,2.419c-3.796,1.33-7.176,2.139-7.511,1.797c-0.336-0.342-0.851-9.583-1.145-20.536
		s-0.964-19.915-1.489-19.915c-0.525,0-2.323,0.53-3.996,1.178l-3.041,1.178V42.8v25.943l12.447-4.474l12.447-4.474L30.908,55.265
		L30.908,55.265z M353.725,16.785c-0.502-0.498-2.381-1.275-4.174-1.726l-3.26-0.82v25.492v25.492l3.853,1.603l3.853,1.603
		l0.321-25.369C354.494,29.107,354.227,17.283,353.725,16.785L353.725,16.785z M337.991,36.313c0-13.911-0.4-25.533-0.889-25.826
		c-0.489-0.293-2.675-0.924-4.857-1.401l-3.968-0.868l0.411,12.201c0.226,6.711,0.144,12.197-0.182,12.192
		c-0.326-0.005-2.867-5.848-5.646-12.985c-6.188-15.89-5.938-15.501-10.656-16.544l-3.853-0.852V27.62
		c0,13.964,0.4,25.618,0.889,25.897c0.489,0.28,2.356,0.865,4.15,1.302l3.26,0.794V41.459c0-7.785,0.445-13.638,0.989-13.007
		c0.544,0.631,3.57,7.858,6.725,16.059c5.584,14.516,7.187,16.763,12.146,17.019C337.65,61.589,337.991,55.783,337.991,36.313z
		 M37.808,57.879c3.296-1.171,3.84-2.068,5.05-8.33c1.24-6.419,1.661-7.081,4.93-7.747c5.357-1.091,5.384-1.075,6.197,3.826
		c1.166,7.029,1.859,7.653,6.916,6.231c2.416-0.68,4.394-1.525,4.394-1.877c0-0.353-2.062-8.344-4.582-17.759
		c-2.52-9.415-5.294-19.99-6.163-23.502c-1.548-6.25-1.658-6.368-5.2-5.61c-1.99,0.426-4.003,1.136-4.473,1.578
		c-0.86,0.808-12.759,50.175-12.773,52.993C32.095,59.531,33.062,59.564,37.808,57.879z M46.784,29.974
		c0.399-2.033,0.726-4.553,0.726-5.599c0-3.05,1.979-0.037,2.753,4.192c0.576,3.146,0.274,3.911-1.755,4.452
		C46.324,33.6,46.137,33.269,46.784,29.974z M371.084,34.43c0.074-8.704-0.74-13.89-2.179-13.89c-0.451,0-1.78,0.715-2.953,1.588
		c-2.041,1.521-2.046,2.15-0.116,14.796c1.109,7.264,2.321,14.023,2.693,15.02C369.507,54.559,371.001,44.316,371.084,34.43
		L371.084,34.43z M300.05,26.126V0.309l-3.746-0.763c-2.06-0.42-3.854-0.624-3.986-0.453s-0.592,11.532-1.021,25.247l-0.781,24.937
		l4.471,1.209c2.459,0.665,4.605,1.265,4.768,1.334C299.917,51.888,300.05,40.326,300.05,26.126L300.05,26.126z M75.668,48.767
		c2.522-0.688,2.674-1.364,2.781-12.364l0.113-11.636l3.853,11.791c2.119,6.485,4.142,12.085,4.495,12.444s1.722-3.044,3.043-7.563
		c1.321-4.519,3.193-10.935,4.161-14.256l1.76-6.039l0.123,12.19l0.123,12.19l4.446-0.743l4.446-0.743l-0.445-25.337
		c-0.245-13.935-0.586-25.504-0.759-25.708c-0.173-0.204-2.088,0.098-4.257,0.67c-3.846,1.015-4.044,1.392-8.079,15.329
		l-4.137,14.288l-4.308-13.146c-4.252-12.977-4.352-13.141-7.76-12.74c-1.899,0.223-3.823,0.767-4.275,1.208
		c-0.452,0.441-0.986,12.081-1.186,25.866C69.415,51.545,69.172,50.54,75.668,48.767L75.668,48.767z M283.451,23.027
		c0-13.911-0.4-25.542-0.889-25.847c-0.489-0.305-2.49-0.744-4.446-0.977l-3.557-0.423l-0.346,9.361
		c-0.344,9.289-0.371,9.361-3.557,9.344c-8.005-0.041-8.424-0.579-8.797-11.285l-0.342-9.836l-3.853-0.378l-3.853-0.378v25.312
		c0,27.073-0.066,26.778,5.981,26.778c1.997,0,2.265-1.165,2.571-11.171l0.341-11.171l4.743,0.418
		c2.608,0.23,5.143,0.669,5.632,0.976c0.489,0.307,0.889,5.655,0.889,11.885v11.327l3.853,0.487c2.119,0.268,4.253,0.574,4.743,0.68
		C283.051,48.233,283.451,36.938,283.451,23.027L283.451,23.027z M132.553,40.385c7.763-3.209,11.083-15.115,6.397-22.942
		c-1.913-3.195-1.993-4.011-0.588-5.968c2.224-3.099,2.063-12.713-0.271-16.107c-2.866-4.168-7.123-5.274-16.755-4.355l-8.617,0.823
		v25.86v25.86l8.003-0.795C125.124,42.324,130.448,41.255,132.553,40.385z M121.5,32.153c-0.347-0.92-0.463-4.046-0.259-6.945
		c0.336-4.772,0.687-5.308,3.703-5.661c4.655-0.544,6.746,1.691,6.746,7.21c0,3.948-0.494,4.905-3.041,5.891
		C124.448,34.275,122.242,34.122,121.5,32.153z M121.019,5.573c0-4.604,0.379-5.401,2.87-6.038c4-1.023,6.51,0.23,7.359,3.673
		c0.955,3.875-2.436,7.669-6.856,7.669C121.197,10.877,121.019,10.597,121.019,5.573z M240.063,40.906
		c4.292-1.992,6.634-8.016,6.634-17.063v-7.806l-5.501-0.768c-8.637-1.206-8.727-1.17-8.727,3.459c0,3.422,0.452,4.227,2.371,4.227
		c3.446,0,3.486,9.14,0.045,10.252c-6.023,1.948-9.511-4.808-9.523-18.444c-0.009-10.134,2.386-15.965,6.557-15.965
		c2.401,0,3.446,0.86,4.499,3.703c1.267,3.419,1.69,3.642,5.529,2.912c2.286-0.435,4.322-0.955,4.523-1.156
		c0.201-0.201-0.401-2.235-1.338-4.521c-5.203-12.686-20.57-13.648-25.795-1.614c-3.153,7.262-4.107,18.893-2.282,27.844
		c1.998,9.804,8.071,16.314,15.22,16.314C234.928,42.281,238.433,41.662,240.063,40.906L240.063,40.906z M167.947,38.796
		c5.289-3.286,7.951-9.936,8.557-21.386c0.977-18.438-4.785-29.482-15.383-29.482c-3.819,0-5.553,0.798-8.695,3.998
		c-5.232,5.33-6.863,12.111-6.307,26.221c0.363,9.211,0.973,12.356,3.069,15.81C153.534,41.121,161.073,43.066,167.947,38.796
		L167.947,38.796z M158.483,30.752c-6.082-6.196-5.008-31.222,1.448-33.746c7.548-2.951,11.123,25.588,4.184,33.399
		C161.719,33.102,160.843,33.156,158.483,30.752z M212.313,40.092c0-0.54-1.592-5.778-3.537-11.64l-3.537-10.659l3.668-4.256
		c3.334-3.869,3.62-4.843,3.142-10.714c-0.885-10.877-6.783-14.874-21.967-14.888l-7.41-0.007v25.968v25.968h4.743h4.743V28.995
		c0-14.493,1.977-14.512,7.09-0.068c3.363,9.502,4.201,10.861,6.963,11.293C211.816,41.097,212.313,41.087,212.313,40.092
		L212.313,40.092z M192.157,3.338v-6.47l4.108,0.489c5.171,0.615,6.826,2.623,6.347,7.704c-0.356,3.776-0.664,4.026-5.416,4.376
		l-5.039,0.371V3.338z M1.22,14.199c0.088-1.596-4.076-0.97-6.887,1.036l-2.722,1.942l2.703,2.931l2.703,2.931l2.077-3.967
		C0.236,16.89,1.193,14.697,1.22,14.199z"/>
	<g id="g3060" transform="matrix(0.95536881,0,0,0.97325585,-276.43252,0.08142099)">
		<path id="path3028" fill="#040404" d="M459.416,421.402c-87.249-65.626-141.211-146.208-166.229-248.233
			c-10.063-41.036-16.163-91.721-16.163-134.292c0-23.234,1.663-25.791,22.042-33.886c65.474-26.009,162.647-35.17,257.188-24.245
			c47.851,5.529,108.396,22.817,117.927,33.673c3.87,4.408,4.77,6.913,2.142,5.965c-0.853-0.308-2.831,0.428-4.396,1.635
			c-2.837,2.189-2.84,2.223-1.043,12.698c0.991,5.777,2.199,16.507,2.683,23.845c0.484,7.338,1.299,13.341,1.811,13.341
			c1.646,0,2.462-8.827,2.754-29.785l0.285-20.477l0.434,16.754c0.815,31.465-3.832,78.248-11.534,116.111
			c-14.366,70.626-42.273,131.661-84.514,184.838c-26.644,33.541-94.011,93.697-104.93,93.697
			C476.035,433.041,468.953,428.576,459.416,421.402L459.416,421.402z M489.357,422.943c16.192-10.458,32.025-23.762,50.294-42.26
			c25.052-25.367,39.566-42.295,44.585-52.001c1.534-2.966,1.461-3.536-0.702-5.493c-2.342-2.12-2.912-1.691-19.5,14.685
			c-20.74,20.475-35.082,32.047-35.082,28.306c0-2.215-16.067-11.319-25.656-14.538c-17.129-5.75-35.724-5.226-50.917,1.435
			l-6.455,2.83l-2.066-7.041c-5.835-19.886-9.113-46.307-5.998-48.344c0.751-0.491,2.919-4.378,4.819-8.639
			c2.467-5.533,5.299-9.323,9.913-13.265c3.907-3.338,6.911-7.092,7.602-9.501c1.174-4.095,6.667-9.227,9.006-8.415
			c2.021,0.701-2.431,9.572-8.081,16.099c-2.712,3.134-5.675,7.494-6.585,9.691c-1.438,3.47-1.392,4.256,0.346,5.994
			c1.84,1.84,2.074,1.808,2.92-0.392c0.835-2.174,0.986-2.109,1.648,0.71c0.953,4.06,4.648,4.531,11.564,1.471
			c4.822-2.133,5.543-2.983,6.243-7.365c0.436-2.724,1.676-5.687,2.757-6.584c1.322-1.097,1.862-3.283,1.651-6.677
			c-0.329-5.289,1.045-11.871,2.478-11.871c1.496,0,4.846,6.703,5.744,11.49c0.481,2.566,1.969,6.056,3.307,7.756
			c2.311,2.938,3.069,3.092,15.225,3.092h12.793l3.531-4.629c2.739-3.59,3.575-6.087,3.727-11.126
			c0.265-8.807,4.796-16.261,13.804-22.712l7.073-5.065l2.018,2.676c1.11,1.472,3.205,5.973,4.654,10.003
			c2.058,5.72,2.36,8.055,1.375,10.646c-0.694,1.825-1.472,6.7-1.73,10.832c-0.257,4.133-0.84,9.527-1.294,11.987
			c-0.719,3.896-0.389,4.818,2.559,7.136c4.273,3.361,5.339,3.34,6.734-0.13c0.813-2.023,1.144-2.214,1.201-0.694
			c0.133,3.544,2.591,3.89,5.856,0.824c2.65-2.489,3.001-3.659,2.369-7.886c-0.408-2.73-1.224-8.594-1.812-13.031
			c-0.588-4.437-1.484-9.065-1.99-10.284s-0.214-7.366,0.65-13.659c1.498-10.908,1.447-11.685-1.091-16.658
			c-3.64-7.134-3.399-8.243,1.263-5.832c5.381,2.782,17.365,3.734,22.136,1.758c4.052-1.678,8.688-6.704,8.688-9.417
			c0-1.219-1.501-1.463-5.895-0.958c-4.893,0.562-6.56,0.183-9.808-2.23c-2.152-1.599-6.211-4.583-9.02-6.631
			c-4.859-3.542-5.073-3.972-4.412-8.835c0.395-2.905-0.19-9.003-1.355-14.123c-1.127-4.956-1.715-10.753-1.306-12.883
			c0.409-2.13,1.296-6.552,1.972-9.828c1.696-8.224-0.329-16.637-6.115-25.399c-2.585-3.915-5.406-9.351-6.271-12.081
			c-0.864-2.73-2.653-6.506-3.976-8.392c-2.314-3.298-2.325-3.667-0.303-9.754c3.986-12.001-0.123-21.761-11.496-27.305
			c-5.525-2.693-8-2.95-36.334-3.771c-27.237-0.789-41.404-2.119-44.773-4.201c-2.308-1.426-1.103-5.598,2.029-7.025
			c2.666-1.215,4.903-0.871,13.962,2.142c11.544,3.84,23.691,4.631,30.408,1.98c4.464-1.762,3.462-3.328-2.768-4.324
			c-2.706-0.433-5.265-1.344-5.685-2.025c-1.056-1.708,1.589-1.554,11.087,0.649c7.679,1.781,14.356,1.489,14.356-0.628
			c0-1.364-10.483-5.672-19.415-7.978c-10.086-2.604-28.097-2.564-36.284,0.08c-7.537,2.434-15.673,9.012-16.825,13.603
			c-1.041,4.148,2.435,8.147,8.95,10.297c2.615,0.863,19.725,2.209,39.373,3.097c36.925,1.669,40.296,2.308,44.602,8.455
			c2.833,4.044,2.423,10.197-0.94,14.106c-2.818,3.277-3.013,3.314-9.618,1.852c-3.708-0.821-14.022-3.86-22.921-6.755
			c-12.543-4.079-17.007-5.035-19.856-4.25c-2.022,0.557-7.865,4.631-12.984,9.053c-5.153,4.451-14.729,10.897-21.451,14.439
			c-17.106,9.014-22.351,16.024-24.466,32.704c-1.189,9.382-3.253,14.228-11.881,27.908c-5.891,9.34-9.218,18.798-9.218,26.201
			c0,3.815-1.682,11.253-4.344,19.208c-3.665,10.955-4.344,14.706-4.344,24.019c0,9.337-0.477,11.962-3.099,17.046
			c-1.704,3.305-3.416,8.802-3.803,12.215c-1.161,10.229-1.44,10.882-7.939,18.562c-3.441,4.066-6.256,8.394-6.256,9.618
			s-0.538,2.225-1.196,2.225c-2.08,0-7.491,9.12-7.491,12.625c0,4.686,2.38,5.677,5.125,2.135l2.302-2.971l-0.766,4.033
			c-0.666,3.505-0.427,4.033,1.819,4.033c1.784,0,3.628,1.827,5.951,5.895c13.134,22.998,42.114,56.778,63.754,74.313
			c10.923,8.851,25.91,19.074,27.962,19.074C480.761,428.077,484.986,425.767,489.357,422.943L489.357,422.943z M404.81,308.422
			c0.679-1.786,1.173-5.999,1.097-9.361c-0.113-5.029,0.521-6.951,3.576-10.838c4.725-6.012,7.134-10.749,9.008-17.714
			c1.601-5.952,14.54-31.068,16.005-31.068c2.589,0,3.862,3.743,3.862,11.356c0,6.279,0.482,8.647,1.925,9.455
			c3.157,1.767-1.353,14.413-7.143,20.028c-7.511,7.285-11.301,10.54-14.911,12.806c-2.46,1.544-3.635,3.535-4.211,7.136
			c-0.439,2.747-1.243,4.994-1.786,4.994c-0.543,0-2.713,1.452-4.822,3.227l-3.835,3.227L404.81,308.422L404.81,308.422z
			 M490.48,65.698c-1.536-0.993-1.428-1.191,0.621-1.135c1.365,0.038,3.599,0.548,4.964,1.135c2.273,0.977,2.221,1.072-0.621,1.135
			C493.738,66.87,491.504,66.359,490.48,65.698z M314.715,223.618c-2.323-7.338-6.707-23.393-9.744-35.679
			c-10.404-42.095-13.888-70.464-17.47-142.272c-0.609-12.207-1.303-16.543-3.129-19.546c-2.761-4.539-4.83-4.985-4.952-1.066
			c-1.585,50.947,6.813,115.758,21.128,163.061c6.216,20.538,16.368,48.845,17.518,48.845
			C318.546,236.959,317.038,230.956,314.715,223.618L314.715,223.618z M353.347,150.743c24.144-6.358,46.674-24.946,57.201-47.194
			c1.292-2.73,2.393-5.243,2.447-5.585c0.054-0.341,1.154-3.971,2.444-8.067c1.738-5.52,2.357-11.298,2.393-22.338
			c0.054-16.699-0.853-21.647-4.009-21.869c-1.181-0.083,1.048-0.62,4.955-1.192c13.47-1.974,18.338-6.835,18.338-18.314
			c0-4.199-0.75-7.052-2.383-9.059c-2.231-2.744-2.251-3.076-0.31-5.232c1.35-1.499,2.072-4.456,2.072-8.479
			c0-5.408-0.504-6.627-4.053-9.798c-4.273-3.818-9.816-4.584-20.457-2.825l-4.654,0.769v16.49c0,9.069-0.339,17.373-0.753,18.453
			c-0.414,1.08-2.09,1.963-3.723,1.963h-2.97V10.472c0-17.839-0.024-17.995-2.792-17.978c-7.233,0.044-7.763,0.734-12.141,15.823
			l-4.184,14.419l-4.362-13.273l-4.362-13.273l-4.384,0.789c-2.411,0.434-4.803,1.028-5.315,1.32
			c-0.512,0.292-0.931,8.256-0.931,17.697v17.167l-3.282,0.824c-1.805,0.453-3.678,0.374-4.162-0.176
			c-0.484-0.55-2.61-7.628-4.725-15.729s-4.094-14.978-4.398-15.283c-0.304-0.304-2.529-0.182-4.945,0.271l-4.392,0.824
			l-3.263,13.838c-5.902,25.028-4.75,22.704-12.112,24.425c-3.575,0.835-8.315,2.257-10.533,3.159l-4.033,1.64V30.132
			c0-14.88-0.228-16.736-1.977-16.065c-1.087,0.417-3.35,1.103-5.028,1.524l-3.051,0.766l0.477,28.083
			c0.526,30.977,2.115,42.192,10.068,71.042c6.072,22.026,11.547,35.746,14.837,37.181
			C324.598,154.278,344.363,153.109,353.347,150.743L353.347,150.743z M338.322,31.468c0.414-1.08,0.753-3.146,0.753-4.592
			c0-3.391,1.901-1.378,2.966,3.142c0.685,2.905,0.412,3.413-1.834,3.413C338.311,33.431,337.781,32.879,338.322,31.468
			L338.322,31.468z M417.26,27.371c0-5.168,0.395-6.164,2.683-6.762c4.312-1.128,7.246,1.217,7.246,5.792
			c0,4.967-1.894,7.03-6.453,7.03C417.403,33.431,417.26,33.181,417.26,27.371z M372.169,31.363c-0.455-0.455-0.81-1.712-0.79-2.792
			c0.031-1.614,0.273-1.56,1.355,0.3C374.071,31.168,373.683,32.877,372.169,31.363z M388.912,27.226
			c0-1.706,0.282-2.404,0.626-1.551s0.344,2.249,0,3.103S388.912,28.932,388.912,27.226z M417.26,5.508
			c0-5.555,0.023-5.585,4.344-5.585c4.36,0,5.058,0.984,4.405,6.205c-0.302,2.412-3.646,4.964-6.504,4.964
			C417.672,11.093,417.26,10.069,417.26,5.508z M656.707,117.895c3.488-8.686,8.785-40.211,8.716-51.879
			c-0.026-4.444-0.948-9.02-2.44-12.108c-1.986-4.111-2.405-7.753-2.44-21.199l-0.042-16.235l-4.306-1.322l-4.306-1.322
			l-0.347,15.075c-0.329,14.275-0.479,15.055-2.829,14.706c-5.596-0.832-5.585-0.797-5.585-17.432V10.162l-3.878-0.776
			c-2.133-0.427-4.367-0.776-4.964-0.776c-0.597,0-1.108,5.445-1.134,12.1l-0.048,12.1l-5.654-13.651
			c-3.11-7.508-6.02-14.011-6.467-14.451c-0.447-0.44-2.628-1.182-4.846-1.65l-4.033-0.85V18.44c0,16.11-0.021,16.232-2.854,16.232
			c-5.201,0-5.833-2.029-5.833-18.719c0-15.274-0.083-15.763-2.792-16.489c-7.265-1.947-7.136-2.239-7.136,16.116v16.899
			l-2.792-0.748c-1.536-0.412-3.211-0.756-3.723-0.765c-0.512-0.009-0.931-7.766-0.931-17.236V-3.489l-3.878-0.776
			c-2.133-0.427-4.367-0.776-4.964-0.776c-0.597,0-1.086,4.468-1.086,9.928c0,10.71,0.068,10.624-7.243,9.162l-3.83-0.766
			L564.68,3.191l-0.358-10.093l-4.654-0.385l-4.654-0.385v26.621V45.57l4.382,0.512c2.41,0.281,4.644,0.249,4.964-0.071
			c0.32-0.32,0.583-5.516,0.583-11.545c0-11.849-0.128-11.67,7.291-10.187l3.878,0.776l0.078,9.463
			c0.087,10.511,1.815,34.149,2.779,38.006c4.8,19.223,20.21,36.994,38.266,44.13c9.563,3.78,15.173,4.713,27.391,4.556
			C655.003,121.077,655.482,120.945,656.707,117.895L656.707,117.895z M622.721,36.844c-1.297-4.269-1.597-7.075-0.698-6.519
			c1.67,1.032,3.75,8.071,2.385,8.071C623.739,38.395,622.98,37.697,622.721,36.844z M542.284,41.415
			c3.994-2.617,5.284-6.672,5.284-16.607c0-9.43-0.523-9.94-10.238-9.975c-4.605-0.017-4.654,0.035-4.654,4.947
			c0,4.137,0.414,4.964,2.482,4.964c1.907,0,2.482,0.827,2.482,3.571c0,5.227-2.886,7.191-6.8,4.627
			c-3.917-2.567-4.99-6.476-4.99-18.182c0-14.207,5.521-20.811,10.296-12.317c1.807,3.215,2.744,3.71,6.458,3.413
			c3.899-0.312,4.319-0.699,4.108-3.774c-0.555-8.073-10.315-14.842-18.456-12.798c-4.875,1.223-9.935,7.194-11.557,13.636
			c-3.033,12.043-0.763,28.733,4.883,35.911C526.062,44.525,535.7,45.729,542.284,41.415z M466.669,39.02
			c5.209-4.383,7.858-11.933,8.049-22.94c0.315-18.178-5.462-28.568-15.884-28.568c-10.989,0-17.353,10.241-17.353,27.923
			c0,11.501,2.814,20.351,7.689,24.187C453.804,43.267,461.956,42.986,466.669,39.02L466.669,39.02z M454.332,30.141
			c-1.118-1.345-1.824-6.144-2.054-13.962c-0.388-13.171,1.048-17.853,5.682-18.518c4.552-0.653,6.848,6.664,6.219,19.816
			c-0.53,11.093-1.998,14.712-5.966,14.712C457.016,32.19,455.269,31.268,454.332,30.141z M490.219,30.639
			c0.479-14.511,2.503-14.43,7.775,0.31l3.995,11.169h5.415c2.978,0,5.396-0.14,5.372-0.31c-0.023-0.171-1.879-5.532-4.124-11.914
			l-4.081-11.604l3.503-3.503c2.915-2.915,3.504-4.552,3.504-9.746c0-12.865-4.273-16.531-20.167-17.304l-10.859-0.528v26.73
			c0,28.481-0.045,28.279,6.205,27.797C489.782,41.504,489.869,41.225,490.219,30.639L490.219,30.639z M490.48,3.646
			c0-6.193,0.009-6.205,4.095-6.205c4.933,0,7.074,1.878,7.074,6.205s-2.141,6.205-7.074,6.205
			C490.489,9.852,490.48,9.839,490.48,3.646z M288.193,21.856c0-0.825,1.416-3.584,3.147-6.132c2.522-3.712,2.759-4.632,1.192-4.632
			c-2.15,0-11.785,4.628-11.785,5.66c0,0.355,1.206,2.276,2.679,4.27C286.026,24.539,288.193,24.918,288.193,21.856z M360.442-6.859
			c51.957-8.381,103.444-11.009,157.961-8.065c22.275,1.203,60.053,4.872,75.082,7.292c6.517,1.05,8.639,0.888,7.202-0.549
			c-1.063-1.063-30.197-6.487-45.674-8.503c-29.032-3.782-52.011-4.8-93.627-4.15c-43.312,0.677-61.607,2.26-90.045,7.793
			c-21.065,4.098-38.813,9.24-31.894,9.24C340.564-3.8,350.011-5.176,360.442-6.859z"/>
	</g>
</g>
</svg>
