<?xml version="1.0" encoding="utf-8"?>
<!-- Generator: Adobe Illustrator 17.0.0, SVG Export Plug-In . SVG Version: 6.00 Build 0)  -->
<!DOCTYPE svg PUBLIC "-//W3C//DTD SVG 1.1//EN" "http://www.w3.org/Graphics/SVG/1.1/DTD/svg11.dtd">
<svg version="1.1" id="图层_1" xmlns="http://www.w3.org/2000/svg" xmlns:xlink="http://www.w3.org/1999/xlink" x="0px" y="0px"
	 width="200px" height="200px" viewBox="0 0 200 200" enable-background="new 0 0 200 200" xml:space="preserve">
<g>
	<path d="M200.448,34.68c0-18.324-14.84-33.165-33.165-33.165H34.677c-18.324,0-33.165,14.84-33.165,33.165v132.58
		c0,18.324,14.84,33.165,33.165,33.165h132.58c18.324,0,33.165-14.84,33.165-33.165V34.68H200.448z"/>
	<path fill="#FAF00A" d="M108.773,170.93H51.884c-16.596,0-29.628-13.484-29.628-30.08V58.669c0-16.596,13.059-29.761,29.628-29.761
		h56.888c4.362,0,7.899,3.484,7.899,7.846s-3.537,7.846-7.899,7.846H51.884c-7.846,0-13.936,6.223-13.936,14.069v82.181
		c0,7.846,6.09,14.122,13.936,14.122h56.888c4.362,0,7.899,3.617,7.899,7.979S113.134,170.93,108.773,170.93z"/>
	<path fill="#FAF00A" d="M179.863,186.675c0,3.191-1.862,6.064-4.814,7.287c-0.984,0.399-2.048,0.612-3.059,0.612
		c-2.048,0-4.069-0.798-5.585-2.314l-23.723-23.723c-3.085-3.085-3.059-8.085,0.027-11.17c3.085-3.085,8.138-3.085,11.223,0
		l10.346,10.266l0-104.202l-57.739,57.66c-2.261,2.261-5.798,3.005-8.936,1.622c-0.904-0.399-1.702-0.984-2.394-1.702L63.613,89.414
		c-3.085-3.085-3.138-8.085,0.027-11.17c3.005-3.085,8.059-3.085,11.144,0l26.064,26.09l65.346-65.372
		c2.979-2.979,7.819-3.351,10.984-0.559c1.809,1.596,2.713,3.91,2.686,5.957V186.675z"/>
</g>
</svg>
