<?xml version="1.0" encoding="utf-8"?>
<!-- Generator: Adobe Illustrator 17.0.0, SVG Export Plug-In . SVG Version: 6.00 Build 0)  -->
<!DOCTYPE svg PUBLIC "-//W3C//DTD SVG 1.1//EN" "http://www.w3.org/Graphics/SVG/1.1/DTD/svg11.dtd">
<svg version="1.1" id="图层_1" xmlns="http://www.w3.org/2000/svg" xmlns:xlink="http://www.w3.org/1999/xlink" x="0px" y="0px"
	 width="500px" height="500px" viewBox="-124.5 -123 500 500" enable-background="new -124.5 -123 500 500" xml:space="preserve">
<g id="surface1">
	<path d="M150.797,355.817c-2.029,5.828-8.284,20.183-23.646,20.183c-17.384,0-23.242-18.993-23.638-19.588l-0.404-1.815
		c0,0,14.95,1.22,23.036,1.22c8.276,0,22.426-0.824,24.653-1.22V355.817z"/>
	<path d="M196.472,346.519l3.631,0.404c-4.447,11.091-11.922,23.608-27.078,23.608c-14.546,0-21.625-8.49-24.859-14.119
		l-2.418-1.419C145.748,354.993,170.797,353.986,196.472,346.519z"/>
	<path d="M58.647,346.519l-3.638,0.404c4.241,11.091,11.922,23.608,26.88,23.608c14.546,0,22.433-8.886,25.66-14.119l1.617-1.419
		C109.165,354.993,84.108,353.986,58.647,346.519z"/>
	<path fill="#FFF200" d="M139.485,357.007c-2.433,3.448-4.043,3.234-6.88,3.234c-1.404,0-3.432,1.228-3.432,3.242
		c0,1.617,1.411,3.021,3.638,3.021c5.248,0,9.1-7.056,10.305-10.091c0,0,3.036-0.198,3.844-0.198c0,0-5.461,16.156-19.596,16.156
		c-14.149,0-19.817-15.957-19.817-15.957s11.922,0.595,18.795,0.595C133.017,357.007,137.456,357.007,139.485,357.007z"/>
	<path fill="#FFF200" d="M194.443,349.753c-9.085,2.624-15.759,4.645-31.121,6.461c0,0,0.412,1.617,3.837,1.404
		c1.22,0,1.419-0.397,2.029-0.397c0.809-0.214,2.426,0.793,2.227,2.41c-0.206,1.22-1.22,2.624-4.661,2.624
		c-3.432,0-7.475-2.807-9.489-5.431c0,0-2.021,0.595-4.043,0.595c0,0,6.461,9.298,19.397,9.298
		C186.968,366.717,192.231,353.986,194.443,349.753z"/>
	<path fill="#FFDF00" d="M184.946,358.838c0-2.227-0.603-4.241-1.815-6.056c-5.05,1.205-10.709,2.212-19.199,3.432
		c0,0.198,0,0.397-0.198,0.61c0.603,0.397,1.617,0.793,3.425,0.793c1.22,0,1.419-0.397,2.029-0.397
		c0.809-0.214,2.426,0.793,2.227,2.41c-0.206,1.22-1.22,2.624-4.661,2.624c-0.801,0-1.815-0.214-2.616-0.397
		c0.404,1.404,1.213,2.845,2.22,4.035c1.823,0.61,4.035,0.824,6.262,0.824c4.645,0,8.284-1.22,11.32-3.234
		C184.542,362.041,184.946,360.455,184.946,358.838z"/>
	<path fill="#FFE100" d="M184.748,358.838c0-2.227-0.61-4.241-1.823-6.056c-4.844,1.205-10.503,2.212-18.787,3.219
		c0,0.412-0.206,0.61-0.206,1.007c0.61,0.412,1.419,0.61,3.227,0.61c1.22,0,1.419-0.397,2.029-0.397
		c0.809-0.214,2.426,0.793,2.227,2.41c-0.206,1.22-1.22,2.624-4.661,2.624c-0.801,0-1.609-0.214-2.616-0.397
		c0.603,1.625,1.411,3.028,2.418,4.249c1.823,0.397,3.837,0.61,6.064,0.61c4.645,0,8.085-1.22,11.114-3.059
		C184.344,362.255,184.748,360.638,184.748,358.838z"/>
	<path fill="#FFE300" d="M184.748,358.838c0-2.227-0.809-4.241-2.021-5.858c-4.844,1.007-10.305,2.014-18.39,3.021
		c-0.198,0.412-0.198,0.824-0.198,1.007c0.404,0.412,1.411,0.61,3.021,0.61c1.22,0,1.419-0.397,2.029-0.397
		c0.809-0.214,2.426,0.793,2.227,2.41c-0.206,1.22-1.22,2.624-4.661,2.624c-0.801,0-1.609,0-2.418-0.397
		c0.603,1.625,1.411,3.028,2.418,4.249c1.823,0.397,3.844,0.61,5.866,0.61c4.447,0,7.879-1.22,10.709-2.838
		C184.138,362.255,184.748,360.638,184.748,358.838z"/>
	<path fill="#FFF200" d="M60.47,349.753c9.291,2.624,15.751,4.645,31.312,6.461c0,0-0.603,1.617-3.837,1.404
		c-1.411,0-1.609-0.397-2.014-0.397c-1.014-0.214-2.426,0.793-2.227,2.41c0,1.22,1.014,2.624,4.455,2.624
		c3.425,0,7.475-2.807,9.489-5.431c0,0,2.029,0.595,4.241,0.595c0,0-6.659,9.298-19.596,9.298
		C67.945,366.717,62.682,353.986,60.47,349.753z"/>
	<path fill="#FFF200" d="M126.144,273.88c49.107,0,103.668-30.068,142.066-73.661c4.043-4.63,11.114-13.715,27.887-13.715
		c16.567,0,38.795,15.339,36.171,42.784c-2.021,20.175-30.717,65.583-80.022,93.424c-49.313,28.047-94.576,34.111-126.102,34.111
		c-31.533,0-76.994-6.064-126.307-34.111c-49.107-27.841-78.009-73.249-79.816-93.424c-2.632-27.445,19.397-42.784,36.171-42.784
		c16.567,0,23.638,9.085,27.689,13.715C22.27,243.812,76.831,273.88,126.144,273.88z"/>
	<path d="M126.144,272.263c23.844,0,48.909-7.262,72.944-19.771c24.859-12.914,48.512-31.487,67.704-53.478
		c2.227-2.418,5.057-5.85,9.702-8.871c4.645-3.036,10.709-5.256,19.603-5.256c0.809,0,1.823,0,2.83,0
		c8.078,0.809,16.773,4.645,23.646,11.503c6.873,6.667,11.518,16.354,11.518,28.657c0,1.411,0,2.822-0.206,4.439
		c-1.007,11.503-10.709,31.083-27.689,51.052c-13.341,15.538-31.113,31.281-53.15,43.791c-24.645,14.119-48.489,22.593-70.122,27.65
		c-21.617,5.027-41.014,6.461-56.781,6.461c-15.965,0-35.37-1.434-56.987-6.461c-21.426-5.057-45.271-13.532-70.129-27.65
		c-21.823-12.509-39.809-28.253-53.142-43.791c-16.979-19.969-26.674-39.55-27.689-51.052c-0.206-1.617-0.206-3.028-0.206-4.439
		c0-12.304,4.859-21.991,11.518-28.657c6.873-6.857,15.774-10.694,23.646-11.503c1.007,0,2.014,0,3.036,0
		c8.688,0,14.95,2.22,19.603,5.256c4.447,3.021,7.269,6.453,9.497,8.871c19.397,21.991,42.845,40.564,67.902,53.478
		C77.029,265.001,102.292,272.263,126.144,272.263z M126.144,275.695c-24.454,0-50.32-7.269-74.576-19.977
		c-25.461-13.12-49.298-31.892-68.909-54.279c-2.014-2.426-4.844-5.652-8.886-8.276c-4.043-2.624-9.702-4.836-17.582-4.836
		c-1.022,0-1.823,0-2.632,0.198c-7.269,0.61-15.355,4.233-21.419,10.282c-6.27,6.262-10.709,14.943-10.709,26.239
		c0,1.411,0.198,2.822,0.198,4.241c1.007,10.892,10.511,29.664,26.88,48.825c13.135,15.332,30.717,30.877,52.334,43.188
		c24.462,13.921,47.902,22.197,69.115,27.239c21.419,5.05,40.419,6.453,56.186,6.453c15.553,0,34.76-1.404,55.98-6.453
		c21.22-5.042,44.859-13.318,69.313-27.239c21.419-12.311,39.001-27.856,52.135-43.188c16.567-19.161,25.873-37.933,26.88-48.825
		c0.198-1.419,0.198-2.83,0.198-4.241c0-11.297-4.447-19.977-10.511-26.239c-6.262-6.049-14.348-9.672-21.625-10.282
		c-0.801-0.198-1.609-0.198-2.418-0.198c-8.085,0-13.539,2.212-17.788,4.836c-4.043,2.624-6.873,5.85-8.886,8.276
		c-19.611,22.387-43.455,41.159-68.711,54.279C176.258,268.426,150.591,275.695,126.144,275.695z"/>
	<path fill="#E12F22" d="M-21.582,204.468l-0.603-0.61c-3.837-4.432-9.306-10.694-22.029-10.694
		c-7.475,0-15.972,4.035-21.625,10.297c-4.249,4.638-9.092,12.708-7.887,25.019c1.625,16.941,28.695,60.93,76.598,88.184
		c38.604,21.983,80.022,33.089,122.867,33.089c42.639,0,84.058-11.106,122.661-33.089c48.093-27.254,74.973-71.243,76.59-88.184
		c1.213-12.311-3.638-20.381-7.879-25.019c-5.454-6.262-13.951-10.297-21.426-10.297c-12.921,0-18.383,6.262-22.227,10.694
		l-0.603,0.61c-41.228,47.01-97.604,76.071-147.116,76.071C76.023,280.539,19.638,251.477-21.582,204.468z"/>
	<path fill="#FFF200" d="M284.374,149.174c0-23.615,19.199-42.784,42.639-42.784c23.638,0,42.845,19.168,42.845,42.784
		c0,23.608-19.207,42.784-42.845,42.784C303.573,191.958,284.374,172.782,284.374,149.174z"/>
	<path d="M282.558,149.174c0-12.311,5.05-23.409,13.127-31.472c7.887-8.078,19.207-12.921,31.327-12.921
		c12.326,0,23.638,4.844,31.525,12.921c8.085,8.063,13.135,19.161,13.135,31.472s-5.05,23.402-13.135,31.48
		c-7.887,8.063-19.199,13.12-31.525,13.12c-12.12,0-23.44-5.057-31.327-13.12C287.608,172.576,282.558,161.486,282.558,149.174z
		 M285.983,149.174c0,11.304,4.653,21.594,12.136,29.062c7.475,7.46,17.582,11.907,28.894,11.907
		c11.518,0,21.625-4.447,29.107-11.907c7.475-7.468,11.914-17.757,11.914-29.062c0-11.297-4.439-21.594-11.914-28.856
		c-7.483-7.468-17.59-12.105-29.107-12.105c-11.312,0-21.419,4.638-28.894,12.105C290.636,127.58,285.983,137.878,285.983,149.174z"
		/>
	<path fill="#FFF200" d="M-116.959,149.373c0-23.608,19.191-42.784,42.83-42.784c23.646,0,42.845,19.176,42.845,42.784
		c0,23.615-19.199,42.586-42.845,42.586C-97.767,191.958-116.959,172.988-116.959,149.373z"/>
	<path d="M-118.584,149.373c0-12.304,4.851-23.402,12.937-31.48c8.085-8.063,19.199-13.112,31.518-13.112
		c12.334,0,23.448,5.05,31.533,13.112c8.078,8.078,13.135,19.176,13.135,31.48c0,12.113-5.057,23.409-13.135,31.48
		c-8.085,7.864-19.199,12.921-31.533,12.921c-12.319,0-23.432-5.057-31.518-12.921
		C-113.732,172.782-118.584,161.486-118.584,149.373z M-115.143,149.373c0,11.304,4.638,21.396,12.12,28.863
		c7.277,7.46,17.582,12.105,28.894,12.105c11.327,0,21.625-4.645,29.1-12.105c7.49-7.468,11.93-17.559,11.93-28.863
		c0-11.297-4.439-21.594-11.93-29.054c-7.475-7.468-17.773-11.899-29.1-11.899c-11.312,0-21.617,4.432-28.894,11.899
		C-110.506,127.779-115.143,138.076-115.143,149.373z"/>
	<path d="M338.737,34.354l0.404-11.503c3.432,2.632,10.099,2.83,13.943-1.411c1.823-1.815,2.83-4.836,2.624-7.864
		c-0.198-3.432-1.617-6.865-4.241-9.283c-14.348-14.119-27.078-28.055-27.078-28.055c-1.419-2.22-3.44-3.631-4.645-4.233
		c-1.823-0.809-8.085-3.631-12.738,3.631c-4.241,6.461-3.638,15.744-2.822,19.168l13.532,18.36
		C322.169,19.023,335.297,31.326,338.737,34.354z"/>
	<path d="M50.767-84.699c16.972-5.66,32.326-10.29,53.348-12.311L50.767-84.699z"/>
	<path d="M50.767-84.699c16.972-5.66,32.326-10.29,53.348-12.105l3.234-1.815c-11.716-9.283-23.448-15.538-34.965-15.538
		c-7.269,0-22.021,5.042-25.255,30.869L50.767-84.699z"/>
	<path d="M201.522-84.699c-16.979-5.66-32.54-10.29-53.356-12.105l-3.234-1.815c11.731-9.283,23.249-15.538,34.767-15.538
		c7.269,0,22.021,5.042,25.255,30.869L201.522-84.699z"/>
	<path d="M112.201-99.428c3.432-0.198,11.312-0.404,14.546-0.404c3.234,0,11.93,0.404,13.943,0.61L112.201-99.428z"/>
	<path d="M106.945-97.819c8.482-16.339,16.369-22.197,20.618-22.197c5.454,0,11.716,8.482,16.766,19.58l1.007,2.616l-4.241-0.397
		c-3.036-0.61-11.114-0.61-14.348-0.61c-3.234,0-10.107,0-14.348,0.206L106.945-97.819z"/>
	<path fill="#FFF200" d="M90.172,289.616l-7.681,28.459l-14.348-34.31l-8.696-2.426l-10.915,40.366l9.71,2.418l7.673-28.65
		L80.47,330.18l8.49,2.22l10.915-40.16L90.172,289.616z"/>
	<path fill="#FFF200" d="M123.314,294.666l-10.915-0.603l-2.22,41.762l11.114,0.61L123.314,294.666z"/>
	<path fill="#FFF200" d="M133.215,294.261l0.809,5.446l11.724-1.617l5.05,35.919l10.915-1.609l-5.05-35.713l11.518-1.617
		l-0.809-5.454L133.215,294.261z"/>
	<path fill="#FFF200" d="M246.388,277.305c5.454,9.283,4.241,16.14-3.837,20.786l-3.852,2.227l-15.355-26.438l4.043-2.418
		C237.288,265.802,242.749,270.654,246.388,277.305z M225.167,266.214l-14.149,8.268l20.808,36.323l14.149-8.276
		c14.546-8.268,15.965-20.976,10.305-31.274C249.21,259.151,237.898,258.953,225.167,266.214z"/>
	<path fill="#FFF200" d="M198.486,317.671l-4.043-12.921l12.326-4.035l-1.815-5.24l-12.334,4.035l-3.425-10.9l12.525-4.233
		l-1.617-5.256l-23.234,7.673l12.929,39.55l25.667-8.268l-1.823-5.248L198.486,317.671z"/>
	<path fill="#FFF200" d="M39.654,271.66l-12.525,22.403c-3.638,6.651-7.49,10.885-13.753,7.262
		c-6.262-3.432-4.851-8.68-1.014-15.538l12.334-22.395l-9.901-5.446L1.652,281.554c-7.277,12.914,1.823,20.976,8.894,25.019
		c7.681,4.035,18.795,7.262,25.866-5.66l13.143-23.806L39.654,271.66z"/>
	<path fill="#FFF200" d="M32.575,26.49v195.529l93.569,59.923l93.562-59.923V26.894c-2.83-2.632-9.1-8.482-14.142-11.503H46.122
		C42.079,18.214,33.788,25.079,32.575,26.49z"/>
	<path d="M34.2,26.49v194.515l91.945,58.924l91.746-58.924V26.894h3.638l-0.214,195.125v0.801l-0.801,0.618l-93.569,60.129
		l-0.801,0.61l-1.014-0.61l-93.562-60.129l-0.809-0.618V26.49H34.2z"/>
	<path d="M218.493,28.305c-0.801-0.809-0.198-0.198-1.014-1.007c-3.227-3.036-8.482-7.872-12.723-10.29l1.823-3.028
		c4.439,2.822,9.893,7.666,13.333,10.686c0,0-0.404-0.404,1.007,0.816L218.493,28.305z"/>
	<path d="M205.564,17.207H46.122v-3.631h159.442V17.207z"/>
	<path d="M47.129,16.803c-2.029,1.411-4.645,3.631-7.079,5.645c-3.028,2.22-5.446,4.645-6.262,5.248l-2.624-2.212
		c0.809-1.007,3.638-3.44,6.674-5.858c2.616-2.22,5.248-4.439,7.262-5.645L47.129,16.803z"/>
	<path fill="#E12F22" d="M132.605,110.235c-0.595-0.404-2.83,1.403-4.035,3.219c-1.007,1.617-1.205,3.837,0.198,4.638
		c1.419,0.816,3.44-0.198,3.837-2.822C132.811,113.66,133.414,110.433,132.605,110.235z M114.825,115.269
		c0.404,2.624,2.227,3.638,3.844,2.822c1.404-0.801,1.205-3.021,0-4.638c-1.014-1.815-3.242-3.623-3.844-3.219
		C114.222,110.433,114.626,113.66,114.825,115.269z M124.115,141.097c3.249-5.042,4.455-10.496,4.455-10.496h-8.894
		C119.676,130.601,121.087,136.055,124.115,141.097z M125.74,102.561l7.277-12.715l5.66,12.715h9.291
		c-5.652,5.248-7.879,13.318-7.879,18.566v5.85c0,2.418-1.213,6.461-1.213,6.461s8.085,6.255,9.291,7.269
		c0.603,0.389,1.22,0.809,0.809,1.815c-0.603,1.815-6.255,4.226-6.873,4.836c-1.213,1.007-1.411,1.617-1.213,2.822
		c0.404,1.007,1.426,1.205,3.646,0.404c2.021-0.603,6.468-3.028,10.305-4.439c3.638-1.609,8.696-1.411,8.696-1.411v-7.063h-14.149
		v-22.601l-2.426-3.829l6.262-11.106l6.056,11.106l-2.418,3.829v11.907h7.277v-11.907l-2.632-3.829l6.262-11.106l6.278,11.106
		l-2.433,3.829v11.907h7.071v-11.907l-2.426-3.829l6.064-11.106l6.262,11.106l-2.418,3.829v22.601h-13.951v10.496
		c3.036,3.021,6.056,9.687,6.056,13.921c0,4.043-2.616,5.652-2.616,5.652c1.007,3.227,0.801,4.638,0.404,7.46
		c-0.404,3.036-4.043,7.673-4.043,7.673v53.882c0,3.829-8.482,3.425-8.482,0.198v-52.868c-4.859-5.248-17.986-9.283-17.986-9.283
		c-4.859,4.645-7.887,13.12-7.887,13.12c2.22,1.411,5.454,0,6.667-1.419c1.22-1.411,3.638-1.823,5.057-1.014
		c1.411,1.014,1.815,1.213,1.205,3.44c-0.397,2.021-1.404,5.645-1.404,8.063c0,2.433,3.021,2.021,5.042,2.22
		c4.249,0.214,5.05,5.05,4.653,7.673c-0.404,2.616-1.617,8.276-1.617,11.907c0,3.425,0.198,7.063,0.61,9.077
		c0.198,1.815,1.007,4.035,0.801,6.453c-0.198,3.44-2.227,3.844-4.447,1.823c-2.021-2.22-31.724-33.692-31.724-33.692
		c-2.014,6.445,6.262,17.345,8.894,20.77c2.624,3.234,2.418,5.858,0.198,8.078c-2.426,2.418-6.865,3.638-7.681,5.652
		c-0.809,2.22,2.227,8.467,8.291,16.545c6.255,7.872-7.079,13.318-14.958,14.729c-8.085,1.609-8.085-3.829-7.483-6.857
		c0.61-3.036,0.61-4.645,0.412-7.468c-0.198-2.624-2.632-6.255-6.064-10.694c-3.432-4.439-3.432-8.482-2.029-18.764
		c1.426-10.297,1.022-16.758,1.022-16.758s-3.432,0.206-8.497,0c-5.248-0.198-9.489-3.219-9.893-15.53
		c-0.198-12.509-0.61-41.975-1.419-44.996c-0.809-3.234-4.043-3.837-5.454-4.035c-1.625-0.404-1.625-2.632-0.198-3.234
		c3.638-1.815,8.078-6.453,6.461-9.291c-1.617-2.822-8.085-2.212-12.532,0c-4.439,2.029-8.894,6.667-10.099,7.879
		c-1.213,1.411-2.227,1.411-2.029,0c0-1.411-0.801-8.07-1.411-10.496c-0.603-2.426-2.83-6.857-3.432-8.07
		c-0.809-1.205,0-1.609,1.22-1.205c1.205,0.603,3.623,1.609,6.255,2.212c2.433,0.809,4.851-0.397,6.064-2.83
		c1.014-2.212,3.432-7.254,4.447-9.672c1.22-2.22,3.234-1.617,4.653-1.426c1.609,0.412,3.021,1.426,4.447,2.029
		c1.403,0.603,2.616,0.404,3.028-0.206c0.404-0.801,1.007-1.007,1.815-2.83c0.809-1.815,2.021-1.007,2.021-0.198
		c4.249,25.431,15.355,26.438,15.355,26.438c-1.617,4.439-5.66,11.098-6.461,12.715c-1.014,1.609-1.411,3.829-1.617,5.645
		c-0.198,1.815,0.603,18.566,1.815,24.615c1.22,6.262,4.859,3.837,6.064,2.014c1.213-2.014,4.844-9.672,4.844-9.672
		s1.022-2.22,1.022-4.043c0-1.617-3.036-5.645-3.852-6.857c-0.603-1.007-3.219-3.44-3.219-9.283s5.248-10.091,7.071-11.701
		c2.014-1.419,2.014-3.631,1.815-4.844c-1.014-4.645-5.866-14.127-8.085-17.757c-2.426-3.829-7.071-10.694-7.071-10.694h9.695
		l6.064-12.715l6.674,12.715L125.74,102.561z M163.535,166.733v-7.269c0,0-2.029-3.021-6.873-3.021
		c-4.653,0-7.475,1.411-7.475,2.616C149.188,161.074,153.421,166.733,163.535,166.733z"/>
	<path fill="#E12F22" d="M39.852,75.323h172.577v11.701H39.852V75.323z"/>
	<path fill="#E12F22" d="M39.852,69.266V22.447h172.577v46.819H39.852z"/>
	<path fill="#FFF200" d="M178.486,70.677v-8.07h-12.532v-5.05h10.305V34.957h-9.504l-3.219-6.247l-3.249,6.247h-9.283v22.601h10.305
		v5.05h-24.66v-5.05h10.313V34.957h-9.504l-3.234-6.247l-3.021,6.247h-9.504v22.601h10.313v5.05h-25.065v-5.05h10.305V34.957h-9.497
		l-3.234-6.247l-3.234,6.247h-9.291v22.601h10.297v5.05l-19.802,0.198L62.682,58.16l4.05,12.517H178.486z"/>
	<path fill="#FFF200" d="M69.554,57.154l13.143,3.227l7.071-19.969v-5.05L69.554,57.154z"/>
	<path fill="#FFF200" d="M101.484-98.216C80.881-96.4,68.349-91.968,51.568-86.515c1.426-7.063,3.036-11.304,5.866-15.53
		c-0.206,3.623,2.83,7.658,8.902,7.658c6.049,0,9.283-3.432,9.283-5.645c0-2.014-1.205-5.05-4.439-5.05s-4.043,2.426-3.638,3.234
		c0.198,1.007-0.61,1.205-1.419,1.411c-1.007,0.206-3.638-1.213-2.624-4.447c1.014-3.425,5.248-5.446,10.511-5.446
		C74.009-110.328,86.129-110.725,101.484-98.216z"/>
	<path fill="#FFF200" d="M200.713-86.316c-16.773-5.652-29.916-9.886-50.32-11.701c9.291-6.659,18.184-12.105,27.879-12.105
		c5.057,0,9.306,1.815,10.313,5.446c1.014,3.234-1.617,4.645-2.418,4.447c-1.022-0.412-1.625-0.61-1.419-1.419
		c0.198-1.007-0.404-3.234-3.646-3.234c-3.219,0-4.645,3.036-4.645,5.05s3.44,5.446,9.504,5.446c5.858,0,8.886-3.829,8.688-7.46
		C197.685-97.819,199.493-93.38,200.713-86.316z"/>
	<path fill="#FFF200" d="M114.024-102.045c-0.61,1.007-1.022,1.609-1.625,2.616c3.44-0.198,11.312-0.404,14.348-0.404
		c3.234,0,11.716,0.404,13.745,0.61c-3.242-7.071-8.894-16.956-12.929-16.956c-0.816,0-2.632-0.404-5.866,3.432
		c0,0-0.404,1.617,1.617,1.411c2.624-0.397,3.631,2.22,3.432,3.631c-0.404,3.227-4.241,6.262-7.879,6.262
		C115.229-101.442,114.024-102.045,114.024-102.045z"/>
	<path d="M-64.427,13.164l13.547-18.36c0.809-3.425,1.411-12.708-2.83-19.168c-4.851-7.262-11.121-4.439-12.944-3.631
		c-1.007,0.603-3.219,2.014-4.439,4.233c0,0-13.127,14.332-27.475,28.261c-1.823,2.014-4.256,5.645-4.455,9.077
		c0,3.028,1.213,6.049,2.83,8.07c4.043,4.035,10.915,3.837,14.348,1.205l0.198,11.503C-82.009,31.326-69.064,19.023-64.427,13.164z"
		/>
	<path fill="#FFF200" d="M126.144-13.67c76.987,0,120.846,72.242,130.335,84.95c16.979,22.601,37.795,40.969,61.838,34.92
		c35.568-8.886,33.554-61.35,33.554-61.35c-8.482-6.255-23.043-13.921-49.512-51.457c-26.064-36.72-84.881-91.411-176.216-91.411
		c-91.54,0-150.35,54.691-176.422,91.411C-76.745,30.929-91.299,38.595-99.789,44.85c0,0-1.815,52.463,33.554,61.35
		c24.035,6.049,44.859-12.319,61.83-34.92C5.092,58.572,48.952-13.67,126.144-13.67z"/>
	<path d="M126.144-15.279c71.54,0,114.782,61.335,128.725,81.319c1.213,1.815,2.418,3.227,3.036,4.233
		c8.482,11.098,17.78,21.182,27.879,27.849c9.901,6.255,20.618,9.283,32.136,6.453c31.525-8.063,32.334-52.059,32.334-58.917
		c-0.809-0.404-1.419-1.014-2.22-1.411c-8.894-6.255-23.242-16.14-47.086-49.847c-14.966-21.19-40.831-48.222-77.604-67.193
		c-26.674-13.928-59.008-23.409-97.2-23.409c-38.2,0-70.74,9.481-97.406,23.409C-8.035-53.822-33.901-26.79-48.668-5.6
		c-23.837,33.707-38.184,43.592-47.284,49.847c-0.603,0.397-1.411,1.007-2.014,1.411c-0.206,6.857,0.603,50.854,32.128,58.917
		c11.518,2.83,22.227-0.198,32.334-6.453c10.099-6.667,19.397-16.75,27.681-27.849C-5.007,69.266-4,67.855-2.787,66.04
		C11.355,46.055,54.398-15.279,126.144-15.279z M126.144-11.855c-69.923,0-112.158,60.343-126.102,79.908
		c-1.213,1.815-2.029,3.227-3.036,4.241c-8.482,11.503-18.184,21.991-28.695,28.65c-10.709,7.071-22.426,10.091-34.965,7.071
		c-36.773-9.489-34.95-63.165-34.95-63.165v-1.014l0.809-0.397c1.007-0.809,1.808-1.419,3.028-2.22
		c8.688-5.858,22.631-15.538,46.079-48.833c15.156-21.594,41.419-49.031,78.817-68.405C54.2-89.94,87.342-99.833,126.144-99.833
		c38.795,0,71.739,9.893,98.81,23.814c37.391,19.374,63.661,46.811,78.817,68.405c23.448,33.295,37.589,42.975,46.277,48.833
		c1.014,0.801,2.029,1.411,2.83,2.22l0.809,0.397v1.014c0,0,2.021,53.676-34.958,63.165c-12.532,3.021-24.249,0-34.958-7.071
		c-10.511-6.659-20.015-17.147-28.695-28.65c-0.809-1.014-1.823-2.426-3.036-4.241C238.295,48.488,195.869-11.855,126.144-11.855z"
		/>
	<path fill="#E12F22" d="M126.144-20.527c74.164,0,118.42,62.959,132.966,83.745c1.007,1.609,2.014,3.021,2.83,4.035
		c19.603,26.018,37.589,36.72,54.767,32.281c24.859-6.262,27.895-40.358,28.291-50.656v-0.389l-0.397-0.198
		c-8.696-6.064-23.249-16.156-47.894-51.068c-14.561-20.786-70.328-88.375-170.564-88.375c-100.442,0-156.01,67.795-170.762,88.375
		C-69.064,31.73-84.221,42.432-92.52,48.084l-0.198,0.206v0.397c0.198,10.282,3.44,44.584,28.093,50.846
		c17.178,4.439,35.164-6.262,54.767-32.281c0.801-1.014,1.823-2.426,3.028-4.035C7.518,42.432,51.774-20.527,126.144-20.527z"/>
	<path fill="#FFF200" d="M-33.702,8.527l-7.689,9.283l14.561,29.863l-31.327-10.084l-6.674,7.864l32.136,26.842l4.851-5.652
		l-22.639-18.97l30.313,9.687l3.234-3.631L-31.49,24.667l22.845,19.168l6.873-8.474L-33.702,8.527z"/>
	<path fill="#FFF200" d="M6.709,2.264L-0.56,9.938L-7.837-4.387L6.709,2.264z M-10.064-16.698l-7.277,7.673L2.873,30.723l4.844-5.24
		L2.27,14.987l9.695-10.488l10.908,4.638l8.093-8.482L-10.064-16.698z"/>
	<path fill="#FFF200" d="M38.845-54.425l15.553,25.019L19.44-42.526l-7.681,5.05L33.788-2.167l8.49-5.248L26.511-32.632
		l35.362,12.914l7.483-4.645L47.327-59.68L38.845-54.425z"/>
	<path fill="#FFF200" d="M171.011-34.051l4.439-12.715l12.326,4.241l1.823-5.248l-12.334-4.233l3.638-10.9l12.738,4.439l1.808-5.248
		l-23.028-8.07l-13.745,39.542l25.461,8.68l1.823-5.24L171.011-34.051z"/>
	<path fill="#FFF200" d="M242.551-36.675l-3.852,4.241l8.902,7.864L223.344,2.264l8.078,7.269l24.256-26.834l8.696,7.872
		l3.623-4.241L242.551-36.675z"/>
	<path fill="#FFF200" d="M254.466,26.086l10.313-8.68l8.482,9.893l4.241-3.638l-8.284-9.893l8.688-7.46l8.696,10.297l4.241-3.44
		L275.083-5.6l-31.93,26.842l17.17,20.58l4.455-3.631L254.466,26.086z"/>
	<path fill="#FFF200" d="M302.963,36.772c2.83,3.234,2.83,7.063-0.404,9.893c-3.432,3.028-7.475,2.426-10.709-1.007l-2.014-2.22
		l10.709-9.489L302.963,36.772z M297.31,57.154c0.198,0.206,6.461,3.44,13.532-3.021c5.866-5.256,4.05-12.509-2.212-19.374
		l-11.32-12.715l-31.121,28.055l7.269,8.063l12.326-11.091l3.638,4.043l-7.673,17.544l9.291,7.475L297.31,57.154z"/>
	<path fill="#FFF200" d="M140.088-75.21l-0.206,17.139l-16.369-0.397l0.198-16.949l-10.908-0.198l-0.809,41.563l11.114,0.198
		l0.206-18.963l16.567,0.206l-0.397,19.161l10.908,0.198l0.809-41.762L140.088-75.21z"/>
	<path fill="#FFF200" d="M199.706-13.266c7.681,4.844,16.361,4.027,20.206-2.624c3.028-4.638,3.028-8.276-0.404-15.133
		c-1.014-2.014-2.227-3.432-3.036-5.248c-1.411-2.822-2.83-5.042-1.609-7.262c1.609-2.426,4.844-2.624,7.879-0.816
		c3.227,2.029,4.645,5.057,5.248,7.269l5.057-2.014c-1.625-4.233-3.837-7.872-9.1-11.098c-8.886-5.248-16.163-3.837-19.191,1.213
		c-3.036,5.05-2.227,9.275,0,13.516c0.198,0,1.609,2.632,2.426,4.241c2.021,3.425,4.241,7.46,2.616,10.29
		c-2.014,3.227-5.446,4.035-8.68,2.014c-4.447-2.83-5.461-5.85-6.27-9.077l-5.446,2.418
		C190.606-21.328,193.436-16.896,199.706-13.266z"/>
	<path fill="#FFF200" d="M85.725-72.998c-13.738,2.822-22.631,12.914-19.603,26.438c1.617,7.468,8.291,20.984,28.894,16.552
		c5.866-1.014,8.894-3.44,11.93-6.262l-3.837-4.439c-1.22,1.617-3.432,4.035-8.291,5.042c-9.901,2.029-15.965-6.049-17.384-13.112
		c-2.22-10.297,3.852-17.551,10.725-18.963c4.844-1.007,7.673,0.198,9.695,1.007l1.213-5.454
		C95.832-73.395,91.781-74.402,85.725-72.998z"/>
	<path fill="#FFF200" d="M307.204-3.578c-0.404-2.418-1.411-13.12,2.632-18.558c3.837-5.256,7.079-3.44,8.894-2.632
		c1.014,0.198,3.44,1.815,3.844,5.05c0.198,1.609-0.206,4.035-1.625,5.85c-2.418,3.425-8.284,5.652-8.284,5.652
		s7.475,14.523,23.036,28.856v9.68C314.282,9.74,307.204-3.578,307.204-3.578z"/>
	<path fill="#FFF200" d="M318.119-6.607c2.021,3.631,7.483,12.509,21.022,25.225c2.22,2.22,7.872,3.829,10.908,0.404
		c1.22-1.411,2.029-3.432,1.823-5.66c0-2.616-1.617-5.645-3.234-6.85c-2.632-2.426-14.348-14.127-22.631-23.211
		c-0.198,1.617-1.617,4.439-1.617,4.439C323.176-10.634,321.956-8.422,318.119-6.607z"/>
	<path fill="#FFF200" d="M-82.611,29.717V20.64C-66.852,6.109-59.575-8.216-59.575-8.216s-5.652-2.227-8.284-5.652
		c-1.205-1.815-1.815-4.241-1.617-5.85c0.61-3.234,3.036-4.851,3.844-5.05c1.808-0.809,5.248-2.624,8.886,2.632
		c4.043,5.439,3.036,15.934,2.426,18.352C-54.32-3.784-61.589,9.137-82.611,29.717z"/>
	<path fill="#FFF200" d="M-65.228-6.607C-67.257-2.976-72.71,5.903-86.25,18.618c-2.227,2.22-7.673,3.829-10.915,0.404
		c-1.205-1.411-2.021-3.432-1.823-5.66c0-2.616,1.625-5.645,3.242-6.85c2.624-2.426,14.348-14.127,22.639-23.211
		c0.198,1.617,1.609,4.439,1.609,4.439C-70.277-10.634-68.866-8.422-65.228-6.607z"/>
	<path fill="#E12F22" d="M-108.881,149.571c0-19.161,15.561-34.699,34.958-34.699c19.207,0,34.76,15.538,34.76,34.699
		c0,19.382-15.553,34.912-34.76,34.912C-93.321,184.483-108.881,168.953-108.881,149.571z"/>
	<path fill="#FFF200" d="M-55.327,124.56c0.61,0.397,2.22,1.609,2.22,1.609c3.036,2.624,5.66,5.858,7.269,9.687
		c2.029,4.638-4.233,11.907-6.049,13.516c-8.093,7.468-13.143,7.468-15.972,7.872s-4.645-1.411-4.645-3.638
		c0.198-6.247,4.645-17.147,6.064-19.161c0.809-1.411,2.22-2.22,2.22-2.22c3.028-0.809,5.858-2.014,7.277-3.837
		C-55.327,126.772-55.327,124.56-55.327,124.56z M-84.427,119.914c3.227-1.007,6.667-1.823,10.297-1.823
		c5.461,0,10.511,1.007,14.95,3.844c1.22,0.801,1.426,1.609,1.426,2.822c0,4.233-6.468,5.652-10.709,5.652
		c-4.249,0-9.504-1.823-13.341-3.028c-3.638-1.014-4.447-3.227-4.447-4.241C-86.25,122.134-85.647,120.319-84.427,119.914z
		 M-98.172,169.96c-4.439-4.249-7.475-12.105-7.475-20.389c0-3.021,0.404-6.041,1.213-9.077c0,0,0.809-1.213,1.609-0.198
		c0.404,0.801,1.22,1.617,1.823,2.83c0.61,1.007,4.043,3.623,3.638,5.645c-1.205,7.673,0,17.963,0.198,19.58
		C-96.753,170.158-97.363,170.967-98.172,169.96z M-97.363,143.53c-1.625-0.809-3.432-4.645-4.043-5.858
		c-0.404-0.809-0.404-3.227,0.206-4.233c2.632-4.645,6.262-8.68,10.908-10.9c0.61-0.198,1.411-0.198,1.411,1.007
		c0,0.809,0.404,2.014,0.404,2.822c0,0.61,0.404,2.22-0.603,3.44c-1.007,1.213-5.256,8.467-6.27,12.715
		C-95.548,143.53-95.746,144.537-97.363,143.53z M-73.527,181.058c-0.198,0-0.397,0-0.603,0c-5.85,0-12.12-2.021-15.957-4.233
		c-3.837-2.227-5.263-12.12-5.263-17.155c0-16.346,6.674-26.232,7.689-28.253c1.213-1.823,3.638-2.021,5.454-1.609
		c1.625,0.404,2.426,0.793,4.447,1.411c1.213,0.404,3.432,0.809,5.05,1.205c1.617,0.412,3.44,0.809,2.433,3.837
		c-1.22,3.227-4.653,10.694-5.065,19.573c-0.397,8.07,0.61,16.148,2.433,20.992C-71.704,180.051-71.704,181.257-73.527,181.058z
		 M-65.228,179.845c-1.823,0.61-2.632-0.603-3.44-1.609c-3.234-3.638-4.043-13.73-4.043-14.935c0-1.419,0.404-2.822,1.411-2.822
		c7.887-0.206,13.341-2.426,18.596-6.659c5.05-4.249,7.277-9.085,7.673-9.893c0.618-1.007,1.625-0.801,1.823,0.61
		c0.198,1.007,0.61,3.021,0.61,5.034C-42.596,163.904-52.306,175.604-65.228,179.845z"/>
	<path fill="#E12F22" d="M362.383,149.571c0-19.161-15.568-34.699-34.965-34.699c-19.191,0-34.76,15.538-34.76,34.699
		c0,19.382,15.568,34.912,34.76,34.912C346.814,184.483,362.383,168.953,362.383,149.571z"/>
	<path fill="#FFF200" d="M310.445,128.389c1.411,1.823,4.233,3.028,7.269,3.837c0,0,1.419,0.809,2.227,2.22
		c1.411,2.014,5.866,12.914,6.064,19.161c0,2.227-1.823,4.043-4.653,3.638c-2.822-0.404-7.879-0.404-15.957-7.872
		c-1.823-1.609-8.085-8.879-6.072-13.516c1.625-3.829,4.249-7.063,7.277-9.687c0,0,1.625-1.213,2.227-1.609
		C308.828,124.56,308.828,126.772,310.445,128.389z M339.751,123.141c0,1.014-0.816,3.227-4.455,4.241
		c-3.837,1.205-9.092,3.028-13.341,3.028c-4.241,0-10.702-1.419-10.702-5.652c0-1.213,0.206-2.021,1.411-2.822
		c4.447-2.838,9.504-3.844,14.958-3.844c3.638,0,7.071,0.816,10.305,1.823C339.141,120.319,339.751,122.134,339.751,123.141z
		 M350.651,168.35c0.214-1.617,1.426-11.907,0.214-19.58c-0.412-2.021,3.021-4.638,3.638-5.645c0.603-1.213,1.411-2.029,1.815-2.83
		c0.809-1.014,1.617,0.198,1.617,0.198c0.809,3.036,1.213,6.056,1.213,9.077c0,8.284-3.028,16.14-7.483,20.389
		C350.865,170.967,350.255,170.158,350.651,168.35z M348.836,142.523c-1.007-4.249-5.248-11.503-6.262-12.715
		c-1.007-1.22-0.603-2.83-0.603-3.44c0-0.809,0.397-2.014,0.397-2.822c0-1.205,0.809-1.205,1.426-1.007
		c4.645,2.22,8.284,6.255,10.908,10.9c0.61,1.007,0.61,3.425,0.206,4.233c-0.618,1.213-2.433,5.05-4.043,5.858
		C349.24,144.537,349.042,143.53,348.836,142.523z M326.41,176.825c1.815-4.844,2.83-12.921,2.418-20.992
		c-0.397-8.879-4.035-16.346-5.05-19.573c-1.007-3.028,0.809-3.425,2.426-3.837c1.617-0.397,3.844-0.801,5.057-1.205
		c2.021-0.618,2.83-1.007,4.439-1.411c1.823-0.412,4.256-0.214,5.461,1.609c1.007,2.021,7.673,11.907,7.673,28.253
		c0,5.034-1.404,14.927-5.248,17.155c-3.837,2.212-10.107,4.233-15.965,4.233c-0.206,0-0.404,0-0.61,0
		C325.19,181.257,325.19,180.051,326.41,176.825z M296.098,149.571c0-2.014,0.397-4.027,0.61-5.034
		c0.198-1.411,1.213-1.617,1.808-0.61c0.412,0.809,2.632,5.645,7.681,9.893c5.263,4.233,10.717,6.453,18.596,6.659
		c1.014,0,1.411,1.404,1.411,2.822c0,1.205-0.801,11.297-4.035,14.935c-0.816,1.007-1.625,2.22-3.44,1.609
		C305.793,175.604,296.098,163.904,296.098,149.571z"/>
	<path fill="#FFE600" d="M292.856,149.373c0-9.481,3.852-18.352,10.305-24.615c6.278-6.262,14.958-10.297,24.66-10.297
		c9.702,0,18.39,4.035,24.653,10.297c6.476,6.262,10.313,15.133,10.313,24.615c0,9.687-3.837,18.574-10.313,24.821
		c-6.262,6.262-14.95,10.29-24.653,10.29c-9.702,0-18.383-4.027-24.66-10.29C296.708,167.946,292.856,159.06,292.856,149.373z
		 M293.268,149.373c0,9.687,3.844,18.368,10.099,24.622c6.27,6.255,14.95,10.091,24.454,10.091c9.497,0,18.184-3.837,24.454-10.091
		c6.262-6.255,10.107-14.935,10.107-24.622c0-9.481-3.844-18.154-10.107-24.416c-6.27-6.247-14.958-10.084-24.454-10.084
		c-9.504,0-18.185,3.837-24.454,10.084C297.112,131.219,293.268,139.891,293.268,149.373z"/>
	<path fill="#E12F22" d="M126.144-20.527c74.164,0,118.42,62.959,132.966,83.745c1.007,1.609,2.014,3.021,2.83,4.035
		c19.603,26.018,37.589,36.72,54.767,32.281c24.859-6.262,27.895-40.358,28.291-50.656v-0.389l-0.397-0.198
		c-8.696-6.064-23.249-16.156-47.894-51.068c-14.561-20.786-70.328-88.375-170.564-88.375c-100.442,0-156.01,67.795-170.762,88.375
		C-69.064,31.73-84.221,42.432-92.52,48.084l-0.198,0.206v0.397c0.198,10.282,3.44,44.584,28.093,50.846
		c17.178,4.439,35.164-6.262,54.767-32.281c0.801-1.014,1.823-2.426,3.028-4.035C7.518,42.432,51.774-20.527,126.144-20.527z"/>
	<path fill="#FFF200" d="M-33.702,8.527l-7.689,9.283l14.561,29.863l-31.327-10.084l-6.674,7.864l32.136,26.842l4.851-5.652
		l-22.639-18.97l30.313,9.687l3.234-3.631L-31.49,24.667l22.845,19.168l6.873-8.474L-33.702,8.527z"/>
	<path fill="#FFF200" d="M6.709,2.264L-0.56,9.938L-7.837-4.387L6.709,2.264z M-10.064-16.698l-7.277,7.673L2.873,30.723l4.844-5.24
		L2.27,14.987l9.695-10.488l10.908,4.638l8.093-8.482L-10.064-16.698z"/>
	<path fill="#FFF200" d="M38.845-54.425l15.553,25.019L19.44-42.526l-7.681,5.05L33.788-2.167l8.49-5.248L26.511-32.632
		l35.362,12.914l7.483-4.645L47.327-59.68L38.845-54.425z"/>
	<path fill="#FFF200" d="M171.011-34.051l4.439-12.715l12.326,4.241l1.823-5.248l-12.334-4.233l3.638-10.9l12.738,4.439l1.808-5.248
		l-23.028-8.07l-13.745,39.542l25.461,8.68l1.823-5.24L171.011-34.051z"/>
	<path fill="#FFF200" d="M242.551-36.675l-3.852,4.241l8.902,7.864L223.344,2.264l8.078,7.269l24.256-26.834l8.696,7.872
		l3.623-4.241L242.551-36.675z"/>
	<path fill="#FFF200" d="M254.466,26.086l10.313-8.68l8.482,9.893l4.241-3.638l-8.284-9.893l8.688-7.46l8.696,10.297l4.241-3.44
		L275.083-5.6l-31.93,26.842l17.17,20.58l4.455-3.631L254.466,26.086z"/>
	<path fill="#FFF200" d="M302.963,36.772c2.83,3.234,2.83,7.063-0.404,9.893c-3.432,3.028-7.475,2.426-10.709-1.007l-2.014-2.22
		l10.709-9.489L302.963,36.772z M297.31,57.154c0.198,0.206,6.461,3.44,13.532-3.021c5.866-5.256,4.05-12.509-2.212-19.374
		l-11.32-12.715l-31.121,28.055l7.269,8.063l12.326-11.091l3.638,4.043l-7.673,17.544l9.291,7.475L297.31,57.154z"/>
	<path fill="#FFF200" d="M140.088-75.21l-0.206,17.139l-16.369-0.397l0.198-16.949l-10.908-0.198l-0.809,41.563l11.114,0.198
		l0.206-18.963l16.567,0.206l-0.397,19.161l10.908,0.198l0.809-41.762L140.088-75.21z"/>
	<path fill="#FFF200" d="M199.706-13.266c7.681,4.844,16.361,4.027,20.206-2.624c3.028-4.638,3.028-8.276-0.404-15.133
		c-1.014-2.014-2.227-3.432-3.036-5.248c-1.411-2.822-2.83-5.042-1.609-7.262c1.609-2.426,4.844-2.624,7.879-0.816
		c3.227,2.029,4.645,5.057,5.248,7.269l5.057-2.014c-1.625-4.233-3.837-7.872-9.1-11.098c-8.886-5.248-16.163-3.837-19.191,1.213
		c-3.036,5.05-2.227,9.275,0,13.516c0.198,0,1.609,2.632,2.426,4.241c2.021,3.425,4.241,7.46,2.616,10.29
		c-2.014,3.227-5.446,4.035-8.68,2.014c-4.447-2.83-5.461-5.85-6.27-9.077l-5.446,2.418
		C190.606-21.328,193.436-16.896,199.706-13.266z"/>
	<path fill="#FFF200" d="M85.725-72.998c-13.738,2.822-22.631,12.914-19.603,26.438c1.617,7.468,8.291,20.984,28.894,16.552
		c5.866-1.014,8.894-3.44,11.93-6.262l-3.837-4.439c-1.22,1.617-3.432,4.035-8.291,5.042c-9.901,2.029-15.965-6.049-17.384-13.112
		c-2.22-10.297,3.852-17.551,10.725-18.963c4.844-1.007,7.673,0.198,9.695,1.007l1.213-5.454
		C95.832-73.395,91.781-74.402,85.725-72.998z"/>
</g>
</svg>
