<?xml version="1.0" encoding="utf-8"?>
<!-- Generator: Adobe Illustrator 17.0.0, SVG Export Plug-In . SVG Version: 6.00 Build 0)  -->
<!DOCTYPE svg PUBLIC "-//W3C//DTD SVG 1.1//EN" "http://www.w3.org/Graphics/SVG/1.1/DTD/svg11.dtd">
<svg version="1.1" id="图层_1" xmlns="http://www.w3.org/2000/svg" xmlns:xlink="http://www.w3.org/1999/xlink" x="0px" y="0px"
	 width="500px" height="500px" viewBox="0 0 500 500" enable-background="new 0 0 500 500" xml:space="preserve">
<g>
	<g>
		<linearGradient id="SVGID_1_" gradientUnits="userSpaceOnUse" x1="169.6302" y1="249.5337" x2="34.9284" y2="111.9351">
			<stop  offset="0" style="stop-color:#006AB1"/>
			<stop  offset="1" style="stop-color:#003A80"/>
		</linearGradient>
		<path opacity="0.57" fill="url(#SVGID_1_)" d="M250.921,186.184c0,19.929,0.564,58.709,0.564,58.709
			c0,7.959-6.357,9.557-11.925,4.776c-5.56-4.776-87.353-76.579-87.353-76.579s-15.914-8.761-27.853-1.594
			c-11.939,7.158-12.731,20.691-11.939,27.853c0.801,7.158,7.167,50.123,15.914,89.914c8.764,39.787,28.659,100.264,19.106,87.533
			c-9.553-12.727-57.174-74.842-77.985-132.091C36.991,155.426,37.595,90.857,37.595,90.857s-2.265-11.008,15.242-11.008
			c17.499,0,62.863-3.039,74.797,5.712c11.935,8.747,99.722,81.691,106.642,87.452c3.814,3.183,7.413,4.58,10.233,5.372
			C247.778,179.313,250.921,180.409,250.921,186.184z"/>
		<path fill="#003B87" d="M256.516,269.379c1.79-0.622,3.348-1.478,4.557-2.247h0.286l1.334-1.106
			c7.243-5.995,26.045-21.738,44.55-38.368c8.666-7.803,16.017-14.624,22.499-20.632l0.126-0.116
			c9.777-9.061,17.485-16.227,24.164-21.536c3.787-3.008,8.219-4.741,12.158-4.741c1.495,0,2.874,0.242,4.145,0.716
			c4.826,1.831,9.902,7.893,8.255,18.967c-0.25,1.669-0.51,3.46-0.806,5.376l-0.205,1.469c-2.883,19.642-7.691,52.522-14.227,85.723
			c-12.23,62.232-19.696,88.415-20.135,89.968c-0.376,1.151-0.698,2.838-0.179,4.477c0.447,1.441,1.352,2.57,2.694,3.362
			c1.012,0.591,2.14,0.899,3.295,0.899c1.334,0,2.588-0.412,3.671-1.194l0.304-0.224l0.259-0.269
			c40.978-41.34,73.226-93.156,95.895-154.004c30.118-80.965,30.654-153.175,30.654-153.91c0-4.047-0.313-6.912-0.985-8.738
			c-1.808-5.623-7.673-11.657-16.303-11.657h-71.623c-14.011,0-22.06,5.47-29.741,11.567
			c-13.787,10.941-86.199,68.011-95.814,75.218l-0.062,0.049c-0.081,0.062-7.234,5.604-13.842,5.604
			c-6.329,0-13.241-5.228-13.689-5.573l-0.107-0.085c-4.79-3.8-28.783-22.619-49.966-39.235l-0.761-0.587
			c-20.269-15.905-39.415-30.919-45.083-35.399c-7.726-6.093-15.811-11.559-29.741-11.559H40.469
			c-9.351,0-14.719,6.545-16.63,12.677l-0.085,0.318c-0.447,1.898-0.568,3.421-0.568,7.422c0.005,0.721,0.537,72.953,30.664,153.887
			c22.592,60.715,54.76,112.436,95.613,153.736l0.393,0.345c1.625,1.325,3.241,1.598,4.307,1.598c1.128,0,2.252-0.309,3.241-0.891
			c1.334-0.788,2.238-1.916,2.69-3.357c0.524-1.638,0.197-3.326-0.179-4.477c-0.443-1.562-7.915-27.794-20.14-89.968
			c-6.522-33.17-11.343-66.068-14.226-85.728l-0.018-0.171c-0.362-2.404-0.689-4.629-0.985-6.67
			c-1.643-11.075,3.42-17.136,8.25-18.967c1.267-0.474,2.659-0.716,4.145-0.716c3.935,0,8.371,1.733,12.154,4.741
			c6.683,5.309,14.401,12.476,24.191,21.559l0.098,0.094c6.483,6.008,13.837,12.829,22.512,20.632
			c18.559,16.684,37.361,32.423,44.577,38.408l0.25,0.183c1.397,1.011,3.43,2.274,5.811,3.115
			C250.285,270.242,254.322,270.121,256.516,269.379z"/>
		
			<linearGradient id="SVGID_2_" gradientUnits="userSpaceOnUse" x1="117.2646" y1="223.8529" x2="113.4177" y2="228.6034" gradientTransform="matrix(-1 0 0 1 417.3184 0)">
			<stop  offset="0" style="stop-color:#FFFFFF"/>
			<stop  offset="0.1126" style="stop-color:#DBDBE2"/>
			<stop  offset="0.398" style="stop-color:#84849D"/>
			<stop  offset="0.5276" style="stop-color:#616281"/>
			<stop  offset="0.5815" style="stop-color:#5A5B79"/>
			<stop  offset="0.6668" style="stop-color:#464762"/>
			<stop  offset="0.7724" style="stop-color:#26263D"/>
			<stop  offset="0.8773" style="stop-color:#000011"/>
		</linearGradient>
		<path fill="url(#SVGID_2_)" d="M352.787,179.496l5.55,2.014c-2.095,0.806-4.163,1.992-6.078,3.51
			c-6.68,5.314-14.396,12.476-24.182,21.564l-0.116,0.094c-6.464,6.012-13.823,12.826-22.499,20.632
			c-18.551,16.684-37.351,32.418-44.586,38.413l-0.242,0.183c-1.387,1.011-3.42,2.274-5.819,3.111
			c-3.734,0.873-7.771,0.761-9.965,0.014c-0.393-0.135-0.778-0.287-1.137-0.435L352.787,179.496z"/>
		<linearGradient id="SVGID_3_" gradientUnits="userSpaceOnUse" x1="251.4976" y1="147.5766" x2="251.4976" y2="55.1215">
			<stop  offset="0" style="stop-color:#003B86"/>
			<stop  offset="0.2969" style="stop-color:#003A84"/>
			<stop  offset="0.4713" style="stop-color:#00367B"/>
			<stop  offset="0.6141" style="stop-color:#002E6D"/>
			<stop  offset="0.7398" style="stop-color:#002459"/>
			<stop  offset="0.8542" style="stop-color:#00173F"/>
			<stop  offset="0.959" style="stop-color:#000720"/>
			<stop  offset="1" style="stop-color:#000011"/>
		</linearGradient>
		<path fill="url(#SVGID_3_)" d="M462.523,61.595h-71.623c-14.011,0-22.06,5.47-29.741,11.567
			c-13.787,10.941-86.199,68.011-95.814,75.218l-0.062,0.049c-0.081,0.062-7.234,5.604-13.842,5.604
			c-6.329,0-13.241-5.228-13.689-5.573l-0.107-0.085c-4.79-3.8-28.783-22.619-49.966-39.235l-0.761-0.587
			c-20.269-15.905-39.415-30.919-45.083-35.399c-7.726-6.093-15.811-11.559-29.741-11.559H40.469
			c-9.351,0-14.719,6.545-16.63,12.677l-0.085,0.318c-0.447,1.898-0.568,3.421-0.568,7.422c0,0.497,0.26,34.997,10.292,82.9h436.038
			c10.045-47.921,10.295-82.421,10.295-82.923c0-4.047-0.313-6.912-0.985-8.738C477.018,67.629,471.153,61.595,462.523,61.595z"/>
		
			<linearGradient id="SVGID_4_" gradientUnits="userSpaceOnUse" x1="964.0419" y1="232.0244" x2="912.6862" y2="252.7322" gradientTransform="matrix(-1 0 0 1 1372.4883 0)">
			<stop  offset="0" style="stop-color:#003B86"/>
			<stop  offset="0.1252" style="stop-color:#003981"/>
			<stop  offset="0.2632" style="stop-color:#003274"/>
			<stop  offset="0.4073" style="stop-color:#00275E"/>
			<stop  offset="0.5557" style="stop-color:#00173F"/>
			<stop  offset="0.7059" style="stop-color:#000418"/>
			<stop  offset="0.7301" style="stop-color:#000011"/>
		</linearGradient>
		<path fill="url(#SVGID_4_)" d="M402.01,217.031c22.884-53.028,48.042-101.624,73.539-143.403c0.072,0.215,0.126,0.435,0.206,0.644
			l0.089,0.318c0.439,1.898,0.573,3.421,0.573,7.422c-0.008,0.721-0.545,72.953-30.681,153.887
			c-22.579,60.715-54.766,112.436-95.609,153.736l-0.393,0.345c-1.612,1.325-3.233,1.598-4.298,1.598
			c-1.039,0-2.05-0.259-2.99-0.743C355.481,337.904,375.545,278.381,402.01,217.031z"/>
		<radialGradient id="SVGID_5_" cx="353.5213" cy="375.2292" r="0" gradientUnits="userSpaceOnUse">
			<stop  offset="0" style="stop-color:#003B86"/>
			<stop  offset="0.1781" style="stop-color:#003981"/>
			<stop  offset="0.3743" style="stop-color:#003374"/>
			<stop  offset="0.5784" style="stop-color:#00285E"/>
			<stop  offset="0.7301" style="stop-color:#001E49"/>
		</radialGradient>
		<path fill="url(#SVGID_5_)" d="M353.521,375.229"/>
		<linearGradient id="SVGID_6_" gradientUnits="userSpaceOnUse" x1="462.6973" y1="74.872" x2="462.6973" y2="116.1598">
			<stop  offset="0" style="stop-color:#002A61"/>
			<stop  offset="0.4969" style="stop-color:#00357B"/>
			<stop  offset="0.816" style="stop-color:#003A80"/>
			<stop  offset="1" style="stop-color:#003C81"/>
		</linearGradient>
		<polygon fill="url(#SVGID_6_)" points="473.329,75.75 450.732,116.292 474.529,116.292 474.663,74.272 		"/>
		<linearGradient id="SVGID_7_" gradientUnits="userSpaceOnUse" x1="91.1441" y1="232.0269" x2="39.7865" y2="252.7356">
			<stop  offset="0" style="stop-color:#003B86"/>
			<stop  offset="0.1252" style="stop-color:#003981"/>
			<stop  offset="0.2632" style="stop-color:#003274"/>
			<stop  offset="0.4073" style="stop-color:#00275E"/>
			<stop  offset="0.5557" style="stop-color:#00173F"/>
			<stop  offset="0.7059" style="stop-color:#000418"/>
			<stop  offset="0.7301" style="stop-color:#000011"/>
		</linearGradient>
		<path fill="url(#SVGID_7_)" d="M97.575,217.031C74.709,164.002,49.542,115.407,24.054,73.627
			c-0.076,0.215-0.144,0.435-0.215,0.644l-0.085,0.318c-0.447,1.898-0.568,3.421-0.568,7.422c0,0.721,0.537,72.953,30.664,153.887
			c22.592,60.715,54.76,112.436,95.613,153.736l0.393,0.345c1.625,1.325,3.241,1.598,4.307,1.598c1.025,0,2.045-0.259,2.98-0.743
			C144.112,337.904,124.053,278.381,97.575,217.031z"/>
		<radialGradient id="SVGID_8_" cx="251.2929" cy="209.7049" r="250.1865" gradientUnits="userSpaceOnUse">
			<stop  offset="0" style="stop-color:#FFFFFF"/>
			<stop  offset="0.4785" style="stop-color:#E1001A"/>
			<stop  offset="1" style="stop-color:#650C0D"/>
		</radialGradient>
		<path fill="url(#SVGID_8_)" d="M350.719,321.247c0.671-5.166-1.809-7.279-4.011-8.138c-0.86-0.331-1.683-0.488-2.551-0.488
			c-2.472,0-4.298,1.294-6.115,2.749c-4.458,3.567-9.248,7.542-14.307,11.755l-0.089,0.067
			c-6.688,5.578-13.627,11.343-19.983,16.286c-8.756,6.786-25.31,19.428-37.853,27.786l-0.349,0.264
			c-0.815,0.559-7.404,5.031-13.654,5.085l-0.25,0.004l-0.304-0.004c-6.374-0.085-13.116-4.773-13.626-5.126l-0.304-0.224
			c-12.526-8.349-29.098-20.995-37.854-27.786c-6.356-4.942-13.294-10.708-20.014-16.303l-0.058-0.049
			c-5.067-4.213-9.853-8.188-14.298-11.755c-1.826-1.455-3.662-2.749-6.142-2.749c-0.859,0-1.679,0.157-2.529,0.488
			c-2.207,0.859-4.691,2.972-4.02,8.165l0.018,0.107c5.578,35.208,9.458,56.677,12.829,74.645l0.067,0.403
			c0.77,4.059,1.11,5.904,2.704,8.792c0.286,0.51,1.361,2.336,3.169,4.14c11.639,12.337,39.554,30.525,60.566,42.204l12.982,6.54
			l0.09,0.045c0.546,0.255,3.339,1.482,6.374,1.482c3.16,0,5.944-1.272,6.509-1.549l12.749-6.433l0.179-0.085
			c22.57-12.538,50.647-32.168,61.364-42.875c1.504-1.536,2.435-2.677,3.035-3.689c1.692-2.856,2.015-4.539,2.767-8.626l0.062-0.354
			c3.376-17.963,7.261-39.437,12.839-74.676L350.719,321.247z"/>
		
			<linearGradient id="SVGID_9_" gradientUnits="userSpaceOnUse" x1="254.9825" y1="332.667" x2="243.8696" y2="346.8908" gradientTransform="matrix(-1 0 0 1 561.4297 0)">
			<stop  offset="0" style="stop-color:#1A171B"/>
			<stop  offset="0.1033" style="stop-color:#1E1B1F"/>
			<stop  offset="0.2161" style="stop-color:#2B292C"/>
			<stop  offset="0.3334" style="stop-color:#403E42"/>
			<stop  offset="0.4538" style="stop-color:#5E5D60"/>
			<stop  offset="0.5766" style="stop-color:#848486"/>
			<stop  offset="0.6998" style="stop-color:#B2B4B5"/>
			<stop  offset="0.7239" style="stop-color:#BCBEBF"/>
			<stop  offset="0.8091" style="stop-color:#D5D6D7"/>
			<stop  offset="0.9313" style="stop-color:#F4F4F4"/>
			<stop  offset="1" style="stop-color:#FFFFFF"/>
		</linearGradient>
		<path opacity="0.69" fill="url(#SVGID_9_)" d="M252.935,372.892c0,0,79.609-61.31,102.726-79.932
			c3.859-3.097,7.314-5.479,10.448-7.292v16.196c-26.474,23.789-68.839,61.458-83.128,71.906
			c-16.697,12.194-31.505,11.899-31.505,11.899v-11.492L252.935,372.892z"/>
		<linearGradient id="SVGID_10_" gradientUnits="userSpaceOnUse" x1="264.8591" y1="365.1879" x2="342.2917" y2="405.7479">
			<stop  offset="0" style="stop-color:#FFFFFF"/>
			<stop  offset="0.122" style="stop-color:#FBFBFB"/>
			<stop  offset="0.2378" style="stop-color:#F0F0F0"/>
			<stop  offset="0.3511" style="stop-color:#DDDDDD"/>
			<stop  offset="0.463" style="stop-color:#C2C2C3"/>
			<stop  offset="0.5737" style="stop-color:#9FA0A1"/>
			<stop  offset="0.6823" style="stop-color:#757678"/>
			<stop  offset="0.6871" style="stop-color:#737476"/>
			<stop  offset="1" style="stop-color:#1A171B"/>
		</linearGradient>
		<path opacity="0.5" fill="url(#SVGID_10_)" d="M340.432,314.926c-16.67,15.78-62.617,49.85-62.617,49.85s-9.865,7.458-22.06,8.51
			v86.436c2.059-0.076,4.665-0.743,7.95-2.283c34.2-15.981,62.313-37.701,66.144-41.537c3.528-3.532,5.435-8.94,7.037-17.247
			c2.57-13.421,13.456-81.485,13.456-81.485S353.629,302.446,340.432,314.926z"/>
		
			<linearGradient id="SVGID_11_" gradientUnits="userSpaceOnUse" x1="196.5935" y1="332.6998" x2="185.492" y2="346.909" gradientTransform="matrix(1 0 0 1 -0.0547 0)">
			<stop  offset="0" style="stop-color:#1A171B"/>
			<stop  offset="0.1033" style="stop-color:#1E1B1F"/>
			<stop  offset="0.2161" style="stop-color:#2B292C"/>
			<stop  offset="0.3334" style="stop-color:#403E42"/>
			<stop  offset="0.4538" style="stop-color:#5E5D60"/>
			<stop  offset="0.5766" style="stop-color:#848486"/>
			<stop  offset="0.6998" style="stop-color:#B2B4B5"/>
			<stop  offset="0.7239" style="stop-color:#BCBEBF"/>
			<stop  offset="0.8091" style="stop-color:#D5D6D7"/>
			<stop  offset="0.9313" style="stop-color:#F4F4F4"/>
			<stop  offset="1" style="stop-color:#FFFFFF"/>
		</linearGradient>
		<path opacity="0.69" fill="url(#SVGID_11_)" d="M250.007,372.892c0,0-79.515-61.305-102.596-79.932
			c-3.845-3.097-7.319-5.479-10.438-7.292v16.196c26.442,23.789,68.736,61.458,83.024,71.91
			c16.671,12.194,31.469,11.894,31.469,11.894l0.009-11.492L250.007,372.892z"/>
		
			<linearGradient id="SVGID_12_" gradientUnits="userSpaceOnUse" x1="-440.7614" y1="74.872" x2="-440.7614" y2="116.1598" gradientTransform="matrix(-1 0 0 1 -401.1768 0)">
			<stop  offset="0" style="stop-color:#002763"/>
			<stop  offset="0.4969" style="stop-color:#00357B"/>
			<stop  offset="0.816" style="stop-color:#003A80"/>
			<stop  offset="1" style="stop-color:#003C81"/>
		</linearGradient>
		<polygon fill="url(#SVGID_12_)" points="28.955,75.75 51.548,116.292 27.76,116.292 27.621,74.272 		"/>
		<path fill="#E2E3E4" d="M256.516,370.6c1.79-0.622,3.348-1.477,4.557-2.242h0.107l1.298-0.963
			c6.84-5.126,24.817-18.761,43.949-34.519c11.469-9.435,20.798-17.378,29.034-24.392l0.242-0.202
			c4.772-4.069,8.908-7.583,12.74-10.77l0.323-0.304c5.649-5.667,6.902-9.087,8.281-17.906c0.869-5.475,6.178-40.834,8.927-65.616
			c0.196-1.755,0.376-3.295,0.537-4.633c0.573-4.624,0.832-6.737,0.331-8.581c-0.52-1.871-1.63-3.456-3.107-4.356
			c-1.155-0.703-2.39-1.062-3.724-1.062c-3.045,0-5.327,1.849-7.753,3.796l-0.368,0.295c-5.416,4.356-12.301,10.394-19.625,16.809
			c-9.338,8.169-18.98,16.626-27.468,23.292c-4.208,3.308-7.95,6.441-11.585,9.508c-7.475,6.275-15.202,12.78-27.414,20.914
			l-0.304,0.219c-0.501,0.363-7.351,5.135-13.787,5.135h-0.269c-6.41,0-13.277-4.763-13.814-5.139l-0.304-0.215
			c-12.203-8.134-19.921-14.638-27.441-20.949c-3.608-3.031-7.342-6.164-11.54-9.472c-8.505-6.666-18.148-15.122-27.508-23.327
			c-7.292-6.379-14.182-12.418-19.593-16.773l-0.367-0.295c-2.418-1.943-4.719-3.796-7.758-3.796c-1.316,0-2.57,0.358-3.725,1.062
			c-1.463,0.899-2.592,2.484-3.098,4.36c-0.505,1.839-0.246,3.952,0.323,8.581c0.166,1.334,0.349,2.874,0.542,4.629
			c2.758,24.763,8.062,60.141,8.926,65.616c1.383,8.819,2.641,12.239,8.286,17.906l0.327,0.304c3.943,3.277,8.303,7.001,12.95,10.95
			c8.246,7.023,17.587,14.974,29.047,24.414c19.482,16.04,37.656,29.8,44.567,34.975l0.197,0.134
			c1.683,1.146,3.393,2.02,5.076,2.601C246.533,370.587,252.093,372.458,256.516,370.6z"/>
		<linearGradient id="SVGID_13_" gradientUnits="userSpaceOnUse" x1="251.2749" y1="431.2253" x2="251.2749" y2="357.8814">
			<stop  offset="0" style="stop-color:#BDC1C2"/>
			<stop  offset="0.5153" style="stop-color:#383838"/>
			<stop  offset="1" style="stop-color:#262626"/>
		</linearGradient>
		<path fill="url(#SVGID_13_)" d="M351.382,321.378c0.806-6.088-2.552-8.363-4.611-9.164c-0.958-0.371-1.907-0.564-2.901-0.564
			c-2.784,0-4.843,1.473-6.715,2.969c-4.494,3.59-9.293,7.587-14.396,11.822c-6.697,5.578-13.626,11.343-19.974,16.267
			c-8.738,6.791-25.283,19.424-37.808,27.763l-0.269,0.175l-0.144,0.129c-2.023,1.424-7.896,4.831-13.053,4.875l-0.25,0.005
			l-0.287-0.005c-5.139-0.067-10.994-3.465-12.982-4.875l-0.43-0.304c-12.507-8.339-29.043-20.972-37.79-27.763
			c-6.357-4.924-13.287-10.699-19.997-16.267c-5.081-4.239-9.888-8.232-14.374-11.822c-1.88-1.495-3.943-2.969-6.728-2.969
			c-0.966,0-1.938,0.193-2.878,0.564c-2.077,0.801-5.416,3.076-4.633,9.164l0.022,0.152c5.582,35.234,9.468,56.712,12.834,74.672
			l0.068,0.412c0.761,4.029,1.146,6.056,2.802,9.073c0.304,0.542,1.433,2.458,3.326,4.347c11.778,12.48,38.994,30.269,60.805,42.378
			l12.963,6.531l0.161,0.085c0.555,0.255,3.528,1.567,6.778,1.567c3.348,0,6.303-1.339,6.857-1.612l12.848-6.468l0.197-0.104
			c22.633-12.578,50.799-32.271,61.533-42.996l0.044-0.054c1.549-1.593,2.543-2.789,3.178-3.872
			c1.782-2.995,2.131-4.857,2.892-8.944l0.072-0.345c3.357-17.969,7.243-39.455,12.82-74.672L351.382,321.378z M345.66,320.629
			c-5.443,34.298-9.221,55.406-12.802,74.507c-0.788,4.194-0.95,5.224-2.256,7.408c-0.323,0.568-1.021,1.437-2.337,2.78
			c-10.493,10.497-38.57,29.983-60.253,42.03c-7.744,3.912-12.749,6.437-12.749,6.437s-2.131,1.029-4.342,1.029
			c-2.132,0-4.343-1.029-4.343-1.029s-5.005-2.525-12.767-6.432c-21.361-11.877-48.363-29.554-59.46-41.354
			c-1.128-1.119-1.997-2.385-2.404-3.124c-1.258-2.27-1.469-3.55-2.256-7.744c-3.576-19.101-7.359-40.208-12.794-74.507
			c-0.233-1.679-0.085-2.614,0.994-3.039c1.074-0.421,1.911-0.045,3.908,1.544c10.443,8.349,23.237,19.455,34.437,28.144
			c12.588,9.763,27.315,20.793,38.14,27.999l0.053,0.054c0,0,8.121,5.985,16.483,6.097v0.009h0.662v-0.009
			c8.371-0.076,16.545-6.097,16.545-6.097l0.072-0.054c10.815-7.207,25.543-18.237,38.131-27.999
			c11.182-8.689,23.994-19.795,34.442-28.144c1.988-1.589,2.811-1.965,3.894-1.544C345.731,318.016,345.875,318.951,345.66,320.629z
			"/>
		<linearGradient id="SVGID_14_" gradientUnits="userSpaceOnUse" x1="252.0762" y1="285.3219" x2="111.0748" y2="285.3219">
			<stop  offset="0" style="stop-color:#FFFFFF"/>
			<stop  offset="0.2378" style="stop-color:#F9F9F9"/>
			<stop  offset="0.566" style="stop-color:#E7E7E8"/>
			<stop  offset="0.9454" style="stop-color:#CACBCD"/>
			<stop  offset="1" style="stop-color:#C5C6C8"/>
		</linearGradient>
		<path opacity="0.96" fill="url(#SVGID_14_)" d="M251.494,291.3v47.607c0,0,0.08,11.848-12.293,4.964
			c-31.55-17.565-72.975-50.71-74.04-55.002c-0.958-3.841-2.297-7.888-3.554-14.683c-2.023-10.967-7.265-43.628-7.265-43.628
			s-2.583-12.037,7.771-1.831c13.085,12.901,69.319,53.1,69.319,53.1s7.654,6.469,17.154,6.469
			C249.999,288.296,251.494,289.46,251.494,291.3z"/>
		<linearGradient id="SVGID_15_" gradientUnits="userSpaceOnUse" x1="270.6592" y1="257.4448" x2="353.9102" y2="301.0525">
			<stop  offset="0" style="stop-color:#FFFFFF"/>
			<stop  offset="0.1231" style="stop-color:#FBFBFB"/>
			<stop  offset="0.2399" style="stop-color:#F0F0F0"/>
			<stop  offset="0.3543" style="stop-color:#DDDDDD"/>
			<stop  offset="0.4671" style="stop-color:#C2C2C3"/>
			<stop  offset="0.5788" style="stop-color:#9FA0A1"/>
			<stop  offset="0.6884" style="stop-color:#757678"/>
			<stop  offset="0.6933" style="stop-color:#737476"/>
			<stop  offset="1" style="stop-color:#1A171B"/>
		</linearGradient>
		<path opacity="0.32" fill="url(#SVGID_15_)" d="M356.618,195.992c-15.255,16.326-80.683,71.122-80.683,71.122
			s-9.025,7.708-20.18,8.806v89.43c1.889-0.084,4.27-0.774,7.278-2.359c31.282-16.531,80.389-58.557,83.898-62.518
			c3.223-3.657,4.969-9.262,6.428-17.857c2.363-13.876,12.319-84.305,12.319-84.305S368.696,183.072,356.618,195.992z"/>
		<linearGradient id="SVGID_16_" gradientUnits="userSpaceOnUse" x1="252.446" y1="346.5436" x2="159.0419" y2="346.5436">
			<stop  offset="0" style="stop-color:#505052"/>
			<stop  offset="0.1227" style="stop-color:#999A9C"/>
			<stop  offset="0.5153" style="stop-color:#383838"/>
			<stop  offset="0.8405" style="stop-color:#2A2A2A"/>
			<stop  offset="1" style="stop-color:#262626"/>
		</linearGradient>
		<path fill="url(#SVGID_16_)" d="M158.155,317.519c0.98-0.287,1.835,0.134,3.685,1.615c10.448,8.349,23.25,19.455,34.423,28.144
			c12.606,9.763,27.334,20.793,38.157,27.999l0.054,0.054c0,0,8.12,5.985,16.474,6.097v0.009h0.68v-0.009l0,0v-5.783
			c-0.018,0-0.045,0.005-0.062,0.005l-0.26,0.005l-0.277-0.005c-5.139-0.067-11.003-3.465-12.991-4.875l-0.43-0.304
			c-12.508-8.339-29.044-20.972-37.791-27.763c-6.356-4.924-13.295-10.699-19.996-16.267c-5.081-4.239-9.884-8.232-14.374-11.822
			c-1.876-1.495-3.939-2.969-6.728-2.969c-0.931,0-1.871,0.18-2.784,0.528L158.155,317.519z"/>
		<linearGradient id="SVGID_17_" gradientUnits="userSpaceOnUse" x1="248.2879" y1="111.1157" x2="378.6878" y2="111.1157">
			<stop  offset="0" style="stop-color:#1A1A1A"/>
			<stop  offset="0.169" style="stop-color:#272727"/>
			<stop  offset="0.3252" style="stop-color:#383838"/>
			<stop  offset="0.6258" style="stop-color:#454545"/>
			<stop  offset="1" style="stop-color:#242424"/>
		</linearGradient>
		<path fill="url(#SVGID_17_)" d="M248.288,158.609c0.95,0.148,1.889,0.241,2.848,0.241c8.424,0,16.823-6.638,16.823-6.638
			c9.651-7.23,83.19-65.195,95.885-75.276c4.674-3.716,9.115-6.907,14.844-8.779l-3.751-4.776c-5.703,2.207-10.26,5.51-14.674,9.028
			c-13.402,10.627-86.422,68.176-95.769,75.182l-0.107,0.076c-1.916,1.504-8.048,5.403-13.25,5.403c-0.94,0-1.88-0.13-2.848-0.345
			V158.609z"/>
		<linearGradient id="SVGID_18_" gradientUnits="userSpaceOnUse" x1="111.9088" y1="109.7433" x2="253.1322" y2="109.7433">
			<stop  offset="0" style="stop-color:#1A1A1A"/>
			<stop  offset="0.2101" style="stop-color:#272727"/>
			<stop  offset="0.319" style="stop-color:#303030"/>
			<stop  offset="0.6258" style="stop-color:#858585"/>
			<stop  offset="1" style="stop-color:#242424"/>
		</linearGradient>
		<path fill="url(#SVGID_18_)" d="M111.909,66.411c12.39,0.023,19.208,4.643,26.666,10.525
			c12.112,9.553,86.892,68.154,95.809,75.209l0.063,0.058c0,0,8.272,6.648,16.715,6.648c0.654,0,1.307-0.049,1.97-0.125v-5.824
			c-0.672,0.107-1.334,0.17-1.97,0.17c-5.148,0-11.128-3.823-13.053-5.336l-0.135-0.121c-4.7-3.719-27.727-21.791-50.019-39.271
			c-20.606-16.156-40.06-31.416-45.799-35.942c-7.793-6.151-15.968-11.679-30.014-11.764L111.909,66.411z"/>
		<g>
			
				<linearGradient id="SVGID_19_" gradientUnits="userSpaceOnUse" x1="118.3607" y1="326.4258" x2="113.9446" y2="331.8791" gradientTransform="matrix(-0.9996 -0.0286 -0.0286 0.9996 428.5482 1.5697)">
				<stop  offset="0" style="stop-color:#FFFFFF"/>
				<stop  offset="0.3179" style="stop-color:#C6C7C7"/>
				<stop  offset="0.5337" style="stop-color:#A3A5A6"/>
				<stop  offset="0.5916" style="stop-color:#9B9D9E"/>
				<stop  offset="0.6833" style="stop-color:#848687"/>
				<stop  offset="0.7966" style="stop-color:#606162"/>
				<stop  offset="0.8773" style="stop-color:#424244"/>
			</linearGradient>
			<path fill="url(#SVGID_19_)" d="M354.765,281.497l5.479,2.162c-2.113,0.752-2.588,4.114-4.54,5.582
				c-6.831,5.112-14.736,12.055-24.808,20.86l-1.514,1.28c-6.643,5.834-12.766,11.227-21.657,18.792
				c-19.033,16.143-39.903,29.098-47.297,34.881l-0.251,0.179c-1.424,0.967-3.491,2.172-5.909,2.937
				c-3.769,0.769-7.798,0.541-9.964-0.264c-0.385-0.148-0.753-0.309-1.129-0.479L354.765,281.497z"/>
			
				<linearGradient id="SVGID_20_" gradientUnits="userSpaceOnUse" x1="124.5884" y1="326.7166" x2="119.7167" y2="332.7327" gradientTransform="matrix(0.9996 -0.0286 0.0286 0.9996 67.4792 1.5697)">
				<stop  offset="0" style="stop-color:#FFFFFF"/>
				<stop  offset="0.3179" style="stop-color:#C6C7C7"/>
				<stop  offset="0.5337" style="stop-color:#A3A5A6"/>
				<stop  offset="0.5916" style="stop-color:#9B9D9E"/>
				<stop  offset="0.6833" style="stop-color:#848687"/>
				<stop  offset="0.7966" style="stop-color:#606162"/>
				<stop  offset="0.8773" style="stop-color:#424244"/>
			</linearGradient>
			<path fill="url(#SVGID_20_)" d="M147.599,281.497l-5.492,2.162c2.109,0.752,4.28,4.598,6.236,6.061
				c6.817,5.121,13.541,10.941,23.586,19.737l0.484,2.412c6.656,5.82,13.25,12.189,22.149,19.742
				c19.034,16.142,39.974,27.66,47.361,33.443l0.251,0.179c1.423,0.967,3.5,2.172,5.909,2.937c3.751,0.769,7.789,0.541,9.964-0.264
				c0.385-0.148,0.77-0.309,1.119-0.479L147.599,281.497z"/>
		</g>
		<linearGradient id="SVGID_21_" gradientUnits="userSpaceOnUse" x1="297.1951" y1="338.4625" x2="420.0544" y2="227.8396">
			<stop  offset="0" style="stop-color:#545454"/>
			<stop  offset="0.1135" style="stop-color:#393939"/>
			<stop  offset="0.1718" style="stop-color:#292929"/>
			<stop  offset="0.362" style="stop-color:#333333"/>
			<stop  offset="0.7117" style="stop-color:#4F4F4F"/>
			<stop  offset="0.8344" style="stop-color:#555555"/>
			<stop  offset="1" style="stop-color:#171717"/>
			<stop  offset="1" style="stop-color:#A6A6A6"/>
		</linearGradient>
		<path fill="url(#SVGID_21_)" d="M347.845,386.541c-0.278-0.166-0.447-0.318-0.537-0.658c-0.179-0.542,0.171-1.603,0.171-1.603
			s7.52-25.587,20.269-90.474c7.341-37.311,12.427-73.539,15.283-92.779c2.122-14.415-5.273-21.89-11.317-24.173
			c-1.638-0.627-3.375-0.953-5.148-1.02l-1.62,5.797c0.304-0.023,0.617-0.036,0.921-0.036c1.361,0,2.65,0.219,3.796,0.658
			c1.629,0.617,9.651,4.373,7.646,17.923c-0.304,2.077-0.636,4.356-0.994,6.818c-2.883,19.651-7.717,52.553-14.227,85.701
			c-12.202,61.991-19.642,88.24-20.126,89.87c-0.412,1.306-0.77,3.187-0.179,5.045c0.519,1.648,4.494,4.556,5.998,5.47l0.814-6.271
			C348.534,386.787,347.899,386.573,347.845,386.541z"/>
		<linearGradient id="SVGID_22_" gradientUnits="userSpaceOnUse" x1="139.4076" y1="237.3094" x2="251.9505" y2="237.3094">
			<stop  offset="0" style="stop-color:#1A171B"/>
			<stop  offset="0.0648" style="stop-color:#211E22"/>
			<stop  offset="0.158" style="stop-color:#333134"/>
			<stop  offset="0.2682" style="stop-color:#525053"/>
			<stop  offset="0.3915" style="stop-color:#7C7B7E"/>
			<stop  offset="0.5242" style="stop-color:#B1B2B4"/>
			<stop  offset="0.546" style="stop-color:#BBBCBE"/>
			<stop  offset="0.7546" style="stop-color:#FFFFFF"/>
			<stop  offset="1" style="stop-color:#363636"/>
		</linearGradient>
		<path fill="url(#SVGID_22_)" d="M141.583,200.575c1.781-1.088,3.595,0.492,6.312,2.668c12.05,9.674,31.702,28.023,47.133,40.14
			c12.946,10.166,21.003,18.452,39.312,30.637l0.062,0.059c0,0,8.272,6.101,16.706,6.101h0.269c0.179,0,0.376-0.009,0.573-0.014
			v-5.778c-0.197,0.008-0.394,0.017-0.573,0.017h-0.269c-5.175,0-11.129-3.443-13.143-4.884l-0.439-0.309
			c-12.149-8.093-19.526-14.289-27.325-20.851c-3.626-3.044-7.368-6.195-11.594-9.526c-8.497-6.651-18.138-15.117-27.472-23.286
			c-7.301-6.406-14.199-12.449-19.625-16.809l-0.358-0.286c-2.453-1.97-4.977-4.015-8.367-4.015c-1.159,0-2.314,0.272-3.379,0.756
			l2.153,5.394C141.565,200.585,141.574,200.575,141.583,200.575z"/>
		<linearGradient id="SVGID_23_" gradientUnits="userSpaceOnUse" x1="250.2223" y1="284.4759" x2="367.7404" y2="284.4759">
			<stop  offset="0" style="stop-color:#1A171B"/>
			<stop  offset="0.1479" style="stop-color:#201E22"/>
			<stop  offset="0.3596" style="stop-color:#323134"/>
			<stop  offset="0.546" style="stop-color:#47474A"/>
			<stop  offset="0.7546" style="stop-color:#383838"/>
			<stop  offset="1" style="stop-color:#363636"/>
		</linearGradient>
		<path fill="url(#SVGID_23_)" d="M361.865,202.084c0.349,1.276-0.278,4.857-1.011,11.42c-2.767,24.956-8.166,60.844-8.882,65.4
			c-1.272,8.014-2.238,10.52-6.947,15.252c-10.475,8.734-23.743,20.337-41.98,35.346c-18.846,15.511-36.429,28.878-43.789,34.393
			l0,0c-1.387,1.011-4.592,3.084-7.887,3.115v0.005h-0.34v-0.005c-0.259-0.005-0.546-0.031-0.806-0.054v5.834h1.146l5.775-0.005
			v-1.169c1.477-0.573,2.793-1.28,3.876-1.947h0.161l1.558-1.159c6.84-5.13,24.836-18.779,43.968-34.545
			c11.514-9.45,20.851-17.409,29.097-24.428c4.862-4.132,9.061-7.709,12.928-10.946l0.197-0.166l0.197-0.193
			c5.783-5.814,7.153-9.521,8.55-18.429c0.859-5.471,6.168-40.808,8.917-65.661c0.215-1.75,0.385-3.29,0.555-4.62
			c0.573-4.764,0.842-6.93,0.295-8.949c-0.483-1.79-1.486-3.357-2.803-4.413l-3.715,4.435
			C361.363,200.875,361.695,201.453,361.865,202.084z"/>
		<linearGradient id="SVGID_24_" gradientUnits="userSpaceOnUse" x1="371.6442" y1="223.5186" x2="250.5043" y2="223.5186">
			<stop  offset="0" style="stop-color:#1F1F1F"/>
			<stop  offset="0.0175" style="stop-color:#3A3A3A"/>
			<stop  offset="0.055" style="stop-color:#808080"/>
			<stop  offset="0.0552" style="stop-color:#818181"/>
			<stop  offset="0.1043" style="stop-color:#B2B2B2"/>
			<stop  offset="0.3804" style="stop-color:#CFCFCF"/>
			<stop  offset="0.6012" style="stop-color:#616161"/>
			<stop  offset="0.816" style="stop-color:#5C5C5C"/>
			<stop  offset="1" style="stop-color:#242424"/>
		</linearGradient>
		<path fill="url(#SVGID_24_)" d="M371.713,176.855c-6.571-2.494-14.629-0.323-21.003,4.753
			c-11.263,8.958-24.943,22.624-47.021,42.469c-18.291,16.451-36.752,31.908-44.389,38.243l-0.126,0.107
			c-1.387,1.007-4.511,2.977-7.797,3.013v0.005h-0.349v-0.005c-0.278-0.005-0.565-0.027-0.832-0.062v5.842h6.956v-1.141
			c2.337-0.896,4.244-2.118,5.444-2.995l0.447-0.358c7.27-6.03,26.044-21.738,44.514-38.345
			c8.729-7.856,16.106-14.705,22.615-20.735c9.758-9.065,17.476-16.227,24.128-21.514c3.626-2.892,7.843-4.534,11.567-4.534
			c1.361,0,2.65,0.219,3.806,0.658c0.466,0.179,2.775,1.57,3.885,2.421l2.202-5.559
			C374.426,178.099,373.047,177.352,371.713,176.855z"/>
		<linearGradient id="SVGID_25_" gradientUnits="userSpaceOnUse" x1="251.9505" y1="237.3025" x2="364.64" y2="237.3025">
			<stop  offset="0" style="stop-color:#1A171B"/>
			<stop  offset="0.0648" style="stop-color:#211E22"/>
			<stop  offset="0.158" style="stop-color:#333134"/>
			<stop  offset="0.2682" style="stop-color:#525053"/>
			<stop  offset="0.3915" style="stop-color:#7C7B7E"/>
			<stop  offset="0.5242" style="stop-color:#B1B2B4"/>
			<stop  offset="0.546" style="stop-color:#BBBCBE"/>
			<stop  offset="0.7546" style="stop-color:#FFFFFF"/>
			<stop  offset="1" style="stop-color:#363636"/>
		</linearGradient>
		<path fill="url(#SVGID_25_)" d="M251.95,280.167c8.236-0.259,16.133-6.087,16.133-6.087l0.072-0.059
			c18.3-12.185,26.357-20.471,39.303-30.637c15.427-12.117,35.078-30.466,47.129-40.14c2.713-2.176,4.53-3.756,6.311-2.668
			c0.009,0.009,0.027,0.018,0.027,0.022l3.715-4.435c-0.241-0.193-0.474-0.363-0.733-0.515c-1.281-0.787-2.731-1.208-4.208-1.208
			c-3.385,0-5.918,2.045-8.38,4.015l-0.349,0.286c-5.425,4.36-12.328,10.404-19.615,16.809
			c-9.338,8.169-18.998,16.635-27.468,23.286c-4.235,3.331-7.986,6.482-11.612,9.526c-7.807,6.562-15.175,12.758-27.334,20.851
			l-0.259,0.179l-0.16,0.135c-1.845,1.316-7.503,4.62-12.57,4.862V280.167z"/>
		<linearGradient id="SVGID_26_" gradientUnits="userSpaceOnUse" x1="134.7394" y1="283.9922" x2="250.2223" y2="283.9922">
			<stop  offset="0" style="stop-color:#1A171B"/>
			<stop  offset="0.056" style="stop-color:#211E21"/>
			<stop  offset="0.1364" style="stop-color:#333133"/>
			<stop  offset="0.231" style="stop-color:#505051"/>
			<stop  offset="0.2761" style="stop-color:#616161"/>
			<stop  offset="0.5276" style="stop-color:#1A1A1A"/>
			<stop  offset="0.7546" style="stop-color:#373739"/>
			<stop  offset="1" style="stop-color:#000000"/>
		</linearGradient>
		<path fill="url(#SVGID_26_)" d="M250.222,372.79v-5.834c-2.551-0.281-4.96-1.643-6.402-2.609
			c-6.947-5.211-25.014-18.887-44.397-34.845c-18.228-15.009-31.506-26.612-41.967-35.346c-4.713-4.732-5.676-7.238-6.943-15.252
			c-0.716-4.556-6.12-40.445-8.895-65.4c-0.725-6.563-1.348-10.144-1.008-11.42c0.18-0.64,0.533-1.23,0.953-1.494l-2.153-5.394
			c-0.287,0.134-0.568,0.286-0.837,0.452c-1.679,1.02-2.964,2.816-3.537,4.924c-0.546,2.023-0.281,4.19,0.295,8.958
			c0.166,1.329,0.354,2.865,0.542,4.615c2.753,24.781,8.071,60.176,8.927,65.661c1.405,8.908,2.775,12.615,8.554,18.429l0.196,0.193
			l0.197,0.166c3.882,3.236,8.076,6.8,12.919,10.932c8.255,7.028,17.606,14.983,29.084,24.441
			c19.491,16.053,37.682,29.822,44.612,35.002l0.224,0.165c1.253,0.837,2.847,1.764,4.655,2.472v1.186H250.222z"/>
		<linearGradient id="SVGID_27_" gradientUnits="userSpaceOnUse" x1="198.0477" y1="229.6359" x2="185.7533" y2="244.2878">
			<stop  offset="0" style="stop-color:#1A171B"/>
			<stop  offset="0.091" style="stop-color:#1E1B1F"/>
			<stop  offset="0.1904" style="stop-color:#2B292C"/>
			<stop  offset="0.2938" style="stop-color:#403E42"/>
			<stop  offset="0.4" style="stop-color:#5E5D60"/>
			<stop  offset="0.5082" style="stop-color:#848486"/>
			<stop  offset="0.6167" style="stop-color:#B2B4B5"/>
			<stop  offset="0.638" style="stop-color:#BCBEBF"/>
			<stop  offset="0.7497" style="stop-color:#D5D6D7"/>
			<stop  offset="0.9099" style="stop-color:#F4F4F4"/>
			<stop  offset="1" style="stop-color:#FFFFFF"/>
		</linearGradient>
		<path opacity="0.69" fill="url(#SVGID_27_)" d="M250.007,271.509c0,0-79.613-61.314-102.725-79.936
			c-3.854-3.098-7.324-5.48-10.449-7.292v16.196c26.474,23.783,68.822,61.457,83.128,71.905
			c16.697,12.203,31.505,11.899,31.505,11.899l0.009-11.491L250.007,271.509z"/>
		
			<linearGradient id="SVGID_28_" gradientUnits="userSpaceOnUse" x1="-18.5891" y1="229.6295" x2="-30.8851" y2="244.2833" gradientTransform="matrix(-1 0 0 1 286.293 0)">
			<stop  offset="0" style="stop-color:#1A171B"/>
			<stop  offset="0.091" style="stop-color:#1E1B1F"/>
			<stop  offset="0.1904" style="stop-color:#2B292C"/>
			<stop  offset="0.2938" style="stop-color:#403E42"/>
			<stop  offset="0.4" style="stop-color:#5E5D60"/>
			<stop  offset="0.5082" style="stop-color:#848486"/>
			<stop  offset="0.6167" style="stop-color:#B2B4B5"/>
			<stop  offset="0.638" style="stop-color:#BCBEBF"/>
			<stop  offset="0.7497" style="stop-color:#D5D6D7"/>
			<stop  offset="0.9099" style="stop-color:#F4F4F4"/>
			<stop  offset="1" style="stop-color:#FFFFFF"/>
		</linearGradient>
		<path opacity="0.69" fill="url(#SVGID_28_)" d="M252.926,271.5c0,0,79.591-61.314,102.726-79.931
			c3.84-3.102,7.314-5.48,10.439-7.292v16.196c-26.466,23.783-68.822,61.457-83.12,71.909
			c-16.696,12.199-31.496,11.899-31.496,11.899l-0.009-11.495L252.926,271.5z"/>
		<linearGradient id="SVGID_29_" gradientUnits="userSpaceOnUse" x1="85.952" y1="207.695" x2="195.8945" y2="364.709">
			<stop  offset="0" style="stop-color:#B7B8BA"/>
			<stop  offset="1" style="stop-color:#0D0D0D"/>
		</linearGradient>
		<path fill="url(#SVGID_29_)" d="M140.397,292.696c-6.517-33.139-11.343-66.037-14.222-85.688
			c-0.354-2.462-0.694-4.745-1.007-6.832c-1.11-7.529,0.873-12.041,3.129-14.66l-2.015-6.061
			c-4.592,3.724-8.443,10.654-6.831,21.572c2.852,19.24,7.928,55.468,15.269,92.779c12.758,64.887,20.27,90.474,20.27,90.474
			s0.362,1.061,0.193,1.603c-0.112,0.34-0.269,0.492-0.556,0.658c-0.545,0.322-1.262,0.353-2.072-0.3l2.632,6.168
			c0.832-0.157,1.634-0.452,2.376-0.891c1.545-0.909,2.601-2.221,3.125-3.894c0.59-1.871,0.246-3.755-0.18-5.058
			C160.035,380.9,152.573,354.65,140.397,292.696z"/>
		<linearGradient id="SVGID_30_" gradientUnits="userSpaceOnUse" x1="372.2685" y1="67.0049" x2="477.7247" y2="67.0049">
			<stop  offset="0" style="stop-color:#242424"/>
			<stop  offset="0.2761" style="stop-color:#262626"/>
			<stop  offset="0.6258" style="stop-color:#666666"/>
			<stop  offset="1" style="stop-color:#666666"/>
		</linearGradient>
		<path fill="url(#SVGID_30_)" d="M462.218,60.628h-71.614c-7.53,0-13.349,1.535-18.336,3.903l2.722,5.085
			c4.288-1.983,9.221-3.205,15.614-3.205h71.614c5.524,0,9.472,3.421,11.174,6.97l4.333-4.092
			C474.842,64.639,469.461,60.628,462.218,60.628z"/>
		<path fill="#8A8B8D" d="M480.464,81.989c0-5.913-0.725-8.21-1.047-9.083c-0.761-2.314-2.158-4.677-4.11-6.719l-4.092,4.092
			c1.326,1.388,2.265,3.003,2.74,4.553c0.393,1.016,0.734,3.299,0.734,7.157c-0.009,0.681-0.52,72.031-30.368,152.226
			c-22.203,59.631-53.915,111.066-94.794,152.298c-0.358,0.256-0.761,0.304-1.128,0.228l-3.045,5.009
			c1.057,0.524,2.194,0.801,3.357,0.801c1.54,0,3-0.474,4.236-1.383l0.358-0.272l0.323-0.318
			c41.075-41.443,73.414-93.37,96.11-154.353C479.909,155.143,480.456,82.733,480.464,81.989z"/>
		<path fill="#58585A" d="M250.983,371.827"/>
		<linearGradient id="SVGID_31_" gradientUnits="userSpaceOnUse" x1="8.3989" y1="261.3121" x2="251.2611" y2="261.3121">
			<stop  offset="0" style="stop-color:#F2F2F2"/>
			<stop  offset="0.0322" style="stop-color:#DEDEDE"/>
			<stop  offset="0.1072" style="stop-color:#B6B6B6"/>
			<stop  offset="0.1754" style="stop-color:#989898"/>
			<stop  offset="0.234" style="stop-color:#868686"/>
			<stop  offset="0.2761" style="stop-color:#808080"/>
			<stop  offset="0.6258" style="stop-color:#666666"/>
			<stop  offset="1" style="stop-color:#404040"/>
		</linearGradient>
		<path fill="url(#SVGID_31_)" d="M251.261,463.339c-0.036,0-0.063,0-0.108,0c-2.005,0-4.556-0.859-5.488-1.235
			c-94.22-45.943-161.694-122.431-200.555-227.36C14.537,152.176,14.183,82.652,14.183,81.963c0-5.134,0.609-10.179,1.191-12.087
			c1.589-5.174,4.213-9.171,7.834-11.996l-3.801-4.374c-4.203,3.34-7.547,8.124-9.553,14.679c-0.899,2.905-1.455,8.809-1.455,13.778
			c0,10.784,5.153,273.521,234.884,385.41c0,0,4.083,1.746,7.87,1.746c0.045,0,0.072,0,0.108,0V463.339z"/>
		<path fill="#B7BABC" d="M460.616,235.998c30.798-83.168,31.148-153.341,31.148-154.035c0-5.067-0.565-10.596-1.343-13.148
			c-4.96-16.146-18.085-19.544-28.219-19.544h-71.623c-18.157,0-28.166,7.216-36.851,14.598
			c-10.359,8.796-73.87,62.42-93.083,78.647l-0.107,0.081c-1.37,0.994-4.02,2.682-7.037,3.299v0.237l-4.691,0.005v-0.246
			c-2.991-0.622-5.632-2.301-6.957-3.273l-0.107-0.089c-24.71-20.848-83.2-70.232-93.111-78.661
			c-8.688-7.382-18.702-14.598-36.868-14.598H40.146c-10.13,0-23.246,3.398-28.21,19.544c-0.788,2.551-1.352,8.08-1.352,13.148
			c0,0.694,0.354,70.867,31.157,154.035c39.204,105.868,107.318,183.051,202.465,229.405c0.358,0.148,3.841,1.549,6.966,1.549
			c3.25,0,6.607-1.397,6.983-1.554C353.279,419.058,421.411,341.87,460.616,235.998z M334.881,395.883
			c-0.753,4.087-0.994,5.318-2.444,7.767c-0.466,0.806-1.343,1.844-2.66,3.182c-10.528,10.56-38.354,29.97-60.737,42.415
			l-0.072,0.04l-12.776,6.441c-0.268,0.13-2.676,1.25-5.3,1.25c-2.605,0-5.157-1.177-5.255-1.227l-0.063-0.023l-12.82-6.463
			c-20.887-11.617-48.565-29.621-59.989-41.757c-1.249-1.24-2.238-2.664-2.739-3.582c-1.396-2.497-1.679-3.993-2.421-7.972
			l-0.076-0.421c-3.362-17.932-7.234-39.379-12.817-74.569c-0.143-1.168-0.649-4.445,2.261-5.582
			c0.528-0.205,1.043-0.313,1.567-0.313c1.472,0,2.806,0.953,4.575,2.368c4.458,3.572,9.244,7.552,14.316,11.769
			c6.742,5.622,13.703,11.392,20.095,16.353c8.783,6.822,25.399,19.517,38.014,27.91l0.188,0.148
			c0.314,0.219,7.825,5.551,15.175,5.645l0.34,0.005l0.269-0.005c7.395-0.062,14.933-5.426,15.256-5.649l0.152-0.126
			c12.632-8.411,29.258-21.106,38.032-27.928c6.419-4.961,13.367-10.748,20.099-16.353c5.076-4.226,9.857-8.21,14.325-11.769
			c1.764-1.415,3.134-2.332,4.601-2.332c0.529,0,1.039,0.107,1.567,0.314c2.91,1.137,2.373,4.333,2.22,5.492
			c-5.578,35.234-9.454,56.69-12.803,74.622L334.881,395.883z M242.612,366.142l-0.09-0.059
			c-6.902-5.17-25.032-18.904-44.478-34.907c-11.451-9.436-20.793-17.378-29.022-24.388c-4.856-4.135-9.047-7.704-12.95-10.966
			l-0.134-0.116c-5.179-5.197-6.263-8.179-7.565-16.469c-0.864-5.475-6.164-40.794-8.908-65.496
			c-0.193-1.764-0.385-3.308-0.555-4.655c-0.492-4.145-0.748-6.231-0.39-7.574c0.336-1.222,1.039-2.243,1.929-2.784
			c0.73-0.443,1.518-0.676,2.341-0.676c2.113,0,3.872,1.424,6.101,3.219l0.363,0.291c5.367,4.311,12.239,10.328,19.508,16.707
			c9.36,8.205,19.039,16.688,27.598,23.412c4.19,3.281,7.915,6.41,11.513,9.432c7.548,6.357,15.337,12.896,27.665,21.107
			l0.188,0.148c0.323,0.228,7.977,5.649,15.382,5.649h0.269c7.404,0,15.067-5.421,15.39-5.658l0.152-0.121
			c12.354-8.228,20.143-14.767,27.682-21.106c3.599-3.031,7.323-6.16,11.514-9.45c8.559-6.714,18.237-15.207,27.601-23.412
			c7.278-6.379,14.146-12.396,19.508-16.707l0.368-0.291c2.229-1.795,3.983-3.219,6.106-3.219c0.815,0,1.612,0.233,2.328,0.676
			c0.895,0.542,1.602,1.562,1.925,2.784c0.376,1.343,0.125,3.425-0.385,7.574c-0.171,1.343-0.34,2.888-0.546,4.655
			c-2.739,24.634-8.048,60.011-8.908,65.496c-1.307,8.29-2.39,11.272-7.547,16.455l-0.126,0.121
			c-3.885,3.232-8.058,6.781-12.874,10.882l-0.107,0.103c-8.246,7.011-17.575,14.952-29.025,24.379
			c-19.096,15.713-37.039,29.325-43.87,34.441l-0.483,0.349c-1.531,1.074-3.904,2.431-6.545,2.972v0.237h-2.157h-2.525v-0.246
			C246.354,368.407,244.089,367.14,242.612,366.142z M350.567,388.456c-1.236,0.686-2.686,0.645-3.85-0.031
			c-0.484-0.291-1.173-0.801-1.522-1.876c-0.314-1.038,0.008-2.287,0.232-2.932c0.296-1.061,7.807-27.194,20.207-90.228
			c6.527-33.202,11.362-66.139,14.236-85.827c0.376-2.484,0.716-4.772,1.011-6.862c1.871-12.624-4.171-19.647-9.92-21.823
			c-1.584-0.595-3.286-0.896-5.095-0.896c-4.511,0-9.553,1.939-13.805,5.323c-6.759,5.371-14.522,12.57-24.343,21.684
			c-6.491,6.031-13.868,12.862-22.57,20.7c-18.452,16.585-37.235,32.306-44.46,38.296l-0.609,0.501l-0.215,0.161
			c-1.531,1.061-3.751,2.193-6.329,2.721v0.237l-4.682,0.005v-0.246c-2.964-0.622-5.569-2.292-6.894-3.255l-0.098-0.072
			c-7.234-6.003-26.036-21.733-44.514-38.35c-8.729-7.838-16.084-14.669-22.589-20.7c-9.83-9.118-17.583-16.316-24.329-21.684
			c-4.252-3.384-9.284-5.323-13.814-5.323c-1.804,0-3.514,0.301-5.076,0.896c-5.753,2.176-11.804,9.199-9.938,21.823
			c0.273,1.853,0.568,3.863,0.882,6.016l0.126,0.829c2.887,19.687,7.717,52.634,14.239,85.844
			c12.387,63.002,19.911,89.167,20.216,90.25c0.215,0.622,0.626,1.934,0.295,2.985c-0.336,1.074-1.029,1.585-1.509,1.863
			c-0.6,0.345-1.235,0.528-1.902,0.528c-0.927,0-1.921-0.421-2.749-1.093l-0.157-0.143c-40.601-41.044-72.572-92.453-95.035-152.808
			C26.045,154.459,25.508,82.724,25.508,82.008c0-4.037,0.121-5.238,0.497-6.809l0.037-0.121
			c1.634-5.241,6.186-10.842,14.105-10.842h71.619c13.107,0,20.485,4.987,28.095,10.999c5.739,4.512,25.122,19.728,45.66,35.83
			l0.788,0.627c21.997,17.239,44.729,35.081,49.357,38.761l0.143,0.094c0.295,0.241,7.843,6.132,15.301,6.132
			c7.583,0,15.407-6.101,15.488-6.164c9.634-7.224,82.098-64.335,95.877-75.276c7.592-6.016,14.925-11.003,28.104-11.003h71.623
			c7.341,0,12.292,5.13,13.796,9.888c0.689,1.845,0.842,5.304,0.842,7.865c0,0.717-0.528,72.47-30.502,152.984
			c-22.508,60.49-54.595,112.005-95.322,153.081L350.567,388.456z"/>
		<linearGradient id="SVGID_32_" gradientUnits="userSpaceOnUse" x1="27.4194" y1="65.9955" x2="131.7754" y2="65.9955">
			<stop  offset="0" style="stop-color:#0A0A0A"/>
			<stop  offset="0.1383" style="stop-color:#181818"/>
			<stop  offset="0.319" style="stop-color:#303030"/>
			<stop  offset="0.6258" style="stop-color:#4F4F4F"/>
			<stop  offset="1" style="stop-color:#1F1F1F"/>
		</linearGradient>
		<path fill="url(#SVGID_32_)" d="M40.191,60.628c-5.555,0-9.777,2.188-12.772,5.241l2.937,5.493
			c1.978-2.691,5.152-4.952,9.834-4.952h71.619c8.093,0,13.81,1.956,18.877,4.942l1.088-5.989
			c-5.349-2.821-11.626-4.736-19.966-4.736H40.191z"/>
		<linearGradient id="SVGID_33_" gradientUnits="userSpaceOnUse" x1="122.9606" y1="223.5186" x2="253.0873" y2="223.5186">
			<stop  offset="0" style="stop-color:#B7B8BA"/>
			<stop  offset="0.0416" style="stop-color:#9C9D9E"/>
			<stop  offset="0.1306" style="stop-color:#585858"/>
			<stop  offset="0.1656" style="stop-color:#3B3B3B"/>
			<stop  offset="0.2454" style="stop-color:#242424"/>
			<stop  offset="0.3252" style="stop-color:#262626"/>
			<stop  offset="0.6994" style="stop-color:#5E5E5E"/>
			<stop  offset="0.865" style="stop-color:#4D4D4D"/>
			<stop  offset="1" style="stop-color:#242424"/>
		</linearGradient>
		<path fill="url(#SVGID_33_)" d="M253.087,271.219v-5.963c-0.564,0.103-1.137,0.179-1.71,0.183v0.005h-0.349v-0.005
			c-3.232-0.054-6.402-2.059-7.807-3.079c-7.601-6.312-26.098-21.801-44.434-38.283c-22.064-19.845-35.753-33.511-47.016-42.469
			c-6.374-5.076-14.427-7.247-21.003-4.753c-2.65,0.994-5.551,2.995-7.807,6.132l3.421,5.52c2.014-4.302,5.43-5.877,6.432-6.253
			c1.155-0.439,2.44-0.658,3.801-0.658c3.729,0,7.937,1.643,11.562,4.534c6.652,5.287,14.37,12.449,24.132,21.509
			c6.5,6.034,13.891,12.883,22.611,20.739c18.541,16.662,37.387,32.423,44.63,38.43l0.287,0.224
			c1.191,0.877,3.115,2.095,5.407,2.995v1.191H253.087z"/>
		<g>
			<path fill="#2B2A2D" d="M154.708,386.487c-0.027,0.018-0.049,0.036-0.081,0.054c-0.545,0.322-1.262,0.353-2.077-0.3
				c-40.75-41.197-72.376-92.52-94.525-152.026C28.177,154.021,27.671,82.67,27.671,81.998c0-3.863,0.107-4.919,0.438-6.289
				c0.667-2.154,2.006-4.643,4.199-6.514l-3.706-4.458c-3.009,2.551-4.987,5.954-6.012,9.253l-0.103,0.381
				c-0.475,1.978-0.6,3.55-0.6,7.641c0,0.725,0.533,73.087,30.731,154.219c22.637,60.839,54.881,112.686,95.827,154.075l0.219,0.228
				l0.251,0.197c1.464,1.182,3.165,1.809,4.906,1.809c1.303,0,1.827,0.452,2.969-0.215L154.708,386.487z"/>
		</g>
		<linearGradient id="SVGID_34_" gradientUnits="userSpaceOnUse" x1="80.6324" y1="240.4419" x2="105.8831" y2="232.2375">
			<stop  offset="0" style="stop-color:#B7B8BA"/>
			<stop  offset="0.546" style="stop-color:#404040"/>
			<stop  offset="0.681" style="stop-color:#383838"/>
			<stop  offset="0.8221" style="stop-color:#080808"/>
			<stop  offset="1" style="stop-color:#E3E3E3"/>
		</linearGradient>
		<path fill="url(#SVGID_34_)" d="M156.583,387.924c-0.255,0.256-0.511,0.439-0.734,0.565c-0.6,0.345-1.235,0.528-1.902,0.528
			c-0.927,0-1.929-0.421-2.749-1.093l-0.166-0.143c-40.592-41.044-72.563-92.453-95.026-152.808
			C26.045,154.459,25.508,82.724,25.504,82.008c0-4.037,0.125-5.238,0.5-6.809l0.037-0.121c0.174-0.564,0.38-1.123,0.626-1.691
			l-6.075-3.245c-0.412,0.975-0.797,2-1.123,3.075c-0.587,1.889-1.186,6.898-1.186,12.011c0,2.749,0.313,67.997,30.435,149.33
			c12.288,33.18,27.208,63.606,44.344,90.448c17.18,26.903,37.19,51.161,59.515,72.088c1.204,1.052,5.556,4.862,5.582,4.888
			c1.581,1.151,2.627,1.778,3.63,1.778c0.425,0,0.823-0.107,1.231-0.331c0.3-0.166,0.497-0.479,0.613-0.958L156.583,387.924z"/>
		<linearGradient id="SVGID_35_" gradientUnits="userSpaceOnUse" x1="129.984" y1="109.5398" x2="252.1292" y2="109.5398">
			<stop  offset="0" style="stop-color:#4F4F4F"/>
			<stop  offset="1" style="stop-color:#F2F2F2"/>
		</linearGradient>
		<path fill="url(#SVGID_35_)" d="M129.984,68.524c3.542,1.862,6.683,4.194,9.866,6.71c5.725,4.512,25.122,19.728,45.651,35.83
			l0.797,0.627c21.989,17.239,44.72,35.081,49.367,38.761l0.116,0.094c0.314,0.241,7.851,6.132,15.318,6.132
			c0.349,0,0.689-0.014,1.03-0.036v-4.579c-0.251,0.014-0.501,0.014-0.779,0.014c-2.99,0-5.64-0.815-8.353-2.574
			c-2.623-1.692-86.01-70.2-96.88-79.426c-3.263-2.78-6.616-5.448-10.461-7.677L129.984,68.524z"/>
		<linearGradient id="SVGID_36_" gradientUnits="userSpaceOnUse" x1="18.2342" y1="53.1055" x2="135.625" y2="53.1055">
			<stop  offset="0" style="stop-color:#E0E0E0"/>
			<stop  offset="0.0065" style="stop-color:#DEDEDE"/>
			<stop  offset="0.1498" style="stop-color:#B5B5B5"/>
			<stop  offset="0.2801" style="stop-color:#989898"/>
			<stop  offset="0.392" style="stop-color:#868686"/>
			<stop  offset="0.4724" style="stop-color:#808080"/>
			<stop  offset="0.681" style="stop-color:#474747"/>
			<stop  offset="1" style="stop-color:#141414"/>
		</linearGradient>
		<path fill="url(#SVGID_36_)" d="M21.779,59.102c4.401-4.136,10.537-6.214,18.358-6.214h71.619c8.017,0,14.261,1.45,19.526,3.751
			l4.343-4.342c-6.276-3.098-13.886-5.188-23.868-5.188c0,0-52.509,0-71.619,0c-8.318,0-16.067,2.139-21.904,7.386L21.779,59.102z"
			/>
		<linearGradient id="SVGID_37_" gradientUnits="userSpaceOnUse" x1="112.9979" y1="152.2119" x2="60.9872" y2="38.2013">
			<stop  offset="0" style="stop-color:#BDC1C2"/>
			<stop  offset="0.362" style="stop-color:#383838"/>
			<stop  offset="1" style="stop-color:#000000"/>
		</linearGradient>
		<path fill="url(#SVGID_37_)" d="M25.508,82.008c0-4.037,0.121-5.238,0.497-6.809l0.037-0.121
			c1.634-5.241,6.195-10.842,14.105-10.842h71.619c13.107,0,20.485,4.987,28.095,10.999c4.808,3.787,19.235,15.099,35.874,28.162
			l6.612-3.366c-17.002-13.98-32.016-26.393-36.215-29.952c-8.478-7.211-17.498-13.685-34.366-13.685H44
			c-12.851,0-21.102,5.663-24.53,16.823c-0.587,1.889-1.186,6.898-1.186,12.011c0,2.059,0.179,39.2,12.927,91.901l6.585-3.362
			C25.799,121.324,25.508,82.526,25.508,82.008z"/>
		<linearGradient id="SVGID_38_" gradientUnits="userSpaceOnUse" x1="250.9478" y1="434.2048" x2="3.5826" y2="186.8396">
			<stop  offset="0" style="stop-color:#FFFFFF"/>
			<stop  offset="0.1766" style="stop-color:#F9F9F9"/>
			<stop  offset="0.4204" style="stop-color:#E7E7E7"/>
			<stop  offset="0.7033" style="stop-color:#CACACA"/>
			<stop  offset="1" style="stop-color:#A3A3A3"/>
		</linearGradient>
		<path fill="url(#SVGID_38_)" d="M251.135,466.952c-3.116,0-6.607-1.402-6.966-1.549
			C149.032,419.049,80.913,341.866,41.708,235.998c-13.415-36.219-21.057-69.972-25.404-96.598l6.393-2.296
			c4.118,26.115,11.666,60.164,25.542,97.622c19.5,52.67,45.705,98.223,77.873,135.395c8.187,9.459,16.97,18.601,26.12,27.182
			l4.978,4.584c5.193,4.687,10.707,9.382,16.397,13.94l1.151,0.918c21.541,17.14,45.356,32.114,70.774,44.514l0.027,0.013
			c1.146,0.457,3.626,1.25,5.578,1.25V466.952z"/>
		<linearGradient id="SVGID_39_" gradientUnits="userSpaceOnUse" x1="252.1084" y1="100.3788" x2="131.1084" y2="100.3788">
			<stop  offset="0" style="stop-color:#545454"/>
			<stop  offset="0.0368" style="stop-color:#191919"/>
			<stop  offset="1" style="stop-color:#141414"/>
		</linearGradient>
		<path fill="url(#SVGID_39_)" d="M132.805,57.338c5.157,2.497,9.382,5.801,13.483,9.284c10.188,8.657,73.835,62.401,93.092,78.656
			l0.348,0.259c1.209,0.887,3.134,2.121,5.47,3.022v1.191l6.5-0.005v-5.801c-0.126,0.008-0.25,0.017-0.376,0.017v0.009h-0.349
			v-0.009c-3.267-0.054-6.464-2.086-7.86-3.098c-16.464-13.908-82.604-69.738-93.083-78.647
			c-4.916-4.172-10.269-8.317-17.225-11.209V57.338z"/>
		<linearGradient id="SVGID_40_" gradientUnits="userSpaceOnUse" x1="26.6652" y1="46.5205" x2="54.1121" y2="78.3011">
			<stop  offset="0" style="stop-color:#F2F2F2"/>
			<stop  offset="0.1987" style="stop-color:#ECECEC"/>
			<stop  offset="0.4731" style="stop-color:#DADADA"/>
			<stop  offset="0.79" style="stop-color:#BDBDBD"/>
			<stop  offset="1" style="stop-color:#A6A6A6"/>
		</linearGradient>
		<path fill="url(#SVGID_40_)" d="M30.778,177.356c-12.798-52.822-12.973-90.062-12.969-92.122c0-5.161,0.604-10.233,1.2-12.162
			C22.509,61.689,30.911,55.914,44,55.914h67.765c17.042,0,26.125,6.522,34.68,13.797c4.977,4.225,19.777,16.455,36.344,30.086
			l5.202-2.649c-18.291-15.444-34.55-29.191-39.357-33.278c-8.688-7.382-18.702-14.598-36.868-14.598H40.146
			c-10.13,0-23.246,3.398-28.21,19.544c-0.788,2.551-1.352,8.08-1.352,13.148c0,0.533,0.211,41.819,14.141,98.482L30.778,177.356z"
			/>
		<linearGradient id="SVGID_41_" gradientUnits="userSpaceOnUse" x1="134.4249" y1="103.5614" x2="252.1109" y2="103.5614">
			<stop  offset="0" style="stop-color:#A8A8A8"/>
			<stop  offset="0.0909" style="stop-color:#959595"/>
			<stop  offset="0.4158" style="stop-color:#535353"/>
			<stop  offset="0.6518" style="stop-color:#292929"/>
			<stop  offset="0.773" style="stop-color:#1A1A1A"/>
			<stop  offset="1" style="stop-color:#9C9C9C"/>
		</linearGradient>
		<path fill="url(#SVGID_41_)" d="M249.139,145.949l-0.367-0.058c-2.972-0.622-5.623-2.301-6.947-3.273l-0.116-0.089
			c-24.702-20.848-83.195-70.232-93.106-78.661c-3.496-2.959-7.198-5.891-11.545-8.344l-2.632,5.649
			c4.495,2.396,8.295,5.39,11.988,8.537c13.13,11.142,94.57,77.926,96.835,79.394c2.624,1.706,5.193,2.494,8.085,2.494
			c0.277,0,0.528-0.005,0.778-0.014v-5L249.139,145.949z"/>
		<linearGradient id="SVGID_42_" gradientUnits="userSpaceOnUse" x1="164.7586" y1="292.213" x2="92.2341" y2="292.213">
			<stop  offset="0" style="stop-color:#D1D1D1"/>
			<stop  offset="0.0364" style="stop-color:#C7C7C7"/>
			<stop  offset="0.2025" style="stop-color:#9C9C9C"/>
			<stop  offset="0.2211" style="stop-color:#A5A5A5"/>
			<stop  offset="0.2774" style="stop-color:#BBBBBB"/>
			<stop  offset="0.3437" style="stop-color:#CCCCCC"/>
			<stop  offset="0.4252" style="stop-color:#D8D8D8"/>
			<stop  offset="0.5384" style="stop-color:#DEDEDE"/>
			<stop  offset="0.8405" style="stop-color:#E0E0E0"/>
			<stop  offset="0.9315" style="stop-color:#E2E2E2"/>
			<stop  offset="0.9643" style="stop-color:#E9E9E9"/>
			<stop  offset="0.9876" style="stop-color:#F5F5F5"/>
			<stop  offset="1" style="stop-color:#FFFFFF"/>
		</linearGradient>
		<path fill="url(#SVGID_42_)" d="M162.949,395.838c-0.053-0.322-0.107-0.622-0.156-0.854h0.027l-0.094-0.525
			c-1.593-8.688-3.778-19.185-6.311-31.334c-6.518-31.215-15.439-73.951-23.448-130.091c-4.185-29.375-5.689-39.885,0.793-44.191
			l-5.537-8.174c-4.5,3.286-8.161,9.826-6.647,20.033c0.269,1.853,0.568,3.863,0.877,6.016l0.125,0.829
			c2.883,19.687,7.713,52.634,14.249,85.844c12.382,63.002,19.902,89.167,20.211,90.25c0.206,0.622,0.623,1.934,0.287,2.985
			c-0.327,1.074-1.02,1.585-1.504,1.863c-0.17,0.107-0.349,0.188-0.528,0.259l6.053,14.978c0.143,0.022,0.286,0.031,0.412,0.031
			c0.425,0,0.828-0.107,1.235-0.331c0.779-0.439,0.914-1.827,0.466-4.799C163.271,397.557,163.083,396.577,162.949,395.838z"/>
		<linearGradient id="SVGID_43_" gradientUnits="userSpaceOnUse" x1="201.8525" y1="391.5802" x2="151.2928" y2="299.8499">
			<stop  offset="0" style="stop-color:#BDC1C2"/>
			<stop  offset="0.362" style="stop-color:#383838"/>
			<stop  offset="1" style="stop-color:#000000"/>
		</linearGradient>
		<path fill="url(#SVGID_43_)" d="M156.928,363.093c2.601,12.472,4.853,23.247,6.441,32.043l0.546,3.124
			c1.057,4.329,3.317,10.211,8.098,15.363l4.114-2.798c-1.226-1.141-2.359-2.252-3.362-3.317c-1.249-1.24-2.238-2.664-2.739-3.582
			c-1.396-2.497-1.679-3.993-2.421-7.972l-0.076-0.421c-3.362-17.932-7.234-39.379-12.817-74.569
			c-0.143-1.168-0.64-4.445,2.265-5.582c0.523-0.205,1.039-0.313,1.562-0.313c1.482,0,2.806,0.953,4.575,2.368
			c4.463,3.572,9.253,7.552,14.316,11.769c6.751,5.622,13.703,11.392,20.095,16.353c6.957,5.407,18.82,14.481,29.724,22.203
			l2.328-4.042c-8.003-5.994-19.517-14.938-30.825-23.694l-1.003-0.783c-16.191-12.548-31.648-25.306-36.993-29.971l-0.354-0.308
			c-0.899-0.784-1.831-1.576-2.726-2.332c-0.815-0.689-1.621-1.37-2.427-2.064c-0.143-0.121-0.3-0.242-0.452-0.354
			c-2.494-1.916-4.149-2.736-5.537-2.736c-0.667,0-1.272,0.184-1.831,0.56c-2.189,1.463-1.661,5.345-0.801,9.893l0.089,0.461
			c0.171,0.966,0.385,1.969,0.6,3.035h-0.027l0.099,0.47c3.447,17.991,6.674,33.471,9.525,47.123L156.928,363.093z"/>
		<linearGradient id="SVGID_44_" gradientUnits="userSpaceOnUse" x1="157.5242" y1="228.4321" x2="125.8699" y2="245.263">
			<stop  offset="0" style="stop-color:#C3C4C5"/>
			<stop  offset="0.0982" style="stop-color:#000000"/>
			<stop  offset="0.2876" style="stop-color:#040404"/>
			<stop  offset="0.4851" style="stop-color:#111111"/>
			<stop  offset="0.6856" style="stop-color:#252525"/>
			<stop  offset="0.8221" style="stop-color:#383838"/>
			<stop  offset="1" style="stop-color:#A6A6A6"/>
		</linearGradient>
		<path fill="url(#SVGID_44_)" d="M148.392,279.236c-0.855-5.475-6.164-40.794-8.904-65.496c-0.202-1.764-0.385-3.308-0.551-4.655
			c-0.502-4.145-0.756-6.231-0.39-7.574c0.323-1.222,1.034-2.243,1.916-2.784c0.6-0.362,1.222-0.573,1.88-0.645l-2.946-10.461
			c-0.054,0-0.094-0.014-0.148-0.014c-1.177,0-2.31,0.228-3.376,0.677c-8.255,3.474-6.893,13.022-2.377,44.684
			c2.051,14.374,4.043,26.752,5.56,35.932l0.148,0.793c0.913,5.081,1.71,8.984,2.453,12.095l7.713,2.695
			C149.014,282.978,148.709,281.264,148.392,279.236z"/>
		<linearGradient id="SVGID_45_" gradientUnits="userSpaceOnUse" x1="249.9803" y1="106.5359" x2="484.0541" y2="106.5359">
			<stop  offset="0" style="stop-color:#F7F7F7"/>
			<stop  offset="0.0027" style="stop-color:#E3E3E3"/>
			<stop  offset="0.0092" style="stop-color:#B5B5B5"/>
			<stop  offset="0.016" style="stop-color:#8E8E8E"/>
			<stop  offset="0.023" style="stop-color:#6E6E6E"/>
			<stop  offset="0.0302" style="stop-color:#555555"/>
			<stop  offset="0.0378" style="stop-color:#434343"/>
			<stop  offset="0.0458" style="stop-color:#393939"/>
			<stop  offset="0.0552" style="stop-color:#363636"/>
			<stop  offset="1" style="stop-color:#000000"/>
		</linearGradient>
		<path fill="url(#SVGID_45_)" d="M484.046,86.506c0.008-0.644,0.008-1.061,0.008-1.231c0-5.143-0.6-10.165-1.173-12.059
			c-3.429-11.16-11.693-16.823-24.539-16.823h-67.765c-16.877,0-25.893,6.473-34.362,13.685
			c-10.842,9.204-92.672,76.668-96.844,79.399l-0.089,0.053c-2.265,1.486-3.904,2.548-7.915,2.548c-0.475,0-0.941-0.023-1.388-0.068
			v4.624c0.368,0.031,0.752,0.045,1.129,0.045c7.583,0,15.407-6.101,15.471-6.164c9.651-7.224,82.116-64.335,95.885-75.276
			c7.593-6.016,14.934-11.003,28.113-11.003h71.623c7.332,0,12.292,5.13,13.787,9.888c0.698,1.845,0.85,5.304,0.85,7.865
			c0,0.139-0.027,2.861-0.259,7.722L484.046,86.506z"/>
		<linearGradient id="SVGID_46_" gradientUnits="userSpaceOnUse" x1="343.8122" y1="386.6926" x2="504.7889" y2="83.9395">
			<stop  offset="0" style="stop-color:#595959"/>
			<stop  offset="0.0021" style="stop-color:#5A5A5A"/>
			<stop  offset="0.0829" style="stop-color:#818181"/>
			<stop  offset="0.1659" style="stop-color:#A1A1A1"/>
			<stop  offset="0.2523" style="stop-color:#B9B9B9"/>
			<stop  offset="0.3425" style="stop-color:#CBCBCB"/>
			<stop  offset="0.4389" style="stop-color:#D5D5D5"/>
			<stop  offset="0.5521" style="stop-color:#D9D9D9"/>
			<stop  offset="0.5986" style="stop-color:#CBCBCB"/>
			<stop  offset="0.6857" style="stop-color:#A7A7A7"/>
			<stop  offset="0.8041" style="stop-color:#6E6E6E"/>
			<stop  offset="0.9478" style="stop-color:#1F1F1F"/>
			<stop  offset="1" style="stop-color:#000000"/>
		</linearGradient>
		<path fill="url(#SVGID_46_)" d="M409.691,324.99c17.19-26.845,32.15-57.268,44.424-90.434
			c29.921-80.787,29.966-146.528,29.948-149.281c0-5.143-0.6-10.165-1.182-12.059c-0.107-0.376-0.25-0.756-0.367-1.119l-6.759,1.348
			c0.098,0.228,0.179,0.461,0.241,0.68c0.689,1.845,0.842,5.304,0.842,7.865c0,0.717-0.528,72.47-30.493,152.984
			c-22.051,59.254-53.306,109.888-92.851,150.547l1.281,7.001C375.259,372.637,393.719,349.954,409.691,324.99z"/>
		<linearGradient id="SVGID_47_" gradientUnits="userSpaceOnUse" x1="493.9297" y1="259.6444" x2="250.1957" y2="259.6444">
			<stop  offset="0" style="stop-color:#4F4F4F"/>
			<stop  offset="0.052" style="stop-color:#454545"/>
			<stop  offset="0.297" style="stop-color:#1C1C1C"/>
			<stop  offset="0.4233" style="stop-color:#0D0D0D"/>
			<stop  offset="0.6748" style="stop-color:#050505"/>
			<stop  offset="1" style="stop-color:#454545"/>
		</linearGradient>
		<path fill="url(#SVGID_47_)" d="M477.528,50.171l-2.82,5.073c5.972,2.654,10.072,7.547,12.266,14.633
			c0.582,1.908,1.182,6.953,1.182,12.087c0,0.689-0.349,70.213-30.915,152.781C418.367,339.686,350.888,416.18,256.659,462.117
			c-0.752,0.314-3.339,1.222-5.488,1.222c-0.313,0-0.644-0.022-0.975-0.053v5.792c0.322,0.027,0.653,0.04,0.975,0.04
			c3.904,0,7.887-1.746,7.887-1.746C488.79,355.484,493.93,92.747,493.93,81.963c0-4.969-0.546-10.873-1.441-13.778
			C489.677,59.012,484.27,53.304,477.528,50.171z"/>
		<linearGradient id="SVGID_48_" gradientUnits="userSpaceOnUse" x1="523.0001" y1="363.1389" x2="361.2203" y2="257.6932">
			<stop  offset="0" style="stop-color:#1A1A1A"/>
			<stop  offset="0.0398" style="stop-color:#1A1A1A"/>
			<stop  offset="0.5521" style="stop-color:#1A1A1A"/>
			<stop  offset="0.8957" style="stop-color:#212121"/>
			<stop  offset="1" style="stop-color:#BFBFBF"/>
		</linearGradient>
		<path fill="url(#SVGID_48_)" d="M468.664,49.777V57.4c7.306,2.386,12.23,7.619,14.71,15.672c0.591,1.929,1.209,7.001,1.209,12.158
			c0.008,2.766-0.045,68.637-29.984,149.495c-19.482,52.594-45.758,98.15-78.122,135.408c-8.219,9.455-17.029,18.6-26.205,27.19
			l-0.385,0.368c-0.501,0.528-2.319,2.399-4.575,4.163c-5.113,4.606-10.529,9.204-16.071,13.657l-1.531,1.209
			c-21.594,17.149-45.454,32.131-70.898,44.541c-0.027,0.013-3.035,1.258-5.613,1.258c-0.045,0-0.107-0.005-0.17-0.009v4.441
			c0.062,0,0.125,0,0.17,0c3.259,0,6.626-1.397,6.992-1.554c95.125-46.34,163.256-123.528,202.461-229.4
			c30.798-83.168,31.148-153.341,31.148-154.035c0-5.067-0.556-10.596-1.343-13.148C486.49,55.936,477.358,51.169,468.664,49.777z"
			/>
		<linearGradient id="SVGID_49_" gradientUnits="userSpaceOnUse" x1="246.4504" y1="223.2513" x2="380.1376" y2="227.9197">
			<stop  offset="0" style="stop-color:#8F8F8F"/>
			<stop  offset="0.0412" style="stop-color:#A0A0A0"/>
			<stop  offset="0.1361" style="stop-color:#C2C2C2"/>
			<stop  offset="0.2331" style="stop-color:#DDDDDD"/>
			<stop  offset="0.3316" style="stop-color:#F0F0F0"/>
			<stop  offset="0.4326" style="stop-color:#FBFBFB"/>
			<stop  offset="0.5399" style="stop-color:#FFFFFF"/>
			<stop  offset="0.6472" style="stop-color:#FDFDFD"/>
			<stop  offset="0.7108" style="stop-color:#F4F4F4"/>
			<stop  offset="0.763" style="stop-color:#E6E6E6"/>
			<stop  offset="0.809" style="stop-color:#D2D2D2"/>
			<stop  offset="0.8509" style="stop-color:#B8B8B8"/>
			<stop  offset="0.8899" style="stop-color:#989898"/>
			<stop  offset="0.9266" style="stop-color:#717171"/>
			<stop  offset="0.9616" style="stop-color:#454545"/>
			<stop  offset="0.9939" style="stop-color:#141414"/>
			<stop  offset="1" style="stop-color:#0A0A0A"/>
		</linearGradient>
		<path fill="url(#SVGID_49_)" d="M253.561,267.368c2.561-0.528,4.799-1.683,6.33-2.739l0.205-0.143l0.609-0.501
			c7.216-5.989,26.008-21.711,44.452-38.296c8.702-7.838,16.079-14.669,22.579-20.7c9.821-9.114,17.575-16.312,24.342-21.684
			c4.244-3.384,9.293-5.323,13.806-5.323c1.8,0,3.5,0.301,5.085,0.896c5.658,2.135,11.576,8.962,10,21.191l-7.924,3.366
			c0.403-9.36-1.226-13.497-6.213-15.596c-1.137-0.474-2.346-0.711-3.572-0.711c-6.984,0-14.79,7.386-23.833,15.932l-0.107,0.09
			c-0.823,0.774-1.647,1.558-2.48,2.341c-8.952,8.402-17.655,16.21-30.028,26.962c-19.929,17.306-42.159,34.5-44.71,36.345
			c-3.725,2.695-7.332,4.061-10.735,4.061h-0.215c-2.067,0-4.199-0.501-6.383-1.495l1.593-4.786c0.788,0.327,1.629,0.6,2.506,0.788
			C248.87,267.365,250.769,267.946,253.561,267.368z"/>
		<linearGradient id="SVGID_50_" gradientUnits="userSpaceOnUse" x1="488.042" y1="98.4298" x2="249.6598" y2="98.4298">
			<stop  offset="0" style="stop-color:#5C5C5C"/>
			<stop  offset="0.1264" style="stop-color:#7C7C7C"/>
			<stop  offset="0.306" style="stop-color:#A5A5A5"/>
			<stop  offset="0.3988" style="stop-color:#B5B5B5"/>
			<stop  offset="0.5706" style="stop-color:#E0E0E0"/>
			<stop  offset="0.7301" style="stop-color:#808080"/>
			<stop  offset="1" style="stop-color:#383838"/>
		</linearGradient>
		<path fill="url(#SVGID_50_)" d="M462.201,47.109c-19.115,0-71.615,0-71.615,0c-18.944,0-29.32,7.507-38.274,15.108
			c-10.466,8.908-76.583,64.716-93.065,78.642c-1.415,1.008-4.621,3.076-7.915,3.102v0.009h-0.358v-0.009
			c-0.259,0-0.519-0.027-0.778-0.054v5.843l6.912-0.005v-1.173c2.354-0.904,4.297-2.148,5.541-3.044l0.314-0.259
			c19.249-16.232,82.797-69.895,93.102-78.647c8.505-7.239,17.565-13.734,34.522-13.734h71.615c8.639,0,15.21,2.534,19.669,7.561
			l4.1-4.1C479.972,49.754,471.431,47.109,462.201,47.109z"/>
		<linearGradient id="SVGID_51_" gradientUnits="userSpaceOnUse" x1="135.1488" y1="229.7843" x2="258.0095" y2="221.1931">
			<stop  offset="0" style="stop-color:#E6E6E6"/>
			<stop  offset="0.0426" style="stop-color:#A6A6A6"/>
			<stop  offset="0.1193" style="stop-color:#393939"/>
			<stop  offset="0.1534" style="stop-color:#0D0D0D"/>
			<stop  offset="0.5644" style="stop-color:#151515"/>
			<stop  offset="0.7853" style="stop-color:#1C1C1C"/>
			<stop  offset="0.9141" style="stop-color:#2C2C2C"/>
			<stop  offset="1" style="stop-color:#FFFFFF"/>
		</linearGradient>
		<path fill="url(#SVGID_51_)" d="M256.839,266.317l0.814,6.137c-7.287,2.427-13.733-1.061-17.314-3.657l-0.654-0.47
			c-18.828-13.555-34.478-26.29-44.048-35.865c-8.121-8.12-14.723-13.716-20.539-18.649c-3.384-2.878-6.571-5.581-9.503-8.322
			c-0.864-0.814-1.719-1.62-2.565-2.417c-9.047-8.555-16.876-15.946-23.855-15.946c-1.231,0-2.435,0.237-3.564,0.711
			c-1.522,0.641-2.735,1.469-3.666,2.574l-5.815-7.927c1.638-1.719,3.506-2.91,5.345-3.608c1.559-0.595,3.277-0.896,5.081-0.896
			c4.522,0,9.553,1.939,13.801,5.323c6.759,5.368,14.508,12.565,24.348,21.684c6.491,6.031,13.85,12.862,22.57,20.7
			c18.479,16.617,37.289,32.347,44.522,38.35l0.099,0.072c1.325,0.963,4.082,2.605,7.046,3.227
			C251.825,267.834,254.555,267.292,256.839,266.317z"/>
		<linearGradient id="SVGID_52_" gradientUnits="userSpaceOnUse" x1="330.6255" y1="282.6826" x2="377.5644" y2="298.8449">
			<stop  offset="0" style="stop-color:#BDBDBD"/>
			<stop  offset="0.0283" style="stop-color:#A6A6A6"/>
			<stop  offset="0.1701" style="stop-color:#383838"/>
			<stop  offset="0.2331" style="stop-color:#0D0D0D"/>
			<stop  offset="0.5644" style="stop-color:#151515"/>
			<stop  offset="0.8405" style="stop-color:#2C2C2C"/>
			<stop  offset="1" style="stop-color:#080808"/>
		</linearGradient>
		<path fill="url(#SVGID_52_)" d="M351.157,388.054l-0.465,0.402c-1.227,0.686-2.686,0.645-3.85-0.031
			c-0.474-0.291-1.163-0.801-1.513-1.876c-0.323-1.038,0.009-2.287,0.224-2.932c0.304-1.061,7.816-27.194,20.207-90.228
			c6.527-33.202,11.362-66.139,14.253-85.827c0.359-2.484,0.689-4.772,1.003-6.862c1.862-12.624-4.181-19.647-9.929-21.823
			c-0.582-0.224-1.191-0.399-1.8-0.537l-3.581,9.087c0.412,0.112,0.832,0.242,1.235,0.412c8.604,3.613,7.225,13.255,2.668,45.194
			c-7.986,56.144-16.912,98.886-23.438,130.096c-2.525,12.148-4.727,22.642-6.312,31.33l-0.743,4.182
			c-0.359,2.471-0.43,4.132,0.438,4.75c0.376,0.286,0.832,0.429,1.307,0.429c0.949,0,2.042-0.55,3.617-1.866l5.613-4.839
			c0.609-0.573,1.218-1.155,1.835-1.742l2.292-10.443C353.189,385.973,352.187,387.02,351.157,388.054z"/>
		<linearGradient id="SVGID_53_" gradientUnits="userSpaceOnUse" x1="347.198" y1="387.0622" x2="361.3158" y2="388.1982">
			<stop  offset="0" style="stop-color:#080808"/>
			<stop  offset="0.5884" style="stop-color:#4C4C4C"/>
			<stop  offset="1" style="stop-color:#787878"/>
		</linearGradient>
		<path fill="url(#SVGID_53_)" d="M366.046,371.961c-4.871,5.533-9.893,10.896-15.032,16.093l-0.466,0.402
			c-0.994,0.546-2.112,0.636-3.142,0.287l-7.476,14.933c0.26,0.094,0.52,0.143,0.798,0.143c0.94,0,2.032-0.55,3.598-1.866
			l5.623-4.839c8.469-7.915,16.607-16.317,24.396-25.154H366.046z"/>
		<linearGradient id="SVGID_54_" gradientUnits="userSpaceOnUse" x1="249.1836" y1="100.4348" x2="491.459" y2="100.4348">
			<stop  offset="0" style="stop-color:#919191"/>
			<stop  offset="0.1595" style="stop-color:#FFFFFF"/>
			<stop  offset="0.1752" style="stop-color:#FDFDFD"/>
			<stop  offset="0.3762" style="stop-color:#EEEEEE"/>
			<stop  offset="0.5337" style="stop-color:#E8E8E8"/>
			<stop  offset="0.7485" style="stop-color:#C9C9C9"/>
			<stop  offset="0.9877" style="stop-color:#878787"/>
		</linearGradient>
		<path fill="url(#SVGID_54_)" d="M490.456,68.815c-4.96-16.146-18.085-19.544-28.219-19.544h-71.623
			c-18.157,0-28.175,7.216-36.86,14.598c-10.35,8.796-73.852,62.42-93.074,78.647l-0.116,0.081c-1.361,0.994-4.02,2.682-7.037,3.299
			l-0.25,0.054c0,0-0.958,0.171-1.952,0.171s-2.14-0.171-2.14-0.171l0.018,5.488c0.707,0.108,1.432,0.161,2.202,0.161
			c3.885,0,5.461-1.034,7.654-2.466l0.09-0.059c3.796-2.48,84.937-69.3,96.79-79.363c8.55-7.275,17.638-13.797,34.675-13.797h67.765
			c13.089,0,21.496,5.775,24.996,17.158c0.34,1.123,0.699,3.308,0.922,5.958l7.163-4.177
			C491.217,72.347,490.868,70.163,490.456,68.815z"/>
		<linearGradient id="SVGID_55_" gradientUnits="userSpaceOnUse" x1="246.1848" y1="340.3283" x2="356.6445" y2="340.3283">
			<stop  offset="0" style="stop-color:#BDC1C2"/>
			<stop  offset="0.0154" style="stop-color:#97999B"/>
			<stop  offset="0.0363" style="stop-color:#686A6C"/>
			<stop  offset="0.0547" style="stop-color:#474749"/>
			<stop  offset="0.0698" style="stop-color:#323235"/>
			<stop  offset="0.0798" style="stop-color:#2B2A2D"/>
			<stop  offset="0.6442" style="stop-color:#1A1A1A"/>
			<stop  offset="1" style="stop-color:#000000"/>
		</linearGradient>
		<path fill="url(#SVGID_55_)" d="M355.151,301.923c-0.537-0.354-1.137-0.533-1.773-0.533c-1.405,0-3.098,0.841-5.685,2.825
			c-0.143,0.112-0.295,0.233-0.466,0.367c-0.778,0.677-1.593,1.361-2.399,2.046c-0.895,0.756-1.826,1.539-2.73,2.332l0,0
			l-0.368,0.313c-5.354,4.665-20.797,17.427-36.993,29.971l-1.003,0.783c-17.494,13.564-35.57,27.589-40.19,30.432
			c-0.062,0.036-5.927,3.997-12.346,3.997c-1.772,0-3.474-0.286-5.013-0.707v4.82c1.539,0.413,3.133,0.672,4.727,0.694l0.34,0.005
			l0.269-0.005c7.386-0.062,14.933-5.426,15.255-5.649l0.152-0.126c12.633-8.411,29.259-21.106,38.05-27.928
			c6.393-4.961,13.349-10.748,20.082-16.353c5.085-4.226,9.865-8.21,14.325-11.769c1.763-1.415,3.134-2.332,4.61-2.332
			c0.528,0,1.03,0.107,1.558,0.314c2.91,1.137,2.373,4.333,2.23,5.492c-0.985,6.227-1.925,12.019-2.803,17.444l7.708-9.996
			c0.779-4.02,1.603-8.166,2.427-12.463l0.036-0.402c0.224-1.079,0.447-2.109,0.635-3.09l0.081-0.479
			C356.762,307.129,357.281,303.355,355.151,301.923z"/>
		<linearGradient id="SVGID_56_" gradientUnits="userSpaceOnUse" x1="355.2167" y1="357.5859" x2="329.938" y2="338.3258">
			<stop  offset="0" style="stop-color:#FFFFFF"/>
			<stop  offset="0.773" style="stop-color:#696A6C"/>
			<stop  offset="1" style="stop-color:#000000"/>
		</linearGradient>
		<path fill="url(#SVGID_56_)" d="M345.571,363.026c2.856-13.631,6.061-29.088,9.534-47.128l0.045-0.402
			c0.214-1.079,0.438-2.109,0.618-3.09l0.098-0.479c0.887-4.798,1.397-8.573-0.725-10.005c-0.385-0.255-0.815-0.425-1.262-0.492
			l-8.201,14.051c2.758,1.182,2.23,4.293,2.086,5.43c-5.586,35.234-9.463,56.69-12.803,74.622l-0.08,0.349
			c-0.116,0.587-0.197,1.115-0.304,1.589l4.772-3.59C340.924,385.31,343.082,374.961,345.571,363.026z"/>
		<linearGradient id="SVGID_57_" gradientUnits="userSpaceOnUse" x1="316.2521" y1="372.4161" x2="288.6458" y2="440.468">
			<stop  offset="0" style="stop-color:#FFFFFF"/>
			<stop  offset="0.07" style="stop-color:#FAFAFA"/>
			<stop  offset="0.1514" style="stop-color:#ECECEC"/>
			<stop  offset="0.2385" style="stop-color:#D5D5D6"/>
			<stop  offset="0.3297" style="stop-color:#B4B5B6"/>
			<stop  offset="0.4231" style="stop-color:#8A8B8D"/>
			<stop  offset="0.454" style="stop-color:#7B7C7E"/>
			<stop  offset="1" style="stop-color:#BFBFBF"/>
		</linearGradient>
		<path fill="url(#SVGID_57_)" d="M336.877,385.144c-0.671,3.626-1.316,7.073-1.934,10.39l-0.072,0.349
			c-0.753,4.087-0.985,5.318-2.444,7.767c-0.466,0.806-1.343,1.844-2.66,3.182c-10.537,10.56-38.363,29.97-60.737,42.415
			l-0.081,0.04l-12.766,6.441c-0.278,0.13-2.686,1.25-5.301,1.25c-0.733,0-1.459-0.09-2.121-0.22l0.126,5.005
			c0.761,0.157,1.548,0.273,2.264,0.273c2.051,0,4.584-0.873,5.426-1.217c25.66-12.511,49.51-27.44,70.916-44.393l0.68-0.621
			c5.264-4.512,8.702-10.314,10.216-17.248l0.716-3.42c0.6-3.34,1.298-6.957,2.077-10.851L336.877,385.144z"/>
		<linearGradient id="SVGID_58_" gradientUnits="userSpaceOnUse" x1="248.673" y1="232.8103" x2="371.6864" y2="232.8103">
			<stop  offset="0" style="stop-color:#B7B8BA"/>
			<stop  offset="0.0126" style="stop-color:#99999B"/>
			<stop  offset="0.0344" style="stop-color:#6A6A6C"/>
			<stop  offset="0.0536" style="stop-color:#47474A"/>
			<stop  offset="0.0694" style="stop-color:#333235"/>
			<stop  offset="0.0798" style="stop-color:#2B2A2D"/>
			<stop  offset="0.6442" style="stop-color:#1A1A1A"/>
			<stop  offset="1" style="stop-color:#000000"/>
		</linearGradient>
		<path fill="url(#SVGID_58_)" d="M371.686,193.664c-0.904-2.672-2.525-4.315-5.076-5.381c-1.056-0.448-2.185-0.677-3.357-0.677
			c-6.814,0-14.558,7.329-23.537,15.812c-0.842,0.797-1.701,1.615-2.561,2.421c-8.962,8.402-17.664,16.219-30.046,26.971
			c-18.989,16.487-41.219,33.825-44.756,36.376c-3.787,2.753-7.502,4.154-11.003,4.154h-0.215c-0.815,0-1.638-0.076-2.462-0.224
			v4.718c0.797,0.113,1.612,0.18,2.436,0.18h0.269c7.395,0,15.067-5.421,15.381-5.658l0.161-0.121
			c12.345-8.228,20.135-14.767,27.682-21.106c3.59-3.031,7.323-6.16,11.505-9.45c8.568-6.714,18.237-15.207,27.601-23.412
			c7.279-6.379,14.146-12.396,19.5-16.707l0.385-0.291c2.229-1.795,3.983-3.219,6.097-3.219c0.824,0,1.621,0.233,2.337,0.676
			c0.886,0.542,1.593,1.562,1.925,2.784c0.269,1.021,0.196,2.462-0.081,4.902L371.686,193.664z"/>
		<linearGradient id="SVGID_59_" gradientUnits="userSpaceOnUse" x1="381.8557" y1="245.758" x2="344.0043" y2="216.9229">
			<stop  offset="0" style="stop-color:#F5F5F6"/>
			<stop  offset="0.773" style="stop-color:#696A6C"/>
			<stop  offset="1" style="stop-color:#000000"/>
		</linearGradient>
		<path fill="url(#SVGID_59_)" d="M366.61,188.283c-0.197-0.085-0.412-0.157-0.618-0.224c-1.647,2.873-3.662,6.575-5.524,10.076
			c0.546,0.089,1.065,0.286,1.558,0.59c0.886,0.542,1.593,1.562,1.925,2.784c0.376,1.343,0.115,3.425-0.385,7.574
			c-0.18,1.343-0.349,2.888-0.546,4.655c-2.149,19.249-5.846,45.051-7.78,58.038l7.949-1.517c0.037-0.188,0.072-0.376,0.099-0.568
			l0.053-0.301c1.692-10.241,3.689-22.578,5.658-36.425C373.513,201.305,374.882,191.757,366.61,188.283z"/>
		<linearGradient id="SVGID_60_" gradientUnits="userSpaceOnUse" x1="338.6038" y1="282.9249" x2="261.8856" y2="375.0513">
			<stop  offset="0" style="stop-color:#EAEAEB"/>
			<stop  offset="0.0093" style="stop-color:#D8D8D9"/>
			<stop  offset="0.0286" style="stop-color:#B8B8BA"/>
			<stop  offset="0.0471" style="stop-color:#A1A1A3"/>
			<stop  offset="0.0646" style="stop-color:#939496"/>
			<stop  offset="0.0798" style="stop-color:#8E8F91"/>
			<stop  offset="0.2822" style="stop-color:#D3D4D5"/>
			<stop  offset="0.5215" style="stop-color:#FFFFFF"/>
			<stop  offset="1" style="stop-color:#DEDEDE"/>
		</linearGradient>
		<path fill="url(#SVGID_60_)" d="M355.329,270.994c-0.59,4.043-1.039,6.966-1.244,8.242c-1.298,8.29-2.391,11.272-7.548,16.455
			l-0.125,0.121c-3.877,3.232-8.058,6.781-12.874,10.882l-0.099,0.103c-8.246,7.011-17.583,14.952-29.025,24.379
			c-19.097,15.713-37.038,29.325-43.869,34.441l-0.493,0.349c-1.53,1.074-3.903,2.431-6.535,2.972l-0.86,0.189l-1.298,0.049
			l-1.361-0.067l-1.173-0.179c-2.497-0.524-4.763-1.79-6.24-2.789l-0.081-0.059c-0.045-0.036-0.099-0.072-0.135-0.107l-0.393,5.672
			c2.229,1.087,5.559,2.323,9.194,2.323c6.267,0,12.042-3.894,12.078-3.922c4.61-2.833,22.668-16.845,40.145-30.395l1.02-0.783
			c16.384-12.709,31.819-25.453,37.101-30.073l0.224-0.193c0.842-0.766,3.035-2.731,5.166-4.414c2.345-2.027,4.763-4.247,6.67-6.786
			l0.161-0.215c4.468-5.945,5.82-7.736,9.544-27.499l0.027-0.193l-0.555-0.269L355.329,270.994z"/>
		<linearGradient id="SVGID_61_" gradientUnits="userSpaceOnUse" x1="174.449" y1="298.6458" x2="157.5046" y2="310.0111">
			<stop  offset="0" style="stop-color:#999999"/>
			<stop  offset="0.0563" style="stop-color:#8F8F8F"/>
			<stop  offset="0.3129" style="stop-color:#636363"/>
			<stop  offset="0.6748" style="stop-color:#8C8C8C"/>
			<stop  offset="0.679" style="stop-color:#8F8F8F"/>
			<stop  offset="0.7094" style="stop-color:#9A9A9A"/>
			<stop  offset="0.7518" style="stop-color:#A1A1A1"/>
			<stop  offset="0.865" style="stop-color:#A3A3A3"/>
			<stop  offset="1" style="stop-color:#666666"/>
		</linearGradient>
		<path fill="url(#SVGID_61_)" d="M186.45,321.547c-6.446-5.399-12.171-10.273-17.444-14.759c-4.857-4.135-9.047-7.704-12.96-10.966
			l-0.126-0.116c-3.961-3.98-5.519-6.661-6.62-11.407l-5.085-2.761h-2.65c2.154,9.016,3.944,11.401,7.301,15.868
			c1.898,2.539,4.329,4.759,6.683,6.8c2.099,1.656,4.311,3.63,5.166,4.401l0.21,0.193c4.003,3.505,13.846,11.679,25.525,20.963
			V321.547z"/>
		<linearGradient id="SVGID_62_" gradientUnits="userSpaceOnUse" x1="157.591" y1="335.7098" x2="252.3887" y2="335.7098">
			<stop  offset="0" style="stop-color:#B3B4B6"/>
			<stop  offset="0.362" style="stop-color:#383838"/>
			<stop  offset="0.8466" style="stop-color:#000000"/>
			<stop  offset="0.8828" style="stop-color:#030303"/>
			<stop  offset="0.9046" style="stop-color:#0B0B0B"/>
			<stop  offset="0.9225" style="stop-color:#191919"/>
			<stop  offset="0.9384" style="stop-color:#2E2E2E"/>
			<stop  offset="0.9529" style="stop-color:#484848"/>
			<stop  offset="0.9664" style="stop-color:#686868"/>
			<stop  offset="0.9792" style="stop-color:#8F8F8F"/>
			<stop  offset="0.991" style="stop-color:#BABABA"/>
			<stop  offset="1" style="stop-color:#E0E0E0"/>
		</linearGradient>
		<path fill="url(#SVGID_62_)" d="M252.317,369.177h-0.931l-1.62-0.116l-0.913-0.129c-2.489-0.524-4.764-1.79-6.241-2.789
			l-0.081-0.059c-6.912-5.17-25.041-18.904-44.478-34.907c-11.451-9.436-20.789-17.378-29.026-24.388
			c-4.078-3.474-7.682-6.539-11.047-9.364c-0.135,2.345-0.282,5.358-0.39,8.433c1.365,1.15,2.565,2.225,3.146,2.749l0.22,0.193
			c5.269,4.615,20.708,17.359,37.097,30.073l1.03,0.797c17.476,13.545,35.533,27.548,40.082,30.355l0.036,0.018
			c0.045,0.04,5.56,3.93,11.997,3.93c0.466,0,0.734,0.049,1.191,0.008L252.317,369.177z"/>
		<linearGradient id="SVGID_63_" gradientUnits="userSpaceOnUse" x1="165.0444" y1="430.8442" x2="252.9525" y2="430.8442">
			<stop  offset="0" style="stop-color:#B3B4B6"/>
			<stop  offset="0.362" style="stop-color:#383838"/>
			<stop  offset="0.8466" style="stop-color:#000000"/>
			<stop  offset="0.8849" style="stop-color:#030303"/>
			<stop  offset="0.9079" style="stop-color:#0B0B0B"/>
			<stop  offset="0.9269" style="stop-color:#191919"/>
			<stop  offset="0.9437" style="stop-color:#2E2E2E"/>
			<stop  offset="0.959" style="stop-color:#484848"/>
			<stop  offset="0.9733" style="stop-color:#686868"/>
			<stop  offset="0.9866" style="stop-color:#8E8E8E"/>
			<stop  offset="0.9992" style="stop-color:#B9B9B9"/>
			<stop  offset="1" style="stop-color:#BDBDBD"/>
		</linearGradient>
		<path fill="url(#SVGID_63_)" d="M251.198,462.036c0.556,0,1.146-0.072,1.755-0.17v-5.085c-0.654,0.116-1.325,0.197-2.032,0.197
			c-2.597,0-5.157-1.177-5.256-1.227l-0.045-0.023l-12.829-6.463c-20.896-11.617-48.574-29.621-59.998-41.757
			c-1.25-1.24-2.239-2.664-2.736-3.582c-0.859-1.526-1.294-2.685-1.674-4.275l-3.339,2.284c1.625,4.588,4.556,9.977,9.843,14.396
			l0.152,0.107c21.331,16.961,45.136,31.881,70.768,44.384C246.937,461.275,249.336,462.036,251.198,462.036z"/>
		<linearGradient id="SVGID_64_" gradientUnits="userSpaceOnUse" x1="10.5525" y1="273.3943" x2="251.0639" y2="273.3943">
			<stop  offset="0" style="stop-color:#E6E6E6"/>
			<stop  offset="0.1288" style="stop-color:#FFFFFF"/>
			<stop  offset="0.137" style="stop-color:#FCFCFC"/>
			<stop  offset="0.3052" style="stop-color:#C7C7C7"/>
			<stop  offset="0.4622" style="stop-color:#9D9D9D"/>
			<stop  offset="0.6035" style="stop-color:#7F7F7F"/>
			<stop  offset="0.7241" style="stop-color:#6D6D6D"/>
			<stop  offset="0.8098" style="stop-color:#666666"/>
			<stop  offset="1" style="stop-color:#CCCCCC"/>
		</linearGradient>
		<path fill="url(#SVGID_64_)" d="M251.064,462.516c-1.943-0.018-4.379-0.793-5.506-1.245l-0.027-0.013
			c-25.418-12.4-49.233-27.374-70.774-44.514l-1.151-0.918c-5.69-4.557-11.204-9.253-16.388-13.94l-4.986-4.584
			c-9.149-8.581-17.933-17.722-26.115-27.182c-32.173-37.172-58.378-82.725-77.878-135.395
			C18.091,153.308,17.773,87.983,17.778,85.235c0-1.857,0.076-3.707,0.205-5.398h-7.399c-0.013,0.711-0.031,1.419-0.031,2.126
			c0,0.694,0.358,70.867,31.156,154.035C80.913,341.866,149.032,419.049,244.17,465.403c0.358,0.143,3.778,1.526,6.894,1.549
			V462.516z"/>
		<linearGradient id="SVGID_65_" gradientUnits="userSpaceOnUse" x1="238.1181" y1="462.2494" x2="264.117" y2="462.2494">
			<stop  offset="0" style="stop-color:#B0B0B0"/>
			<stop  offset="0.5092" style="stop-color:#676767"/>
			<stop  offset="0.5258" style="stop-color:#5C5C5C"/>
			<stop  offset="0.5675" style="stop-color:#474747"/>
			<stop  offset="0.6167" style="stop-color:#363636"/>
			<stop  offset="0.6775" style="stop-color:#2A2A2A"/>
			<stop  offset="0.7629" style="stop-color:#232323"/>
			<stop  offset="1" style="stop-color:#212121"/>
		</linearGradient>
		<path fill="url(#SVGID_65_)" d="M264.117,457.547c-2.462,1.258-4.915,2.497-7.395,3.716c-0.036,0.013-3.045,1.258-5.613,1.258
			c-1.944,0-4.432-0.793-5.569-1.25l-0.036-0.013c-2.48-1.217-4.933-2.453-7.386-3.711v4.857c1.996,1.011,4.011,2.014,6.025,2.999
			c0.367,0.148,3.84,1.549,6.966,1.549c3.25,0,6.625-1.397,6.992-1.554c2.014-0.98,4.037-1.983,6.016-2.994V457.547z"/>
		<path fill="#FFFFFF" d="M329.5,415.888c5.506-4.413,10.879-8.966,16.098-13.671c2.506-1.969,4.512-4.1,4.629-4.212l0.34-0.341
			c9.194-8.617,17.951-17.686,26.232-27.212c32.401-37.303,58.713-82.913,78.221-135.56c29.975-80.94,30.011-146.86,30.002-149.666
			c0-5.197-0.618-10.332-1.218-12.293c-3.573-11.607-12.131-17.502-25.462-17.502h-67.765c-17.19,0-26.367,6.58-34.989,13.908
			c-11.836,10.063-92.949,76.86-96.736,79.341l-0.099,0.049c-2.193,1.442-3.652,2.391-7.386,2.391c-2.803,0-5.282-0.775-7.834-2.418
			c-2.265-1.469-83.652-68.217-96.782-79.363c-8.617-7.329-17.785-13.908-34.988-13.908H44c-13.322,0-21.876,5.895-25.448,17.502
			c-0.605,1.961-1.227,7.096-1.227,12.301c0,2.749,0.314,68.168,30.493,149.658c19.517,52.723,45.75,98.325,77.958,135.538
			c8.241,9.535,16.974,18.613,26.156,27.222l4.991,4.593c5.318,4.808,10.798,9.458,16.411,13.957l1.154,0.922
			c21.568,17.168,45.249,32.078,70.872,44.559l0.045,0.027c1.182,0.479,3.733,1.289,5.756,1.289c2.66,0,5.739-1.262,5.801-1.303
			c25.66-12.503,49.385-27.418,71.005-44.59L329.5,415.888z M337.943,398.458c-1.047,4.736-3.518,11.361-10.072,16.988l-0.689,0.618
			c-21.469,17.006-45.042,31.755-70.808,44.33c-0.779,0.318-3.241,1.16-5.211,1.16c-1.781,0-4.172-0.766-5.193-1.173
			c-25.73-12.543-49.241-27.293-70.661-44.313l-0.152-0.121c-6.947-5.797-9.656-13.21-10.77-17.803l-0.551-3.089
			c-1.589-8.832-3.845-19.624-6.455-32.132c-2.811-13.497-6.075-29.16-9.53-47.115l0.036-0.008l-0.067-0.336
			c-0.228-1.11-0.448-2.166-0.641-3.16c-0.031-0.152-0.053-0.304-0.084-0.461c-0.865-4.61-1.281-8.147,0.6-9.401
			c1.634-1.087,3.595-0.314,6.809,2.154c0.148,0.116,0.309,0.233,0.457,0.358c0.783,0.671,1.584,1.356,2.399,2.045
			c0.899,0.761,1.822,1.54,2.726,2.328c0.22,0.193,0.349,0.314,0.358,0.323l0.009-0.014c5.39,4.714,20.735,17.373,37.011,29.997
			l1.003,0.77c17.466,13.55,35.543,27.561,40.19,30.431c0.447,0.322,5.918,4.096,12.542,4.096c6.518,0,12.382-3.93,12.606-4.079
			c4.638-2.847,22.741-16.885,40.244-30.466l0.994-0.752c16.258-12.624,31.603-25.283,37.002-29.997l0.009,0.014
			c0-0.009,0.126-0.13,0.34-0.323c0.904-0.788,1.835-1.571,2.739-2.332c0.806-0.689,1.621-1.374,2.408-2.05
			c0.143-0.121,0.295-0.238,0.439-0.349c3.222-2.467,5.264-3.353,6.893-2.27c1.871,1.25,1.388,4.902,0.511,9.517
			c-0.027,0.157-0.054,0.314-0.09,0.47c-0.188,0.994-0.402,2.05-0.626,3.16l-0.072,0.327l0.037,0.008
			c-3.438,17.96-6.724,33.623-9.526,47.115c-2.615,12.508-4.871,23.3-6.464,32.132L337.943,398.458z M362.868,269.312l-0.045,0.295
			c-3.742,19.889-5.085,21.505-9.615,27.513c-1.773,2.381-4.082,4.53-6.581,6.701c-2.131,1.674-4.351,3.653-5.193,4.432
			c-0.072,0.063-0.134,0.121-0.206,0.183c-5.282,4.616-20.716,17.356-37.083,30.047l-0.985,0.756
			c-17.485,13.564-35.544,27.579-40.145,30.399c-0.054,0.04-5.748,3.85-11.818,3.85c-6.312,0-11.657-3.8-11.728-3.836l-0.036-0.026
			c-4.548-2.803-22.624-16.809-40.091-30.365l-1.003-0.778c-16.375-12.691-31.809-25.431-37.074-30.047
			c-0.072-0.062-0.149-0.125-0.22-0.183c-0.859-0.783-3.057-2.758-5.183-4.432c-2.506-2.171-4.808-4.32-6.593-6.701
			c-4.512-6.008-6.155-8.402-9.612-27.513l-0.143-0.797c-1.907-11.54-3.711-22.969-5.564-35.906
			c-4.477-31.385-5.824-40.848,2.095-44.179c7.243-3.044,16.12,5.34,26.384,15.041c0.855,0.806,1.702,1.612,2.57,2.431
			c2.946,2.758,6.155,5.474,9.544,8.348c5.797,4.924,12.373,10.502,20.485,18.595c9.606,9.607,25.283,22.382,44.147,35.964
			l0.663,0.475c3.894,2.811,7.69,4.239,11.308,4.239h0.215c3.608,0,7.404-1.428,11.289-4.239
			c3.537-2.565,25.784-19.912,44.792-36.399c12.373-10.766,21.075-18.577,30.037-26.984c0.868-0.82,1.736-1.625,2.578-2.431
			c10.278-9.705,19.132-18.08,26.384-15.041c7.915,3.331,6.571,12.794,2.087,44.179
			C366.673,245.841,364.775,257.767,362.868,269.312z M340.199,394.545c1.585-8.657,3.787-19.182,6.321-31.322
			c6.508-31.215,15.435-73.969,23.43-130.126c4.61-32.222,5.98-41.944-2.955-45.7c-8.121-3.411-17.297,5.269-27.924,15.318
			c-0.86,0.806-1.71,1.612-2.579,2.426c-8.935,8.394-17.628,16.2-30.01,26.944c-19.902,17.292-42.132,34.482-44.693,36.322
			c-3.635,2.632-7.135,3.966-10.43,3.966h-0.215c-3.313,0-6.823-1.334-10.458-3.966l-0.662-0.474
			c-18.801-13.542-34.442-26.259-43.995-35.808c-8.12-8.143-14.723-13.738-20.555-18.68c-3.38-2.86-6.563-5.564-9.486-8.304
			c-0.864-0.814-1.719-1.62-2.565-2.426c-10.636-10.05-19.822-18.73-27.938-15.318c-8.948,3.756-7.561,13.478-2.963,45.7
			c8.013,56.153,16.93,98.902,23.443,130.121c2.539,12.144,4.731,22.665,6.307,31.326h-0.005c0.014,0.188,0.359,1.983,0.744,4.163
			c0.309,2.028,0.434,3.926-0.219,4.289c-1.191,0.663-2.252,0.126-4.352-1.405c0,0-4.337-3.81-5.55-4.857
			c-44.8-42.039-79.081-95.814-103.715-162.343C19.08,153.143,18.767,87.975,18.767,85.226c0-5.068,0.595-10.014,1.164-11.872
			C23.293,62.419,31.391,56.877,44,56.877h67.765c16.706,0,25.641,6.415,34.057,13.564c10.868,9.23,94.292,77.765,96.915,79.47
			c2.802,1.813,5.533,2.655,8.631,2.655c4.172,0,5.944-1.155,8.183-2.627l0.08-0.054c4.191-2.739,86.056-70.231,96.898-79.443
			c8.416-7.149,17.333-13.564,34.048-13.564h67.765c12.623,0,20.707,5.542,24.083,16.477c0.564,1.858,1.155,6.804,1.155,11.921
			c0.027,2.753-0.036,68.423-29.921,149.116c-24.629,66.502-59.018,120.282-104.032,162.379l-5.587,4.821
			c-1.899,1.558-3.241,2.198-4.351,1.405c-0.663-0.483-0.52-2.265-0.215-4.289L340.199,394.545z"/>
		<path fill="none" stroke="#FFFFFF" stroke-width="0.3098" d="M465.146,81.604"/>
		<linearGradient id="SVGID_66_" gradientUnits="userSpaceOnUse" x1="251.7106" y1="228.9296" x2="327.8829" y2="228.9296">
			<stop  offset="0" style="stop-color:#0064AC"/>
			<stop  offset="0.4533" style="stop-color:#0062AA"/>
			<stop  offset="0.6795" style="stop-color:#005AA5"/>
			<stop  offset="0.8548" style="stop-color:#004D9B"/>
			<stop  offset="1" style="stop-color:#003B8D"/>
		</linearGradient>
		<path opacity="0.4" fill="url(#SVGID_66_)" d="M251.386,259.481c1.916,0,4.208-0.632,6.303-1.728
			c4.289-2.274,8.604-5.39,8.765-5.524c12.498-10.471,60.477-53.852,60.477-53.852c-0.913,0.769-24.764,20.851-29.59,24.848
			c-9.23,7.651-19.92,16.245-31.828,25.538c-0.036,0.04-4.315,3.076-8.541,4.84c-1.934,0.81-3.93,1.325-5.587,1.325V259.481z"/>
		<linearGradient id="SVGID_67_" gradientUnits="userSpaceOnUse" x1="213.7231" y1="264.1966" x2="213.7231" y2="199.9415">
			<stop  offset="0" style="stop-color:#0064AC"/>
			<stop  offset="0.4533" style="stop-color:#0062AA"/>
			<stop  offset="0.6795" style="stop-color:#005AA5"/>
			<stop  offset="0.8548" style="stop-color:#004D9B"/>
			<stop  offset="1" style="stop-color:#003B8D"/>
		</linearGradient>
		<path opacity="0.4" fill="url(#SVGID_67_)" d="M251.386,259.481c-1.933,0-4.154-0.623-6.097-1.705
			c-3.984-2.216-7.843-5.247-8.21-5.596c-11.907-10.569-61.019-54.111-61.019-54.111c2.668,2.252,27.249,22.713,30.212,25.157
			c9.49,7.892,20.189,16.46,31.747,25.494l0.045,0.044c0.036,0.037,4.298,3.402,7.95,4.885c1.853,0.743,3.688,1.28,5.371,1.28
			V259.481z"/>
		<linearGradient id="SVGID_68_" gradientUnits="userSpaceOnUse" x1="251.7106" y1="332.2171" x2="327.8829" y2="332.2171">
			<stop  offset="0" style="stop-color:#0064AC"/>
			<stop  offset="0.4533" style="stop-color:#0062AA"/>
			<stop  offset="0.6795" style="stop-color:#005AA5"/>
			<stop  offset="0.8548" style="stop-color:#004D9B"/>
			<stop  offset="1" style="stop-color:#003B8D"/>
		</linearGradient>
		<path opacity="0.4" fill="url(#SVGID_68_)" d="M251.386,359.526c1.916,0,4.208-0.568,6.303-1.558
			c4.289-2.023,8.604-4.808,8.765-4.933c12.498-9.356,60.477-48.126,60.477-48.126c-0.913,0.685-24.764,18.64-29.59,22.216
			c-9.23,6.84-19.92,14.508-31.828,22.821c-0.036,0.027-4.315,2.744-8.541,4.32c-1.934,0.725-3.93,1.182-5.587,1.182V359.526z"/>
		<linearGradient id="SVGID_69_" gradientUnits="userSpaceOnUse" x1="213.7231" y1="363.7409" x2="213.7231" y2="306.3001">
			<stop  offset="0" style="stop-color:#0064AC"/>
			<stop  offset="0.4533" style="stop-color:#0062AA"/>
			<stop  offset="0.6795" style="stop-color:#005AA5"/>
			<stop  offset="0.8548" style="stop-color:#004D9B"/>
			<stop  offset="1" style="stop-color:#003B8D"/>
		</linearGradient>
		<path opacity="0.4" fill="url(#SVGID_69_)" d="M251.386,359.526c-1.933,0-4.154-0.564-6.097-1.536
			c-3.984-1.978-7.843-4.691-8.21-5c-11.907-9.446-61.019-48.364-61.019-48.364c2.668,2.014,27.249,20.306,30.212,22.499
			c9.49,7.037,20.189,14.705,31.747,22.776l0.045,0.04c0.036,0.031,4.298,3.039,7.95,4.365c1.853,0.662,3.688,1.141,5.371,1.141
			V359.526z"/>
		<linearGradient id="SVGID_70_" gradientUnits="userSpaceOnUse" x1="37.042" y1="123.4597" x2="466.5536" y2="123.4597">
			<stop  offset="0" style="stop-color:#003A80"/>
			<stop  offset="0.5215" style="stop-color:#005DA7"/>
			<stop  offset="1" style="stop-color:#003A80"/>
		</linearGradient>
		<path fill="url(#SVGID_70_)" d="M463.373,81.327c-2.014-2.14-5.023-3.277-8.64-3.277h-63.109c-0.278,0-0.511,0-0.725,0.027v-0.027
			c-9.66,0-14.665,3.289-21.21,8.299c-13.653,10.471-85.948,64.041-96.02,71.355c-1.826,1.361-11.441,8.644-22.23,8.644
			c-10.305,0-19.482-6.697-22.051-8.599l-0.385-0.295c-5.067-3.882-29.572-20.986-49.246-35.888l-1.625-1.227
			c-20.131-15.242-39.129-29.639-44.819-33.971c-6.58-5.023-11.625-8.317-21.223-8.317H48.437c-3.63,0-6.62,1.106-8.63,3.187
			c-1.898,1.956-2.851,4.638-2.758,7.772c0.112,3.684,0.9,23.116,5.623,50.937v-15.78c-2.533-18.612-4.123-32.673-4.181-34.724
			c-0.081-2.73,0.73-5.533,2.35-7.202c1.742-1.795,4.365-2.261,7.596-2.261l63.656-0.483c9.149,0,13.997,3.174,20.35,8.017
			l95.675,72.644c0,0,11.317,8.711,23.323,8.711c11.245,0,21.21-7.042,23.089-8.452c10.073-7.305,82.395-62.451,96.047-72.917
			c6.303-4.834,11.129-8.003,20.323-8.003c0.215,0,63.19,0.483,63.834,0.483c3.223,0,5.856,0.497,7.592,2.341
			c1.576,1.669,2.337,4.413,2.194,7.036c-0.492,8.371-2.068,21.031-4.181,35.154v14.379c2.767-16.652,4.655-33.426,5.623-49.935
			C466.122,85.978,465.209,83.265,463.373,81.327z"/>
	</g>
</g>
</svg>
