<?xml version="1.0" encoding="utf-8"?>
<!-- Generator: Adobe Illustrator 17.0.0, SVG Export Plug-In . SVG Version: 6.00 Build 0)  -->
<!DOCTYPE svg PUBLIC "-//W3C//DTD SVG 1.1//EN" "http://www.w3.org/Graphics/SVG/1.1/DTD/svg11.dtd">
<svg version="1.1"
	 id="svg2949" sodipodi:version="0.32" inkscape:output_extension="org.inkscape.output.svg.inkscape" sodipodi:docname="maserati_logo.svg" inkscape:version="0.46dev+devel" xmlns:dc="http://purl.org/dc/elements/1.1/" xmlns:inkscape="http://www.inkscape.org/namespaces/inkscape" xmlns:rdf="http://www.w3.org/1999/02/22-rdf-syntax-ns#" xmlns:sodipodi="http://sodipodi.sourceforge.net/DTD/sodipodi-0.dtd" xmlns:svg="http://www.w3.org/2000/svg" xmlns:cc="http://web.resource.org/cc/"
	 xmlns="http://www.w3.org/2000/svg" xmlns:xlink="http://www.w3.org/1999/xlink" x="0px" y="0px" width="500px" height="500px"
	 viewBox="-19.207 104.331 500 500" enable-background="new -19.207 104.331 500 500" xml:space="preserve">
<sodipodi:namedview  id="base" inkscape:document-units="px" inkscape:current-layer="layer1" inkscape:window-width="1400" inkscape:pageshadow="2" inkscape:pageopacity="0.0" inkscape:window-y="-4" inkscape:window-x="-4" inkscape:window-height="994" inkscape:cy="365.30818" inkscape:cx="288.22414" inkscape:zoom="0.98994949" pagecolor="#ffffff" bordercolor="#666666" borderopacity="1.0">
	</sodipodi:namedview>
<g id="layer1" transform="translate(-309.93544,165.42336)" inkscape:groupmode="layer" inkscape:label="Ebene 1">
	<g id="g2978" transform="matrix(7.1658303,0,0,7.1658303,-1911.0089,-3349.5134)">
		<path id="path320" fill="#FFFFFF" d="M365.728,494.074c0,18.762-9.857,33.84-21.882,33.84c-12.029,0-21.888-15.078-21.888-33.84
			c0-18.768,9.859-33.846,21.888-33.846C355.871,460.228,365.728,475.306,365.728,494.074"/>
		<path id="path322" fill="#E21A22" d="M340.751,497.078h6.464v1.59h-6.464V497.078z"/>
		<path id="path324" fill="#E21A22" d="M341.54,499.294h4.892v1.772h-4.892V499.294z"/>
		<path id="path326" fill="#E21A22" d="M334.378,489.673h19.217v0.795h-19.217V489.673z"/>
		<path id="path328" fill="#E21A22" d="M333.354,491.184h21.26v0.795h-21.26V491.184z"/>
		<path id="path330" fill="#E21A22" d="M333.327,488.186h21.263v0.795h-21.263V488.186z"/>
		<path id="path332" fill="#E21A22" d="M347.342,493.703c-1.068,0.971-1.062,2.719-1.062,2.719h-2.294h-2.288
			c0,0,0.006-1.748-1.062-2.719c-0.743-0.68-1.652-0.826-1.652-0.826c-0.595-0.115-0.596-0.188-0.596-0.225h11.195
			c0,0,0,0.103-0.595,0.225C348.987,492.878,348.083,493.024,347.342,493.703"/>
		<path id="path334" fill="#E21A22" d="M334.469,492.653c0.225,0,1.992,0,2.307,0c0,1.366-0.884,1.979-2.307,1.675
			C334.469,493.455,334.469,493.096,334.469,492.653"/>
		<path id="path336" fill="#E21A22" d="M342.644,470.614c0.923-1.821,1.099-4.552,1.329-4.601c0.231,0.049,0.407,2.78,1.329,4.595
			c0.868,1.718,2.731,3.168,2.622,3.338c-0.127,0.212-1.159-0.322-1.681-0.558c-0.832-0.395-1.505-0.692-1.505-0.692
			s-0.334,4.352,0.728,8.358c0.868,3.284,2.944,6.276,3.132,6.537h-2.646c-0.085-0.14-0.17-0.273-0.243-0.413
			c-0.722-1.269-1.238-2.367-1.736-4.261c-0.504,1.894-1.008,2.992-1.73,4.261c-0.079,0.14-0.158,0.273-0.243,0.413h-2.651
			c0.189-0.261,2.268-3.253,3.136-6.537c1.056-4,0.728-8.358,0.728-8.358s-0.68,0.303-1.511,0.692
			c-0.516,0.243-1.548,0.771-1.681,0.558C339.919,473.776,341.782,472.325,342.644,470.614"/>
		<path id="path338" fill="#E21A22" d="M334.377,487.591c-0.01-0.322-0.177-4.728-1.21-8.188c-1.132-3.794-3.408-6.052-3.255-6.276
			c0.14-0.212,2.022,0.17,3.434,1.141c1.507,1.038,2.985,2.75,2.876,2.877c-0.067,0.079-0.575-0.346-1.492-0.686
			c-0.975-0.364-1.402-0.297-1.402-0.297s1.618,2.677,2.419,5.578c0.672,2.434,1.022,5.578,1.04,5.851H334.377"/>
		<path id="path340" fill="#E21A22" d="M353.6,487.591c0.012-0.322,0.176-4.728,1.214-8.188c1.129-3.794,3.405-6.052,3.253-6.276
			c-0.14-0.212-2.021,0.17-3.436,1.141c-1.505,1.038-2.986,2.75-2.877,2.877c0.067,0.079,0.577-0.346,1.493-0.686
			c0.977-0.364,1.402-0.297,1.402-0.297s-1.621,2.677-2.422,5.578c-0.668,2.434-1.02,5.578-1.038,5.851H353.6"/>
		<path id="path342" fill="#E21A22" d="M353.509,492.653c-0.225,0-1.991,0-2.307,0c0,1.366,0.886,1.979,2.307,1.675
			C353.509,493.455,353.509,493.096,353.509,492.653"/>
		<path id="path344" fill="#09264A" d="M343.846,459.785c12.425,0,22.331,15.472,22.331,34.289c0,18.817-9.906,34.283-22.331,34.283
			c-12.432,0-22.333-15.466-22.333-34.283C321.513,475.257,331.415,459.785,343.846,459.785z M343.846,460.337
			c-11.936,0-21.784,14.98-21.784,33.736c0,18.75,9.848,33.736,21.784,33.736c11.933,0,21.779-14.987,21.779-33.736
			C365.625,475.318,355.78,460.337,343.846,460.337"/>
		<path id="path346" fill="#0C2E59" d="M324.168,501.072h39.35c0,0-0.777,10.489-6.78,18.161c-4.261,5.451-9.512,7.193-12.85,7.193
			c-3.709,0-8.558-1.621-12.858-7.223C325.095,511.476,324.168,501.072,324.168,501.072"/>
		<path id="path348" fill="#FFFFFF" d="M331.031,504.453l-1.442,3.684h-0.237l-1.396-3.678l-0.152,2.841
			c-0.008,0.049-0.018,0.188-0.018,0.297c0,0.249,0.33,0.261,0.508,0.261h0.047v0.279h-1.624v-0.273
			c0.132-0.006,0.498-0.006,0.609-0.14c0.08-0.103,0.097-0.285,0.13-0.686l0.134-2.677c0.019-0.225-0.002-0.31-0.061-0.352
			c-0.094-0.073-0.392-0.079-0.494-0.085v-0.273h1.381l1.252,3.259l1.279-3.259h1.362v0.273h-0.047c-0.29,0-0.413,0.006-0.473,0.073
			c-0.06,0.067-0.068,0.206-0.044,0.558l0.145,2.592c0.009,0.152,0.015,0.461,0.104,0.589c0.107,0.158,0.391,0.127,0.543,0.121
			v0.279h-1.987v-0.273c0.144-0.012,0.359-0.018,0.49-0.079c0.098-0.042,0.156-0.115,0.156-0.261c0-0.067-0.009-0.261-0.018-0.328
			L331.031,504.453"/>
		<path id="path350" fill="#FFFFFF" d="M340.089,503.634h0.231l0.097,1.105h-0.255c-0.14-0.413-0.405-0.923-0.932-0.923
			c-0.346,0-0.696,0.291-0.696,0.601c0,0.194,0.052,0.328,0.218,0.492c0.25,0.255,0.639,0.51,0.929,0.722
			c0.463,0.34,0.821,0.722,0.821,1.36c0,0.692-0.611,1.299-1.382,1.299c-0.28,0-0.534-0.097-0.799-0.176l-0.052-0.018h-0.05
			c-0.078,0-0.069,0.03-0.078,0.091h-0.228l-0.128-1.184h0.268c0.132,0.413,0.474,0.977,0.994,0.977
			c0.251,0,0.833-0.176,0.833-0.728c0-0.255-0.086-0.437-0.25-0.619c-0.168-0.176-0.416-0.352-0.74-0.571
			c-0.819-0.564-0.977-0.977-0.977-1.384c0-0.674,0.669-1.165,1.226-1.165c0.215,0,0.422,0.042,0.6,0.103l0.142,0.067l0.081,0.03
			l0.03,0.012C340.034,503.725,340.065,503.664,340.089,503.634"/>
		<path id="path352" fill="#FFFFFF" d="M334.944,504.253l-0.583,1.663h1.121L334.944,504.253z M334.758,503.84l-0.106-0.334h0.754
			l1.259,3.794c0.149,0.437,0.134,0.528,0.659,0.564v0.273h-1.999v-0.273c0.138-0.006,0.324-0.006,0.453-0.049
			c0.1-0.036,0.157-0.091,0.157-0.212c0-0.134-0.061-0.346-0.124-0.54l-0.264-0.826h-1.254c-0.132,0.376-0.339,0.88-0.361,1.287
			c-0.014,0.249,0.152,0.285,0.345,0.31l0.243,0.024l0.041,0.279h-1.661v-0.267c0.347-0.079,0.463-0.152,0.592-0.467
			c0.04-0.097,0.081-0.219,0.131-0.358L334.758,503.84"/>
		<path id="path354" fill="#FFFFFF" d="M343.664,503.98h-0.941v1.712h0.832c0.176,0,0.261,0,0.322-0.055
			c0.097-0.091,0.109-0.382,0.115-0.492h0.267v1.457h-0.267c-0.018-0.504,0.006-0.583-0.498-0.583h-0.771v1.402
			c0,0.231,0.006,0.31,0.043,0.346c0.049,0.055,0.255,0.042,0.316,0.042h0.692c0.564,0,0.637-0.297,0.759-0.838h0.261l-0.103,1.165
			h-3.363v-0.279c0.522,0.024,0.643-0.03,0.643-0.534v-2.859c0-0.528-0.158-0.546-0.643-0.534v-0.279h3.205l0.036,1.056h-0.249
			C344.229,504.162,344.21,503.98,343.664,503.98"/>
		<path id="path356" fill="#FFFFFF" d="M354.377,504.726h-0.237l0.085-1.214h0.2c0.03,0.061,0.049,0.097,0.115,0.121
			c0.024,0.012,0.055,0.018,0.103,0.018h0.164h2.519c0.152,0,0.231-0.006,0.273-0.024c0.049-0.018,0.061-0.067,0.079-0.115h0.2
			l0.103,1.214h-0.255c-0.03-0.152-0.097-0.522-0.231-0.662c-0.085-0.079-0.182-0.085-0.358-0.085h-0.71v3.29
			c0,0.304,0.024,0.425,0.109,0.492c0.121,0.091,0.516,0.097,0.637,0.103v0.273h-2.24v-0.273c0.115-0.006,0.528-0.012,0.643-0.097
			c0.079-0.061,0.103-0.17,0.103-0.455v-3.332h-0.631c-0.255,0-0.431-0.018-0.522,0.237
			C354.468,504.38,354.426,504.556,354.377,504.726"/>
		<path id="path358" fill="#FFFFFF" d="M358.663,503.652h2.1v0.273c-0.722,0.036-0.674,0.152-0.674,0.844v2.452
			c0.043,0.583,0.134,0.601,0.698,0.643v0.273h-2.094v-0.273c0.146-0.012,0.31-0.012,0.449-0.055
			c0.061-0.018,0.073-0.036,0.103-0.085c0.085-0.17,0.091-0.51,0.091-0.929v-2.228c0-0.571-0.121-0.601-0.674-0.643V503.652"/>
		<path id="path360" fill="#FFFFFF" d="M347.112,505.886h0.473c0.182-0.006,0.352-0.006,0.516-0.109
			c0.176-0.109,0.334-0.352,0.334-0.892c0-0.826-0.48-0.965-0.862-0.965c-0.146-0.006-0.346,0.006-0.461,0.006V505.886z
			 M351.749,504.253l-0.583,1.663h1.123L351.749,504.253z M352.21,503.506l1.263,3.794c0.146,0.437,0.134,0.528,0.656,0.564v0.273
			h-1.997v-0.273c0.182-0.006,0.613,0.024,0.613-0.261c0-0.134-0.067-0.346-0.127-0.54l-0.261-0.826H351.1
			c-0.146,0.407-0.322,0.85-0.358,1.293c-0.03,0.352,0.388,0.328,0.625,0.334v0.273h-1.609c-0.631,0.024-1.135-0.152-1.53-0.832
			c-0.097-0.17-0.461-0.898-0.577-1.099h-0.534l0.006,0.959c0,0.601,0.055,0.692,0.413,0.692h0.322v0.279h-2.179v-0.279
			c0.54,0.024,0.674-0.036,0.674-0.558v-2.962c0-0.285,0.012-0.401-0.273-0.425c-0.134-0.006-0.267-0.006-0.401-0.006v-0.273
			c0.564-0.012,1.141-0.006,1.7-0.006c0.346,0,0.674-0.018,1.014,0.085c0.401,0.127,0.771,0.431,0.771,1.105
			c0,0.813-0.461,1.074-0.783,1.214c0.152,0.152,0.237,0.279,0.54,0.995c0.31,0.71,0.437,0.813,0.801,0.868
			c0.419-0.018,0.504-0.267,0.71-0.85l1.135-3.205l-0.109-0.334H352.21"/>
	</g>
</g>
</svg>
