<?xml version="1.0" encoding="utf-8"?>
<!-- Generator: Adobe Illustrator 17.0.0, SVG Export Plug-In . SVG Version: 6.00 Build 0)  -->
<!DOCTYPE svg PUBLIC "-//W3C//DTD SVG 1.1//EN" "http://www.w3.org/Graphics/SVG/1.1/DTD/svg11.dtd">
<svg version="1.1" id="图层_1" xmlns="http://www.w3.org/2000/svg" xmlns:xlink="http://www.w3.org/1999/xlink" x="0px" y="0px"
	 width="500px" height="500px" viewBox="0 0 500 500" enable-background="new 0 0 500 500" xml:space="preserve">
<path fill-rule="evenodd" clip-rule="evenodd" fill="#FFFFFF" d="M260.356,471.801c-127.209,0-230.339-103.13-230.339-230.342
	c0-127.208,103.13-230.337,230.339-230.337c127.212,0,230.339,103.128,230.339,230.337
	C490.695,368.672,387.568,471.801,260.356,471.801L260.356,471.801z M260.417,276.257L73.411,353.661
	c39.4,66.207,110.804,106.606,187.808,106.206c76.804-0.2,148.005-41.003,187.009-107.404L260.417,276.257L260.417,276.257z
	 M228.027,221.592l29.801-197.41C181.025,25.183,110.222,66.585,71.82,133.187c-38.602,66.602-39.002,148.604-1.199,215.61
	L228.027,221.592L228.027,221.592z M291.816,224.209l159.21,123.206c36.999-67,36.198-148.407-2.401-214.609
	C410.222,66.603,340.02,25.399,263.415,24.201L291.816,224.209L291.816,224.209z"/>
</svg>
