<?xml version="1.0" encoding="utf-8"?>
<!-- Generator: Adobe Illustrator 17.0.0, SVG Export Plug-In . SVG Version: 6.00 Build 0)  -->
<!DOCTYPE svg PUBLIC "-//W3C//DTD SVG 1.1//EN" "http://www.w3.org/Graphics/SVG/1.1/DTD/svg11.dtd">
<svg version="1.1"
	 id="Layer_1" xmlns:inkscape="http://www.inkscape.org/namespaces/inkscape" xmlns:sodipodi="http://sodipodi.sourceforge.net/DTD/sodipodi-0.dtd" xmlns:svg="http://www.w3.org/2000/svg" xmlns:rdf="http://www.w3.org/1999/02/22-rdf-syntax-ns#" xmlns:cc="http://creativecommons.org/ns#" xmlns:dc="http://purl.org/dc/elements/1.1/" inkscape:export-xdpi="90" inkscape:export-filename="/Users/boneskull/Downloads/mocha-banner-192.png" sodipodi:docname="mocha-banner.svg" inkscape:export-ydpi="90" inkscape:version="0.91 r13725"
	 xmlns="http://www.w3.org/2000/svg" xmlns:xlink="http://www.w3.org/1999/xlink" x="0px" y="0px" width="500px" height="500px"
	 viewBox="-57.549 -154 500 500" enable-background="new -57.549 -154 500 500" xml:space="preserve">
<title  id="title4160">Mocha Logo</title>
<sodipodi:namedview  id="namedview28" inkscape:zoom="1" fit-margin-left="5" inkscape:cx="-211.59419" inkscape:cy="96.021558" showgrid="false" gridtolerance="10000" fit-margin-top="5" guidetolerance="10000" bordercolor="#666666" pagecolor="#ffffff" borderopacity="1" objecttolerance="10000" showguides="true" inkscape:snap-text-baseline="false" inkscape:snap-path-mask="true" inkscape:snap-path-clip="true" inkscape:guide-bbox="true" inkscape:current-layer="g13-0" inkscape:window-maximized="0" inkscape:window-y="23" inkscape:window-x="1360" fit-margin-bottom="5" fit-margin-right="5" inkscape:window-width="1920" inkscape:pageopacity="1" inkscape:window-height="1031" inkscape:pageshadow="2">
	<sodipodi:guide  id="guide4358" position="178.24489,-94.11572" orientation="1,0"></sodipodi:guide>
</sodipodi:namedview>
<g>
	<path id="XMLID_229_" inkscape:connector-curvature="0" fill="#8D6748" d="M391.719,226.85L205.391,334.506
		c-8.022,4.658-17.857,4.658-25.879,0L-6.817,226.85c-8.022-4.658-12.939-13.198-12.939-22.256V-10.719
		c0-9.316,4.917-17.598,12.939-22.256l186.329-107.657c8.022-4.658,17.857-4.658,25.879,0L391.719-32.975
		c8.022,4.658,12.94,13.198,12.94,22.256v215.313C404.4,213.652,399.483,222.192,391.719,226.85L391.719,226.85z"/>
	<path id="XMLID_262_" inkscape:connector-curvature="0" fill="#FFFFFF" d="M192.193-103.625L192.193-103.625
		c2.588,0,4.917,0.776,7.246,2.07L360.406-8.649c4.399,2.588,7.246,7.505,7.246,12.681v185.811c0,5.176-2.847,10.093-7.246,12.681
		l-160.967,92.906c-2.329,1.294-4.658,2.07-7.246,2.07c-2.588,0-5.176-0.776-7.246-2.07L23.979,202.524
		c-4.399-2.588-7.246-7.505-7.246-12.681V4.032c0-5.176,2.847-10.093,7.246-12.681l160.967-92.906
		C187.276-102.848,189.863-103.625,192.193-103.625 M192.193-111.388c-3.882,0-7.764,1.035-11.128,3.105L20.097-15.377
		C13.11-11.496,8.969-3.991,8.969,3.773v185.811c0,8.022,4.141,15.269,11.128,19.15l160.967,92.906
		c3.364,2.07,7.246,3.106,11.128,3.106c3.882,0,7.764-1.035,11.128-3.106l160.967-92.905c6.987-3.882,11.128-11.387,11.128-19.15
		V3.773c0-8.022-4.141-15.269-11.128-19.15l-160.967-92.906C199.956-110.353,196.074-111.388,192.193-111.388L192.193-111.388z"/>
	<g id="XMLID_228_" transform="matrix(0.95420602,0,0,0.95420602,-7.2615534,-2.6484425)">
		<g id="XMLID_223_">
			<g id="XMLID_295_">
				<path id="path8" inkscape:connector-curvature="0" fill="#FFFFFF" d="M233.028,6.73c0-1.356-1.085-2.712-2.712-2.712h-25.494
					h-25.494c-1.356,0-2.712,1.085-2.712,2.712c0,9.221,1.356,40.953,14.917,56.412c0.542,0.542,1.085,0.814,1.898,0.814h22.782
					c0.814,0,1.356-0.271,1.898-0.814C231.672,47.954,233.028,16.222,233.028,6.73z M212.959,56.09h-16.001
					c-0.814,0-1.356-0.271-1.898-0.814c-9.221-10.848-10.306-32.545-10.577-40.139c0-1.356,1.085-2.712,2.712-2.712h17.9h17.9
					c1.356,0,2.712,1.085,2.712,2.712c0,7.594-1.356,29.019-10.577,40.139C214.315,55.819,213.772,56.09,212.959,56.09z"/>
			</g>
		</g>
		<path id="XMLID_225_" inkscape:connector-curvature="0" fill="#FFFFFF" d="M209.975-1.407c0,0,9.764-5.695,3.797-16.001
			c-3.526-5.424-5.153-10.035-3.797-11.933c-3.526,4.339-9.492,8.95-2.983,18.713C209.162-8.187,210.247-3.034,209.975-1.407z"/>
		<path id="XMLID_224_" inkscape:connector-curvature="0" fill="#FFFFFF" d="M199.127-0.593c0,0,6.509-3.797,2.441-10.848
			c-2.441-3.526-3.526-6.78-2.441-7.865c-2.441,2.983-6.238,5.967-1.898,12.747C198.585-5.204,199.127-1.678,199.127-0.593z"/>
		<path id="XMLID_227_" inkscape:connector-curvature="0" fill="#FFFFFF" d="M221.366,30.867c-1.085,7.323-3.255,15.73-7.865,21.154
			c-0.542,0.542-1.085,0.814-1.627,0.814h-13.56c-0.542,0-1.356-0.271-1.627-0.814c-3.255-4.068-5.424-9.492-6.78-15.188
			c0,0,15.73,2.17,24.68-1.085C221.095,33.308,221.366,30.867,221.366,30.867z"/>
	</g>
	<g id="g13" transform="matrix(0.95420602,0,0,0.95420602,-7.2615534,-2.6484425)">
		<path id="path15" inkscape:connector-curvature="0" fill="#FFFFFF" d="M43.182,74.803h10.035l16.544,25.494l16.544-25.494h10.035
			v54.242h-9.492V90.262L69.76,115.756h-0.271L52.674,90.533v38.783h-9.492V74.803z"/>
		<path id="path17" inkscape:connector-curvature="0" fill="#FFFFFF" d="M145.428,129.859c-4.068,0-7.865-0.814-11.391-2.17
			c-3.526-1.356-6.509-3.526-8.95-5.967c-2.441-2.441-4.339-5.424-5.695-8.95c-1.356-3.255-2.17-7.051-2.17-10.848v-0.271
			c0-3.797,0.814-7.323,2.17-10.848c1.356-3.255,3.255-6.238,5.967-8.95c2.441-2.441,5.424-4.611,8.95-5.967
			c3.526-1.627,7.323-2.17,11.391-2.17s7.865,0.814,11.391,2.17c3.526,1.356,6.509,3.526,8.95,5.967
			c2.441,2.441,4.339,5.424,5.695,8.95c1.356,3.255,2.17,7.051,2.17,10.848v0.271c0,3.797-0.814,7.323-2.17,10.848
			c-1.356,3.255-3.255,6.238-5.967,8.95c-2.441,2.441-5.424,4.611-8.95,5.967C153.293,129.316,149.496,129.859,145.428,129.859z
			 M145.428,121.18c2.712,0,5.153-0.542,7.323-1.627c2.17-1.085,4.068-2.441,5.695-4.068c1.627-1.627,2.712-3.797,3.797-5.967
			c0.814-2.441,1.356-4.882,1.356-7.323v-0.271c0-2.712-0.542-5.153-1.356-7.594c-0.814-2.441-2.17-4.339-3.797-6.238
			c-1.627-1.627-3.526-2.983-5.695-4.068c-2.17-1.085-4.611-1.627-7.323-1.627s-5.153,0.542-7.323,1.627
			c-2.17,1.085-4.068,2.441-5.695,4.068c-1.627,1.627-2.712,3.797-3.797,5.967c-0.814,2.441-1.356,4.882-1.356,7.323v0.271
			c0,2.712,0.542,5.153,1.356,7.594c0.814,2.441,2.17,4.339,3.797,6.238c1.627,1.627,3.526,2.983,5.695,4.068
			C140.275,120.638,142.987,121.18,145.428,121.18z"/>
		<path id="path19" inkscape:connector-curvature="0" fill="#FFFFFF" d="M219.739,129.859c-4.068,0-7.594-0.814-10.848-2.17
			c-3.255-1.356-6.238-3.526-8.679-5.967c-2.441-2.441-4.339-5.424-5.695-8.95s-2.17-7.051-2.17-10.848v-0.271
			c0-3.797,0.814-7.594,2.17-10.848c1.356-3.255,3.255-6.238,5.695-8.95c2.441-2.441,5.424-4.611,8.95-5.967
			c3.526-1.356,7.051-2.17,11.391-2.17c2.441,0,4.611,0.271,6.78,0.542c2.17,0.542,3.797,1.085,5.695,1.627
			c1.627,0.814,3.255,1.627,4.611,2.712c1.356,1.085,2.712,2.17,4.068,3.526l-6.238,7.051c-2.17-1.898-4.339-3.526-6.78-4.882
			c-2.441-1.356-5.153-1.898-8.408-1.898c-2.712,0-4.882,0.542-7.051,1.627c-2.17,1.085-4.068,2.441-5.695,4.068
			c-1.627,1.627-2.712,3.797-3.797,5.967c-0.814,2.441-1.356,4.882-1.356,7.323v0.271c0,2.712,0.542,5.153,1.356,7.594
			c0.814,2.441,2.17,4.339,3.797,6.238c1.627,1.627,3.526,3.255,5.695,4.068c2.17,0.814,4.611,1.627,7.051,1.627
			c3.255,0,6.238-0.542,8.408-1.898s4.611-2.983,7.051-5.153l6.238,6.238c-1.356,1.627-2.712,2.712-4.339,4.068
			c-1.627,1.356-3.255,2.17-4.882,2.983c-1.627,0.814-3.797,1.627-5.695,1.898C224.621,129.859,222.18,129.859,219.739,129.859
			L219.739,129.859z"/>
		<path id="path21" inkscape:connector-curvature="0" fill="#FFFFFF" d="M260.963,74.803h9.492v22.51h26.036v-22.51h9.492v54.242
			h-9.492v-22.782h-26.036v22.782h-9.492V74.803z"/>
		<path id="path23" inkscape:connector-curvature="0" fill="#FFFFFF" d="M348.021,74.532h8.679l23.866,54.513h-10.035l-5.424-13.018
			h-25.494l-5.695,13.018h-9.764L348.021,74.532z M361.582,107.62l-9.221-21.697l-9.221,21.697H361.582L361.582,107.62z"/>
	</g>
	<rect id="XMLID_444_" x="27.473" y="136.791" fill="#FFFFFF" width="329.957" height="2.847"/>
	<path id="XMLID_446_" inkscape:connector-curvature="0" fill="#FFFFFF" d="M357.43,39.486H217.166c0,1.035-0.259,1.812-0.259,2.847
		H357.43L357.43,39.486L357.43,39.486z"/>
	<path id="XMLID_448_" inkscape:connector-curvature="0" fill="#FFFFFF" d="M27.473,39.486v2.847h132.242
		c0-1.035-0.259-1.812-0.259-2.847C159.456,39.486,27.473,39.486,27.473,39.486z"/>
</g>
</svg>
