<?xml version="1.0" encoding="utf-8"?>
<!-- Generator: Adobe Illustrator 17.0.0, SVG Export Plug-In . SVG Version: 6.00 Build 0)  -->
<!DOCTYPE svg PUBLIC "-//W3C//DTD SVG 1.1//EN" "http://www.w3.org/Graphics/SVG/1.1/DTD/svg11.dtd">
<svg version="1.1" id="图层_1" xmlns="http://www.w3.org/2000/svg" xmlns:xlink="http://www.w3.org/1999/xlink" x="0px" y="0px"
	 width="500px" height="500px" viewBox="0 0 500 500" enable-background="new 0 0 500 500" xml:space="preserve">
<path fill="#1A5DAD" d="M438.851,251.17c0,112.506-92.686,205.101-205.31,205.101c-112.623,0-205.31-92.6-205.31-205.101
	c0-112.513,90.52-205.101,205.31-205.101C343.991,46.068,438.851,138.662,438.851,251.17"/>
<path fill="#FFFFFF" d="M279.854,359.118c87.715,36.083,72.492-55.101,25.737-124.919c-26.5-39.554-61.06-72.508-82.859-88.413
	c-72.278-52.752-116.897-20.757-65.859,83.277c16.502,33.636,37.697,56.338,54.251,77.737c12.642,16.336,37.266,24.516,28.592,32.27
	c-9.775,8.742-33.445-29.815-33.445-29.815c-17.481-21.085-34.143-43.58-51.315-74.449
	c-39.236-70.513-33.579-142.479,37.439-111.131c60.268,26.618,117.834,101.273,140.978,154.289
	c10.691,24.478,39.836,121.341-52.994,82.18"/>
<path fill="#EE293D" d="M7.087,311.969c38.588-25.699,75.174-42.291,137.434-62.854c87.488-28.902,153.337-48.329,234.125-88.939
	c36.163-18.174,98.912-58.931,121.354-94.364c-6.721,13.713-27.527,40.404-36.946,52.21
	C353.434,255.279,119.936,247.496,8.627,313.391"/>
<path fill="#FFFFFF" d="M63.066,211.652c35.316,0.277,31.852-0.071,32.264,0.343c0.617,0,28.199,47.501,28.199,47.91
	c0,0.203-0.206-16.88-0.206-38.245c0-2.467-6.789-9.664-6.586-9.664c10.08,0,23.256,0.206,23.256,0.206
	c-4.937,5.758-5.923,5.285-5.964,8.843c-0.139,11.442-0.269,32.586,0,56.338c0.038,3.56,2.676,4.935,6.998,11.104h-32.318
	c-10.497-17.477-29.733-50.264-29.637-50.171c0.148,0.15-0.414,20.566,0.201,37.011c0.208,5.435,2.678,7.196,7.209,12.133
	c0,0,5.211-0.14-25.319,0.204c9.262-4.935,8.032-11.102,8.027-11.308c-0.333-22.725-0.069-42.154-0.069-54.697
	c0-2.056-0.14-1.853-6.517-9.664"/>
<path fill="#FFFFFF" d="M173.49,246.747c2.966-10.294,5.499-19.495,6.701-25.493c0.204-1.029-2.264-4.729-6.175-8.431l-0.277-0.574
	c18.858,0.061,38.558,0.163,38.558,0.163c5.146,12.543,16.878,47.701,25.728,69.292c2.341,5.707,6.381,6.784,6.381,6.784
	c-16.055-0.203-45.848-0.066-45.69-0.203c8.025-7.201,6.996-7.201,3.496-17.684h-25.108c-5.146,11.923,1.604,17.521,2.467,17.477
	c-5.715,0.295-25.108,0-25.108,0c10.497-7.405,9.877-9.664,9.877-9.664c2.884-10.259,6.225-21.497,9.15-31.672l10.302,0.002
	c-2.213,7.098-4.426,14.19-4.426,14.19h19.97l-11.117-28.376c0,0-2.213,7.094-4.427,14.186l-10.302-0.002"/>
<path fill="#FFFFFF" d="M345.981,247.775c2.96-10.292,5.496-19.495,6.696-25.497c0.203-1.024-2.267-4.723-6.175-8.429l-0.279-0.572
	c18.863,0.061,38.569,0.163,38.569,0.163c5.138,12.543,16.872,47.703,25.721,69.292c2.338,5.71,6.378,6.787,6.378,6.787
	c-16.047-0.208-45.841-0.066-45.688-0.208c8.03-7.193,7.001-7.193,3.502-17.681H349.59c-5.146,11.925,1.6,17.521,2.465,17.481
	c-5.71,0.292-25.107,0-25.107,0c10.495-7.405,9.879-9.667,9.879-9.667C339.712,269.184,343.054,257.949,345.981,247.775
	l10.299,0.001c-2.218,7.097-4.422,14.192-4.422,14.192h19.96l-11.117-28.376c0,0-2.206,7.092-4.422,14.184L345.981,247.775"/>
<path fill="#FFFFFF" d="M313.509,230.921c-0.412-14.603,0-19.331,0-19.331c-6.384,5.143-3.163,4.487-19.14,1.852
	c-46.043-7.597-49.552,35.388-24.496,45.03c21.032,8.096,28.486,9.682,25.314,17.269c-1.029,2.473-20.169,11.519-39.925-6.782
	l0.407,25.497c2.47-2.544,9.267-7.196,9.267-7.196c0.203,0,21.416,9.346,40.543-0.414c29.438-15.007,14.746-39.3-16.669-48.935
	c-26.141-8.02-1.441-26.733,24.49-6.785"/>
<path fill="#FFFFFF" d="M236.431,64.695c0,0.92-0.752,1.674-1.672,1.674c-0.915,0-1.672-0.755-1.672-1.674
	c0-0.912,0.757-1.669,1.672-1.669C235.679,63.025,236.431,63.783,236.431,64.695"/>
<path fill="#FFFFFF" d="M248.027,90.014c0,1.128-0.935,2.056-2.058,2.056c-1.131,0-2.061-0.928-2.061-2.056
	c0-1.125,0.93-2.053,2.061-2.053C247.091,87.961,248.027,88.888,248.027,90.014"/>
<path fill="#FFFFFF" d="M278.113,131.393c0,1.126-0.927,2.056-2.058,2.056c-1.125,0-2.058-0.93-2.058-2.056
	c0-1.128,0.864-2.058,1.995-2.058C277.122,129.335,278.113,130.265,278.113,131.393"/>
<path fill="#FFFFFF" d="M229.745,104.279c0,0.917-0.752,1.669-1.672,1.669c-0.918,0-1.675-0.752-1.675-1.669
	c0-0.915,0.757-1.672,1.675-1.672C228.993,102.606,229.745,103.363,229.745,104.279"/>
<path fill="#FFFFFF" d="M247.765,113.79c0,0.912-0.755,1.669-1.67,1.669c-0.917,0-1.674-0.757-1.674-1.669
	c0-0.915,0.757-1.67,1.674-1.67C247.01,112.12,247.765,112.876,247.765,113.79"/>
<path fill="#FFFFFF" d="M224.348,87.184c0,1.129-0.93,2.056-2.058,2.056c-1.128,0-2.058-0.927-2.058-2.056
	c0-1.128,0.93-2.058,2.058-2.058C223.418,85.126,224.348,86.057,224.348,87.184"/>
<path fill="#FFFFFF" d="M197.082,103.765c0,0.917-0.755,1.672-1.674,1.672c-0.917,0-1.672-0.755-1.672-1.672
	c0-0.915,0.755-1.672,1.672-1.672C196.327,102.092,197.082,102.85,197.082,103.765"/>
<path fill="#FFFFFF" d="M201.957,107.103c0,0.92-0.755,1.675-1.674,1.675c-0.917,0-1.674-0.755-1.674-1.675
	c0-0.915,0.757-1.667,1.674-1.667C201.203,105.436,201.957,106.188,201.957,107.103"/>
<path fill="#FFFFFF" d="M206.85,110.446c0,0.92-0.755,1.674-1.672,1.674c-0.917,0-1.674-0.755-1.674-1.674
	c0-0.912,0.757-1.667,1.674-1.667C206.095,108.779,206.85,109.533,206.85,110.446"/>
<path fill="#FFFFFF" d="M199.398,116.874c0,0.917-0.76,1.672-1.674,1.672c-0.92,0-1.675-0.755-1.675-1.672
	c0-0.915,0.755-1.669,1.675-1.669C198.638,115.204,199.398,115.959,199.398,116.874"/>
<path fill="#FFFFFF" d="M160.543,144.117c0,0.917-0.757,1.669-1.674,1.669s-1.674-0.752-1.674-1.669
	c0-0.917,0.757-1.672,1.674-1.672S160.543,143.199,160.543,144.117"/>
<path fill="#FFFFFF" d="M167.745,152.859c0,0.915-0.757,1.67-1.674,1.67c-0.917,0-1.674-0.755-1.674-1.67
	c0-0.92,0.757-1.672,1.674-1.672S167.745,151.939,167.745,152.859"/>
<path fill="#FFFFFF" d="M162.02,293.966c0,0.918-0.755,1.67-1.672,1.67c-0.917,0-1.672-0.752-1.672-1.67
	c0-0.915,0.755-1.672,1.672-1.672C161.265,292.294,162.02,293.051,162.02,293.966"/>
<path fill="#FFFFFF" d="M163.049,332.897c0,1.128-0.93,2.053-2.058,2.053c-1.129,0-2.058-0.925-2.058-2.053
	c0-1.129,0.93-2.056,2.058-2.056C162.119,330.841,163.049,331.768,163.049,332.897"/>
<path fill="#FFFFFF" d="M140.918,352.832c0,0.912-0.755,1.669-1.669,1.669c-0.917,0-1.674-0.757-1.674-1.669
	c0-0.92,0.757-1.672,1.674-1.672C140.163,351.16,140.918,351.913,140.918,352.832"/>
<path fill="#FFFFFF" d="M114.422,360.911c0,1.128-0.935,2.053-2.061,2.053c-1.129,0-2.058-0.925-2.058-2.053
	c0-1.131,0.93-2.058,2.058-2.058C113.486,358.853,114.422,359.781,114.422,360.911"/>
<path fill="#FFFFFF" d="M109.017,342.926c0,1.123-0.93,2.053-2.056,2.053c-1.128,0-2.058-0.93-2.058-2.053
	c0-1.131,0.93-2.058,2.058-2.058C108.088,340.867,109.017,341.795,109.017,342.926"/>
<path fill="#FFFFFF" d="M105.934,354.365c0,0.917-0.757,1.669-1.674,1.669c-0.917,0-1.675-0.752-1.675-1.669
	c0-0.915,0.758-1.672,1.675-1.672C105.177,352.693,105.934,353.45,105.934,354.365"/>
<path fill="#FFFFFF" d="M86.118,344.858c0,0.915-0.755,1.672-1.669,1.672c-0.92,0-1.675-0.757-1.675-1.672
	c0-0.915,0.755-1.67,1.675-1.67C85.364,343.188,86.118,343.944,86.118,344.858"/>
<path fill="#FFFFFF" d="M155.327,376.981c0,0.918-0.691,1.672-1.606,1.672c-0.917,0-1.738-0.755-1.738-1.672
	c0-0.915,0.757-1.672,1.672-1.672C154.574,375.31,155.327,376.067,155.327,376.981"/>
<path fill="#FFFFFF" d="M176.171,361.695c0,1.131-0.864,2.058-1.995,2.058c-1.128,0-2.121-0.928-2.121-2.058
	c0-1.123,0.93-2.053,2.058-2.053C175.244,359.642,176.171,360.571,176.171,361.695"/>
<path fill="#FFFFFF" d="M178.557,381.352c0,0.917-0.824,1.675-1.736,1.675c-0.92,0-1.674-0.758-1.674-1.675
	c0-0.915,0.755-1.667,1.674-1.667C177.733,379.685,178.557,380.437,178.557,381.352"/>
<path fill="#FFFFFF" d="M264.219,362.583c0,0.915-0.755,1.672-1.669,1.672c-0.922,0-1.677-0.757-1.677-1.672
	c0-0.917,0.755-1.669,1.677-1.669C263.464,360.913,264.219,361.665,264.219,362.583"/>
<path fill="#FFFFFF" d="M224.348,376.72c0,0.917-0.752,1.669-1.672,1.669c-0.915,0-1.672-0.752-1.672-1.669
	c0-0.915,0.757-1.672,1.672-1.672C223.596,375.048,224.348,375.806,224.348,376.72"/>
<path fill="#FFFFFF" d="M331.634,397.039c0,0.915-0.757,1.669-1.672,1.669c-0.92,0-1.677-0.755-1.677-1.669
	c0-0.917,0.757-1.672,1.677-1.672C330.877,395.367,331.634,396.122,331.634,397.039"/>
<path fill="#FFFFFF" d="M340.374,317.993c0,1.128-0.927,2.058-2.058,2.058c-1.131,0-2.058-0.93-2.058-2.058
	c0-1.129,0.928-2.058,2.058-2.058C339.448,315.935,340.374,316.865,340.374,317.993"/>
<path fill="#FFFFFF" d="M323.921,329.171c0,0.915-0.755,1.672-1.677,1.672c-0.915,0-1.67-0.757-1.67-1.672
	c0-0.917,0.755-1.669,1.67-1.669C323.166,327.502,323.921,328.254,323.921,329.171"/>
<path fill="#FFFFFF" d="M340.131,332.392c0,1.128-0.928,2.058-2.058,2.058c-1.131,0-2.058-0.93-2.058-2.058
	c0-1.126,0.927-2.056,2.058-2.056C339.203,330.336,340.131,331.266,340.131,332.392"/>
<path fill="#FFFFFF" d="M323.921,352.31c0,0.915-0.755,1.669-1.677,1.669c-0.915,0-1.67-0.755-1.67-1.669
	c0-0.917,0.755-1.672,1.67-1.672C323.166,350.638,323.921,351.393,323.921,352.31"/>
<path fill="#FFFFFF" d="M365.847,306.815c0,0.917-0.757,1.672-1.672,1.672c-0.915,0-1.669-0.755-1.669-1.672
	c0-0.917,0.755-1.669,1.669-1.669C365.09,305.146,365.847,305.898,365.847,306.815"/>
<path fill="#FFFFFF" d="M369.903,316.966c0,1.131-0.859,2.058-1.989,2.058c-1.131,0-2.122-0.928-2.122-2.058
	c0-1.129,0.928-2.053,2.053-2.053C368.976,314.913,369.903,315.837,369.903,316.966"/>
<path fill="#FFFFFF" d="M398.788,329.049c0,1.128-0.922,2.056-2.058,2.056c-1.131,0-2.058-0.928-2.058-2.056
	c0-1.125,0.927-2.058,2.058-2.058C397.866,326.991,398.788,327.924,398.788,329.049"/>
<path fill="#FFFFFF" d="M369.451,350.517c0,0.915-0.762,1.67-1.678,1.67c-0.915,0-1.672-0.755-1.672-1.67
	c0-0.92,0.757-1.672,1.672-1.672C368.688,348.845,369.451,349.597,369.451,350.517"/>
<path fill="#FFFFFF" d="M387.976,333.036c0,0.917-0.755,1.669-1.669,1.669c-0.915,0-1.672-0.752-1.672-1.669
	s0.757-1.672,1.672-1.672C387.221,331.364,387.976,332.119,387.976,333.036"/>
<path fill="#FFFFFF" d="M384.564,360.023c0,0.918-0.755,1.67-1.669,1.67c-0.922,0-1.677-0.752-1.677-1.67
	c0-0.915,0.755-1.672,1.677-1.672C383.809,358.351,384.564,359.109,384.564,360.023"/>
<path fill="#FFFFFF" d="M392.416,315.172c0,1.41-1.164,2.569-2.574,2.569c-1.41,0-2.572-1.159-2.572-2.569
	c0-1.41,1.162-2.569,2.572-2.569C391.251,312.604,392.416,313.762,392.416,315.172"/>
<path fill="#FFFFFF" d="M389.839,307.338l-0.768,7.067l-7.013,0.772l7.069,0.768l0.775,7.328l0.775-7.328l6.944-0.897l-7.008-0.643
	L389.839,307.338"/>
<path fill="#FFFFFF" d="M374.396,359.884c0,1.41-1.161,2.569-2.571,2.569c-1.41,0-2.574-1.159-2.574-2.569
	c0-1.41,1.164-2.569,2.574-2.569C373.234,357.315,374.396,358.474,374.396,359.884"/>
<path fill="#FFFFFF" d="M371.836,352.049l-0.775,7.067l-7.009,0.772l7.072,0.773l0.775,7.323l0.775-7.323l6.942-0.9l-7.013-0.645
	L371.836,352.049"/>
<path fill="#FFFFFF" d="M182.474,147.583c0,1.41-1.161,2.569-2.571,2.569c-1.416,0-2.574-1.159-2.574-2.569
	c0-1.41,1.159-2.569,2.574-2.569C181.313,145.014,182.474,146.173,182.474,147.583"/>
<path fill="#FFFFFF" d="M179.897,139.745l-0.773,7.067l-7.013,0.773l7.077,0.768l0.773,7.328l0.77-7.328l6.948-0.894l-7.013-0.646
	L179.897,139.745"/>
<path fill="#FFFFFF" d="M278.182,85.388c0,1.41-1.164,2.571-2.574,2.571c-1.41,0-2.566-1.161-2.566-2.571
	c0-1.41,1.156-2.571,2.566-2.571C277.019,82.816,278.182,83.977,278.182,85.388"/>
<path fill="#FFFFFF" d="M275.606,77.542l-0.768,7.069l-7.013,0.773l7.077,0.772l0.768,7.326l0.775-7.326l6.945-0.902l-7.013-0.643
	L275.606,77.542"/>
<path fill="#FFFFFF" d="M161.825,401.026c0,1.41-1.161,2.569-2.571,2.569c-1.416,0-2.577-1.159-2.577-2.569
	c0-1.408,1.161-2.572,2.577-2.572C160.664,398.454,161.825,399.618,161.825,401.026"/>
<path fill="#FFFFFF" d="M159.314,393.174l-0.77,7.069l-7.011,0.772l7.075,0.77l0.772,7.326l0.77-7.326l6.947-0.897l-7.011-0.645
	L159.314,393.174"/>
<path fill="#EE293D" d="M499.981,65.814c-31.288,92.821-156.629,164.497-262.14,232.924
	c-63.653,41.288-126.849,88.815-170.356,129.257c-11.468,10.665,2.337-3.987-2.058,0.516
	c60.716-69.91,130.558-111.55,169.153-137.759c65.272-44.344,102.397-55.52,215.008-159.246"/>
<path fill="#EE293D" d="M33.184,295.777c-11.236,5.497-21.302,10.928-29.842,16.23l5.196,1.891
	c7.469-4.6,16.436-9.397,25.881-13.626"/>
<path fill="#EE293D" d="M92.507,399.651c-10.272,8.965-20.888,18.534-31.537,28.564l-0.47,7.087
	c9.75-10.043,21.727-20.89,35.55-32.398"/>
<path fill="#FFFFFF" d="M279.854,359.118c87.715,36.083,72.492-55.101,25.737-124.919c-26.5-39.554-59.18-70.932-82.859-88.413
	c-27.649-20.414-30.347-22.107-30.347-22.107c61.743,29.304,117.834,101.271,140.978,154.289
	c10.691,24.478,39.836,121.341-52.994,82.18"/>
</svg>
