<?xml version="1.0" encoding="utf-8"?>
<!-- Generator: Adobe Illustrator 17.0.0, SVG Export Plug-In . SVG Version: 6.00 Build 0)  -->
<!DOCTYPE svg PUBLIC "-//W3C//DTD SVG 1.1//EN" "http://www.w3.org/Graphics/SVG/1.1/DTD/svg11.dtd">
<svg version="1.1" id="Layer_1" xmlns="http://www.w3.org/2000/svg" xmlns:xlink="http://www.w3.org/1999/xlink" x="0px" y="0px"
	 width="437.695px" height="491.895px" viewBox="31.445 4.248 437.695 491.895"
	 enable-background="new 31.445 4.248 437.695 491.895" xml:space="preserve">
<polygon fill="#CC0000" points="44.922,128.125 253.906,6.445 462.891,128.125 462.891,371.289 253.906,492.969 44.922,371.289 "/>
<polygon fill="#FFFFFF" points="259.766,249.609 454.102,137.695 461.914,363.281 259.766,485.352 "/>
<g>
	<path fill="#CC0000" d="M457.031,130.859l-0.586,239.063L253.711,487.5l-0.977-234.961L457.031,130.859z M286.523,272.07
		l0.586,157.031l67.383-39.258l-0.195-118.359l33.984-20.117v118.75l33.984-19.922l0.195-158.984L286.523,272.07z"/>
</g>
<path fill="#910505" d="M267.188,8.203c-9.375-5.273-24.414-5.273-33.789,0L48.242,114.648
	c-9.375,5.273-16.797,18.555-16.797,29.102v212.891c0,10.742,7.617,23.828,16.797,29.102l185.156,106.445
	c9.375,5.273,24.414,5.273,33.789,0l185.156-106.445c9.375-5.273,16.797-18.555,16.797-29.102V143.75
	c0-10.742-7.617-23.828-16.797-29.102L267.188,8.203z M431.445,119.531c9.375,5.273,9.375,14.063,0,19.336l-162.109,93.164
	c-9.375,5.273-24.414,5.273-33.789,0L71.094,137.5c-9.375-5.273-9.375-14.063,0-19.336L233.203,25
	c9.375-5.273,24.414-5.273,33.789,0L431.445,119.531z M45.898,159.18c0-10.742,7.617-15.039,16.797-9.766l165.82,95.313
	c9.375,5.273,16.797,18.555,16.797,29.102v189.063c0,10.742-7.617,15.039-16.797,9.766l-165.82-95.313
	c-9.375-5.273-16.797-18.555-16.797-29.102C45.898,348.242,45.898,159.18,45.898,159.18z M276.953,469.727
	c-9.375,5.273-16.797,0.977-16.797-9.766V273.828c0-10.742,7.617-23.828,16.797-29.102l160.938-92.383
	c9.375-5.273,16.797-0.977,16.797,9.766v186.133c0,10.742-7.617,23.828-16.797,29.102L276.953,469.727z"/>
</svg>
