<?xml version="1.0" encoding="UTF-8"?>
<!-- Generator: Adobe Illustrator 16.0.0, SVG Export Plug-In . SVG Version: 6.00 Build 0)  -->
<!DOCTYPE svg PUBLIC "-//W3C//DTD SVG 1.1//EN" "http://www.w3.org/Graphics/SVG/1.1/DTD/svg11.dtd">
<svg version="1.1" id="MAIN" xmlns="http://www.w3.org/2000/svg" xmlns:xlink="http://www.w3.org/1999/xlink" x="0px" y="0px" width="1280px" height="1280px" viewBox="0 0 1280 1280" enable-background="new 0 0 1280 1280" xml:space="preserve">
<ellipse fill="#FFFFFF" cx="639.875" cy="640" rx="629.875" ry="630"/>
<g id="Pink">
	<defs>
		<ellipse id="CLIP" cx="640.125" cy="639.875" rx="601.875" ry="602.125"/>
	</defs>
	<clipPath id="CLIP_1_">
		<use xlink:href="#CLIP" overflow="visible"/>
	</clipPath>
	<rect id="Bottom" clip-path="url(#CLIP_1_)" fill="#F58AAB" width="1280" height="1280"/>
	<path id="Top" clip-path="url(#CLIP_1_)" fill="#FAB6D4" d="M0,0h1280v334.5c-308,264-754,456-1280,504V0z"/>
</g>
<path id="BackTXT" opacity="0.6" fill="#FFFFFF" d="M400.589,646.613c0,41.371-10.597,74.029-31.787,97.971  c-21.194,23.946-49.575,35.916-85.144,35.916c-35.874,0-64.369-11.97-85.484-35.916c-21.116-23.941-31.674-56.6-31.674-97.971  c0-41.371,10.558-74.064,31.674-98.085c21.115-24.017,49.61-36.028,85.484-36.028c35.569,0,63.95,12.012,85.144,36.028  C389.993,572.549,400.589,605.243,400.589,646.613z M356.542,644.703c0-32.845-6.436-57.252-19.299-73.224  c-12.867-15.969-30.73-23.954-53.584-23.954c-23.159,0-41.135,7.985-53.925,23.954c-12.792,15.972-19.186,40.379-19.186,73.224  c0,31.787,6.432,55.894,19.299,72.315c12.864,16.426,30.801,24.635,53.811,24.635c22.705,0,40.528-8.135,53.471-24.407  C350.07,700.977,356.542,676.795,356.542,644.703z M647.849,700.69c0,23.334-9.576,42.475-28.723,57.419  c-19.15,14.948-45.296,22.419-78.446,22.419c-18.771,0-35.988-2.252-51.654-6.748c-15.667-4.497-28.8-9.415-39.394-14.757v-48.267  h2.271c13.471,10.219,28.456,18.34,44.956,24.362c16.497,6.026,32.316,9.036,47.454,9.036c18.767,0,33.451-3.049,44.048-9.15  c10.593-6.099,15.894-15.706,15.894-28.824c0-10.064-2.877-17.688-8.628-22.875c-5.754-5.184-16.802-9.608-33.149-13.269  c-6.056-1.372-13.963-2.973-23.727-4.803c-9.763-1.83-18.657-3.812-26.678-5.949c-22.251-5.947-38.031-14.676-47.34-26.193  c-9.309-11.513-13.963-25.656-13.963-42.435c0-10.522,2.157-20.434,6.471-29.738c4.313-9.301,10.859-17.615,19.64-24.935  c8.476-7.167,19.26-12.846,32.354-17.042c13.091-4.193,27.736-6.291,43.935-6.291c15.134,0,30.46,1.87,45.978,5.604  c15.514,3.739,28.417,8.275,38.712,13.612v45.979h-2.271c-10.898-8.081-24.146-14.904-39.734-20.473  c-15.592-5.566-30.879-8.35-45.864-8.35c-15.592,0-28.761,3.013-39.507,9.035c-10.75,6.027-16.121,14.984-16.121,26.879  c0,10.523,3.253,18.454,9.763,23.792c6.357,5.339,16.649,9.687,30.879,13.039c7.869,1.83,16.688,3.66,26.451,5.49  c9.764,1.83,17.898,3.51,24.408,5.033c19.828,4.575,35.115,12.431,45.864,23.562C642.474,667.142,647.849,682.086,647.849,700.69z   M919.174,773.345h-42.686v-28.366c-14.383,11.438-28.154,20.209-41.324,26.308c-13.168,6.098-27.699,9.15-43.594,9.15  c-26.643,0-47.379-8.197-62.211-24.592c-14.837-16.392-22.252-40.451-22.252-72.174V512.5h42.686v150.813  c0,12.964,0.604,24.059,1.816,33.283c1.21,9.229,3.782,17.121,7.721,23.677c4.086,6.712,9.383,11.592,15.893,14.641  c6.507,3.052,15.969,4.575,28.382,4.575c11.048,0,23.12-2.896,36.215-8.692c13.091-5.795,25.315-13.189,36.669-22.19V512.5h42.686  V773.345z M1078.109,432.5l-5.904,248h-38.598l-6.357-248H1078.109z M1075.838,768.397h-46.318V720.5h46.318V768.397z"/>
<path id="InterTXT" fill="#FFFFFF" d="M1078.11,432.5l-0.101,4h-50.66l-0.1-4H1078.11z M1027.46,440.5l0.1,4h50.261l0.1-4H1027.46z   M1027.66,448.5l0.1,4h49.87l0.101-4H1027.66z M1027.87,456.5l0.1,4h49.471l0.1-4H1027.87z M1028.07,464.5l0.1,4h49.08l0.1-4  H1028.07z M1028.28,472.5l0.1,4h48.68l0.101-4H1028.28z M1028.48,480.5l0.1,4h48.29l0.1-4H1028.48z M1028.69,488.5l0.1,4h47.89  l0.101-4H1028.69z M1028.89,496.5l0.101,4h47.5l0.1-4H1028.89z M1029.1,504.5l0.101,4h47.1l0.101-4H1029.1z M1029.3,512.5l0.101,4  h46.71l0.1-4H1029.3z M1029.51,520.5l0.101,4h46.31l0.1-4H1029.51z M1029.52,760.5v4h46.32v-4H1029.52z M1029.52,752.5v4h46.32v-4  H1029.52z M1029.52,744.5v4h46.32v-4H1029.52z M1029.52,736.5v4h46.32v-4H1029.52z M1029.52,728.5v4h46.32v-4H1029.52z   M1029.52,720.5v4h46.32v-4H1029.52z M1029.71,528.5l0.1,4h45.921l0.1-4H1029.71z M1029.92,536.5l0.1,4h45.521l0.1-4H1029.92z   M1030.12,544.5l0.1,4h45.13l0.101-4H1030.12z M1030.33,552.5l0.1,4h44.73l0.1-4H1030.33z M1030.53,560.5l0.109,4h44.33l0.09-4  H1030.53z M1030.74,568.5l0.1,4h43.94l0.09-4H1030.74z M1030.94,576.5l0.109,4h43.54l0.09-4H1030.94z M1031.15,584.5l0.1,4h43.15  l0.09-4H1031.15z M1031.35,592.5l0.11,4h42.75l0.09-4H1031.35z M1031.56,600.5l0.101,4h42.359l0.091-4H1031.56z M1031.76,608.5  l0.11,4h41.96l0.09-4H1031.76z M1031.97,616.5l0.101,4h41.569l0.091-4H1031.97z M1032.17,624.5l0.11,4h41.17l0.09-4H1032.17z   M1032.38,632.5l0.101,4h40.779l0.09-4H1032.38z M1032.58,640.5l0.11,4h40.38l0.09-4H1032.58z M1032.79,648.5l0.1,4h39.99l0.09-4  H1032.79z M1032.99,656.5l0.109,4h39.591l0.09-4H1032.99z M1033.2,664.5l0.1,4h39.2l0.09-4H1033.2z M1033.4,672.5l0.109,4h38.8  l0.091-4H1033.4z M876.49,768.5v4h42.68v-4H876.49z M876.49,760.5v4h42.68v-4H876.49z M876.49,752.5v4h42.68v-4H876.49z   M876.49,744.5v0.48v3.52h42.68v-4H876.49z M824.08,736.5c-7.18,1.99-14,2.99-20.48,2.99v1.01h115.57v-4H824.08z M844.79,728.5  c-1.65,0.79-3.3,1.56-4.97,2.3c-1.351,0.601-2.7,1.17-4.03,1.7h83.38v-4H844.79z M859.45,720.5c-2.271,1.4-4.57,2.73-6.91,4h66.63  v-4H859.45z M871.38,712.5c-1.87,1.38-3.76,2.71-5.67,4h53.46v-4H871.38z M876.49,704.5v4h42.68v-4H876.49z M876.49,696.5v4h42.68  v-4H876.49z M876.49,688.5v4h42.68v-4H876.49z M876.49,680.5v4h42.68v-4H876.49z M876.49,672.5v4h42.68v-4H876.49z M876.49,664.5v4  h42.68v-4H876.49z M876.49,656.5v4h42.68v-4H876.49z M876.49,648.5v4h42.68v-4H876.49z M876.49,640.5v4h42.68v-4H876.49z   M876.49,632.5v4h42.68v-4H876.49z M876.49,624.5v4h42.68v-4H876.49z M876.49,616.5v4h42.68v-4H876.49z M876.49,608.5v4h42.68v-4  H876.49z M876.49,600.5v4h42.68v-4H876.49z M876.49,592.5v4h42.68v-4H876.49z M876.49,584.5v4h42.68v-4H876.49z M876.49,576.5v4  h42.68v-4H876.49z M876.49,568.5v4h42.68v-4H876.49z M876.49,560.5v4h42.68v-4H876.49z M876.49,552.5v4h42.68v-4H876.49z   M876.49,544.5v4h42.68v-4H876.49z M876.49,536.5v4h42.68v-4H876.49z M876.49,528.5v4h42.68v-4H876.49z M876.49,520.5v4h42.68v-4  H876.49z M876.49,512.5v4h42.68v-4H876.49z M721.01,744.5c0.811,1.37,1.66,2.71,2.561,4h148.39c1.5-1.13,3.01-2.31,4.53-3.52v-0.48  H721.01z M729.36,755.84c0.199,0.22,0.399,0.44,0.62,0.66H860.89c1.891-1.28,3.79-2.61,5.7-4H726.52  C727.44,753.64,728.38,754.76,729.36,755.84z M738.72,764.5h109.46c2.19-1.26,4.391-2.59,6.61-4H733.98  C735.5,761.91,737.08,763.24,738.72,764.5z M751.89,772.5h80.551c0.909-0.39,1.819-0.79,2.72-1.21c1.88-0.87,3.78-1.8,5.689-2.79  h-96.34C746.87,769.98,749.33,771.31,751.89,772.5z M791.57,780.44c10.41,0,20.239-1.311,29.479-3.94h-58.62  C771.2,779.13,780.91,780.44,791.57,780.44z M779.3,736.5H716.82c0.62,1.36,1.27,2.7,1.939,4h84.84v-1.01  C793.57,739.49,785.47,738.49,779.3,736.5z M765.89,728.5H713.66c0.45,1.36,0.95,2.69,1.47,4h55.78  C769.13,731.34,767.45,730.01,765.89,728.5z M759.47,720.5h-48.2c0.341,1.36,0.711,2.69,1.11,4h49.88  C761.28,723.25,760.35,721.92,759.47,720.5z M755.55,712.5h-46.02c0.229,1.35,0.5,2.69,0.79,4h46.97  C756.66,715.21,756.07,713.88,755.55,712.5z M753.07,704.5H708.31c0.16,1.35,0.341,2.68,0.54,4h45.301  C753.75,707.21,753.39,705.87,753.07,704.5z M751.61,696.6c0-0.029-0.011-0.069-0.011-0.1h-44.05c0.09,1.35,0.2,2.68,0.32,4h44.35  C751.99,699.23,751.79,697.93,751.61,696.6z M750.74,688.5H707.18c0.021,1.35,0.07,2.68,0.141,4h43.8  C750.99,691.2,750.86,689.87,750.74,688.5z M750.2,680.5h-43.09v3.17c0,0.28,0,0.561,0.01,0.83h43.32  C750.35,683.2,750.27,681.86,750.2,680.5z M749.9,672.5h-42.79v4h42.92C749.97,675.19,749.93,673.86,749.9,672.5z M749.79,664.5  h-42.68v4h42.72C749.81,667.19,749.8,665.85,749.79,664.5z M707.11,656.5v4h42.68v-4H707.11z M707.11,648.5v4h42.68v-4H707.11z   M707.11,640.5v4h42.68v-4H707.11z M707.11,632.5v4h42.68v-4H707.11z M707.11,624.5v4h42.68v-4H707.11z M707.11,616.5v4h42.68v-4  H707.11z M707.11,608.5v4h42.68v-4H707.11z M707.11,600.5v4h42.68v-4H707.11z M707.11,592.5v4h42.68v-4H707.11z M707.11,584.5v4  h42.68v-4H707.11z M707.11,576.5v4h42.68v-4H707.11z M707.11,568.5v4h42.68v-4H707.11z M707.11,560.5v4h42.68v-4H707.11z   M707.11,552.5v4h42.68v-4H707.11z M707.11,544.5v4h42.68v-4H707.11z M707.11,536.5v4h42.68v-4H707.11z M707.11,528.5v4h42.68v-4  H707.11z M707.11,520.5v4h42.68v-4H707.11z M707.11,512.5v4h42.68v-4H707.11z M647.75,696.5h-44.57c0.32,1.27,0.56,2.61,0.73,4  h43.939C647.85,699.15,647.82,697.81,647.75,696.5z M604.25,706.18c0,0.79-0.02,1.561-0.06,2.32h43.28c0.141-1.32,0.23-2.65,0.29-4  h-43.54C604.24,705.05,604.25,705.61,604.25,706.18z M647,688.5h-47.06c0.77,1.24,1.44,2.58,1.99,4h45.55  C647.35,691.14,647.19,689.81,647,688.5z M602.97,716.5h43.28c0.28-1.31,0.52-2.65,0.72-4h-43.18  C603.59,713.88,603.32,715.21,602.97,716.5z M645.37,680.5h-53.49c1.43,0.92,2.68,1.85,3.75,2.81c0.42,0.381,0.83,0.78,1.22,1.19  h49.459C646.03,683.14,645.72,681.81,645.37,680.5z M599.53,724.5h44.51c0.46-1.31,0.87-2.65,1.24-4H601.6  C601.01,721.9,600.32,723.23,599.53,724.5z M572.26,672.5c4.44,1.26,8.35,2.59,11.73,4h60.17c-0.47-1.37-0.98-2.7-1.53-4H572.26z   M592.15,732.5h48.541c0.659-1.31,1.27-2.64,1.829-4h-46C595.23,729.95,593.77,731.28,592.15,732.5z M638.46,664.5H534.93  c1.26,0.25,2.53,0.49,3.82,0.73c6.31,1.18,11.85,2.27,16.61,3.27h85.4C640.04,667.13,639.28,665.79,638.46,664.5z M574.98,740.5  h60.99c0.91-1.31,1.75-2.64,2.54-4h-52.96C582.36,738.08,578.83,739.42,574.98,740.5z M633.73,576.5c0.63,0.45,1.25,0.9,1.86,1.35  h2.27v-1.35H633.73z M620.91,568.5c2.35,1.29,4.63,2.62,6.82,4h10.13v-4H620.91z M604.02,560.5c3.13,1.27,6.15,2.6,9.06,4h24.78v-4  H604.02z M579.36,552.5c4.63,1.08,9.29,2.41,13.97,4h44.53v-4H579.36z M468.07,544.5c-1.16,1.31-2.26,2.64-3.29,4h85.21h87.87v-4  H468.07z M476.27,536.5c-1.53,1.29-2.99,2.62-4.38,4h165.97v-4H476.27z M630.75,528.5H487.48c-2.14,1.26-4.19,2.6-6.13,4h156.51  v-0.63C635.61,530.71,633.24,529.58,630.75,528.5z M632.33,656.5H502.72c2.98,0.99,6.09,1.92,9.35,2.79  c1.54,0.41,3.12,0.82,4.72,1.21h118.9C634.64,659.12,633.52,657.78,632.33,656.5z M449.63,744.5v4h179.96  c1.21-1.31,2.35-2.64,3.43-4h-88.71H449.63z M623.33,648.5H483.96c2.57,1.41,5.31,2.74,8.22,4h136.07  C626.69,651.11,625.05,649.77,623.33,648.5z M449.63,756.5h171.51c1.58-1.31,3.08-2.64,4.52-4H449.63V756.5z M607.81,520.5H504.66  c-3.38,1.23-6.58,2.56-9.62,4h125.53C616.57,523.09,612.32,521.76,607.81,520.5z M609.95,640.5H472.07c1.65,1.39,3.42,2.72,5.32,4  h139.98C615.02,643.08,612.55,641.74,609.95,640.5z M461.74,764.5h148.01c2.13-1.26,4.18-2.59,6.16-4H452.65  C455.51,761.86,458.54,763.2,461.74,764.5z M484.7,772.5h107.98c3.32-1.2,6.51-2.53,9.57-4H472.37  C476.28,769.87,480.39,771.21,484.7,772.5z M586.74,632.5H464.26c0.16,0.2,0.31,0.4,0.47,0.59c0.94,1.16,1.95,2.3,3.03,3.41h132.56  C596.06,634.97,591.54,633.63,586.74,632.5z M553.17,512.65c-12.66,0-24.38,1.28-35.14,3.85h73.14  C578.37,513.93,565.7,512.65,553.17,512.65z M537.18,780.5h7.03c12.67-0.21,24.28-1.54,34.84-4H500  C511.61,778.97,524,780.3,537.18,780.5z M561.45,627.26c-4.92-0.92-9.6-1.84-14.03-2.76h-88.5c0.76,1.37,1.57,2.7,2.44,4h106.6  C565.88,628.1,563.71,627.69,561.45,627.26z M517.84,616.5H455.2c0.51,1.36,1.07,2.69,1.68,4h73.08  C525.47,619.28,521.43,617.95,517.84,616.5z M459.51,556.5h53.98c3.23-1.59,6.66-2.92,10.29-4h-61.85  C461.07,553.81,460.26,555.14,459.51,556.5z M500.79,736.5h-51.16v4h64.98C510.06,739.42,505.45,738.08,500.79,736.5z   M504.12,608.73c-0.09-0.07-0.17-0.14-0.26-0.23h-51.11c0.32,1.36,0.68,2.69,1.08,4h55.72C507.5,611.3,505.69,610.05,504.12,608.73z   M457.24,560.92c-0.55,1.18-1.06,2.37-1.54,3.58h46.35c1.35-1.43,2.88-2.77,4.6-4h-49.21C457.37,560.64,457.31,560.78,457.24,560.92  z M497.59,600.5h-46.25c0.16,1.36,0.36,2.69,0.59,4h48.12C499.1,603.26,498.28,601.93,497.59,600.5z M454.24,568.5  c-0.43,1.32-0.83,2.66-1.17,4h43.69c0.59-1.4,1.3-2.73,2.13-4H454.24z M495,592.5h-44.21c0.03,1.35,0.09,2.68,0.18,4h45.02  C495.57,595.23,495.25,593.89,495,592.5z M451.47,580.5h43.16c0.17-1.38,0.42-2.71,0.76-4h-43.25  C451.88,577.82,451.65,579.16,451.47,580.5z M494.36,584.94c0-0.15,0-0.29,0.01-0.44h-43.34c-0.12,1.32-0.19,2.66-0.22,4h43.68  C494.4,587.35,494.36,586.16,494.36,584.94z M481.08,728.5h-31.45v4h40.49C487.05,731.25,484.04,729.92,481.08,728.5z M466.24,720.5  h-16.61v4h23.57C470.84,723.22,468.52,721.89,466.24,720.5z M454.24,712.5h-4.61v4h10.33C458.02,715.21,456.12,713.88,454.24,712.5z   M356.4,652.5h44.11c0.04-1.32,0.06-2.66,0.07-4H356.5C356.49,649.85,356.45,651.18,356.4,652.5z M400.51,640.5H356.5  c0.03,1.32,0.04,2.65,0.04,4h44.03C400.57,643.16,400.55,641.82,400.51,640.5z M400.15,632.5h-43.93c0.07,1.32,0.13,2.65,0.17,4  h43.98C400.31,635.15,400.24,633.82,400.15,632.5z M355.97,660.5h44.19c0.09-1.32,0.16-2.65,0.21-4h-44.14  C356.16,657.85,356.07,659.18,355.97,660.5z M355.18,668.5h44.33c0.14-1.32,0.27-2.66,0.37-4h-44.26  C355.49,665.85,355.34,667.19,355.18,668.5z M399.49,624.5h-43.86c0.13,1.31,0.24,2.65,0.33,4h43.9  C399.76,627.15,399.63,625.82,399.49,624.5z M353.98,676.5h44.54c0.2-1.32,0.38-2.66,0.55-4h-44.43  C354.44,673.85,354.22,675.19,353.98,676.5z M398.49,616.5h-43.81c0.18,1.31,0.36,2.65,0.51,4h43.85  C398.88,619.16,398.69,617.82,398.49,616.5z M352.31,684.5h44.85c0.27-1.32,0.51-2.65,0.73-4h-44.68  C352.93,681.86,352.63,683.19,352.31,684.5z M397.12,608.5h-43.83c0.26,1.31,0.51,2.64,0.74,4h43.82  C397.63,611.15,397.39,609.82,397.12,608.5z M350.03,692.5h45.36c0.34-1.32,0.65-2.65,0.94-4h-45.09  C350.87,689.86,350.46,691.19,350.03,692.5z M395.34,600.5h-43.97c0.37,1.31,0.71,2.64,1.03,4h43.89  C395.99,603.16,395.68,601.82,395.34,600.5z M347.01,700.5h46.14c0.42-1.32,0.81-2.65,1.18-4h-45.71  C348.11,697.87,347.58,699.2,347.01,700.5z M393.09,592.5h-44.28c0.49,1.3,0.95,2.63,1.38,4h44.08  C393.9,595.15,393.51,593.82,393.09,592.5z M343.03,708.5h47.36c0.51-1.32,0.99-2.65,1.45-4h-46.68  C344.49,705.87,343.78,707.2,343.03,708.5z M390.32,584.5h-44.9c0.64,1.3,1.24,2.63,1.82,4h44.54  C391.31,587.15,390.83,585.82,390.32,584.5z M337.71,716.5h49.32c0.61-1.31,1.2-2.65,1.76-4h-48.21  C339.66,713.88,338.71,715.21,337.71,716.5z M386.96,576.5h-46.07c0.85,1.29,1.66,2.62,2.43,4h45.39  C388.15,579.15,387.57,577.82,386.96,576.5z M330.47,724.5h52.51c0.73-1.31,1.44-2.65,2.11-4h-50.71  C333.12,721.9,331.82,723.24,330.47,724.5z M382.89,568.5H334.7c0.87,0.96,1.71,1.95,2.54,2.98c0.27,0.33,0.54,0.67,0.8,1.02h46.97  C384.33,571.14,383.62,569.81,382.89,568.5z M319.87,732.5h58.23c0.88-1.31,1.73-2.64,2.55-4h-54.9  C323.86,729.97,321.9,731.3,319.87,732.5z M378.01,560.5H326c1.64,1.24,3.23,2.58,4.76,4h49.79  C379.74,563.15,378.89,561.82,378.01,560.5z M297.73,740.5h74.5c1.06-1.31,2.09-2.64,3.07-4h-63.45  C307.43,738.32,302.72,739.65,297.73,740.5z M372.13,552.5h-60.35c2.86,1.13,5.59,2.46,8.21,4h55.21  C374.22,555.14,373.2,553.81,372.13,552.5z M283.66,744.5H198.1c0.02,0.03,0.05,0.05,0.07,0.08c1.19,1.34,2.39,2.65,3.64,3.92  h163.34c1.25-1.27,2.46-2.58,3.65-3.92c0.02-0.03,0.05-0.05,0.07-0.08H283.66z M365.06,544.5H201.9c-1.26,1.29-2.5,2.63-3.7,4h72.13  c4.23-0.65,8.68-0.97,13.33-0.97c4.59,0,8.98,0.32,13.17,0.97h71.94C367.56,547.13,366.33,545.79,365.06,544.5z M210.48,756.5  h145.99c1.56-1.28,3.08-2.61,4.58-4H205.91C207.4,753.9,208.93,755.23,210.48,756.5z M356.38,536.5H210.57  c-1.55,1.27-3.08,2.6-4.57,4h154.95C359.46,539.11,357.93,537.78,356.38,536.5z M221.7,764.5h123.56c2.05-1.25,4.06-2.59,6.02-4  H215.67C217.63,761.91,219.64,763.25,221.7,764.5z M345.17,528.5H221.79c-2.06,1.25-4.06,2.58-6.02,4h135.41  C349.22,531.08,347.22,529.75,345.17,528.5z M237.8,772.5h91.41c3.06-1.2,6.03-2.53,8.91-4H228.86  C231.76,769.97,234.74,771.3,237.8,772.5z M329.14,520.5h-91.27c-3.06,1.19-6.04,2.52-8.93,4h109.1  C335.16,523.03,332.19,521.69,329.14,520.5z M283.66,780.5c11.86,0,22.92-1.33,33.18-4h-66.6  C260.56,779.17,271.7,780.5,283.66,780.5z M283.66,512.5c-11.94,0-23.06,1.33-33.36,4h66.47  C306.53,513.83,295.49,512.5,283.66,512.5z M255.3,736.5h-63.6c0.98,1.36,2,2.69,3.05,4h74.73  C264.46,739.65,259.73,738.32,255.3,736.5z M191.79,556.5h55.2c2.62-1.54,5.37-2.87,8.26-4h-60.39  C193.79,553.81,192.78,555.14,191.79,556.5z M241.35,728.5h-54.98c0.82,1.36,1.66,2.69,2.54,4h58.34  C245.21,731.29,243.24,729.96,241.35,728.5z M186.47,564.5h49.72c1.53-1.43,3.12-2.76,4.77-4H189  C188.13,561.82,187.28,563.15,186.47,564.5z M232.77,720.5h-50.83c0.67,1.35,1.38,2.69,2.11,4h52.61  C235.32,723.24,234.02,721.9,232.77,720.5z M182.03,572.5h46.91c0.26-0.35,0.52-0.69,0.79-1.02c0.82-1.03,1.67-2.02,2.53-2.98  h-48.12C183.41,569.81,182.7,571.14,182.03,572.5z M226.6,712.5h-48.34c0.56,1.35,1.14,2.69,1.75,4h49.44  C228.46,715.22,227.51,713.88,226.6,712.5z M178.33,580.5h45.36c0.77-1.38,1.57-2.71,2.41-4h-46.02  C179.48,577.82,178.89,579.15,178.33,580.5z M222.02,704.5h-46.8c0.45,1.35,0.94,2.68,1.44,4h47.48  C223.4,707.21,222.69,705.87,222.02,704.5z M175.28,588.5h44.51c0.58-1.37,1.18-2.7,1.82-4h-44.88  C176.22,585.82,175.74,587.15,175.28,588.5z M218.54,696.5h-45.81c0.37,1.35,0.77,2.68,1.18,4h46.25  C219.59,699.2,219.05,697.86,218.54,696.5z M172.79,596.5h44.07c0.43-1.37,0.89-2.7,1.37-4h-44.26  C173.55,593.82,173.16,595.15,172.79,596.5z M215.89,688.5h-45.14c0.28,1.35,0.6,2.68,0.93,4h45.44  C216.69,691.19,216.28,689.86,215.89,688.5z M171.73,600.5c-0.34,1.32-0.65,2.66-0.94,4h43.87c0.32-1.36,0.66-2.69,1.03-4H171.73z   M213.92,680.5h-44.73c0.22,1.35,0.46,2.68,0.72,4h44.92C214.5,683.19,214.2,681.86,213.92,680.5z M169.23,612.5h43.82  c0.22-1.36,0.47-2.69,0.73-4h-43.83C169.69,609.82,169.45,611.15,169.23,612.5z M212.47,672.5h-44.45c0.16,1.34,0.34,2.68,0.54,4  h44.57C212.9,675.19,212.68,673.86,212.47,672.5z M168.05,620.5h43.84c0.15-1.35,0.33-2.69,0.51-4h-43.81  C168.39,617.82,168.21,619.16,168.05,620.5z M211.47,664.5h-44.26c0.1,1.34,0.22,2.68,0.36,4h44.36  C211.76,667.18,211.61,665.85,211.47,664.5z M167.22,628.5h43.9c0.1-1.35,0.21-2.69,0.34-4h-43.87  C167.45,625.82,167.33,627.15,167.22,628.5z M210.86,656.5h-44.14c0.05,1.35,0.12,2.68,0.21,4h44.2  C211.03,659.18,210.94,657.85,210.86,656.5z M166.72,636.5h43.97c0.05-1.35,0.1-2.68,0.18-4h-43.93  C166.85,633.82,166.78,635.15,166.72,636.5z M210.59,648.5h-44.08c0.01,1.34,0.03,2.68,0.07,4h44.11  C210.64,651.18,210.6,649.85,210.59,648.5z M166.52,644.5h44.03c0-1.35,0.01-2.68,0.04-4h-44.01  C166.54,641.82,166.52,643.16,166.52,644.5z"/>
</svg>