<?xml version="1.0" encoding="UTF-8" standalone="no"?>
<!-- Created with Inkscape (http://www.inkscape.org/) -->

<svg
   xmlns:dc="http://purl.org/dc/elements/1.1/"
   xmlns:cc="http://creativecommons.org/ns#"
   xmlns:rdf="http://www.w3.org/1999/02/22-rdf-syntax-ns#"
   xmlns:svg="http://www.w3.org/2000/svg"
   xmlns="http://www.w3.org/2000/svg"
   xmlns:sodipodi="http://sodipodi.sourceforge.net/DTD/sodipodi-0.dtd"
   xmlns:inkscape="http://www.inkscape.org/namespaces/inkscape"
   width="541.4375"
   height="541.43744"
   id="svg3168"
   version="1.1"
   inkscape:version="0.48.4 r9939"
   sodipodi:docname="New document 4">
  <defs
     id="defs3170" />
  <sodipodi:namedview
     id="base"
     pagecolor="#ffffff"
     bordercolor="#666666"
     borderopacity="1.0"
     inkscape:pageopacity="0.0"
     inkscape:pageshadow="2"
     inkscape:zoom="0.24748737"
     inkscape:cx="-612.89609"
     inkscape:cy="147.0455"
     inkscape:document-units="px"
     inkscape:current-layer="layer1"
     showgrid="false"
     inkscape:snap-center="true"
     inkscape:object-nodes="true"
     fit-margin-top="0"
     fit-margin-left="0"
     fit-margin-right="0"
     fit-margin-bottom="0"
     inkscape:window-width="1920"
     inkscape:window-height="1018"
     inkscape:window-x="-8"
     inkscape:window-y="-8"
     inkscape:window-maximized="1" />
  <metadata
     id="metadata3173">
    <rdf:RDF>
      <cc:Work
         rdf:about="">
        <dc:format>image/svg+xml</dc:format>
        <dc:type
           rdf:resource="http://purl.org/dc/dcmitype/StillImage" />
        <dc:title></dc:title>
      </cc:Work>
    </rdf:RDF>
  </metadata>
  <g
     inkscape:label="Layer 1"
     inkscape:groupmode="layer"
     id="layer1"
     transform="translate(-78.58618,-210.44369)">
    <path
       inkscape:connector-curvature="0"
       id="path3204"
       d="m 349.30488,210.44369 c -149.51545,0 -270.7187,121.20325 -270.7187,270.71875 l 0,270.4687 259.375,0 c 3.7608,0.155 7.5448,0.25 11.3437,0.25 149.5155,0 270.7188,-121.2032 270.7188,-270.7187 0,-149.5155 -121.2033,-270.71875 -270.7188,-270.71875 z"
       style="fill:#ff5900;fill-opacity:1;stroke:none" />
    <path
       style="fill:#ffffff;fill-opacity:1;stroke:none"
       d="m 349.30493,273.28744 c -114.80003,0 -207.875,93.07494 -207.875,207.875 l 0,123.90625 0,83.75 0,62.8125 83.1875,0 0,-270.25 c 0,-68.64109 55.64016,-124.3125 124.28125,-124.3125 68.64109,0 124.28125,55.67141 124.28125,124.3125 0,68.64109 -55.64016,124.28125 -124.28125,124.28125 -25.09566,0 -48.463,-7.45836 -68,-20.25 l 0,89.34375 c 13.09042,8.05513 42.97659,13.74429 78.03125,14.03125 110.32856,-5.03362 198.25,-96.05383 198.25,-207.625 0,-114.80006 -93.07493,-207.875 -207.875,-207.875 z m -8.71875,415.53125 c 2.8876,0.1191 5.80191,0.21875 8.71875,0.21875 3.07049,0 6.11821,-0.087 9.15625,-0.21875 l -17.875,0 z"
       id="path3192"
       inkscape:connector-curvature="0" />
  </g>
</svg>
