<?xml version="1.0" encoding="utf-8"?>
<!-- Generator: Adobe Illustrator 17.0.0, SVG Export Plug-In . SVG Version: 6.00 Build 0)  -->
<!DOCTYPE svg PUBLIC "-//W3C//DTD SVG 1.1//EN" "http://www.w3.org/Graphics/SVG/1.1/DTD/svg11.dtd">
<svg version="1.1" id="图层_1" xmlns="http://www.w3.org/2000/svg" xmlns:xlink="http://www.w3.org/1999/xlink" x="0px" y="0px"
	 width="500px" height="500px" viewBox="0 0 500 500" enable-background="new 0 0 500 500" xml:space="preserve">
<g>
	<path fill="#179BD7" d="M411.899,134.328L411.899,134.328L411.899,134.328c-0.435,2.782-0.933,5.626-1.492,8.548
		c-19.226,98.709-85.001,132.809-169.007,132.809h-42.772c-10.273,0-18.931,7.46-20.531,17.594l0,0l0,0l-21.899,138.886
		l-6.201,39.369c-1.041,6.652,4.088,12.651,10.802,12.651h75.862c8.983,0,16.615-6.528,18.029-15.387l0.746-3.854l14.283-90.643
		l0.917-4.974c1.399-8.89,9.046-15.418,18.029-15.418h11.346c73.5,0,131.037-29.841,147.854-116.194
		c7.025-36.074,3.388-66.195-15.2-87.379C427.037,143.949,420.059,138.649,411.899,134.328z"/>
	<path fill="#222D65" d="M391.787,126.308c-2.938-0.855-5.968-1.632-9.077-2.331c-3.124-0.684-6.326-1.29-9.621-1.818
		c-11.532-1.865-24.168-2.751-37.706-2.751H221.117c-2.813,0-5.486,0.637-7.88,1.787c-5.269,2.533-9.185,7.522-10.134,13.631
		l-24.308,153.962l-0.699,4.492c1.601-10.134,10.258-17.594,20.531-17.594H241.4c84.006,0,149.781-34.115,169.007-132.809
		c0.575-2.922,1.057-5.766,1.492-8.548c-4.865-2.58-10.134-4.787-15.807-6.668C394.694,127.194,393.248,126.743,391.787,126.308z"/>
	<path fill="#253B80" d="M203.104,134.825c0.948-6.108,4.865-11.097,10.134-13.615c2.409-1.15,5.067-1.787,7.88-1.787h114.267
		c13.537,0,26.173,0.886,37.706,2.751c3.295,0.528,6.497,1.135,9.621,1.818c3.108,0.699,6.139,1.477,9.077,2.331
		c1.461,0.435,2.906,0.886,4.321,1.337c5.673,1.881,10.942,4.103,15.807,6.668c5.72-36.478-0.047-61.314-19.77-83.804
		c-21.744-24.759-60.988-35.359-111.205-35.359H135.153c-10.258,0-19.008,7.46-20.594,17.609L53.836,417.68
		c-1.197,7.616,4.678,14.485,12.356,14.485h90.005l22.598-143.378L203.104,134.825z"/>
</g>
</svg>
