<svg xmlns="http://www.w3.org/2000/svg" viewBox="0 0 240 234" enable-background="new 0 0 240 234"><radialGradient id="a" cx="-183.829" cy="512.474" r=".76" gradientTransform="matrix(220 0 0 -213 40525 109215)" gradientUnits="userSpaceOnUse"><stop offset="0" stop-color="#4B2D4F" stop-opacity=".98"/><stop offset="1" stop-color="#180024"/></radialGradient><path fill="url(#a)" d="M10 10h220v214H10z"/><path fill="#E579FF" d="M10 10h220v214H10V10zM0 234h240V0H0v234zM144 98.8c0-1.2 0-4.1-.5-9.7 0-.8.1-1 .8-1.3 6.1-2.5 20.4-6.9 36.6-6.9.8 0 1.2.2 1.2 1v14.5c0 .8-.3 1-1.1 1-6.3-.3-15.4.5-18.9 2v63c0 .8-.3 1.2-1.2 1.2h-15.7c-.8 0-1.2-.3-1.2-1.2V98.8zm-64 9.1c2.3.2 4.1.2 8.1.2 11.7 0 22.7-4.1 22.7-20 0-12.7-7.8-19.1-21.2-19.1-4 0-7.8.2-9.6.3v38.6zM62.3 54.8c0-.7.2-1.2 1-1.2 6.4-.3 15.8-.5 25.7-.5 27.7 0 39.8 15.2 39.8 34.7 0 25.4-18.4 36.3-41 36.3-3.8 0-5.1-.2-7.8-.2v38.4c0 .8-.3 1.2-1.2 1.2H63.4c-.8 0-1.2-.3-1.2-1.2V54.8h.1z"/></svg>