<?xml version="1.0" encoding="utf-8"?>
<!-- Generator: Adobe Illustrator 17.0.0, SVG Export Plug-In . SVG Version: 6.00 Build 0)  -->
<!DOCTYPE svg PUBLIC "-//W3C//DTD SVG 1.1//EN" "http://www.w3.org/Graphics/SVG/1.1/DTD/svg11.dtd">
<svg version="1.1" id="图层_1" xmlns="http://www.w3.org/2000/svg" xmlns:xlink="http://www.w3.org/1999/xlink" x="0px" y="0px"
	 width="500px" height="500px" viewBox="0 0 500 500" style="enable-background:new 0 0 500 500;" xml:space="preserve">
<style type="text/css">
	.st0{fill:#FF0090;}
	.st1{fill:url(#SVGID_1_);}
	.st2{fill:url(#SVGID_2_);}
	.st3{fill:url(#SVGID_3_);}
	.st4{fill:url(#SVGID_4_);}
</style>
<g>
	<path class="st0" d="M34.3,316.2C9,181.5,75.9,51.5,229.7,34.2c-21.2-22.6-50.2-22.8-63.5-20c-23.5,7.5-22.8,22.7-49.5,42.4
		c-26.5,15.1-39.9,3.5-59.2,19.2c-19.3,15.6-5.8,51.4-13.9,58.4c-8,13.9-32.9,26.3-37.5,43.9c-3.7,22.5,10.2,38.5,9.6,57.8
		c1.6,16.1-16,25.1-13.5,38.2c7.6,21.3,22.2,34.1,29,40C32.9,315.1,34.6,317.8,34.3,316.2L34.3,316.2z"/>
	
		<radialGradient id="SVGID_1_" cx="-117.9179" cy="130.9232" r="1.7362" gradientTransform="matrix(214.6333 0 0 153.537 25657.8848 -19954.916)" gradientUnits="userSpaceOnUse">
		<stop  offset="0" style="stop-color:#F80090"/>
		<stop  offset="1" style="stop-color:#4D008E"/>
	</radialGradient>
	<path class="st1" d="M307.8,129.7c-5.6,0-10.2-4.6-10.2-10.2c0-5.6,4.6-10.2,10.2-10.2s10.2,4.6,10.2,10.2S313.5,129.7,307.8,129.7
		L307.8,129.7z M40.2,330.9c-24.4-117.1,51-215,197-166.8c85.6,50.2,193.3,46.9,198.2,14.5c12-38.8-54.6-118.8-154.1-139.7
		C83.8,0.4-22.7,213.8,40.2,330.9L40.2,330.9z"/>
	
		<radialGradient id="SVGID_2_" cx="-118.196" cy="130.0726" r="1.5789" gradientTransform="matrix(239.2321 0 0 180.9694 28628.3438 -23384.5547)" gradientUnits="userSpaceOnUse">
		<stop  offset="0" style="stop-color:#57008E"/>
		<stop  offset="0.2917" style="stop-color:#5C008E"/>
		<stop  offset="1" style="stop-color:#F80090"/>
	</radialGradient>
	<path class="st2" d="M364.2,344c29.3,3.2,57.2-3.9,83-24.9c-39,43.5-87.7,65.3-143.6,71.3c26.7,22.7,52.4,32.9,77.1,28.5
		c-68.4,18.9-125.8-1.9-195.5-71.4c-3.7,18.7,16.1,47.8,36.5,66.4c-118.3-51.1-128.6-210.6,15.4-249.8
		C87.8,92.3,3.4,231.7,44.9,345.9c40.6,88,148.7,155.7,267.3,140.8c57.6-7.1,143.5-46.7,178.7-140.8c-24.8,22.2-69,41.6-88.7,43
		c66.8-33.4,102.9-90.1,92.8-167.7c-13.8,33-32.1,58.3-55,75.6c48.5-75.6,40.2-114.7,4.3-157.7C469.8,209.8,436.6,288.3,364.2,344
		L364.2,344z"/>
	
		<linearGradient id="SVGID_3_" gradientUnits="userSpaceOnUse" x1="-116.1052" y1="137.7194" x2="-114.8897" y2="139.3487" gradientTransform="matrix(75.1919 0 0 59.9288 8939.3232 -7904.5303)">
		<stop  offset="0" style="stop-color:#F70090"/>
		<stop  offset="0.6697" style="stop-color:#E50090"/>
		<stop  offset="0.8271" style="stop-color:#D6008F;stop-opacity:0.2"/>
		<stop  offset="1" style="stop-color:#C10090;stop-opacity:0"/>
	</linearGradient>
	<path class="st3" d="M329.9,425.4c-5.1-0.9,11.5,6.7-20.5-1.8s-64.6-16.6-124.3-76.1c-3.7,18.7,16.1,47.8,36.5,66.4
		c55,38.3,17.6,20.4,101.3,49.3C329.6,450,329.9,438.1,329.9,425.4L329.9,425.4z"/>
	
		<linearGradient id="SVGID_4_" gradientUnits="userSpaceOnUse" x1="-114.0556" y1="145.5657" x2="-114.4539" y2="145.1492" gradientTransform="matrix(54.248 0 0 29.6197 6391.207 -4198.1519)">
		<stop  offset="0" style="stop-color:#B2008F;stop-opacity:0.1513"/>
		<stop  offset="0.4004" style="stop-color:#F70090;stop-opacity:0.4"/>
		<stop  offset="0.649" style="stop-color:#F60090;stop-opacity:0.8917"/>
		<stop  offset="1" style="stop-color:#FF0090"/>
	</linearGradient>
	<path class="st4" d="M223.5,124.5c0,0,7.3-10.7,10.1-15.6c3.5-5.9,8.8-16.8,8.8-16.8s-56.1-18.3-69.8-20.5
		c-42.7,11.1-42.9,29-19,56.4C156.3,131.1,223.5,124.5,223.5,124.5L223.5,124.5z"/>
</g>
</svg>
