<?xml version="1.0" encoding="utf-8"?>
<!-- Generator: Adobe Illustrator 17.0.0, SVG Export Plug-In . SVG Version: 6.00 Build 0)  -->
<!DOCTYPE svg PUBLIC "-//W3C//DTD SVG 1.1//EN" "http://www.w3.org/Graphics/SVG/1.1/DTD/svg11.dtd">
<svg version="1.1"
	 id="Capa_1" inkscape:version="0.48.4 r9939" sodipodi:docname="real_madrid_cf.svg" xmlns:dc="http://purl.org/dc/elements/1.1/" xmlns:cc="http://creativecommons.org/ns#" xmlns:rdf="http://www.w3.org/1999/02/22-rdf-syntax-ns#" xmlns:svg="http://www.w3.org/2000/svg" xmlns:inkscape="http://www.inkscape.org/namespaces/inkscape" xmlns:sodipodi="http://sodipodi.sourceforge.net/DTD/sodipodi-0.dtd"
	 xmlns="http://www.w3.org/2000/svg" xmlns:xlink="http://www.w3.org/1999/xlink" x="0px" y="0px" width="500px" height="500px"
	 viewBox="-178.525 -150.23 500 500" enable-background="new -178.525 -150.23 500 500" xml:space="preserve">
<sodipodi:namedview  id="namedview125" inkscape:window-y="-8" inkscape:current-layer="Capa_1" inkscape:window-maximized="1" inkscape:pageopacity="0" inkscape:window-width="1920" inkscape:window-height="1018" inkscape:pageshadow="2" inkscape:window-x="-8" fit-margin-top="0" guidetolerance="10" gridtolerance="10" fit-margin-left="0" objecttolerance="10" showgrid="false" inkscape:zoom="12.528873" borderopacity="1" pagecolor="#ffffff" bordercolor="#666666" inkscape:cx="71.434998" inkscape:cy="167.00336" fit-margin-bottom="0" fit-margin-right="0">
	</sodipodi:namedview>
<g>
	<path id="path3" inkscape:connector-curvature="0" fill="#00529F" d="M187.839-32.186c1.038-1.566,1.665-3.276,1.665-5.018
		c0-0.49-0.043-0.98-0.129-1.467c-0.346-1.952-1.403-3.609-2.947-4.787c0.523-1.105,0.855-2.294,0.855-3.525
		c0-3.437-2.14-6.498-5.251-7.744c1.376-1.52,2.173-3.462,2.173-5.55c0-3.944-2.713-7.231-6.454-8.093
		c0.535-1.121,0.898-2.314,0.898-3.571c0-4.6-3.743-8.342-8.341-8.342c-0.266,0-0.532,0.082-0.8,0.109
		c0.189-0.699,0.317-1.411,0.317-2.143c0-4.601-3.743-8.344-8.34-8.344c-0.859,0-1.697,0.181-2.512,0.441
		c-0.014-4.591-3.749-8.32-8.343-8.32c-1.385,0-2.69,0.425-3.891,1.073c-1.165-3.29-4.228-5.638-7.772-5.638
		c-2.529,0-4.84,1.182-6.422,3.124c-1.511-1.337-3.446-2.126-5.482-2.126c0,0-0.334,0.038-0.584,0.069
		c0.128-0.58,0.21-1.169,0.21-1.771c0-4.602-3.744-8.345-8.345-8.345c-1.062,0-2.087,0.276-3.073,0.673
		c-0.023-2.197-0.881-4.261-2.435-5.817c-1.575-1.576-3.672-2.444-5.901-2.444c-1.46,0-2.831,0.471-4.09,1.194
		c-1.17-3.263-4.221-5.592-7.753-5.592c-1.904,0-3.687,0.666-5.157,1.832c-1.514-2.398-4.118-3.952-6.99-3.952
		c-0.741,0-1.468,0.169-2.189,0.367c-1.369-1.45-3.034-2.624-4.908-3.341c0,0-0.44-0.141-0.838-0.268c0-0.802,0-3.285,0-4.34
		c1.193,0,4.871,0,4.871,0c0.449,0,0.813-0.363,0.813-0.812v-5.775c0-0.448-0.364-0.812-0.813-0.812c0,0-3.678,0-4.871,0
		c0-1.15,0-4.304,0-4.304c0-0.448-0.363-0.812-0.813-0.812h-6.084c-0.449,0-0.812,0.364-0.812,0.812c0,0,0,3.154,0,4.304
		c-1.193,0-4.865,0-4.865,0c-0.449,0-0.812,0.363-0.812,0.812v5.775c0,0.449,0.363,0.812,0.812,0.812c0,0,3.673,0,4.865,0
		c0,1.054,0,3.538,0,4.34c-0.408,0.131-0.836,0.268-0.836,0.268c-1.872,0.716-3.538,1.889-4.91,3.341
		c-0.721-0.199-1.449-0.368-2.188-0.368c-2.873,0-5.477,1.554-6.99,3.952c-1.469-1.166-3.254-1.832-5.157-1.832
		c-3.53,0-6.583,2.329-7.753,5.591c-1.256-0.723-2.625-1.193-4.09-1.193c-4.571,0-8.287,3.699-8.334,8.261
		c-0.988-0.397-2.014-0.673-3.073-0.673c-4.602,0-8.346,3.744-8.346,8.345c0,0.598,0.084,1.188,0.214,1.771
		c-0.253-0.03-0.588-0.069-0.588-0.069c-2.032,0-3.966,0.789-5.482,2.125c-1.576-1.942-3.884-3.124-6.415-3.124
		c-3.555,0-6.616,2.349-7.77,5.639c-1.211-0.65-2.518-1.074-3.901-1.074c-4.591,0-8.325,3.729-8.34,8.319
		c-0.815-0.261-1.647-0.439-2.506-0.439c-4.601,0-8.344,3.744-8.344,8.344c0,0.734,0.126,1.445,0.313,2.143
		c-0.267-0.026-0.534-0.109-0.799-0.109c-4.6,0-8.342,3.742-8.342,8.342c0,1.259,0.363,2.452,0.902,3.571
		c-3.742,0.862-6.454,4.149-6.454,8.092c0,2.087,0.796,4.03,2.17,5.55c-3.109,1.248-5.247,4.307-5.247,7.744
		c0,1.231,0.329,2.419,0.847,3.524c-1.542,1.178-2.597,2.838-2.943,4.791c-0.086,0.486-0.129,0.975-0.129,1.464
		c0,1.742,0.626,3.452,1.664,5.018c-1.109,1.146-1.721,2.592-1.721,4.261c0,0.042,0,0.083,0.001,0.126
		c0.056,3.259,2.24,6.431,4.245,7.997c3.761,2.939,7.858,3.342,11.357,1.262c3.293,2.353,7.403,3.204,11.337,2.381
		c-0.039,0.251-0.168,0.489-0.168,0.742c0,0.736,0.162,1.472,0.487,2.16c0.586,1.257,1.603,2.202,2.86,2.659
		c0.785,0.285,1.614,0.335,2.426,0.2c-0.083,0.136-0.152,0.281-0.207,0.434c-0.241,0.67-0.193,1.449,0.133,2.14
		c0.304,0.647,0.842,1.139,1.513,1.381c0.179,0.065,0.36,0.09,0.544,0.105l-1.171,4.782c-0.058,0.239,0.05,0.487,0.265,0.607
		l4.802,2.673c-0.413,0.522-0.649,1.167-0.649,1.836c0,0.415,0.087,0.835,0.271,1.236c0.729,1.536,2.363,2.181,3.805,1.508
		c23.94-11.297,49.695-17.023,76.553-17.023c26.859,0,52.615,5.726,76.554,17.021c1.452,0.677,3.085,0.031,3.801-1.502
		c0.188-0.403,0.278-0.828,0.278-1.246c0-0.667-0.235-1.309-0.65-1.83l4.798-2.674c0.214-0.119,0.322-0.367,0.265-0.605
		l-1.172-4.807c0.868-0.105,1.665-0.609,2.066-1.462c0.187-0.398,0.281-0.826,0.281-1.245c0-0.307-0.051-0.608-0.153-0.889
		c-0.075-0.206-0.183-0.392-0.306-0.567c2.175,0.369,4.406-0.641,5.389-2.732c0.32-0.683,0.481-1.416,0.481-2.148
		c0-0.257-0.13-0.498-0.171-0.753c3.935,0.822,8.049-0.029,11.344-2.38c3.495,2.078,7.591,1.675,11.354-1.261
		c2.004-1.567,4.186-4.737,4.242-7.997c0.001-0.042,0.001-0.083,0.001-0.125C189.561-29.593,188.949-31.039,187.839-32.186
		L187.839-32.186z M-2.021-68.754c0,0.188,0.03,0.368,0.043,0.553c-4.057,0.901-8.683,2.111-12.443,3.588
		c-2.678,1.054-4.903,2.375-6.716,3.709c4.071-8.665,10.966-14.763,22.26-20.638c0.117,1.891,0.856,3.644,2.117,5.035
		C0.123-75.262-2.021-72.2-2.021-68.754z M64.904-96.742c-0.726,1.172-1.145,2.495-1.145,3.875c0,1.382,0.419,2.706,1.145,3.879
		c0,0.18,0,2.05,0,3.61c-13.277-1.913-30.288-0.638-43.557,6.244c6.342-15.87,21.035-28.433,42.415-27.202
		c0.004,1.373,0.42,2.688,1.142,3.853C64.904-102.179,64.904-97.045,64.904-96.742z M77.409-85.378c0-1.561,0-3.43,0-3.61
		c0.723-1.169,1.144-2.492,1.144-3.879c0-1.386-0.42-2.708-1.144-3.875c0-0.304,0-5.436,0-5.74c0.719-1.16,1.136-2.474,1.14-3.853
		c21.38-1.23,36.072,11.332,42.414,27.202C107.695-86.016,90.684-87.291,77.409-85.378z M156.731-64.613
		c-3.766-1.479-8.386-2.688-12.437-3.588c0.012-0.185,0.043-0.366,0.043-0.553c0-3.444-2.146-6.507-5.264-7.752
		c1.26-1.391,1.998-3.144,2.116-5.038c11.293,5.877,18.187,11.973,22.257,20.639C161.634-62.239,159.409-63.559,156.731-64.613
		L156.731-64.613z"/>
	<path id="path5" inkscape:connector-curvature="0" fill="#EE324E" d="M165.932-23.743c-1.223,0.069-2.444-0.147-3.532-0.747
		c-2.122-1.169-3.416-3.385-3.416-5.769c0-0.152,0.013-0.306,0.023-0.459c0.778-0.943,1.357-2.008,1.666-3.203
		c0.181-0.698,0.271-1.405,0.271-2.108c0-1.475-0.395-2.93-1.165-4.235c-1.14-1.932-2.966-3.304-5.141-3.862
		c-4.469-1.152-9.047,1.553-10.208,6.03c-0.002,0.008-0.129,0.903-0.199,1.403c-1.622,2.044-4.264,2.958-6.801,2.307
		c-2.829-0.729-4.743-3.198-4.884-6.042c5.986,1.165,9.65-1.073,11.141-6.885c0.311-1.209,0.466-2.327,0.466-3.355
		c0-3.134-1.502-5.423-4.426-6.994c0.002-0.095,0.01-0.193,0.01-0.287c0-1.178-0.237-2.222-0.602-3.185
		c2.562-1.065,4.449-3.313,5.012-5.984c3.988,0.888,8.508,2.076,12.187,3.52c3.419,1.345,6.083,3.159,8.054,4.846
		c2.042,5.127,3.225,11.132,3.831,18.438c-2.049,0.882-3.712,2.841-4.905,5.953c-0.597,1.572-0.895,3.012-0.895,4.326
		C162.417-27.46,163.621-25.392,165.932-23.743L165.932-23.743z"/>
	<path id="path7" inkscape:connector-curvature="0" fill="#EE324E" d="M118.462-44.045c-1.5,2.418-4.343,3.667-7.172,2.938
		c-2.804-0.72-4.8-3.229-4.917-6.117c0.63-1.193,0.995-2.515,0.995-3.874c0-4.623-3.759-8.384-8.38-8.384
		c-4.624,0-8.385,3.761-8.385,8.384c0,0.696,0.134,1.374,0.307,2.04c-0.885,2.743-3.376,4.586-6.262,4.586
		c-2.92,0-5.336-1.934-6.178-4.65c6.036-0.38,9.019-3.449,9.019-9.426c0-5.085-2.135-8.047-6.474-9.079
		c-0.717-3.03-2.498-5.02-5.271-5.987c1.736-1.383,2.812-3.475,2.812-5.758c0-1.389-0.42-2.71-1.144-3.875c0-0.078,0-0.48,0-1.034
		c13.469-1.974,30.895-0.632,44.138,6.677c1.314,3.635,2.204,7.42,2.637,11.238c-1.5,0.746-2.716,1.99-3.627,3.72
		c-4.453-0.074-7.243,2.284-8.51,7.203c-0.309,1.205-0.465,2.32-0.465,3.348C111.582-48.169,113.878-45.526,118.462-44.045z"/>
	<path id="path9" inkscape:connector-curvature="0" fill="#EE324E" d="M66.57-73.614c-2.773,0.967-4.554,2.958-5.271,5.987
		c-4.34,1.033-6.476,3.995-6.476,9.079c0,5.977,2.982,9.045,9.025,9.426c-0.848,2.716-3.265,4.65-6.185,4.65
		c-2.843,0-5.388-1.885-6.254-4.586c0.17-0.67,0.3-1.351,0.3-2.04c0-2.241-0.872-4.346-2.455-5.929
		c-1.583-1.584-3.688-2.456-5.929-2.456c-4.624,0-8.386,3.761-8.386,8.384c0,1.343,0.368,2.667,1.001,3.874
		c-0.115,2.888-2.112,5.396-4.92,6.117c-2.829,0.729-5.673-0.52-7.169-2.938c4.585-1.482,6.88-4.124,6.88-8.051
		c0-1.028-0.155-2.143-0.465-3.347c-1.269-4.919-4.057-7.277-8.511-7.203c-0.907-1.728-2.125-2.972-3.631-3.721
		c0.433-3.818,1.323-7.602,2.637-11.237c13.244-7.31,30.671-8.65,44.142-6.677c0,0.554,0,0.956,0,1.034
		c-0.726,1.17-1.145,2.492-1.145,3.875C63.758-77.09,64.834-74.998,66.57-73.614z"/>
	<path id="path11" inkscape:connector-curvature="0" fill="#EE324E" d="M2.587-57.66c-2.922,1.569-4.421,3.857-4.421,6.992
		c0,1.03,0.156,2.149,0.467,3.357c1.488,5.814,5.152,8.052,11.136,6.885c-0.135,2.843-2.05,5.312-4.888,6.042
		c-2.535,0.651-5.18-0.263-6.797-2.307c-0.063-0.437-0.199-1.393-0.199-1.393c-1.158-4.488-5.737-7.194-10.211-6.041
		c-2.17,0.558-3.993,1.927-5.133,3.857c-0.772,1.307-1.167,2.766-1.167,4.244c0,0.701,0.089,1.407,0.268,2.102
		c0.305,1.192,0.885,2.257,1.666,3.204c0.01,0.15,0.022,0.3,0.022,0.45c0,2.389-1.292,4.61-3.412,5.777
		c-1.089,0.599-2.312,0.815-3.532,0.748c2.308-1.648,3.512-3.717,3.512-6.288c0-1.315-0.3-2.755-0.897-4.327
		c-1.185-3.112-2.848-5.072-4.908-5.956c0.605-7.304,1.79-13.308,3.831-18.434c1.972-1.687,4.635-3.503,8.056-4.849
		c3.673-1.442,8.198-2.63,12.191-3.52c0.563,2.671,2.448,4.921,5.01,5.985c-0.366,0.968-0.602,2.014-0.602,3.186
		C2.577-57.852,2.585-57.755,2.587-57.66z"/>
	<path id="path13" inkscape:connector-curvature="0" fill="#EE324E" d="M143.326-26.869c1.68-0.446,3.266-1.156,4.703-2.127
		c0.756,0.49,1.561,0.884,2.438,1.107c0.002,0,0.266,0.048,0.531,0.096c0.38,1.663,1.054,3.271,1.97,4.747
		C149.779-24.403,146.561-25.678,143.326-26.869z"/>
	<path id="path15" inkscape:connector-curvature="0" fill="#EE324E" d="M71.156-39.711c0,0-2.529,0.047-4.768,0.089
		c2.175-1.656,3.821-3.861,4.768-6.415c0.947,2.553,2.593,4.758,4.769,6.415C73.686-39.665,71.156-39.711,71.156-39.711z"/>
	<path id="path17" inkscape:connector-curvature="0" fill="#EE324E" d="M-10.652-23.046c0.917-1.476,1.59-3.085,1.966-4.746
		c0.267-0.049,0.534-0.097,0.534-0.097c0.871-0.222,1.68-0.617,2.439-1.107c1.42,0.959,3.02,1.673,4.708,2.123
		C-4.249-25.678-7.467-24.402-10.652-23.046z"/>
	<path id="path19" inkscape:connector-curvature="0" fill="#EE324E" d="M14.666-31.95c1.647-2.132,2.595-4.684,2.867-7.358
		c1.541,2.237,3.671,3.971,6.174,5.045C20.655-33.557,17.64-32.784,14.666-31.95z"/>
	<path id="path21" inkscape:connector-curvature="0" fill="#EE324E" d="M39.784-37.333c1.607-1.532,2.861-3.376,3.675-5.406
		c0.585-0.01,1.158-0.125,1.727-0.254c1.3,1.784,2.992,3.271,4.949,4.364C46.682-38.283,43.229-37.851,39.784-37.333z"/>
	<path id="path23" inkscape:connector-curvature="0" fill="#EE324E" d="M92.175-38.628c1.957-1.092,3.651-2.579,4.956-4.364
		c0.564,0.129,1.134,0.244,1.72,0.254c0.817,2.031,2.072,3.876,3.677,5.406C99.085-37.85,95.631-38.283,92.175-38.628z"/>
	<path id="path25" inkscape:connector-curvature="0" fill="#EE324E" d="M118.607-34.265c2.505-1.073,4.633-2.808,6.173-5.045
		c0.274,2.674,1.224,5.226,2.87,7.359C124.676-32.784,121.659-33.557,118.607-34.265z"/>
	<path id="path27" inkscape:connector-curvature="0" fill="#FFFFFF" d="M55.652-117.92c0-2.044,1.666-3.708,3.713-3.708
		c2.044,0,3.709,1.663,3.709,3.708s-1.664,3.709-3.709,3.709C57.319-114.211,55.652-115.875,55.652-117.92z"/>
	<path id="path29" inkscape:connector-curvature="0" fill="#FFFFFF" d="M67.447-106.359c0-2.046,1.664-3.71,3.709-3.71
		c2.045,0,3.709,1.665,3.709,3.71c0,2.044-1.664,3.707-3.709,3.707C69.111-102.651,67.447-104.314,67.447-106.359z"/>
	<path id="path31" inkscape:connector-curvature="0" fill="#FFFFFF" d="M67.447-92.867c0-2.045,1.664-3.709,3.709-3.709
		c2.045,0,3.709,1.665,3.709,3.709c0,2.047-1.664,3.712-3.709,3.712C69.111-89.156,67.447-90.82,67.447-92.867z"/>
	<path id="path33" inkscape:connector-curvature="0" fill="#FFFFFF" d="M67.447-79.373c0-2.044,1.664-3.707,3.709-3.707
		c2.045,0,3.709,1.663,3.709,3.707s-1.664,3.707-3.709,3.707C69.111-75.665,67.447-77.328,67.447-79.373z"/>
	<path id="path35" inkscape:connector-curvature="0" fill="#FFFFFF" d="M43.513-115.797c0-0.991,0.386-1.922,1.086-2.622
		s1.63-1.086,2.619-1.086c2.044,0,3.708,1.663,3.708,3.707c0,2.043-1.663,3.706-3.708,3.706
		C45.176-112.09,43.513-113.753,43.513-115.797z"/>
	<path id="path37" inkscape:connector-curvature="0" fill="#FFFFFF" d="M31.666-111.398c0-2.045,1.664-3.709,3.709-3.709
		c2.044,0,3.707,1.665,3.707,3.709c0,2.043-1.663,3.706-3.707,3.706C33.33-107.692,31.666-109.355,31.666-111.398z"/>
	<path id="path39" inkscape:connector-curvature="0" fill="#FFFFFF" d="M20.257-103.81c0-2.045,1.665-3.709,3.711-3.709
		c0.988,0,1.918,0.386,2.618,1.086c0.701,0.701,1.086,1.632,1.086,2.623c0,2.045-1.662,3.709-3.705,3.709
		C21.922-100.101,20.257-101.765,20.257-103.81z"/>
	<path id="path41" inkscape:connector-curvature="0" fill="#FFFFFF" d="M11.545-93.764c0-2.045,1.662-3.71,3.704-3.71
		c2.045,0,3.71,1.665,3.71,3.71c0,2.043-1.665,3.704-3.71,3.704C13.206-90.06,11.545-91.722,11.545-93.764z"/>
	<path id="path43" inkscape:connector-curvature="0" fill="#FFFFFF" d="M-0.359-94.764c0-2.043,1.665-3.704,3.712-3.704
		c0.989,0,1.919,0.386,2.619,1.086c0.7,0.699,1.086,1.629,1.086,2.619c0,2.047-1.662,3.713-3.705,3.713
		C1.306-91.051-0.359-92.717-0.359-94.764z"/>
	<path id="path45" inkscape:connector-curvature="0" fill="#FFFFFF" d="M-12.03-90.196c0-2.045,1.665-3.71,3.712-3.71
		c2.043,0,3.704,1.665,3.704,3.71c0,2.044-1.662,3.709-3.704,3.709C-10.365-86.488-12.03-88.152-12.03-90.196z"/>
	<path id="path47" inkscape:connector-curvature="0" fill="#FFFFFF" d="M-22.878-82.318c0-2.044,1.665-3.708,3.713-3.708
		c2.042,0,3.704,1.664,3.704,3.708c0,2.045-1.662,3.71-3.704,3.71C-21.212-78.608-22.878-80.272-22.878-82.318z"/>
	<path id="path49" inkscape:connector-curvature="0" fill="#FFFFFF" d="M-31.699-71.941c0-2.046,1.662-3.711,3.704-3.711
		c2.046,0,3.712,1.665,3.712,3.711c0,2.044-1.666,3.708-3.712,3.708C-30.038-68.233-31.699-69.896-31.699-71.941z"/>
	<path id="path51" inkscape:connector-curvature="0" fill="#FFFFFF" d="M-37.255-60.278c0-2.043,1.665-3.705,3.712-3.705
		c2.045,0,3.709,1.662,3.709,3.705c0,2.047-1.665,3.713-3.709,3.713C-35.591-56.564-37.255-58.23-37.255-60.278z"/>
	<path id="path53" inkscape:connector-curvature="0" fill="#FFFFFF" d="M-40.334-46.983c0-2.043,1.665-3.704,3.709-3.704
		c2.044,0,3.707,1.661,3.707,3.704c0,2.045-1.663,3.71-3.707,3.71C-38.67-43.273-40.334-44.938-40.334-46.983z"/>
	<path id="path55" inkscape:connector-curvature="0" fill="#FFFFFF" d="M5.701-82.056c0-0.99,0.386-1.922,1.088-2.624
		c0.702-0.701,1.632-1.087,2.62-1.087c2.044,0,3.707,1.665,3.707,3.711c0,2.044-1.663,3.708-3.707,3.708
		C7.365-78.349,5.701-80.012,5.701-82.056z"/>
	<path id="path57" inkscape:connector-curvature="0" fill="#FFFFFF" d="M2.617-68.754c0-2.044,1.662-3.707,3.704-3.707
		c2.045,0,3.709,1.664,3.709,3.707c0,2.044-1.665,3.708-3.709,3.708C4.278-65.046,2.617-66.709,2.617-68.754z"/>
	<path id="path59" inkscape:connector-curvature="0" fill="#FFFFFF" d="M64.487-60.095c0-3.678,2.991-6.67,6.669-6.67
		c3.678,0,6.67,2.993,6.67,6.67s-2.992,6.671-6.67,6.671C67.479-53.424,64.487-56.417,64.487-60.095z"/>
	<path id="path61" inkscape:connector-curvature="0" fill="#FFFFFF" d="M10.669-47.129c-1.535-0.906-2.625-2.357-3.07-4.085
		c-0.914-3.563,1.241-7.206,4.803-8.121c3.561-0.916,7.205,1.238,8.123,4.802l0,0c0.917,3.558-1.236,7.2-4.798,8.119
		C14-45.969,12.204-46.223,10.669-47.129z"/>
	<path id="path63" inkscape:connector-curvature="0" fill="#FFFFFF" d="M-41.038-26.41c-1.77-3.221-0.592-7.287,2.629-9.061
		c1.563-0.861,3.369-1.059,5.082-0.562c1.71,0.498,3.125,1.631,3.981,3.191c0,0.001,0,0.001,0,0.001
		c1.773,3.219,0.595,7.283-2.626,9.059C-35.193-22.011-39.26-23.189-41.038-26.41z"/>
	<path id="path65" inkscape:connector-curvature="0" fill="#FFFFFF" d="M79.244-117.92c0-0.991,0.386-1.923,1.085-2.624
		c0.699-0.699,1.627-1.085,2.617-1.085c2.047,0,3.713,1.663,3.713,3.708s-1.666,3.709-3.713,3.709
		C80.904-114.211,79.244-115.875,79.244-117.92z"/>
	<path id="path67" inkscape:connector-curvature="0" fill="#FFFFFF" d="M91.39-115.797c0-2.044,1.66-3.707,3.702-3.707
		c2.045,0,3.711,1.663,3.711,3.707c0,2.043-1.666,3.706-3.711,3.706C93.05-112.09,91.39-113.753,91.39-115.797z"/>
	<path id="path69" inkscape:connector-curvature="0" fill="#FFFFFF" d="M103.23-111.398c0-2.045,1.663-3.709,3.706-3.709
		c2.046,0,3.711,1.665,3.711,3.709c0,2.043-1.665,3.706-3.711,3.706C104.893-107.692,103.23-109.355,103.23-111.398z"/>
	<path id="path71" inkscape:connector-curvature="0" fill="#FFFFFF" d="M114.638-103.81c0-2.045,1.663-3.709,3.706-3.709
		c2.046,0,3.71,1.665,3.71,3.709c0,2.045-1.664,3.709-3.71,3.709C116.301-100.101,114.638-101.765,114.638-103.81z"/>
	<path id="path73" inkscape:connector-curvature="0" fill="#FFFFFF" d="M123.354-93.764c0-2.045,1.663-3.71,3.709-3.71
		c0.99,0,1.919,0.386,2.62,1.086c0.7,0.7,1.086,1.633,1.086,2.624c0,2.043-1.663,3.704-3.706,3.704
		C125.017-90.06,123.354-91.722,123.354-93.764z"/>
	<path id="path75" inkscape:connector-curvature="0" fill="#FFFFFF" d="M135.254-94.764c0-2.043,1.666-3.704,3.712-3.704
		c2.043,0,3.706,1.662,3.706,3.704c0,2.047-1.663,3.713-3.706,3.713C136.92-91.051,135.254-92.717,135.254-94.764z"/>
	<path id="path77" inkscape:connector-curvature="0" fill="#FFFFFF" d="M146.925-90.196c0-2.045,1.661-3.71,3.704-3.71
		c2.047,0,3.713,1.665,3.713,3.71c0,2.044-1.666,3.709-3.713,3.709C148.586-86.488,146.925-88.152,146.925-90.196z"/>
	<path id="path79" inkscape:connector-curvature="0" fill="#FFFFFF" d="M157.772-82.318c0-2.044,1.665-3.708,3.711-3.708
		c2.043,0,3.705,1.664,3.705,3.708c0,2.045-1.661,3.71-3.705,3.71C159.437-78.608,157.772-80.272,157.772-82.318z"/>
	<path id="path81" inkscape:connector-curvature="0" fill="#FFFFFF" d="M166.597-71.941c0-2.046,1.665-3.711,3.71-3.711
		c2.044,0,3.709,1.665,3.709,3.711c0,2.044-1.665,3.708-3.709,3.708C168.262-68.233,166.597-69.896,166.597-71.941z"/>
	<path id="path83" inkscape:connector-curvature="0" fill="#FFFFFF" d="M172.154-60.278c0-2.043,1.662-3.705,3.706-3.705
		s3.709,1.662,3.709,3.705c0,2.047-1.664,3.713-3.709,3.713C173.816-56.564,172.154-58.23,172.154-60.278z"/>
	<path id="path85" inkscape:connector-curvature="0" fill="#FFFFFF" d="M175.229-46.983c0-2.043,1.666-3.704,3.713-3.704
		c2.043,0,3.703,1.661,3.703,3.704c0,2.045-1.66,3.71-3.703,3.71C176.895-43.273,175.229-44.938,175.229-46.983z"/>
	<path id="path87" inkscape:connector-curvature="0" fill="#FFFFFF" d="M129.194-82.056c0-2.046,1.664-3.711,3.709-3.711
		c2.045,0,3.707,1.665,3.707,3.711c0,2.044-1.662,3.708-3.707,3.708C130.858-78.348,129.194-80.012,129.194-82.056z"/>
	<path id="path89" inkscape:connector-curvature="0" fill="#FFFFFF" d="M132.279-68.754c0-2.044,1.664-3.707,3.711-3.707
		c2.044,0,3.709,1.664,3.709,3.707c0,2.044-1.664,3.708-3.709,3.708C133.943-65.046,132.279-66.709,132.279-68.754z"/>
	<path id="path91" inkscape:connector-curvature="0" fill="#FFFFFF" d="M126.59-46.414c-1.727-0.445-3.177-1.534-4.082-3.067
		c-0.905-1.532-1.159-3.327-0.715-5.051v-0.001c0.442-1.726,1.529-3.175,3.06-4.082c1.535-0.908,3.331-1.164,5.058-0.72
		c1.726,0.444,3.177,1.533,4.083,3.067c0.907,1.534,1.161,3.328,0.716,5.053c-0.446,1.729-1.534,3.181-3.067,4.087
		C130.11-46.223,128.316-45.969,126.59-46.414L126.59-46.414z"/>
	<path id="path93" inkscape:connector-curvature="0" fill="#FFFFFF" d="M174.286-23.783c-1.564-0.862-2.698-2.281-3.193-3.996
		c-0.492-1.708-0.291-3.506,0.568-5.062c0,0,0.001-0.001,0.001-0.002c0.855-1.561,2.27-2.694,3.983-3.192
		c1.713-0.498,3.515-0.298,5.076,0.562c1.561,0.857,2.695,2.27,3.191,3.979c0.498,1.713,0.3,3.518-0.561,5.084
		C181.576-23.188,177.509-22.009,174.286-23.783z"/>
	<path id="path95" inkscape:connector-curvature="0" fill="#FFFFFF" d="M43.586-19.67c0-0.989,0.386-1.921,1.088-2.622
		c0.701-0.701,1.631-1.087,2.62-1.087c2.048,0,3.713,1.664,3.713,3.709c0,2.045-1.666,3.71-3.713,3.71
		C45.249-15.961,43.586-17.624,43.586-19.67z"/>
	<path id="path97" inkscape:connector-curvature="0" fill="#FFFFFF" d="M-2.414-7.238c0-0.991,0.386-1.923,1.086-2.624
		c0.7-0.7,1.63-1.086,2.618-1.086c2.047,0,3.712,1.665,3.712,3.71c0,2.046-1.665,3.711-3.712,3.711
		C-0.752-3.526-2.414-5.191-2.414-7.238z"/>
	<path id="path99" inkscape:connector-curvature="0" fill="#EE324E" d="M71.156-25.299c0.332,0.123,9.694,3.613,11.87,4.423
		c-2.175,0.812-11.538,4.302-11.87,4.426c-0.332-0.124-9.691-3.615-11.866-4.426C61.465-21.687,70.824-25.176,71.156-25.299z"/>
	<path id="path101" inkscape:connector-curvature="0" fill="#EE324E" d="M-11.537-6.584c0.859,0.315,4.282,1.574,4.989,1.834
		C-6.737-4.013-7.739-0.092-8,0.931c-0.914-0.508-4.168-2.32-4.732-2.633C-12.58-2.327-11.755-5.698-11.537-6.584z"/>
	<path id="path103" inkscape:connector-curvature="0" fill="#FFFFFF" d="M91.311-19.67c0-2.045,1.662-3.709,3.705-3.709
		c2.048,0,3.716,1.664,3.716,3.709s-1.668,3.71-3.716,3.71C92.973-15.961,91.311-17.624,91.311-19.67z"/>
	<path id="path105" inkscape:connector-curvature="0" fill="#FFFFFF" d="M137.316-7.238c0-2.045,1.661-3.71,3.705-3.71
		c2.043,0,3.705,1.665,3.705,3.71c0,2.046-1.662,3.711-3.705,3.711C138.977-3.526,137.316-5.191,137.316-7.238z"/>
	<path id="path107" inkscape:connector-curvature="0" fill="#FEBE10" d="M155.253-9.888C155.253-9.888,155.253-9.888,155.253-9.888
		c-26.397-12.439-54.691-18.746-84.097-18.746c-29.407,0-57.701,6.307-84.098,18.746c-0.215,0.101-0.363,0.261-0.44,0.473
		c-0.096,0.267-0.069,0.593,0.075,0.899c0.121,0.256,0.332,0.45,0.595,0.545c0.262,0.095,0.545,0.081,0.799-0.038
		c0.195-0.091,0.419-0.102,0.623-0.028c0.203,0.073,0.368,0.225,0.459,0.421l0.072,0.156l5.048,1.856
		c0.262,0.096,0.41,0.376,0.34,0.647l-1.499,5.864l0.168,0.362c0.188,0.406,0.014,0.887-0.391,1.077
		c-0.657,0.31-0.942,1.103-0.64,1.76c0.291,0.608,0.947,1.051,1.645,0.725C18.067-6.566,44.056-12.344,71.155-12.344
		c27.1,0,53.09,5.779,77.244,17.175c0.703,0.327,1.357-0.114,1.64-0.721c0.31-0.661,0.024-1.452-0.637-1.764
		c-0.404-0.188-0.578-0.671-0.389-1.077l0.169-0.365l-1.5-5.861c-0.069-0.272,0.078-0.551,0.34-0.647l5.046-1.854l0.073-0.158
		c0.09-0.196,0.256-0.347,0.459-0.421s0.426-0.063,0.623,0.028c0.525,0.248,1.155,0.019,1.402-0.507
		c0.142-0.301,0.168-0.626,0.071-0.893C155.621-9.624,155.471-9.785,155.253-9.888L155.253-9.888z M1.29-2.436
		c-2.644,0-4.795-2.154-4.795-4.802c0-1.283,0.499-2.488,1.406-3.396c0.906-0.907,2.109-1.405,3.39-1.405
		c2.648,0,4.802,2.153,4.802,4.801S3.939-2.436,1.29-2.436z M37.328-17.835L25.579-9.636c-0.108,0.075-0.239,0.109-0.37,0.095
		l-14.257-1.506c-0.227-0.023-0.415-0.186-0.472-0.406c-0.056-0.221,0.03-0.453,0.217-0.584l11.756-8.195
		c0.108-0.075,0.239-0.109,0.369-0.095l14.25,1.501c0.227,0.023,0.414,0.186,0.471,0.406C37.6-18.199,37.515-17.964,37.328-17.835z
		 M47.294-14.87c-2.646,0-4.798-2.154-4.798-4.801c0-1.281,0.499-2.486,1.408-3.394c0.907-0.907,2.111-1.406,3.391-1.406
		c2.65,0,4.804,2.153,4.804,4.8C52.098-17.024,49.943-14.87,47.294-14.87z M84.778-20.364l-13.431,5.008
		c-0.122,0.045-0.258,0.046-0.381,0l-13.427-5.008c-0.214-0.08-0.355-0.283-0.355-0.512c0-0.228,0.142-0.432,0.355-0.512
		l13.427-5.006c0.123-0.046,0.258-0.045,0.381,0l13.431,5.006c0.214,0.08,0.354,0.284,0.354,0.512
		C85.132-20.647,84.992-20.444,84.778-20.364z M95.016-14.87c-2.644,0-4.795-2.154-4.795-4.801c0-2.646,2.151-4.8,4.795-4.8
		c2.65,0,4.807,2.153,4.807,4.8S97.666-14.87,95.016-14.87z M131.357-11.046L117.109-9.54c-0.13,0.014-0.261-0.019-0.369-0.095
		l-11.757-8.199c-0.186-0.129-0.274-0.363-0.217-0.584c0.056-0.221,0.244-0.382,0.471-0.406l14.253-1.501
		c0.129-0.014,0.261,0.019,0.369,0.095l11.753,8.195c0.187,0.128,0.273,0.362,0.217,0.584
		C131.773-11.232,131.585-11.07,131.357-11.046z M141.02-2.436c-2.644,0-4.795-2.154-4.795-4.802c0-2.647,2.152-4.801,4.795-4.801
		c2.644,0,4.795,2.153,4.795,4.801C145.815-4.59,143.664-2.436,141.02-2.436z"/>
	<path id="path109" inkscape:connector-curvature="0" fill="#FEBE10" d="M186.326-31.428c-0.333-0.28-0.387-0.772-0.122-1.117
		c1.365-1.778,1.924-3.852,1.57-5.842c-0.307-1.731-1.289-3.198-2.762-4.128c-0.369-0.234-0.488-0.719-0.267-1.097
		c0.597-1.019,0.912-2.184,0.912-3.371c0-3.159-2.241-5.922-5.33-6.571c-0.309-0.065-0.553-0.304-0.624-0.611
		c-0.072-0.307,0.042-0.629,0.291-0.823c1.644-1.284,2.586-3.212,2.586-5.288c0-3.482-2.612-6.354-6.077-6.684
		c-0.283-0.027-0.532-0.201-0.656-0.459c-0.123-0.258-0.102-0.561,0.056-0.798c0.733-1.106,1.12-2.393,1.12-3.723
		c0-3.705-3.013-6.718-6.716-6.718c-0.582,0-1.176,0.081-1.764,0.241c-0.305,0.082-0.629-0.018-0.832-0.259
		s-0.249-0.577-0.119-0.863c0.403-0.881,0.607-1.815,0.607-2.777c0-3.706-3.013-6.721-6.716-6.721c-1.059,0-2.112,0.254-3.043,0.735
		c-0.263,0.135-0.575,0.092-0.821-0.071c-0.245-0.164-0.38-0.472-0.355-0.767l0.087-1.055c0-3.706-3.016-6.722-6.722-6.722
		c-1.383,0-2.709,0.42-3.836,1.215c-0.221,0.157-0.508,0.191-0.762,0.093c-0.254-0.098-0.441-0.317-0.498-0.582
		c-0.676-3.066-3.437-5.291-6.567-5.291c-2.292,0-4.405,1.158-5.657,3.098c-0.135,0.213-0.365,0.348-0.617,0.369
		c-0.251,0.021-0.498-0.077-0.668-0.264c-1.267-1.401-3.077-2.204-4.963-2.204l-1.511,0.177c-0.284,0.033-0.609-0.076-0.783-0.303
		c-0.174-0.225-0.262-0.518-0.159-0.784c0.303-0.772,0.458-1.584,0.458-2.415c0-3.706-3.017-6.722-6.723-6.722
		c-1.246,0-2.475,0.354-3.555,1.025c-0.261,0.162-0.589,0.132-0.85-0.03c-0.262-0.161-0.406-0.487-0.38-0.794l0.095-1.069
		c0-1.795-0.699-3.482-1.968-4.752c-1.27-1.27-2.956-1.969-4.752-1.969c-1.448,0-2.835,0.463-4.01,1.339
		c-0.221,0.164-0.51,0.206-0.769,0.109c-0.258-0.096-0.45-0.316-0.51-0.585c-0.673-3.048-3.43-5.261-6.555-5.261
		c-1.799,0-3.489,0.702-4.758,1.975c-0.188,0.187-0.453,0.272-0.714,0.226c-0.261-0.045-0.485-0.215-0.597-0.454
		c-1.104-2.349-3.49-3.867-6.079-3.867c-0.735,0-1.467,0.124-2.18,0.367c-0.311,0.106-0.656,0.015-0.872-0.234
		c-1.249-1.423-2.848-2.534-4.624-3.213l-1.274-0.408c-0.337-0.108-0.61-0.433-0.61-0.786v-5.742c0-0.449,0.364-0.812,0.812-0.812
		c0,0,3.679,0,4.871,0c0-1.004,0-3.148,0-4.151c-1.192,0-4.871,0-4.871,0c-0.448,0-0.812-0.363-0.812-0.812c0,0,0-3.154,0-4.304
		c-1.032,0-3.429,0-4.461,0c0,1.149,0,4.304,0,4.304c0,0.449-0.363,0.812-0.812,0.812c0,0-3.673,0-4.866,0c0,1.003,0,3.148,0,4.151
		c1.193,0,4.866,0,4.866,0c0.448,0,0.812,0.363,0.812,0.812v5.742c0,0.353-0.273,0.679-0.61,0.787l-1.272,0.408
		c-1.777,0.678-3.376,1.79-4.626,3.213c-0.219,0.248-0.562,0.34-0.874,0.233c-0.71-0.243-1.443-0.367-2.178-0.367
		c-2.59,0-4.976,1.518-6.079,3.867c-0.112,0.239-0.334,0.409-0.596,0.454c-0.261,0.045-0.527-0.039-0.715-0.226
		c-1.271-1.273-2.96-1.975-4.758-1.975c-3.125,0-5.881,2.213-6.557,5.261c-0.06,0.269-0.252,0.49-0.51,0.585
		c-0.259,0.096-0.548,0.054-0.769-0.111c-1.17-0.875-2.556-1.337-4.008-1.337c-3.705,0-6.718,3.015-6.718,6.72l0.098,1.058
		c0.029,0.307-0.115,0.637-0.377,0.8c-0.261,0.162-0.587,0.197-0.849,0.036c-1.086-0.671-2.318-1.026-3.561-1.026
		c-3.706,0-6.722,3.015-6.722,6.722c0,0.825,0.155,1.638,0.459,2.417c0.103,0.266,0.015,0.558-0.16,0.783
		c-0.174,0.226-0.499,0.335-0.782,0.302l-1.515-0.177c-1.883,0-3.692,0.803-4.963,2.205c-0.17,0.187-0.417,0.285-0.67,0.263
		c-0.252-0.021-0.479-0.158-0.616-0.371c-1.245-1.938-3.356-3.096-5.647-3.096c-3.14,0-5.899,2.223-6.56,5.287
		c-0.057,0.266-0.244,0.485-0.497,0.584c-0.253,0.099-0.539,0.066-0.762-0.09c-1.14-0.795-2.472-1.217-3.852-1.217
		c-3.705,0-6.718,3.015-6.718,6.722l0.092,1.042c0.026,0.294-0.106,0.607-0.35,0.773c-0.244,0.166-0.555,0.215-0.818,0.081
		c-0.966-0.489-1.992-0.737-3.052-0.737c-3.706,0-6.721,3.015-6.721,6.721c0,0.966,0.202,1.901,0.601,2.78
		c0.13,0.287,0.083,0.622-0.121,0.861c-0.204,0.239-0.528,0.34-0.832,0.257c-0.584-0.16-1.177-0.241-1.759-0.241
		c-3.705,0-6.718,3.014-6.718,6.718c0,1.331,0.39,2.617,1.125,3.72c0.159,0.238,0.181,0.542,0.058,0.8
		c-0.123,0.258-0.373,0.433-0.657,0.459c-3.465,0.33-6.079,3.203-6.079,6.684c0,2.076,0.941,4.003,2.583,5.289
		c0.248,0.195,0.361,0.516,0.289,0.823c-0.071,0.307-0.314,0.545-0.623,0.611c-3.086,0.65-5.326,3.414-5.326,6.571
		c0,1.188,0.313,2.355,0.904,3.374c0.219,0.378,0.101,0.86-0.268,1.093c-1.471,0.932-2.451,2.399-2.757,4.131
		c-0.353,1.99,0.205,4.063,1.571,5.839c0.265,0.345,0.211,0.837-0.122,1.117c-1.093,0.917-1.635,2.129-1.61,3.601
		c0.045,2.606,1.856,5.367,3.621,6.747c1.968,1.538,5.88,3.706,9.962,0.944c0.29-0.196,0.673-0.184,0.951,0.03
		c3.294,2.539,7.629,3.324,11.597,2.102c0.308-0.095,0.643,0.002,0.854,0.246c0.211,0.244,0.257,0.589,0.118,0.881
		c-0.441,0.927-0.442,1.995,0.001,2.932c0.405,0.868,1.095,1.515,1.944,1.823c0.803,0.292,1.684,0.247,2.482-0.126
		c26.741-12.607,55.423-19,85.25-19c29.832,0,58.525,6.393,85.288,18.997c1.679,0.677,3.616-0.037,4.396-1.697
		c0.439-0.932,0.435-2-0.007-2.931c-0.139-0.291-0.091-0.636,0.119-0.88c0.211-0.244,0.545-0.34,0.853-0.246
		c3.968,1.222,8.306,0.436,11.603-2.102c0.277-0.214,0.66-0.225,0.951-0.03c4.076,2.76,7.99,0.593,9.959-0.944
		c1.764-1.379,3.574-4.139,3.619-6.744C187.962-29.299,187.42-30.511,186.326-31.428L186.326-31.428z M183.735-46.983
		c0,2.647-2.15,4.801-4.794,4.801c-2.65,0-4.803-2.154-4.803-4.801c0-2.644,2.154-4.795,4.803-4.795
		C181.585-51.777,183.735-49.626,183.735-46.983z M175.86-65.072c2.646,0,4.799,2.151,4.799,4.795c0,2.649-2.153,4.804-4.799,4.804
		c-2.645,0-4.796-2.155-4.796-4.804C171.063-62.922,173.215-65.072,175.86-65.072z M170.307-76.742c2.647,0,4.8,2.154,4.8,4.802
		c0,2.646-2.153,4.798-4.8,4.798c-2.648,0-4.801-2.153-4.801-4.798C165.506-74.589,167.659-76.742,170.307-76.742L170.307-76.742z
		 M170.706-33.368l-0.001,0.002L170.706-33.368z M161.483-87.116c2.644,0,4.795,2.153,4.795,4.798c0,2.647-2.151,4.801-4.795,4.801
		c-2.648,0-4.802-2.154-4.802-4.801C156.682-84.964,158.836-87.116,161.483-87.116z M150.629-94.997
		c2.649,0,4.803,2.153,4.803,4.801c0,2.646-2.155,4.799-4.803,4.799c-2.644,0-4.795-2.153-4.795-4.799
		C145.834-92.844,147.985-94.997,150.629-94.997z M138.966-99.559c2.645,0,4.796,2.151,4.796,4.795c0,2.649-2.152,4.803-4.796,4.803
		c-2.649,0-4.802-2.155-4.802-4.803C134.163-97.408,136.317-99.559,138.966-99.559z M132.903-86.858
		c2.645,0,4.797,2.154,4.797,4.802c0,2.646-2.153,4.798-4.797,4.798c-2.647,0-4.799-2.153-4.799-4.798
		C128.103-84.704,130.256-86.858,132.903-86.858z M124.3-59.554c1.784-1.056,3.874-1.354,5.885-0.837
		c2.009,0.516,3.695,1.784,4.75,3.568c1.056,1.784,1.35,3.872,0.834,5.881c-0.518,2.011-1.786,3.7-3.569,4.754
		c-1.784,1.053-3.872,1.348-5.88,0.83c-2.009-0.517-3.695-1.785-4.749-3.569c-0.714-1.21-1.079-2.559-1.079-3.929
		c0-0.65,0.083-1.303,0.248-1.948v-0.001v0.001C121.251-56.812,122.516-58.498,124.3-59.554z M135.99-63.955
		c-2.649,0-4.802-2.153-4.802-4.799c0-2.645,2.153-4.798,4.802-4.798c2.647,0,4.8,2.153,4.8,4.798
		C140.79-66.107,138.637-63.955,135.99-63.955z M127.062-98.564c1.281,0,2.484,0.498,3.391,1.405
		c0.907,0.907,1.405,2.113,1.405,3.396c0,2.644-2.152,4.795-4.796,4.795c-2.647,0-4.8-2.151-4.8-4.795
		C122.262-96.411,124.415-98.564,127.062-98.564z M118.344-108.61c2.648,0,4.801,2.154,4.801,4.8c0,2.647-2.153,4.8-4.801,4.8
		c-2.645,0-4.796-2.153-4.796-4.8C113.548-106.456,115.699-108.61,118.344-108.61z M106.935-116.199c2.647,0,4.802,2.153,4.802,4.8
		c0,2.644-2.155,4.796-4.802,4.796c-2.645,0-4.796-2.152-4.796-4.796C102.139-114.045,104.29-116.199,106.935-116.199z
		 M95.092-120.595c2.648,0,4.802,2.153,4.802,4.798c0,2.645-2.154,4.796-4.802,4.796c-2.644,0-4.793-2.152-4.793-4.796
		C90.3-118.442,92.449-120.595,95.092-120.595z M79.558-121.314c0.904-0.906,2.107-1.404,3.387-1.404
		c2.65,0,4.803,2.153,4.803,4.798c0,2.646-2.154,4.799-4.803,4.799c-2.642,0-4.792-2.153-4.792-4.799
		C78.154-119.202,78.652-120.407,79.558-121.314z M71.156-111.159c2.648,0,4.8,2.154,4.8,4.801c0,2.645-2.153,4.798-4.8,4.798
		c-2.647,0-4.8-2.153-4.8-4.798C66.356-109.006,68.509-111.159,71.156-111.159z M66.356-79.373c0-2.645,2.153-4.798,4.8-4.798
		c2.648,0,4.8,2.153,4.8,4.798s-2.153,4.797-4.8,4.797C68.509-74.575,66.356-76.727,66.356-79.373z M78.917-60.095
		c0,4.28-3.481,7.762-7.761,7.762c-4.279,0-7.759-3.482-7.759-7.762c0-4.28,3.481-7.761,7.759-7.761
		C75.436-67.856,78.917-64.375,78.917-60.095z M71.156-88.065c-2.647,0-4.8-2.154-4.8-4.802c0-2.647,2.153-4.8,4.8-4.8
		c2.648,0,4.8,2.153,4.8,4.8C75.957-90.219,73.804-88.065,71.156-88.065z M59.366-122.718c2.646,0,4.799,2.153,4.799,4.798
		c0,2.646-2.153,4.799-4.799,4.799c-2.649,0-4.804-2.153-4.804-4.799C54.562-120.565,56.717-122.718,59.366-122.718z M43.829-119.19
		c0.906-0.906,2.11-1.404,3.39-1.404c2.646,0,4.798,2.153,4.798,4.798s-2.153,4.796-4.798,4.796c-2.645,0-4.796-2.152-4.796-4.796
		C42.423-117.078,42.922-118.284,43.829-119.19z M35.375-116.199c2.645,0,4.798,2.153,4.798,4.8c0,2.644-2.153,4.796-4.798,4.796
		c-2.647,0-4.8-2.152-4.8-4.796C30.576-114.045,32.728-116.199,35.375-116.199z M23.969-108.61c1.28,0,2.485,0.499,3.39,1.406
		c0.905,0.908,1.404,2.113,1.404,3.394c0,2.647-2.151,4.8-4.795,4.8c-2.648,0-4.802-2.153-4.802-4.8
		C19.166-106.456,21.321-108.61,23.969-108.61z M15.249-98.564c2.647,0,4.801,2.154,4.801,4.801c0,2.644-2.153,4.795-4.801,4.795
		c-2.644,0-4.795-2.151-4.795-4.795C10.454-96.411,12.604-98.564,15.249-98.564z M12.131-60.391c4.143-1.066,8.384,1.44,9.451,5.587
		c1.066,4.141-1.438,8.379-5.582,9.448c-2.01,0.518-4.1,0.222-5.885-0.832c-1.786-1.054-3.054-2.743-3.571-4.753
		C5.48-55.088,7.987-59.328,12.131-60.391z M1.526-68.754c0-2.645,2.151-4.798,4.795-4.798c2.646,0,4.8,2.153,4.8,4.798
		c0,2.646-2.154,4.799-4.8,4.799C3.678-63.955,1.526-66.107,1.526-68.754z M9.409-86.858c2.645,0,4.798,2.154,4.798,4.802
		c0,2.646-2.153,4.798-4.798,4.798c-2.646,0-4.799-2.153-4.799-4.798c0-1.282,0.5-2.487,1.408-3.395
		C6.925-86.358,8.129-86.858,9.409-86.858z M3.353-99.559c1.281,0,2.485,0.498,3.39,1.404s1.405,2.109,1.405,3.39
		c0,2.649-2.151,4.803-4.795,4.803c-2.648,0-4.802-2.155-4.802-4.803C-1.45-97.408,0.704-99.559,3.353-99.559z M-8.318-94.997
		c2.644,0,4.795,2.153,4.795,4.801c0,2.646-2.151,4.799-4.795,4.799c-2.648,0-4.802-2.153-4.802-4.799
		C-13.121-92.844-10.966-94.997-8.318-94.997z M-19.164-87.116c2.644,0,4.795,2.153,4.795,4.798c0,2.647-2.151,4.801-4.795,4.801
		c-2.649,0-4.803-2.154-4.803-4.801C-23.967-84.964-21.814-87.116-19.164-87.116z M-27.995-76.742c2.648,0,4.802,2.154,4.802,4.802
		c0,2.646-2.154,4.798-4.802,4.798c-2.644,0-4.795-2.153-4.795-4.798C-32.79-74.589-30.64-76.742-27.995-76.742z M-28.389-33.367
		L-28.389-33.367C-28.389-33.367-28.389-33.367-28.389-33.367z M-38.346-60.278c0-2.644,2.154-4.795,4.802-4.795
		c2.646,0,4.8,2.151,4.8,4.795c0,2.649-2.154,4.804-4.8,4.804C-36.192-55.473-38.346-57.628-38.346-60.278z M-36.625-51.777
		c2.646,0,4.798,2.151,4.798,4.795c0,2.647-2.152,4.801-4.798,4.801c-2.646,0-4.8-2.154-4.8-4.801
		C-41.425-49.626-39.271-51.777-36.625-51.777z M-31.445-22.827c-3.746,2.062-8.479,0.691-10.548-3.056
		c-2.06-3.749-0.689-8.479,3.058-10.544c1.819-1,3.919-1.232,5.912-0.653c1.99,0.578,3.636,1.898,4.633,3.713
		c0.651,1.183,0.96,2.463,0.96,3.727C-27.43-26.901-28.881-24.241-31.445-22.827z M2.321-26.383
		c-5.073,1.784-10.14,3.794-15.061,5.975c-0.353,0.156-0.767,0.043-0.99-0.272c-0.224-0.314-0.196-0.742,0.067-1.025
		c1.805-1.938,3.058-4.403,3.528-6.941c0.062-0.333,0.36-0.597,0.693-0.657c0,0,0.885-0.159,0.887-0.159
		c0.852-0.218,1.648-0.6,2.366-1.136c0.286-0.214,0.678-0.215,0.966-0.004c2.085,1.528,4.688,2.466,7.33,2.642
		c0.385,0.026,0.698,0.318,0.75,0.701C2.909-26.877,2.685-26.511,2.321-26.383z M5.286-32.812c-3.23,0.829-6.61-0.359-8.614-3.024
		c-0.083-0.109-0.143-0.322-0.162-0.457l-0.199-1.396c-0.932-3.613-4.624-5.794-8.231-4.864c-1.751,0.45-3.22,1.554-4.14,3.11
		c-0.918,1.555-1.176,3.37-0.724,5.118c0.268,1.048,0.771,1.99,1.497,2.801c0.116,0.129,0.187,0.292,0.203,0.464
		c0.314,3.272-1.339,6.408-4.215,7.993c-2.078,1.144-4.554,1.33-6.792,0.509c-0.304-0.111-0.513-0.393-0.531-0.717
		c-0.018-0.323,0.158-0.627,0.448-0.772c4.275-2.136,5.403-5.139,3.658-9.733c-1.119-2.937-2.628-4.713-4.488-5.276
		c-0.365-0.11-0.604-0.46-0.574-0.841c1.787-22.841,8.862-33.459,29.119-43.701c0.261-0.132,0.587-0.137,0.83,0.024
		c0.243,0.162,0.396,0.418,0.376,0.71l-0.056,0.808c0,2.076,0.945,4.004,2.592,5.29c0.249,0.195,0.363,0.517,0.291,0.824
		c-0.072,0.308-0.315,0.546-0.625,0.611c-3.097,0.644-5.345,3.41-5.345,6.578c0,2.951,1.977,5.598,4.806,6.438
		c0.231,0.069,0.419,0.235,0.515,0.457c0.096,0.221,0.088,0.473-0.021,0.688c-0.548,1.084-0.776,2.394-0.677,3.895
		c0.022,0.331-0.161,0.642-0.46,0.785c-3.581,1.713-4.678,4.42-3.559,8.776c1.343,5.236,4.486,6.937,10.197,5.512
		c0.231-0.057,0.473-0.012,0.667,0.125c0.194,0.138,0.317,0.352,0.339,0.588C11.777-37.469,9.203-33.819,5.286-32.812z
		 M26.816-33.333c-4.906,1.068-9.779,2.317-14.484,3.71c-0.367,0.109-0.761-0.055-0.944-0.392c-0.182-0.336-0.106-0.756,0.186-1.005
		c3.228-2.762,4.878-6.924,4.415-11.132c-0.044-0.401,0.214-0.775,0.605-0.875c0.392-0.101,0.797,0.102,0.952,0.475
		c1.628,3.919,5.091,6.77,9.261,7.629c0.376,0.077,0.646,0.407,0.649,0.791C27.457-33.747,27.19-33.413,26.816-33.333z
		 M53.275-37.326c-5.379,0.459-10.825,1.14-16.188,2.025c-0.38,0.063-0.753-0.15-0.891-0.51c-0.138-0.36-0.003-0.768,0.321-0.975
		c2.632-1.681,4.64-4.179,5.654-7.031c0.119-0.335,0.422-0.555,0.778-0.54l0.374,0.015c0.67,0,1.332-0.097,1.971-0.289
		c0.34-0.102,0.708,0.029,0.907,0.324c1.697,2.514,4.274,4.432,7.255,5.401c0.367,0.12,0.6,0.481,0.556,0.865
		C53.968-37.658,53.659-37.359,53.275-37.326z M49.798-48.701c-0.046-0.152-0.046-0.315,0-0.467c0.189-0.63,0.286-1.28,0.286-1.931
		c0-1.806-0.703-3.504-1.979-4.781c-1.276-1.277-2.974-1.98-4.781-1.98c-3.728,0-6.763,3.033-6.763,6.761
		c0,1.171,0.317,2.338,0.914,3.375c0.074,0.129,0.111,0.275,0.109,0.423c-0.08,3.662-2.613,6.856-6.16,7.766
		c-3.912,1.008-7.93-0.945-9.552-4.644c-0.096-0.217-0.09-0.465,0.012-0.679c0.103-0.214,0.294-0.372,0.524-0.432
		c5.69-1.514,7.63-4.517,6.286-9.75c-1.123-4.353-3.391-6.195-7.357-5.972c-0.332,0.018-0.642-0.167-0.782-0.469
		c-0.868-1.867-2.049-3.071-3.609-3.679c-0.34-0.132-0.55-0.476-0.513-0.839c2.294-22.423,19.601-44.025,48.242-41.928
		c0.443,0.033,0.775,0.454,0.748,0.898l-0.041,0.67c0,1.163,0.347,2.288,1.005,3.255c0.091,0.135,0.141,0.294,0.141,0.457v6.069
		c0,0.163-0.05,0.322-0.141,0.457c-0.657,0.967-1.005,2.091-1.005,3.253c0,1.165,0.347,2.291,1.005,3.258
		c0.091,0.135,0.141,0.294,0.141,0.457v6.069c0,0.163-0.05,0.323-0.142,0.458c-0.657,0.962-1.004,2.087-1.004,3.252
		c0,2.282,1.35,4.354,3.44,5.277c0.328,0.145,0.523,0.489,0.478,0.845s-0.319,0.64-0.672,0.699c-3.4,0.564-5.275,2.389-5.902,5.742
		c-0.062,0.326-0.315,0.583-0.642,0.647c-3.898,0.768-5.638,3.115-5.638,7.614c0,5.403,2.626,7.832,8.514,7.878
		c0.237,0.001,0.462,0.108,0.615,0.288c0.153,0.181,0.219,0.42,0.181,0.654c-0.652,3.986-4.056,6.879-8.094,6.879
		C54.067-42.85,50.833-45.255,49.798-48.701L49.798-48.701z M79.554-38.57c-0.088,0.372-0.431,0.631-0.814,0.624l-7.585-0.142
		l-7.586,0.142c-0.382,0.007-0.724-0.253-0.813-0.624c-0.089-0.373,0.088-0.755,0.432-0.92c3.882-1.857,6.559-5.497,7.163-9.738
		c0.057-0.399,0.399-0.697,0.804-0.697c0.405,0,0.746,0.297,0.804,0.697c0.603,4.239,3.28,7.878,7.163,9.738
		C79.468-39.326,79.642-38.943,79.554-38.57z M106.119-35.811c-0.137,0.36-0.509,0.574-0.89,0.511
		c-5.358-0.885-10.806-1.566-16.192-2.025c-0.385-0.033-0.695-0.333-0.738-0.716c-0.045-0.384,0.188-0.746,0.555-0.865
		c2.978-0.967,5.556-2.887,7.264-5.403c0.202-0.294,0.569-0.425,0.909-0.321c0.63,0.191,1.289,0.288,1.961,0.288l0.373-0.015
		c0.354-0.015,0.658,0.204,0.778,0.539c1.019,2.857,3.028,5.355,5.66,7.032C106.122-36.58,106.257-36.172,106.119-35.811z
		 M110.886-39.534c-3.543-0.91-6.076-4.103-6.159-7.766c-0.003-0.149,0.036-0.298,0.111-0.427c0.593-1.019,0.908-2.185,0.908-3.372
		c0-3.727-3.033-6.761-6.758-6.761c-3.727,0-6.76,3.033-6.76,6.761c0,0.657,0.096,1.304,0.289,1.924
		c0.049,0.155,0.049,0.32,0.001,0.476c-1.058,3.499-4.22,5.849-7.871,5.849c-4.037,0-7.437-2.894-8.087-6.88
		c-0.038-0.234,0.028-0.473,0.181-0.654c0.154-0.182,0.378-0.287,0.614-0.288c5.885-0.045,8.507-2.475,8.507-7.878
		c0-4.498-1.738-6.846-5.635-7.614c-0.327-0.064-0.581-0.321-0.643-0.647c-0.627-3.353-2.501-5.178-5.9-5.742
		c-0.353-0.059-0.627-0.343-0.672-0.699c-0.045-0.356,0.149-0.699,0.478-0.845c2.089-0.924,3.44-2.996,3.44-5.277
		c0-1.172-0.346-2.295-1.001-3.251c-0.093-0.135-0.142-0.295-0.142-0.459v-6.069c0-0.163,0.05-0.324,0.142-0.459
		c0.656-0.96,1.001-2.087,1.001-3.257c0-1.168-0.346-2.293-1.001-3.252c-0.093-0.135-0.142-0.294-0.142-0.458v-6.069
		c0-0.163,0.05-0.324,0.142-0.459c0.656-0.959,1.001-2.084,1.001-3.253l-0.039-0.651c-0.027-0.444,0.303-0.884,0.746-0.916
		c28.64-2.097,45.947,19.506,48.241,41.928c0.037,0.363-0.173,0.707-0.513,0.839c-1.55,0.604-2.731,1.809-3.606,3.68
		c-0.142,0.301-0.451,0.485-0.782,0.467c-3.964-0.223-6.234,1.619-7.355,5.971c-1.346,5.234,0.593,8.241,6.285,9.751
		c0.229,0.061,0.42,0.219,0.524,0.433c0.103,0.214,0.108,0.462,0.012,0.679C118.816-40.479,114.797-38.527,110.886-39.534z
		 M130.922-30.013c-0.186,0.338-0.577,0.499-0.944,0.391c-4.701-1.393-9.573-2.642-14.481-3.71
		c-0.374-0.082-0.642-0.414-0.639-0.797c0.003-0.384,0.272-0.714,0.649-0.791c4.175-0.859,7.634-3.711,9.258-7.628
		c0.155-0.373,0.56-0.577,0.952-0.476c0.391,0.1,0.649,0.472,0.605,0.875c-0.459,4.206,1.192,8.368,4.417,11.132
		C131.029-30.768,131.105-30.349,130.922-30.013z M156.04-20.68c-0.224,0.314-0.637,0.426-0.99,0.271
		c-4.939-2.187-10.005-4.197-15.061-5.973c-0.364-0.128-0.588-0.493-0.536-0.875c0.053-0.382,0.366-0.675,0.751-0.701
		c2.676-0.177,5.213-1.091,7.337-2.643c0.288-0.211,0.683-0.208,0.967,0.007c0.71,0.534,1.502,0.915,2.361,1.134l0.885,0.159
		c0.332,0.059,0.629,0.324,0.69,0.656c0.478,2.541,1.73,5.007,3.528,6.942C156.237-21.422,156.264-20.994,156.04-20.68z
		 M169.315-39.057c-1.849,0.561-3.358,2.336-4.486,5.276c-1.744,4.595-0.614,7.597,3.664,9.733c0.29,0.145,0.466,0.448,0.448,0.772
		s-0.227,0.605-0.531,0.717c-2.244,0.822-4.721,0.635-6.795-0.509c-2.88-1.587-4.535-4.724-4.215-7.994
		c0.017-0.172,0.088-0.333,0.202-0.462c0.721-0.808,1.225-1.751,1.497-2.804c0.452-1.743,0.196-3.558-0.72-5.111
		c-0.92-1.558-2.392-2.664-4.147-3.114c-3.603-0.929-7.296,1.253-8.229,4.853l-0.199,1.409c-0.019,0.136-0.081,0.346-0.163,0.455
		c-2.009,2.665-5.389,3.852-8.617,3.023c-3.909-1.007-6.485-4.656-6.123-8.677c0.02-0.236,0.144-0.452,0.337-0.59
		c0.193-0.137,0.438-0.183,0.668-0.126c5.715,1.425,8.863-0.274,10.207-5.512c1.119-4.353,0.02-7.059-3.563-8.776
		c-0.3-0.143-0.482-0.453-0.459-0.785c0.1-1.533-0.122-2.805-0.677-3.892c-0.109-0.215-0.118-0.467-0.023-0.69
		c0.095-0.221,0.284-0.39,0.516-0.459c2.831-0.84,4.808-3.488,4.808-6.438c0-3.166-2.248-5.932-5.345-6.578
		c-0.31-0.064-0.555-0.303-0.628-0.611c-0.069-0.307,0.044-0.63,0.294-0.824c1.647-1.283,2.59-3.211,2.59-5.29l-0.055-0.797
		c-0.019-0.291,0.134-0.553,0.378-0.714c0.243-0.162,0.571-0.162,0.83-0.03c20.253,10.241,27.327,20.861,29.112,43.701
		C169.919-39.517,169.681-39.167,169.315-39.057L169.315-39.057z M184.305-25.882c-2.064,3.748-6.795,5.119-10.547,3.055
		c-1.819-1.003-3.138-2.655-3.713-4.649c-0.205-0.712-0.307-1.438-0.307-2.16c0-1.291,0.327-2.57,0.968-3.732
		c0.995-1.817,2.643-3.135,4.634-3.713c1.994-0.579,4.09-0.347,5.906,0.653c1.817,0.997,3.134,2.642,3.713,4.631
		C185.538-29.804,185.307-27.704,184.305-25.882L184.305-25.882z"/>
	<path id="path111" inkscape:connector-curvature="0" fill="#EE324E" d="M153.854-6.584c0.216,0.887,1.038,4.258,1.191,4.882
		c-0.563,0.313-3.815,2.124-4.728,2.633c-0.262-1.025-1.264-4.944-1.454-5.681C149.57-5.01,152.994-6.268,153.854-6.584z"/>
	<path id="path113" inkscape:connector-curvature="0" fill="#00529F" d="M-104.712,169.403c0,96.923,78.893,175.776,175.867,175.776
		s175.868-78.852,175.868-175.776c0-97.023-78.894-175.957-175.868-175.957C-25.818-6.555-104.712,72.379-104.712,169.403z"/>
	<path id="path115" inkscape:connector-curvature="0" fill="#FEBE10" d="M-99.724,169.403c0,47.088,19.159,89.774,50.106,120.706
		l0,0c30.951,30.931,73.656,50.082,120.774,50.082l0,0c47.113,0,89.822-19.151,120.773-50.082l0,0
		c30.948-30.933,50.106-73.618,50.106-120.706l0,0c0-47.14-19.159-89.871-50.106-120.838l0,0
		C160.977,17.601,118.269-1.569,71.156-1.569l0,0c-47.114,0-89.823,19.17-120.772,50.133l0,0
		C-80.563,79.532-99.724,122.262-99.724,169.403L-99.724,169.403L-99.724,169.403L-99.724,169.403z"/>
	<path id="path117" inkscape:connector-curvature="0" fill="#00529F" d="M-84.75,169.311c0.003-85.972,69.933-155.9,155.906-155.904
		l0,0c85.972,0.004,155.901,69.932,155.904,155.904l0,0c-0.003,85.974-69.932,155.903-155.904,155.907l0,0
		C-14.817,325.214-84.747,255.285-84.75,169.311C-84.75,169.311-84.75,169.311-84.75,169.311z"/>
	<path id="path119" inkscape:connector-curvature="0" fill="#FFFFFF" d="M-79.762,169.311c0-83.215,67.701-150.916,150.918-150.916
		s150.917,67.701,150.917,150.916c0,83.217-67.701,150.919-150.917,150.919S-79.762,252.528-79.762,169.311L-79.762,169.311z"/>
	<path id="path121" inkscape:connector-curvature="0" fill="#00529F" d="M215.816,168.757c0-52.649-28.757-101.306-75.051-126.982
		l-0.967-0.537c0,0-32.855,34.14-33.682,35c-0.071,0-0.172,0-0.172,0s-0.509,0.509-0.54,0.541
		c-10.775-3.998-22.276-6.146-34.228-6.315c0,0-0.001,0-0.002,0c-12.201,0-24.822,2.261-35.738,6.312
		c-1.204-1.257-33.676-35.17-33.676-35.17L0.79,42.15c-0.348,0.195-0.687,0.404-1.033,0.601l-0.057-0.06
		c-26.321,14.938-47.527,37.878-60.292,65.491c0.024,0.025,0.049,0.05,0.074,0.075c-8.662,18.7-13.367,39.286-13.367,60.501
		c0,34.61,12.428,66.884,35.94,93.337l1.025,1.152l19.238-19.655l-1.059-1.005c-10.415-9.884-29.59-37.397-29.59-72.216
		c0-0.953,0.014-1.911,0.043-2.876c0.49-13.981,2.964-27.073,7.389-39.234c5.379,5.483,10.747,10.957,16.097,16.41
		c-1.69,6.669-2.617,13.491-2.703,20.342c-0.005,0.406-0.008,0.814-0.008,1.219c0,44.05,30.481,83.537,73.021,94.671
		c0,1.962,0,24.772,0,24.772h26.716c0,0,0-19.23,0-21.66c6.004-0.131,12.011-0.858,17.917-2.123
		c12.839,13.112,25.743,26.294,38.763,39.61c27.409-12.009,50.418-32.257,65.86-57.604l-0.023-0.023
		C208.437,221.403,215.816,195.433,215.816,168.757L215.816,168.757z M45.507,231.128c-27.369-9.918-44.935-33.54-45.536-61.205
		c15.213,15.507,30.367,30.955,45.536,46.427C45.507,224.196,45.507,230.037,45.507,231.128z M70.949,113.413
		c-1.636-1.671-11.665-11.911-14.423-14.728c4.936-0.949,9.931-1.469,13.259-1.317c5.275,0.163,10.07,0.778,14.623,1.815
		C81.856,101.882,72.548,111.724,70.949,113.413z M173.972,222.451l-85.487-88.177c10.287-10.866,21.45-22.659,22.331-23.588
		c8.976,6.332,16.261,14.621,21.082,24.077l0.834,1.634l21.483-18.558l-0.617-1.036c-5.845-9.805-13.982-18.804-23.514-26.198
		c1.787-1.83,12.765-13.066,14.229-14.565c22.145,15.91,44.238,52.025,44.238,91.411
		C188.552,190.52,183.213,207.218,173.972,222.451L173.972,222.451z"/>
	<path id="path123" inkscape:connector-curvature="0" fill="#FEBE10" d="M140.69,47.506c-5.924,6.158-31.828,33.074-31.828,33.074
		l-0.624,0.648h-0.226c-0.198,0.197-0.364,0.363-0.364,0.363l-0.969,0.969l-1.279-0.488l-0.871-0.333
		c-10.477-4.004-21.716-6.122-33.372-6.288c-11.723-0.004-24.507,2.307-34.862,6.286l-2.204,0.845l-0.971-1.013
		c0,0-26.27-27.434-32.25-33.68c-43.098,25.207-69.769,71.262-69.767,120.869c0.006,32.137,11.115,62.124,32.204,87.125
		c3.054-3.119,9.099-9.294,11.997-12.257c-11.336-12.149-28.586-39.249-28.626-73.271c0-1,0.016-2.008,0.047-3.026
		c1.333-38.782,17.465-71.233,47.682-95.94l2.528-2.071l21.451,22.186l-3.204,2.417c-23.301,17.568-37.374,44.225-37.701,71.156
		c-0.004,0.385-0.007,0.773-0.007,1.157c-0.016,42.138,29.443,79.993,70.326,90.153l2.695,0.669v1.653c0,0.019,0,15.874,0,21.983
		c4.145,0,12.595,0,16.74,0c0-2.338,0-6.061,0-9.629c0-5.088,0-9.852,0-9.86v-2.1l3.528-0.019
		c26.01-0.148,52.346-12.201,69.318-31.488c-3.049-3.082-9.865-9.97-13.108-13.249c-16.371,17.631-39.043,26.684-54.5,26.732
		c-0.639,0-1.262-0.016-1.871-0.044l-3.366-0.175v-25.545h2.111c0.024,0,20.186,0,27.125,0.002c0-3.724,0-10.788,0-14.512
		c-6.944,0-27.125,0-27.125,0.003h-2.111v-20.698h2.111c0,0,20.499,0,27.5,0.003c0-3.313,0-9.149,0-12.46
		c-8.386,0-37.964,0-46.351,0c0,11.845,0,67.549,0,67.549v2.928l-4.671-1.556c-30.941-10.291-50.888-36.983-50.87-68.107
		c0-0.484,0.004-0.971,0.016-1.459c0.537-25.004,12.514-47.54,32.809-61.693l2.477-1.729l1.251,1.29
		c0,0,31.834,32.843,39.433,40.682c7.394-7.81,37.965-40.102,37.965-40.102l1.235-1.304l2.498,1.698
		c8.849,6.013,16.199,13.818,21.51,22.74c3.586-3.096,10.491-9.061,13.561-11.714c-5.629-8.715-13.121-16.754-21.872-23.312
		l-3.238-2.428l21.121-21.62l2.467,1.705c23.72,16.472,47.295,54.468,47.354,96.236c0.037,33.249-11.316,54.826-28.202,75.567
		c3.165,3.166,10.518,10.525,13.968,13.977c20.342-24.811,31.523-55.985,31.522-88.236
		C210.829,118.828,184.017,72.632,140.69,47.506L140.69,47.506z M72.518,119.011l-1.508,1.591L46.659,95.737l6.199-1.403
		c5.535-1.249,11.278-1.98,15.639-1.983c0.514,0,1.015,0.01,1.466,0.031c6.54,0.201,12.487,1.032,18.129,2.544l5.753,1.541
		L72.518,119.011L72.518,119.011z"/>
</g>
</svg>
