<?xml version="1.0" encoding="utf-8"?>
<!-- Generator: Adobe Illustrator 17.0.0, SVG Export Plug-In . SVG Version: 6.00 Build 0)  -->
<!DOCTYPE svg PUBLIC "-//W3C//DTD SVG 1.1//EN" "http://www.w3.org/Graphics/SVG/1.1/DTD/svg11.dtd">
<svg version="1.1" id="图层_1" xmlns="http://www.w3.org/2000/svg" xmlns:xlink="http://www.w3.org/1999/xlink" x="0px" y="0px"
	 width="1782px" height="2500px" viewBox="0 0 1782 2500" enable-background="new 0 0 1782 2500" xml:space="preserve">
<g transform="matrix(12.58495 0 0 12.58495 -584.344 -1.372)">
	<ellipse fill="#FFFFFF" stroke="#000000" stroke-width="1.1" cx="140.877" cy="143.264" rx="22.632" ry="27.316"/>
	<path fill="#FFFFFF" d="M105.259,199.021c0.323-1.011,0.554-2.052,0.554-3.155c0-6.973-6.983-12.637-15.598-12.637
		s-15.592,5.664-15.592,12.637c0,1.103,0.226,2.145,0.554,3.155H105.259z"/>
	<path fill="none" stroke="#000000" stroke-width="1.1" stroke-linecap="round" stroke-linejoin="round" d="M105.259,199.021
		c0.323-1.011,0.554-2.052,0.554-3.155c0-6.973-6.983-12.637-15.598-12.637s-15.592,5.664-15.592,12.637
		c0,1.103,0.226,2.145,0.554,3.155H105.259z"/>
	<path fill="#FFFFFF" d="M159.881,199.021c0.318-1.011,0.549-2.052,0.549-3.155c0-6.973-6.983-12.637-15.603-12.637
		c-8.615,0-15.592,5.664-15.592,12.637c0,1.103,0.221,2.145,0.549,3.155H159.881z"/>
	<path fill="none" stroke="#000000" stroke-width="1.1" stroke-linecap="round" stroke-linejoin="round" d="M159.881,199.021
		c0.318-1.011,0.549-2.052,0.549-3.155c0-6.973-6.983-12.637-15.603-12.637c-8.615,0-15.592,5.664-15.592,12.637
		c0,1.103,0.221,2.145,0.549,3.155H159.881z"/>
	<circle fill="#FFFFFF" stroke="#000000" stroke-width="1.1" cx="61.037" cy="58.186" r="13.863"/>
	<circle fill="#FFFFFF" stroke="#000000" stroke-width="1.1" cx="174.437" cy="58.186" r="13.863"/>
	<path fill="#FFFFFF" stroke="#FFFFFF" stroke-width="10" stroke-linecap="round" stroke-linejoin="round" d="M156.172,9.526
		l-27.727-6.526l-10.19,32.211"/>
	<ellipse fill="#FFFFFF" stroke="#000000" stroke-width="1.1" cx="94.192" cy="143.264" rx="22.632" ry="27.316"/>
	<circle fill="#FFFFFF" stroke="#000000" stroke-width="1.1" cx="167.485" cy="11.768" r="10.929"/>
	<path fill="#FFFFFF" d="M109.764,199.041h15.341c13.622-7.096,23.725-32.529,23.725-62.914c0-35.864-14.058-64.93-31.395-64.93
		c-17.342,0-31.395,29.071-31.395,64.93C86.039,166.512,96.137,191.945,109.764,199.041z"/>
	<path fill="none" stroke="#000000" stroke-width="1.1" d="M109.764,199.041h15.341c13.622-7.096,23.725-32.529,23.725-62.914
		c0-35.864-14.058-64.93-31.395-64.93c-17.342,0-31.395,29.071-31.395,64.93C86.039,166.512,96.137,191.945,109.764,199.041z"/>
	<ellipse fill="#FFFFFF" stroke="#000000" stroke-width="1.1" cx="117.435" cy="77.252" rx="62.79" ry="40.979"/>
	<path fill="none" stroke="#000000" stroke-width="1.1" stroke-linecap="round" stroke-linejoin="round" d="M100.919,199.021h33.843
		"/>
	<g>
		<path fill="#FF4500" d="M95.685,59.033c-5.639,0.061-10.195,4.617-10.256,10.256c0,5.577,4.679,10.102,10.256,10.102
			c5.577,0,10.103-4.525,10.103-10.102C105.788,63.712,101.262,59.033,95.685,59.033z M139.943,59.033
			c-5.642,0.058-10.203,4.615-10.267,10.256c0,5.582,4.69,10.102,10.267,10.102c5.579,0,10.102-4.523,10.102-10.102
			C150.046,63.707,145.526,59.033,139.943,59.033L139.943,59.033z"/>
		<path fill="none" stroke="#000000" stroke-width="1.1" stroke-linecap="round" d="M96.044,96.118
			c5.469,5.469,14.294,6.521,21.611,6.521 M139.43,96.118c-5.475,5.469-14.294,6.521-21.616,6.521"/>
	</g>
</g>
</svg>
