<?xml version="1.0" encoding="iso-8859-1"?>
<!-- Generator: Adobe Illustrator 19.0.0, SVG Export Plug-In . SVG Version: 6.00 Build 0)  -->
<svg version="1.1" id="Layer_1" xmlns="http://www.w3.org/2000/svg" xmlns:xlink="http://www.w3.org/1999/xlink" x="0px" y="0px"
	 viewBox="0 0 512 512" style="enable-background:new 0 0 512 512;" xml:space="preserve">
<circle style="fill:#FF9911;" cx="256" cy="256" r="256"/>
<path style="fill:#ED8800;" d="M256,0c-11.317,0-22.461,0.744-33.391,2.167C348.216,18.53,445.217,125.933,445.217,256
	s-97.002,237.47-222.609,253.833C233.539,511.256,244.683,512,256,512c141.385,0,256-114.616,256-256S397.385,0,256,0z"/>
<g>
	<path style="fill:#FCFCFC;" d="M155.826,401.252c-24.856,0-45.078-20.222-45.078-45.078c0-24.856,20.222-45.078,45.078-45.078
		s45.078,20.222,45.078,45.078C200.904,381.03,180.683,401.252,155.826,401.252z"/>
	<path style="fill:#FCFCFC;" d="M249.878,387.908v-10.041c0-63.924-51.821-115.744-115.744-115.744h-10.041
		c-1.223,0-2.214-0.992-2.214-2.214v-57.902c0-1.223,0.992-2.214,2.214-2.214h10.041c98.349,0,178.075,79.727,178.075,178.075
		v10.041c0,1.223-0.992,2.214-2.214,2.214h-57.902C250.87,390.122,249.878,389.13,249.878,387.908z"/>
	<path style="fill:#FCFCFC;" d="M361.183,387.908v-10.041c0-125.395-101.653-227.049-227.049-227.049h-10.041
		c-1.223,0-2.214-0.992-2.214-2.214V90.701c0-1.223,0.992-2.214,2.214-2.214h12.255c76.705,0,148.818,29.87,203.057,84.108
		c54.239,54.239,84.108,126.352,84.108,203.057v12.256c0,1.223-0.992,2.214-2.214,2.214h-57.902
		C362.174,390.122,361.183,389.13,361.183,387.908z"/>
</g>
<g>
</g>
<g>
</g>
<g>
</g>
<g>
</g>
<g>
</g>
<g>
</g>
<g>
</g>
<g>
</g>
<g>
</g>
<g>
</g>
<g>
</g>
<g>
</g>
<g>
</g>
<g>
</g>
<g>
</g>
</svg>
