<?xml version="1.0" encoding="utf-8"?>
<!-- Generator: Adobe Illustrator 17.0.0, SVG Export Plug-In . SVG Version: 6.00 Build 0)  -->
<!DOCTYPE svg PUBLIC "-//W3C//DTD SVG 1.1//EN" "http://www.w3.org/Graphics/SVG/1.1/DTD/svg11.dtd">
<svg version="1.1" id="图层_1" xmlns="http://www.w3.org/2000/svg" xmlns:xlink="http://www.w3.org/1999/xlink" x="0px" y="0px"
	 width="256px" height="256px" viewBox="0 0 256 256" enable-background="new 0 0 256 256" xml:space="preserve">
<g>
	<path fill="#00AFF0" d="M246.939,149.011c-0.081,0.45-0.138,0.904-0.223,1.354l-0.438-2.578
		C246.517,148.188,246.716,148.605,246.939,149.011c1.322-7.192,2.015-14.554,2.015-21.913c0-16.318-3.195-32.149-9.507-47.053
		c-6.089-14.396-14.802-27.325-25.91-38.425c-11.092-11.1-24.029-19.813-38.417-25.902c-14.899-6.304-30.731-9.499-47.049-9.499
		c-7.691,0-15.394,0.722-22.89,2.161c-0.016,0.004-0.036,0.004-0.057,0.008c0.422,0.223,0.847,0.422,1.261,0.653l-2.542-0.397
		c0.426-0.081,0.855-0.17,1.281-0.255C94.839,2.919,83.272,0,71.564,0C52.449,0,34.477,7.443,20.96,20.964
		C7.447,34.481,0,52.453,0,71.568c0,12.167,3.13,24.126,9.004,34.696c0.077-0.438,0.13-0.88,0.215-1.318l0.438,2.534
		c-0.227-0.397-0.426-0.811-0.653-1.216c-1.192,6.847-1.82,13.845-1.82,20.834c0,16.322,3.195,32.15,9.507,47.057
		c6.081,14.4,14.798,27.321,25.894,38.421c11.108,11.1,24.029,19.825,38.433,25.898c14.899,6.316,30.735,9.515,47.053,9.515
		c7.103,0,14.222-0.649,21.171-1.881c-0.405-0.227-0.819-0.434-1.232-0.673l2.583,0.454c-0.446,0.085-0.896,0.138-1.35,0.219
		c10.707,6.057,22.829,9.276,35.206,9.276c19.111,0,37.075-7.431,50.592-20.956c13.521-13.508,20.96-31.485,20.96-50.6
		C256,171.621,252.854,159.62,246.939,149.011L246.939,149.011z M148.009,245.435c0.414,0.239,0.827,0.446,1.232,0.673
		c0.454-0.081,0.904-0.134,1.35-0.219L148.009,245.435z M246.716,150.365c0.085-0.45,0.142-0.904,0.223-1.354
		c-0.223-0.405-0.422-0.823-0.661-1.224L246.716,150.365z M9.219,104.946c-0.085,0.438-0.138,0.88-0.215,1.318
		c0.227,0.405,0.426,0.819,0.653,1.216L9.219,104.946z M106.385,9.041c-0.414-0.231-0.839-0.43-1.261-0.653
		c-0.426,0.085-0.855,0.174-1.281,0.255L106.385,9.041z"/>
	<path fill="#FFFFFF" d="M127.553,204.131c-42.946,0-62.158-21.114-62.158-36.937c0-8.116,5.992-13.804,14.25-13.804
		c18.378,0,13.618,26.389,47.908,26.389c17.555,0,27.248-9.531,27.248-19.286c0-5.866-2.895-12.369-14.453-15.219l-38.198-9.535
		c-30.763-7.715-36.346-24.345-36.346-39.978c0-32.458,30.56-44.644,59.26-44.644c26.437,0,57.602,14.611,57.602,34.083
		c0,8.343-7.225,13.196-15.479,13.196c-15.686,0-12.799-21.71-44.393-21.71c-15.677,0-24.361,7.099-24.361,17.259
		c0,10.139,12.381,13.379,23.133,15.827l28.274,6.276c30.97,6.9,38.823,24.982,38.823,42.013
		C188.662,184.436,168.415,204.131,127.553,204.131z"/>
</g>
</svg>
