<?xml version="1.0" encoding="utf-8"?>
<!-- Generator: Adobe Illustrator 17.0.0, SVG Export Plug-In . SVG Version: 6.00 Build 0)  -->
<!DOCTYPE svg PUBLIC "-//W3C//DTD SVG 1.1//EN" "http://www.w3.org/Graphics/SVG/1.1/DTD/svg11.dtd">
<svg version="1.1" id="图层_1" xmlns="http://www.w3.org/2000/svg" xmlns:xlink="http://www.w3.org/1999/xlink" x="0px" y="0px"
	 width="500px" height="500px" viewBox="0 0 500 500" enable-background="new 0 0 500 500" xml:space="preserve">
<linearGradient id="SVGID_1_" gradientUnits="userSpaceOnUse" x1="1075.7867" y1="2063.314" x2="1075.7867" y2="2083.823" gradientTransform="matrix(9.7533 0 0 9.7533 -10237.1982 -19962.1016)">
	<stop  offset="0" style="stop-color:#FF8800"/>
	<stop  offset="1" style="stop-color:#FF3300"/>
</linearGradient>
<path fill="url(#SVGID_1_)" d="M111.391,364.685c-0.758-0.749-1.325-2.449-1.325-3.591c0-1.325-0.759-12.821-1.7-25.652l-1.7-23.404
	l1.892-41.316c1.883-42.074,2.074-43.582,5.282-43.582c0.567,0,1.7,0.375,2.458,1.133c1.133,0.941,1.7,6.223,3.582,41.69
	l2.266,40.749l-2.266,26.602c-1.325,14.713-2.641,27.169-3.208,27.727c-1.325,1.517-3.591,1.325-5.282-0.183L111.391,364.685
	L111.391,364.685z M130.628,364.127c-0.941-1.325-1.7-9.248-3.016-28.302c-1.508-22.645-1.7-29.061-0.941-46.031
	c0.375-10.765,1.133-32.076,1.7-47.365c0.567-15.28,1.133-28.677,1.325-30.185c0.758-4.907,6.415-5.657,7.548-0.941
	c0.192,0.941,1.325,23.77,2.458,50.555l2.074,48.873l-2.074,25.286c-0.734,8.739-1.426,17.482-2.074,26.228
	c0,1.499-2.458,3.582-4.149,3.582c-0.95,0-2.074-0.759-2.833-1.883v0.183L130.628,364.127z M150.258,364.502
	c-1.325-1.325-1.7-3.4-2.074-13.205c-0.384-6.415-0.95-16.038-1.325-21.32c-1.133-13.388-0.95-30.751,0.375-72.076
	c0.758-19.611,1.325-39.424,1.325-44.331c0.192-9.998,0.95-13.013,3.591-13.772c3.208-0.758,5.657,1.508,5.657,5.474
	c0,1.892,0.941,26.411,1.892,54.338l1.892,50.756l-1.892,25.469c-0.95,13.955-1.892,25.844-1.892,26.42
	c0,1.499-2.458,3.582-4.341,3.582c-0.941,0-2.266-0.759-3.208-1.508V364.502L150.258,364.502z M169.878,364.502
	c-0.941-1.133-1.508-3.4-1.892-6.982c-2.833-43.015-2.833-46.04-1.508-90.938c1.7-61.877,2.074-67.735,3.582-69.243
	c1.508-1.508,5.666-1.508,6.982,0c0.758,0.758,1.325,11.697,2.266,36.225c2.266,68.485,2.458,79.424,0.941,101.877
	c-1.7,25.469-1.883,27.727-3.582,29.234c-1.7,1.7-4.716,1.517-6.607-0.375L169.878,364.502L169.878,364.502z M189.499,364.31
	c-0.941-0.95-1.7-3.016-1.7-4.341c0-1.325-0.567-12.639-1.325-25.095c-1.325-20.937-1.325-26.794,0-77.541
	c1.508-58.862,1.508-57.92,5.849-58.862c3.774-0.759,6.233,2.449,6.233,8.298c0,2.641,0.375,16.413,0.758,30.377
	c0.375,13.964,0.941,35.275,1.325,47.365c0.192,11.889,0.567,22.262,0.759,22.828c0.192,0.567-0.384,12.447-1.325,26.411
	c-0.639,9.055-1.206,18.114-1.7,27.178c0,2.257-3.016,5.282-5.657,5.282c-1.401-0.12-2.693-0.803-3.582-1.892h0.366L189.499,364.31z
	 M209.686,364.502c-1.7-1.7-1.892-3.774-3.582-33.959c-0.941-17.546-0.759-36.034,0.941-95.846
	c0.95-32.067,0.95-32.634,6.041-32.634c1.7,0,3.4,0.567,4.341,1.7c1.7,1.7,1.7,3.016,2.449,30.56
	c0.192,8.673,0.95,29.81,1.325,46.79c0.758,27.727,0.758,33.584-0.759,56.413c-1.508,24.528-1.7,25.469-3.582,26.977
	c-2.458,1.883-5.474,1.883-7.548,0L209.686,364.502L209.686,364.502z M229.681,364.502c-1.133-1.133-1.7-3.208-2.074-6.982
	c-1.325-14.53-2.266-50.564-1.892-71.884c0.192-13.205,0.758-33.392,0.95-45.282c0.941-47.731,1.325-55.27,3.016-56.97
	c2.074-2.074,6.223-2.074,8.115,0c2.074,2.074,2.266,8.115,4.149,100.186c0.567,27.736-1.325,76.408-3.208,79.798
	c-1.7,3.217-6.607,3.774-9.248,1.133L229.681,364.502L229.681,364.502z M250.252,364.31c-1.39-1.068-2.332-2.615-2.641-4.341
	c-0.192-1.517-0.95-13.781-1.7-27.361c-0.941-19.429-1.133-31.126-0.567-54.905c0.384-16.596,0.95-44.139,1.325-61.119
	c0.567-38.866,0.95-42.641,3.208-44.907c2.458-2.266,6.041-2.074,8.682,0.375c1.892,1.892,2.074,2.641,2.266,12.264
	c0,5.657,0.192,11.314,0.375,12.447s0.384,17.171,0.759,35.65c0.384,18.487,0.758,33.776,0.95,33.968
	c0.941,1.508,0.192,56.221-0.95,73.2c-0.517,6.913-0.959,13.831-1.325,20.754c0,2.074-3.774,5.657-6.223,5.657
	C253.268,366.01,251.376,365.26,250.252,364.31L250.252,364.31z M268.548,363.935l-2.084-2.084V166.779l2.266-1.7
	c2.641-2.074,12.639-5.282,22.645-7.357c10.756-2.074,28.302-1.892,39.433,0.375c44.514,9.248,76.216,43.399,83.39,89.805
	l0.567,3.016l7.366-2.074c6.223-1.7,8.49-2.074,16.596-1.7c11.515,0.567,12.072,0.567,19.611,3.39
	c33.219,12.639,48.298,50.939,32.268,82.64c-7.366,14.713-17.93,23.952-33.968,29.81l-6.031,2.266l-89.805,0.192l-89.805,0.192
	L268.548,363.935L268.548,363.935z M91.579,363.177c-0.375-0.941-1.508-13.397-2.641-27.553
	c-1.892-24.903-1.892-26.036-0.567-41.873c0.758-8.874,1.517-19.812,1.892-24.153c0.567-7.923,1.892-11.707,3.966-11.707
	c2.641,0,3.4,3.025,5.666,26.986l2.266,24.528l-2.266,26.045c-1.133,14.329-2.458,26.794-2.833,27.918
	c-0.375,1.325-1.325,1.892-2.833,1.892c-1.508,0-2.266-0.567-2.833-1.892L91.579,363.177L91.579,363.177z M72.717,363.561
	c-0.192-0.384-1.508-12.456-2.641-26.794l-2.266-26.045l2.266-26.977c1.133-14.905,2.641-27.553,3.025-28.11
	c1.133-1.325,2.833-1.325,3.966,0c0.567,0.567,2.074,13.023,3.4,27.928l2.449,26.794l-2.449,26.036
	c-1.325,14.338-2.641,26.42-2.833,26.977c-0.375,1.133-4.341,1.517-4.907,0.375v-0.183H72.717z M54.037,361.486
	c-0.375-0.567-1.7-12.072-2.833-25.661l-2.266-24.72l2.074-23.395c1.133-12.821,2.266-25.095,2.449-26.977
	c0.567-3.774,2.266-5.282,3.966-3.591c0.567,0.567,2.074,11.697,3.591,26.602l2.641,25.661l-2.458,24.72
	c-1.325,13.58-2.833,25.469-3.208,26.593c-0.941,2.084-2.833,2.458-3.966,0.95v-0.183H54.037z M34.984,353.563
	c-0.192-0.759-1.508-11.131-2.641-22.828l-2.266-21.32l2.449-21.695c2.266-20.754,2.641-21.695,4.341-22.07
	c2.074-0.384,1.883-1.325,5.282,24.903l2.449,19.611l-2.449,20.571c-1.325,11.323-2.833,21.32-3.208,22.444
	c-0.95,2.266-3.025,2.467-3.591,0.384L34.984,353.563L34.984,353.563z M17.437,337.707c-0.891-4.693-1.646-9.41-2.266-14.147
	l-1.7-12.831l1.892-13.58c0.941-7.548,2.266-14.156,2.641-14.713c1.883-2.266,3.208,1.325,5.09,14.713l2.074,13.58l-2.074,13.58
	c-1.133,7.548-2.641,13.955-3.208,14.338c-1.508,0.941-2.074,0.758-2.641-0.759L17.437,337.707L17.437,337.707z"/>
</svg>
