<svg xmlns="http://www.w3.org/2000/svg" width="1230" height="900" version="1"><g stroke="#9e5c34" stroke-width="5"><path d="M1210 398l-33-34c-13 8-23 17-29 33-1 5-2 10 0 15-4 15 1 15 13 13 7 2 16 0 23-3 12-6 18-13 26-24z" fill="#d27a45" stroke-width="3"/><path d="M1187 351c-9 1-12 10-8 15l31 32c5 2 14-1 14-8 1-6-4-12-6-18-1-4 1-13-3-14-5-1-10 2-14-2-4-3-9-6-14-5z" fill="#b5795c" stroke-width="3"/><path d="M1097 278s-4 38 3 39 6-2 6-2l1-30z" fill="#ede6d2" stroke="none"/></g><path d="M736 266c44-8 56-67 83-120 13-27 45-52 64-67 10-92 60-107 103-14 88 20 169 103 199 173 17 39-12 73-48 76-23 4-67-45-50 4-17 17-96 1-59 36 37 8 68 10 110 16 27 3 64 37 56 64-23 4-39 31-67 16-31-25-54-16-77 1-24 17-49 30-72 47-28 22-38 1-71 6-8 25 29 124 23 186-5 46-25 94-46 133 28 16 73 25 101 19 7-4 43-19 64-18 37-1 50 49 48 74H656c-59 0-197-26-285-161-70-110-31-248-66-367-25-84-97 36-77 91 25 69 29 163-8 223C64 689 6 542 4 425 3 321 25 226 93 165c69-62 156-97 272-61 170 52 183 242 145 366-24 82-56 189 13 269 13 15 36 37 67 33-137-186 0-476 146-506z" fill="#a4683b"/><path d="M1190 253c22 21-9 58-27 53-15-20-4-58 27-53z"/><g transform="translate(-5 -10)"><g transform="matrix(.79901 .60132 -.60927 .79296 19 -212)"><ellipse cx="1070.4" cy="-316.3" rx="38.9" ry="32.1" fill="#fffffe" fill-opacity=".2"/><ellipse cx="1079.6" cy="-316" rx="23.3" ry="19.2"/></g><circle cx="1064.4" cy="178.5" r="6.6" fill="#fff"/></g><path d="M900 66c3-19 6-46 24-49 19-3 31 22 40 43 0 0-13 11-26 52-29-47-38-46-38-46z" fill="#d68655"/></svg>