<?xml version="1.0" encoding="utf-8"?>
<!-- Generator: Adobe Illustrator 17.0.0, SVG Export Plug-In . SVG Version: 6.00 Build 0)  -->
<!DOCTYPE svg PUBLIC "-//W3C//DTD SVG 1.1//EN" "http://www.w3.org/Graphics/SVG/1.1/DTD/svg11.dtd">
<svg version="1.1" id="图层_1" xmlns="http://www.w3.org/2000/svg" xmlns:xlink="http://www.w3.org/1999/xlink" x="0px" y="0px"
	 width="500px" height="500px" viewBox="0 0 500 500" enable-background="new 0 0 500 500" xml:space="preserve">
<path fill="#FFFFFF" d="M271.132,185.66c0,0.497,0,0.994,0.025,1.461l-72.287,105.007c-11.71-0.533-23.46,1.521-34.602,6.111
	c-4.912,2.003-9.514,4.463-13.832,7.303l-158.73-65.344c0.001,0-3.673,60.425,11.634,105.458l112.213,46.301
	c5.634,25.179,22.907,47.265,48.391,57.889c41.694,17.42,89.768-2.434,107.111-44.146c4.513-10.903,6.618-22.339,6.314-33.75
	l103.43-73.915c0.837,0.025,1.699,0.051,2.536,0.051c61.896,0,112.203-50.46,112.203-112.426
	c0-61.972-50.308-112.386-112.203-112.386C321.465,73.275,271.132,123.689,271.132,185.66L271.132,185.66z M253.788,398.448
	c-13.424,32.228-50.46,47.518-82.652,34.105c-14.851-6.187-26.064-17.521-32.533-31.037l36.526,15.138
	c23.741,9.889,50.98-1.369,60.848-25.103c9.899-23.759-1.331-51.043-25.06-60.932l-37.759-15.645
	c14.57-5.528,31.133-5.731,46.608,0.71c15.602,6.491,27.707,18.713,34.122,34.333S260.28,382.879,253.788,398.448 M383.336,260.559
	c-41.205,0-74.751-33.598-74.751-74.898c0-41.268,33.547-74.876,74.751-74.876c41.23,0,74.777,33.608,74.777,74.876
	C458.112,226.961,424.565,260.559,383.336,260.559 M327.323,185.546c0-31.069,25.154-56.269,56.14-56.269
	c31.011,0,56.165,25.199,56.165,56.269c0,31.072-25.154,56.249-56.165,56.249C352.477,241.795,327.323,216.618,327.323,185.546z"/>
</svg>
