<?xml version="1.0" encoding="utf-8"?>
<!-- Generator: Adobe Illustrator 17.0.0, SVG Export Plug-In . SVG Version: 6.00 Build 0)  -->
<!DOCTYPE svg PUBLIC "-//W3C//DTD SVG 1.1//EN" "http://www.w3.org/Graphics/SVG/1.1/DTD/svg11.dtd">
<svg version="1.1" id="图层_1" xmlns="http://www.w3.org/2000/svg" xmlns:xlink="http://www.w3.org/1999/xlink" x="0px" y="0px"
	 width="500px" height="500px" viewBox="0 0 500 500" enable-background="new 0 0 500 500" xml:space="preserve">
<g id="g2472" transform="translate(11.8857,11.5225)">
	<path id="path2474" fill="#121210" d="M165.48,483.404H51.08c-4.576,0-6.864-1.144-6.864-5.148V-1.082
		c0-3.432,2.288-5.72,6.864-5.72h113.256c4.576,0,7.436,1.716,7.436,5.72v29.744c0,4.004-2.288,5.148-6.864,5.148H114
		c-6.292,0-8.58,2.288-8.58,6.292v396.969c0,4.004,2.288,5.72,7.436,5.72h51.48c4.576,0,7.436,1.716,7.436,5.148v30.316
		C172.344,481.688,170.056,483.404,165.48,483.404"/>
</g>
<g id="g2476" transform="translate(37.5488,30.5913)">
	<path id="path2478" fill="#2EACE3" d="M401.011,270.248c-30.316,8.58-50.908,26.312-50.908,55.484v83.512
		c0,62.348-59.488,55.484-133.276,55.484h-11.44c-4.576,0-7.436-1.716-7.436-5.72v-28.6c0-4.004,2.288-5.72,6.864-5.72h9.152
		c44.044,0,74.932,9.724,74.932-25.74v-80.08c0-24.596,17.16-58.916,51.48-71.5c2.288-0.572,2.86-1.716,2.86-2.86
		s-0.572-2.86-2.86-4.004c-31.46-14.3-51.48-37.752-51.48-65.78V84.347c0-34.892-30.888-69.784-74.932-69.784h-9.152
		c-4.576,0-6.864-1.716-6.864-5.72v-28.6c0-4.004,2.86-5.72,7.436-5.72h11.44c73.788,0,133.848,52.624,133.848,114.972v76.076
		c0,28.6,20.592,45.188,51.48,56.056c11.44,3.432,17.732,4.004,17.732,13.156v24.024
		C420.459,263.956,414.739,266.244,401.011,270.248"/>
</g>
<g id="g2480" transform="translate(23.0029,38.9136)">
	<path id="path2482" fill="#121210" d="M267.146,177.397c0,6.864-6.292,12.012-13.156,12.012h-30.316
		c-7.436,0-13.156-5.72-13.156-12.012v-27.456c0-6.864,6.292-12.012,13.156-12.012h30.316c7.436,0,13.156,5.72,13.156,12.012
		V177.397z"/>
</g>
</svg>
