<?xml version="1.0" encoding="utf-8"?>
<!-- Generator: Adobe Illustrator 17.0.0, SVG Export Plug-In . SVG Version: 6.00 Build 0)  -->
<!DOCTYPE svg PUBLIC "-//W3C//DTD SVG 1.1//EN" "http://www.w3.org/Graphics/SVG/1.1/DTD/svg11.dtd">
<svg version="1.1" id="图层_1" xmlns="http://www.w3.org/2000/svg" xmlns:xlink="http://www.w3.org/1999/xlink" x="0px" y="0px"
	 width="500px" height="500px" viewBox="0 0 500 500" enable-background="new 0 0 500 500" xml:space="preserve">
<path fill="#FF0000" d="M233.414,395.618c-26.213-16.416-45.516-73.074-45.516-140.384c0-2.47,0.01-4.909,0.073-7.338l0.031,0.031
	c-72.896-11.455-125.573-42.848-126.917-79.963l-0.219,0.427c-17.844,22.169-28.027,47.799-28.027,75.106
	c0,80.359,88.207,146.199,200.095,152.026L233.414,395.618z M-0.857,249.366c0-89.917,111.898-162.824,249.937-162.824
	s249.937,72.907,249.937,162.824S387.118,412.19,249.079,412.19S-0.857,339.283-0.857,249.366z M249.079,110.035
	c26.651,0,49.31,40.419,57.711,96.827l0.031-0.083c51.843-8.067,88.145-26.693,88.145-48.351c0-29.079-65.319-52.614-145.887-52.614
	s-145.887,23.545-145.887,52.614c0,21.658,36.292,40.273,88.145,48.351l0.031,0.083C199.77,150.465,222.439,110.035,249.079,110.035
	z M265.214,395.524c111.888-5.826,200.106-71.667,200.106-152.026c0-27.308-10.193-52.937-28.027-75.106l-0.219-0.427
	c-1.345,37.115-54.01,68.509-126.917,79.963l0.031-0.031c0.052,2.428,0.073,4.867,0.073,7.338
	c0,67.31-19.324,123.968-45.516,140.384L265.214,395.524z M249.079,211.052c11.944,0,23.545-0.511,34.645-1.49l-0.01,0.01
	c-5.524-36.156-18.949-61.671-34.635-61.671s-29.1,25.515-34.635,61.671l-0.01-0.01
	C225.535,210.542,237.135,211.052,249.079,211.052z M249.079,344.943c20.064,0,36.427-41.753,37.303-94.117l0.104,0.031
	c-12.09,1.115-24.598,1.709-37.407,1.709c-12.81,0-25.317-0.584-37.407-1.709l0.115-0.031
	C212.652,303.2,229.016,344.943,249.079,344.943z"/>
</svg>
