<?xml version="1.0" encoding="utf-8"?>
<!-- Generator: Adobe Illustrator 17.0.0, SVG Export Plug-In . SVG Version: 6.00 Build 0)  -->
<!DOCTYPE svg PUBLIC "-//W3C//DTD SVG 1.1//EN" "http://www.w3.org/Graphics/SVG/1.1/DTD/svg11.dtd">
<svg version="1.1" id="图层_1" xmlns="http://www.w3.org/2000/svg" xmlns:xlink="http://www.w3.org/1999/xlink" x="0px" y="0px"
	 width="500px" height="500px" viewBox="0 0 500 500" enable-background="new 0 0 500 500" xml:space="preserve">
<g id="shape_4">
	
		<image overflow="visible" opacity="0.06" width="2250" height="2258" xlink:href="CCFAA87C.png"  transform="matrix(0.24 0 0 0.24 -15.7144 -11.9894)">
	</image>
	<g>
		
			<image overflow="visible" opacity="0.15" width="2011" height="2020" xlink:href="CCFAA872.png"  transform="matrix(0.24 0 0 0.24 12.4665 15.0505)">
		</image>
		<g>
			<path fill="#FFFFFF" d="M21.466,486.667L54.28,366.854c-20.239-35.065-30.887-74.844-30.872-115.596
				C23.459,123.771,127.213,20.051,254.706,20.051c61.87,0.027,119.94,24.107,163.612,67.809
				c43.666,43.705,67.704,101.799,67.683,163.585c-0.054,127.481-103.822,231.219-231.294,231.219c-0.009,0,0.006,0,0,0h-0.099
				c-38.708-0.015-76.744-9.724-110.527-28.147L21.466,486.667z M149.76,412.657l7.023,4.163
				c29.511,17.511,63.345,26.774,97.847,26.792h0.075c105.957,0,192.195-86.218,192.241-192.183
				c0.015-51.354-19.959-99.641-56.255-135.964c-36.299-36.323-84.562-56.34-135.913-56.361
				c-106.041,0-192.277,86.206-192.319,192.168c-0.015,36.311,10.145,71.674,29.39,102.275l4.576,7.27l-19.426,70.916
				L149.76,412.657z"/>
		</g>
	</g>
</g>
<linearGradient id="shape_3_1_" gradientUnits="userSpaceOnUse" x1="253.7317" y1="478.5934" x2="253.7317" y2="28.1304">
	<stop  offset="0" style="stop-color:#20B038"/>
	<stop  offset="1" style="stop-color:#60D66A"/>
</linearGradient>
<path id="shape_3" fill="url(#shape_3_1_)" d="M29.51,478.593l31.678-115.668c-19.543-33.852-29.821-72.258-29.809-111.592
	C31.431,128.259,131.596,28.13,254.666,28.13c59.732,0.027,115.795,23.273,157.946,65.464
	c42.16,42.191,65.365,98.271,65.341,157.913c-0.051,123.077-100.222,223.214-223.278,223.214c-0.009,0,0.006,0,0,0h-0.099
	c-37.368-0.012-74.086-9.392-106.697-27.166L29.51,478.593z"/>
<g id="shape_2">
	
		<image overflow="visible" opacity="0.04" width="2036" height="2045" xlink:href="CCFAA873.png"  transform="matrix(0.24 0 0 0.24 9.4665 9.0505)">
	</image>
	<g>
		<g>
			<linearGradient id="SVGID_1_" gradientUnits="userSpaceOnUse" x1="253.7332" y1="486.6672" x2="253.7332" y2="20.0505">
				<stop  offset="0" style="stop-color:#F9F9F9"/>
				<stop  offset="1" style="stop-color:#FFFFFF"/>
			</linearGradient>
			<path fill="url(#SVGID_1_)" d="M21.466,486.667L54.28,366.854c-20.239-35.065-30.887-74.844-30.872-115.596
				C23.459,123.771,127.213,20.051,254.706,20.051c61.87,0.027,119.94,24.107,163.612,67.809
				c43.666,43.705,67.704,101.799,67.683,163.585c-0.054,127.481-103.822,231.219-231.294,231.219c-0.009,0,0.006,0,0,0h-0.099
				c-38.708-0.015-76.744-9.724-110.527-28.147L21.466,486.667z M149.76,412.657l7.023,4.163
				c29.511,17.511,63.345,26.774,97.847,26.792h0.075c105.957,0,192.195-86.218,192.241-192.183
				c0.015-51.354-19.959-99.641-56.255-135.964c-36.299-36.323-84.562-56.34-135.913-56.361
				c-106.041,0-192.277,86.206-192.319,192.168c-0.015,36.311,10.145,71.674,29.39,102.275l4.576,7.27l-19.426,70.916
				L149.76,412.657z"/>
		</g>
	</g>
</g>
<g id="shape_1">
	
		<image overflow="visible" opacity="0.06" width="1079" height="1008" xlink:href="CCFAA875.png"  transform="matrix(0.24 0 0 0.24 125.1769 134.4789)">
	</image>
	<g>
		<path fill-rule="evenodd" clip-rule="evenodd" fill="#FFFFFF" d="M196.897,154.6c-4.329-9.624-8.887-9.817-13.005-9.985
			c-3.369-0.145-7.225-0.135-11.075-0.135c-3.853,0-10.115,1.448-15.41,7.231c-5.298,5.783-20.23,19.763-20.23,48.196
			c0,28.436,20.711,55.912,23.598,59.771c2.89,3.853,39.981,64.067,98.723,87.232c48.82,19.251,58.754,15.422,69.35,14.459
			c10.597-0.963,34.192-13.977,39.009-27.473c4.817-13.493,4.817-25.059,3.372-27.476c-1.445-2.408-5.298-3.853-11.078-6.743
			c-5.78-2.89-34.192-16.873-39.49-18.8c-5.298-1.927-9.152-2.89-13.005,2.896c-3.853,5.78-14.923,18.794-18.294,22.647
			c-3.372,3.862-6.743,4.344-12.523,1.454c-5.78-2.899-24.393-8.995-46.474-28.683c-17.18-15.317-28.779-34.234-32.151-40.02
			c-3.372-5.78-0.361-8.911,2.538-11.792c2.595-2.589,5.78-6.746,8.67-10.121c2.884-3.375,3.847-5.783,5.774-9.636
			c1.927-3.859,0.963-7.234-0.482-10.124C213.268,194.608,202.036,166.027,196.897,154.6z"/>
	</g>
</g>
</svg>
