<svg xmlns="http://www.w3.org/2000/svg" width="60" height="48">
  <g fill="none" fill-rule="evenodd">
    <path fill="#FDBD39" d="M9.22500276 33.0840797L6.086191 34.2307306l-.1685294 9.3377181 10.8655059-3.9692989c-3.7267412-1.2518612-6.4482353-3.4543705-7.55816474-6.5150701"/>
    <path fill="#F69833" d="M10.8676263 23.2078406L-.023009 27.1863498l6.1092 7.0443808 3.13881176-1.1466509c-1.10668235-3.0517727-.4242-6.5015026 1.64262354-9.8762391"/>
    <path fill="#FECF33" d="M29.1946263 9.73401033C15.3264381 14.8002244 6.38569688 25.2544118 9.22500276 33.0840797L59.4462381 14.7376295C56.6069322 6.9079262 43.0628498 4.6677609 29.1946263 9.73401033"/>
    <path fill="#EE6723" d="M39.4765792 38.0876989c13.8682236-5.0662495 22.8257647-15.4740664 19.9696589-23.3500694L9.22500276 33.0840797C12.0810734 40.9601181 25.608391 43.1539129 39.4765792 38.0876989"/>
    <path fill="#F69833" d="M59.4462381 14.7376295L9.22500276 33.0840797c.98340004 2.7118406 4.73350584 4.0478701 9.99532944 4.0478701 5.1298588 0 11.6965412-1.2689004 18.5425764-3.7698952 13.8682589-5.066214 23.6254589-13.2687587 21.6833295-18.6244251"/>
    <path fill="#FDBD39" d="M49.4509086 10.689724c-5.1298941 0-11.6965411 1.2689358-18.542647 3.7698952C17.0400734 19.5258686 7.28283806 27.7283779 9.22500276 33.0840797L59.4462381 14.7376295c-.9834-2.711876-4.7335059-4.0479055-9.9953295-4.0479055"/>
    <path fill="#EE6723" d="M46.6773557 44.0629018h-.0003529c-1.4775883 0-3.6574942-1.3346833-6.4792236-3.9669254-3.3382588-3.1141904-7.1622353-7.6754657-10.7676706-12.8435247-3.6052941-5.1678465-6.5678117-10.3344886-8.3418-14.548251-1.9328117-4.59195273-2.2083882-7.41538004-.8191058-8.3919232.3046235-.21389226.6718235-.32225536 1.0913294-.32225536 1.1300823 0 3.3320117.84136384 7.4037529 4.84984207l.0890471.08760443-.0120353.12458746c-.0278471.28796456-.0535059.57851512-.0763765.86368117l-.0453882.56625833-.3994588-.4024561c-4.3871648-4.41986127-6.3183883-4.89702732-6.9451412-4.89702732-.1787294 0-.3210706.03634538-.4231059.1080797-.6026118.4234273-.6414 2.4973107 1.2324706 6.94869962 1.7423294 4.1386627 4.6617529 9.2271587 8.2204941 14.3280886 3.5588824 5.1014258 7.3243412 9.5952885 10.6029176 12.6537919 3.5354471 3.2980073 5.1286236 3.6541284 5.6495295 3.6541284.1798588 0 .3260117-.038648.4344-.1148812.6357176-.4466657.6364588-2.6683395-1.4532353-7.4595188l-.0959294-.2199498.21-.1149521c.2100352-.1149874.4131529-.2282037.6036352-.3364959l.2515765-.1429727.1159765.2657181c1.4817176 3.3949284 2.8667647 7.7097919 1.0506 8.9864856-.3062118.2150967-.6752118.3241682-1.0969059.3241682zm-.0003529-.5236782h.000375l-.00025.2618214-.000125-.2618214z"/>
    <path fill="#EE6723" d="M39.8132498 37.9445491l-.0211059.2609358c-.3506117 4.3383144-1.2737647 9.5539837-3.6807529 9.7650775-.0484235.0043217-.0986471.0065535-.1488706.0065535-1.6351412 0-3.1821176-2.3427897-4.5978706-6.9634008-1.3395176-4.3713653-2.3789647-10.240614-2.9268706-16.526524-.5479411-6.2845992-.5397176-12.2458096.0231177-16.78540512.6134823-4.9467631 1.7814353-7.53011956 3.4712117-7.6784059.0499412-.00460517.1017177-.0069786.1528589-.0069786 1.1862 0 2.9739176 1.3431498 4.8040588 7.59930332l-1.1949882.23064797c-.6110471-2.09063912-1.2769765-3.79100812-1.9380706-4.9594096-.6115412-1.0807262-1.2061412-1.67589077-1.6743883-1.67589077-.0153882 0-.0308823.00063764-.0461647.00194834-.7324235.06433063-1.7990823 1.84096826-2.3937529 6.63629225-.5528118 4.458155-.5594824 10.3300251-.0187765 16.5339631.5410235 6.204859 1.5634941 11.986397 2.8789765 16.2794391.5891294 1.9227277 1.2353294 3.5073299 1.8687176 4.5826007.5840824.9915631 1.1493177 1.537665 1.5915883 1.537665.0152117 0 .0303529-.0007085.0454588-.0019838.7008-.0614258 2.0214706-1.9102229 2.5773176-8.4149136l1.2283059-.4215144"/>
  </g>
</svg>
