<?xml version="1.0" encoding="utf-8"?>
<!-- Generator: Adobe Illustrator 17.0.0, SVG Export Plug-In . SVG Version: 6.00 Build 0)  -->
<!DOCTYPE svg PUBLIC "-//W3C//DTD SVG 1.1//EN" "http://www.w3.org/Graphics/SVG/1.1/DTD/svg11.dtd">
<svg version="1.1" id="图层_1" xmlns="http://www.w3.org/2000/svg" xmlns:xlink="http://www.w3.org/1999/xlink" x="0px" y="0px"
	 width="500px" height="500px" viewBox="0 0 500 500" enable-background="new 0 0 500 500" xml:space="preserve">
<path fill="#FF5A5F" d="M467.174,355.755c-2.402-5.766-4.805-12.012-7.207-17.298c-3.844-8.649-7.688-16.817-11.051-24.505
	l-0.48-0.48c-33.154-72.074-68.71-145.109-106.189-217.183l-1.441-2.883c-3.844-7.207-7.688-14.895-11.532-22.583
	c-4.805-8.649-9.61-17.778-17.298-26.427c-15.376-19.22-37.478-29.791-61.023-29.791c-24.025,0-45.647,10.571-61.503,28.83
	c-7.207,8.649-12.493,17.778-17.298,26.427c-3.844,7.688-7.688,15.376-11.532,22.583l-1.441,2.883
	C122.18,167.402,86.143,240.437,52.989,312.511l-0.48,0.961c-3.363,7.688-7.207,15.856-11.051,24.505
	c-2.402,5.285-4.805,11.051-7.207,17.298c-6.246,17.778-8.168,34.595-5.766,51.893c5.285,36.037,29.31,66.308,62.464,79.762
	c12.493,5.285,25.466,7.688,38.92,7.688c3.844,0,8.649-0.48,12.493-0.961c15.856-1.922,32.193-7.207,48.049-16.337
	c19.7-11.051,38.439-26.908,59.581-49.971c21.142,23.064,40.361,38.92,59.581,49.971c15.856,9.129,32.193,14.415,48.049,16.337
	c3.844,0.48,8.649,0.961,12.493,0.961c13.454,0,26.908-2.402,38.92-7.688c33.634-13.454,57.179-44.205,62.464-79.762
	C475.342,390.351,473.42,373.533,467.174,355.755z M250.472,380.741c-25.947-32.673-42.764-63.425-48.53-89.372
	c-2.402-11.051-2.883-20.661-1.441-29.31c0.961-7.688,3.844-14.415,7.688-20.181c9.129-12.973,24.505-21.142,42.283-21.142
	s33.634,7.688,42.283,21.142c3.844,5.766,6.727,12.493,7.688,20.181c1.441,8.649,0.961,18.739-1.441,29.31
	C293.235,316.835,276.418,347.587,250.472,380.741z M442.188,403.324c-3.363,24.986-20.181,46.608-43.725,56.218
	c-11.532,4.805-24.025,6.246-36.517,4.805c-12.012-1.441-24.025-5.285-36.517-12.493c-17.298-9.61-34.595-24.505-54.776-46.608
	c31.712-38.92,50.932-74.476,58.14-106.189c3.363-14.895,3.844-28.349,2.402-40.842c-1.922-12.012-6.246-23.064-12.973-32.673
	c-14.895-21.622-39.881-34.115-67.749-34.115s-52.854,12.973-67.749,34.115c-6.727,9.61-11.051,20.661-12.973,32.673
	c-1.922,12.493-1.441,26.427,2.402,40.842c7.207,31.712,26.908,67.749,58.14,106.669c-19.7,22.103-37.478,36.998-54.776,46.608
	c-12.493,7.207-24.505,11.051-36.517,12.493c-12.973,1.441-25.466-0.48-36.517-4.805c-23.544-9.61-40.361-31.232-43.725-56.218
	c-1.441-12.012-0.48-24.025,4.324-37.478c1.441-4.805,3.844-9.61,6.246-15.376c3.363-7.688,7.207-15.856,11.051-24.025l0.48-0.961
	c33.154-71.593,68.71-144.628,105.708-215.741l1.441-2.883c3.844-7.207,7.688-14.895,11.532-22.103
	c3.844-7.688,8.168-14.895,13.454-21.142c10.09-11.532,23.544-17.778,38.439-17.778c14.895,0,28.349,6.246,38.439,17.778
	c5.285,6.246,9.61,13.454,13.454,21.142c3.844,7.207,7.688,14.895,11.532,22.103l1.441,2.883
	c36.517,71.593,72.074,144.628,105.228,216.222v0.48c3.844,7.688,7.207,16.337,11.051,24.025c2.402,5.766,4.805,10.571,6.246,15.376
	C442.669,378.819,444.11,390.831,442.188,403.324z"/>
</svg>
