<?xml version="1.0" encoding="utf-8"?>
<svg xmlns="http://www.w3.org/2000/svg" width="512" height="239.7">
	<path d="M419.3,63.2l31.5,78.7c1.7,4.4,3.4,8.9,4.9,13.5c1.5,4.6,2.9,8.9,4.1,12.7h0.5c1.2-3.7,2.6-7.9,4.1-12.5c1.5-4.6,3.3-9.4,5.2-14.2l29.4-78.2H512L476.1,152c-3.6,9.4-7,17.9-10.2,25.6c-3.2,7.6-6.4,14.5-9.7,20.7c-3.3,6.1-6.6,11.6-9.9,16.3c-3.4,4.7-7.1,8.8-11.2,12.4c-4.8,4.2-9.2,7.3-13.3,9.2c-4,1.9-6.8,3.2-8.1,3.7l-4.1-9.8c3.1-1.3,6.5-3.1,10.3-5.3c3.8-2.2,7.5-5,11.1-8.6c3.1-3,6.5-7,10.2-12c3.7-5,7-11,9.9-18c1-2.7,1.6-4.5,1.6-5.3c0-1.2-0.5-2.9-1.6-5.3L406.4,63.2H419.3z"/>
	<path d="M395.6,155.5c0,4.9,0.1,9.8,0.3,14.6c0.2,4.9,0.7,9.6,1.5,14.1h-11.4l-1.8-17.1h-0.5c-1.5,2.4-3.5,4.7-5.9,7.1c-2.4,2.4-5.2,4.5-8.4,6.4c-3.2,1.9-6.8,3.5-10.8,4.7c-4,1.2-8.5,1.8-13.3,1.8c-6,0-11.3-1-15.9-2.9c-4.6-1.9-8.3-4.5-11.2-7.6c-2.9-3.1-5.1-6.7-6.6-10.7s-2.2-8.1-2.2-12.1c0-14.3,6.2-25.3,18.5-33c12.3-7.7,30.8-11.4,55.6-11.1v-3.3c0-3.2-0.3-6.9-0.9-11c-0.6-4.1-1.9-8-4-11.7c-2.1-3.7-5.2-6.8-9.3-9.3c-4.1-2.5-9.7-3.8-16.8-3.8c-5.3,0-10.6,0.8-15.9,2.4c-5.2,1.6-10,3.8-14.3,6.7l-3.9-8.8c5.5-3.7,11.2-6.3,17-7.9c5.8-1.6,12-2.4,18.3-2.4c8.6,0,15.6,1.4,21,4.3c5.4,2.9,9.7,6.6,12.8,11.1c3.1,4.5,5.2,9.6,6.3,15.3c1.1,5.6,1.7,11.2,1.7,16.8L395.6,155.5z M383.5,119.4c-6.5-0.2-13.4,0.1-20.5,0.8c-7.1,0.7-13.7,2.1-19.7,4.4c-6,2.3-11,5.6-15,10c-4,4.4-5.9,10.2-5.9,17.4c0,8.6,2.5,14.9,7.5,18.9c5,4,10.6,6.1,16.8,6.1c5,0,9.5-0.7,13.4-2c4-1.3,7.4-3.2,10.3-5.4c2.9-2.3,5.4-4.8,7.4-7.7c2-2.9,3.5-5.8,4.5-8.8c0.9-3.4,1.3-5.8,1.3-7.3L383.5,119.4z"/>
	<path d="M204.4,16.3c5-0.8,10.5-1.6,16.5-2.3c6-0.7,12.6-1,19.9-1c10.3,0,19.2,1.2,26.7,3.7c7.5,2.4,13.6,5.9,18.5,10.5c4.1,4,7.4,8.8,9.7,14.4c2.3,5.5,3.5,11.9,3.5,19.2c0,8.7-1.6,16.4-4.8,22.9c-3.2,6.6-7.5,12.1-13,16.5c-5.5,4.5-12,7.8-19.6,10c-7.6,2.2-15.8,3.3-24.8,3.3c-8.1,0-14.9-0.6-20.4-1.8v72.6h-12.1V16.3z M216.5,101c2.9,0.8,6.2,1.4,9.8,1.8c3.6,0.3,7.5,0.5,11.6,0.5c15.5,0,27.5-3.5,36-10.6c8.5-7.1,12.8-17.4,12.8-31c0-6.6-1.1-12.3-3.4-17.1c-2.2-4.9-5.4-8.9-9.5-12c-4.1-3.1-9-5.5-14.7-7.1c-5.7-1.6-12-2.4-18.8-2.4c-5.5,0-10.2,0.2-14.2,0.6c-4,0.4-7.1,0.9-9.5,1.4L216.5,101z"/>
	<path d="M131.2,99.3c0.3,28.3,25.6,37.7,25.9,37.8c-0.2,0.7-4,13.4-13.3,26.6c-8,11.4-16.4,22.7-29.5,23c-12.9,0.2-17.1-7.4-31.8-7.4c-14.8,0-19.4,7.2-31.6,7.6c-12.7,0.5-22.4-12.3-30.5-23.6C3.7,140-8.9,97.6,8.1,69C16.5,54.8,31.6,45.9,48,45.6c12.5-0.2,24.2,8.1,31.8,8.1c7.6,0,21.9-10,36.9-8.6c6.3,0.3,23.9,2.5,35.3,18.5C151.1,64.3,131,75.6,131.2,99.3 M106.9,29.8c6.7-7.9,11.3-18.9,10-29.8c-9.7,0.4-21.5,6.3-28.4,14.2c-6.2,7-11.7,18.2-10.2,28.9C89.1,43.9,100.2,37.7,106.9,29.8"/>
</svg>