<?xml version="1.0" encoding="utf-8"?>
<!-- Generator: Adobe Illustrator 17.0.0, SVG Export Plug-In . SVG Version: 6.00 Build 0)  -->
<!DOCTYPE svg PUBLIC "-//W3C//DTD SVG 1.1//EN" "http://www.w3.org/Graphics/SVG/1.1/DTD/svg11.dtd">
<svg version="1.1" id="图层_1" xmlns="http://www.w3.org/2000/svg" xmlns:xlink="http://www.w3.org/1999/xlink" x="0px" y="0px"
	 width="500px" height="500px" viewBox="-87.245 -177.224 500 500" enable-background="new -87.245 -177.224 500 500"
	 xml:space="preserve">
<g id="_0">
	<g id="_42253856">
		<path id="_170829896" d="M164.114,132.332c-0.897,0-1.556,0.672-1.563,0.687c-0.04,0.03-15.921,15.185-15.921,15.185
			c-5.856,5.653-13.631,3.286-14.462,3.011c0,0-67.884-18.519-67.893-18.525c-12.955-3.908-15.529-8.123-17.511-13.243
			c0,0-1.151-3.185-3.971-4.018c0,0-82.982-24.36-82.989-24.36c-3.386-1.045-5.25-2.001-6.581-4.58c0,0-4.554-8.021-4.569-8.042
			c-1.011-1.923-2.841-2.126-2.947-2.141c-6.276-0.848-8.116-4.347-8.895-5.837l-3.702-6.501c-1.158-2.014-2.814-2.184-2.864-2.19
			c-3.568-0.227-5.267-1.126-6.742-3.55c0,0-3.619-6.019-3.634-6.049c-1.779-3.286-1.164-5.64-0.343-7.035
			c1.728-2.862,4.892-3.081,6.161-3.125h198.427c5.619,0,10.158,1.703,13.515,5.069c2.411,2.402,4.071,5.536,4.93,9.312
			c0.015,0.089,0.248,0.878,1.946,0.878h39.22c1.698,0,1.932-0.789,1.946-0.878c0.859-3.776,2.519-6.91,4.93-9.312
			c3.356-3.367,7.896-5.069,13.515-5.069h198.427c1.27,0.044,4.433,0.263,6.161,3.125c0.821,1.395,1.436,3.749-0.343,7.035
			c-0.015,0.03-3.634,6.049-3.634,6.049c-1.476,2.423-3.174,3.323-6.742,3.55c-0.051,0.006-1.707,0.176-2.864,2.19l-3.702,6.501
			c-0.778,1.49-2.619,4.989-8.895,5.837c-0.106,0.015-1.936,0.218-2.947,2.141c-0.015,0.021-4.569,8.042-4.569,8.042
			c-1.331,2.578-3.195,3.535-6.581,4.58c-0.006,0-82.989,24.36-82.989,24.36c-2.82,0.833-3.971,4.018-3.971,4.018
			c-1.982,5.12-4.556,9.336-17.511,13.243c-0.009,0.006-67.893,18.525-67.893,18.525c-0.831,0.276-8.606,2.642-14.462-3.011
			c0,0-15.881-15.155-15.921-15.185c-0.006-0.015-0.666-0.687-1.563-0.687H164.114L164.114,132.332z"/>
		<path id="_170829840" fill="#FFFFFF" d="M189.277,57.204c0.693-3.075,2.021-5.595,3.927-7.502
			c2.64-2.644,6.314-3.988,10.905-3.988c0,0,44.385,0,91.156,0c-3.134,2.345-4.779,5.311-4.889,5.509
			c-1.056,1.978-2.375,4.293-3.944,6.887h-97.476C189.157,57.754,189.278,57.205,189.277,57.204L189.277,57.204L189.277,57.204z
			 M405.113,50.411c-0.051,0.08-3.56,5.918-3.56,5.918c-0.666,1.096-1.077,1.592-3.812,1.766c-0.015,0-107.951,0.015-107.951,0.015
			c1.207-2.044,2.243-3.899,3.113-5.515c0.029-0.057,3.853-6.872,10.642-6.872l98.893-0.009c1.037,0.044,2.385,0.161,3.098,1.338
			c0.087,0.159,0.291,0.488,0.291,1.079C405.826,48.657,405.658,49.404,405.113,50.411L405.113,50.411L405.113,50.411z
			 M391.91,62.142l-3.768,6.617c-0.515,0.98-1.308,2.491-3.827,3.361c-2.105,0.526-6.293,0.191-7.743,0.015l-91.822-6.1
			c1.187-1.76,2.288-3.454,3.29-5.061h104.662C392.429,61.324,392.16,61.703,391.91,62.142L391.91,62.142L391.91,62.142z
			 M376.301,76.721c0.024-0.028-3.611,6.371-4.368,7.701c-0.187,0.248-1.219,1.372-4.584,0.927l-87.986-11.803
			c1.207-1.578,2.349-3.142,3.42-4.654l93.467,6.202c0.136,0.015,0.53,0.059,1.092,0.11
			C376.959,75.643,376.609,76.138,376.301,76.721L376.301,76.721L376.301,76.721z M346.038,93.8
			c-3.312,0.878-9.791-0.117-12.041-0.583c0,0-41.387-8.504-60.459-12.427c1.323-1.554,2.593-3.096,3.797-4.622l88.359,11.861
			L346.038,93.8L346.038,93.8L346.038,93.8z M316.068,102.595c-4.251,1.139-9.8-0.702-9.853-0.717l-0.066-0.021
			c0,0-0.009-0.006-0.015-0.006l-40.467-12.484c2.006-2.038,3.912-4.062,5.708-6.092l62.045,12.753
			c0.136,0.021,1.406,0.284,3.191,0.532L316.068,102.595L316.068,102.595L316.068,102.595z M284.458,111.879
			c-2.873,0.78-7.107-0.878-8.513-1.586c0,0-10.828-5.069-21.947-10.27c3.34-2.74,6.458-5.536,9.365-8.362l41.964,12.951
			c0.08,0.029,0.844,0.278,2.012,0.541L284.458,111.879L284.458,111.879z M277.98,118.212c-1.221,3.134-2.5,6.361-11.108,9.596
			c-3.553,1.104-7.779-2.038-7.815-2.074c-0.015-0.015-9.598-6.874-20.512-14.683c4.433-2.737,8.759-5.748,12.955-9.034
			l23.189,10.854c0.127,0.066,2.519,1.272,5.415,1.813C278.72,116.262,278.092,117.89,277.98,118.212L277.98,118.212L277.98,118.212
			z M245.546,133.887l-3.231,0.876c-2.72,0.651-6.041-2.044-7.103-3.164c0,0-5.216-5.426-11.918-12.425
			c4.287-1.942,8.477-4.111,12.567-6.507l21.491,15.376c0.087,0.072,1.315,0.992,3.119,1.775
			C255.696,131.118,245.546,133.887,245.546,133.887C245.546,133.887,245.546,133.887,245.546,133.887z M217.133,141.637
			c-2.269,0.358-4.902-3.367-5.666-4.756l-6.481-10.97c5.294-1.527,10.469-3.354,15.503-5.509l12.641,13.192
			c0.112,0.11,1.512,1.563,3.539,2.71L217.133,141.637L217.133,141.637L217.133,141.637z M195.615,147.502
			c-1.527,0.352-2.816,0.197-3.923-0.473c-2.379-1.454-3.17-4.801-3.214-4.998l-3.305-11.929c5.782-0.803,11.428-1.936,16.947-3.396
			l6.857,11.608c0.236,0.415,1.626,2.841,3.713,4.536L195.615,147.502L195.615,147.502L195.615,147.502z M181.67,143.172
			c0,0-9.194-8.774-12.312-11.74c4.376-0.153,8.693-0.475,12.933-0.971l3.382,12.198c0.096,0.424,0.77,3.098,2.648,5.224
			C185.73,147.146,184.945,146.379,181.67,143.172L181.67,143.172z M165.552,128.642V91.478h5.932l10.029,36.186
			C176.293,128.263,170.973,128.591,165.552,128.642z M146.711,127.665l10.035-36.186h5.932v37.158
			C157.247,128.592,151.929,128.257,146.711,127.665L146.711,127.665L146.711,127.665z M144.078,145.53
			c-1.3,1.264-2.761,1.972-4.175,2.353c1.891-2.133,2.549-4.815,2.648-5.23l3.382-12.176c4.241,0.49,8.557,0.81,12.931,0.956
			C155.362,134.763,144.078,145.53,144.078,145.53L144.078,145.53z M139.746,142.01c0,0.036-0.778,3.528-3.219,5.019
			c-1.107,0.67-2.392,0.824-3.918,0.473l-17.074-4.652c2.086-1.703,3.492-4.128,3.734-4.574c-0.009,0.009,2.892-4.893,6.825-11.561
			c5.521,1.461,11.176,2.593,16.958,3.388L139.746,142.01L139.746,142.01L139.746,142.01z M111.091,141.637l-19.536-5.333
			c2.027-1.154,3.432-2.608,3.539-2.716c0,0,5.585-5.831,12.641-13.186c5.04,2.148,10.201,3.988,15.497,5.515l-6.454,10.936
			C115.991,138.269,113.358,141.995,111.091,141.637L111.091,141.637L111.091,141.637z M85.904,134.763l-18.151-4.945
			c1.81-0.789,3.047-1.717,3.149-1.798c-0.015,0.015,10.141-7.253,21.461-15.352c4.09,2.387,8.279,4.565,12.573,6.507L93.011,131.6
			C91.949,132.719,88.629,135.414,85.904,134.763L85.904,134.763L85.904,134.763z M61.329,127.809
			c-8.572-3.236-9.857-6.456-11.076-9.581c-0.1-0.278-0.727-1.944-2.133-3.543c2.903-0.549,5.303-1.753,5.46-1.834
			c-0.024,0.006,11.596-5.419,23.151-10.832c4.185,3.286,8.511,6.303,12.946,9.034l-20.482,14.653
			C69.129,125.771,64.882,128.928,61.329,127.809z M43.773,111.879c-0.865-0.257-10.487-3.083-22.888-6.728
			c1.183-0.263,1.961-0.526,2.048-0.556c-0.036,0.015,34.007-10.489,41.934-12.936c2.907,2.82,6.026,5.623,9.365,8.356
			l-21.911,10.256C50.871,111.001,46.645,112.66,43.773,111.879L43.773,111.879L43.773,111.879z M12.177,102.601
			c-6.747-1.978-13.86-4.067-20.569-6.041c1.789-0.248,3.068-0.511,3.202-0.541c-0.006,0.009,43.802-8.998,62.045-12.745
			c1.804,2.022,3.696,4.054,5.701,6.092l-40.512,12.499C21.953,101.893,16.427,103.727,12.177,102.601L12.177,102.601
			L12.177,102.601z M-17.787,93.808c-9.115-2.688-16.523-4.857-19.685-5.78l88.372-11.861c1.207,1.518,2.47,3.059,3.791,4.616
			L-5.774,93.217C-8.017,93.683-14.467,94.678-17.787,93.808L-17.787,93.808L-17.787,93.808z M-39.118,85.348
			c-3.342,0.445-4.391-0.657-4.584-0.92l-4.397-7.743c-0.299-0.577-0.653-1.058-1.02-1.482c0.564-0.051,94.576-6.312,94.576-6.312
			c1.071,1.512,2.205,3.068,3.411,4.654L-39.118,85.348L-39.118,85.348L-39.118,85.348z M-56.083,72.12
			c-2.521-0.869-3.32-2.381-3.835-3.361c-1.542-2.62-3.569-6.537-4.565-7.785H40.196c1.005,1.607,2.097,3.301,3.291,5.061
			l-91.835,6.1C-49.79,72.311-53.98,72.646-56.083,72.12L-56.083,72.12L-56.083,72.12z M-69.487,58.109
			c-2.521-0.188-3.058-0.488-3.85-1.79c0.009,0.009-3.291-5.477-3.553-5.909c-0.547-1.007-0.727-1.754-0.704-2.279
			c0.062-1.344,0.975-2.381,3.382-2.417l98.899,0.009c6.694,0,10.642,6.872,10.642,6.872c0.869,1.616,1.906,3.471,3.119,5.515
			L-69.487,58.109L-69.487,58.109L-69.487,58.109z M124.113,45.714c4.599,0,8.265,1.344,10.907,3.988
			c1.906,1.906,3.229,4.427,3.933,7.502c0,0,0.142,0.526,0.322,0.905H41.801c-1.49-2.447-3.946-6.887-3.946-6.887
			c-0.108-0.197-1.756-3.164-4.889-5.509C79.736,45.714,124.113,45.714,124.113,45.714L124.113,45.714L124.113,45.714z
			 M265.266,64.75v-3.776h19.379c-0.986,1.548-2.063,3.17-3.217,4.842L265.266,64.75L265.266,64.75z M265.266,71.66v-3.929
			l14.151,0.935c-1.045,1.452-2.163,2.934-3.329,4.448L265.266,71.66L265.266,71.66z M265.266,79.096v-4.544l8.752,1.177
			c-1.177,1.454-2.411,2.922-3.697,4.403C268.064,79.666,266.326,79.314,265.266,79.096L265.266,79.096z M265.266,82.026
			l2.856,0.583c-0.92,1.015-1.877,2.046-2.856,3.062C265.266,85.671,265.266,82.026,265.266,82.026z M235.741,91.478h23.654
			c-2.411,2.396-8.101,7.033-8.288,7.187C245.354,95.969,239.744,93.354,235.741,91.478L235.741,91.478z M211.19,91.478h17.776
			l19.608,9.174c-4.075,3.119-8.265,5.981-12.571,8.589C226.541,102.463,216.571,95.327,211.19,91.478L211.19,91.478L211.19,91.478z
			 M196.728,91.478h9.537l27.029,19.356c-3.939,2.258-7.987,4.311-12.113,6.136C212.28,107.694,201.56,96.51,196.728,91.478
			L196.728,91.478z M184.647,91.478h8.099l25.61,26.704c-4.836,2.016-9.802,3.732-14.882,5.171L184.647,91.478L184.647,91.478
			L184.647,91.478z M181.312,91.478l19.292,32.65c-5.282,1.374-10.69,2.425-16.209,3.178l-9.934-35.828L181.312,91.478
			L181.312,91.478z M146.913,91.478h6.851l-9.933,35.828c-5.527-0.753-10.928-1.804-16.209-3.17
			C134.849,111.909,144.494,95.574,146.913,91.478L146.913,91.478z M135.477,91.478h8.101l-18.828,31.876
			c-5.08-1.431-10.039-3.155-14.886-5.18C120.134,107.474,132.493,94.589,135.477,91.478L135.477,91.478L135.477,91.478z
			 M121.96,91.478h9.537l-24.444,25.492c-4.135-1.825-8.174-3.878-12.126-6.136C106.658,102.433,118.885,93.677,121.96,91.478
			L121.96,91.478z M77.118,98.665c-0.216-0.176-5.882-4.938-8.288-7.187h23.651L77.118,98.665L77.118,98.665z M99.258,91.478h17.772
			l-24.811,17.757c-4.309-2.602-8.498-5.464-12.567-8.583C88.966,96.291,97.591,92.258,99.258,91.478L99.258,91.478L99.258,91.478z
			 M62.936,82.026v3.615c-0.971-1.007-1.915-2.023-2.826-3.032C61.244,82.369,62.194,82.178,62.936,82.026z M62.936,74.552v4.544
			l-5.033,1.037c-1.285-1.489-2.512-2.949-3.687-4.403L62.936,74.552L62.936,74.552z M62.936,67.731v3.929l-10.792,1.454
			c-1.168-1.514-2.275-2.996-3.32-4.448L62.936,67.731L62.936,67.731L62.936,67.731z M62.936,64.75l-16.125,1.066
			c-1.162-1.673-2.233-3.295-3.219-4.842h19.343L62.936,64.75L62.936,64.75L62.936,64.75z"/>
		
			<linearGradient id="_170831360_1_" gradientUnits="userSpaceOnUse" x1="11.0623" y1="178.3037" x2="42.6285" y2="146.7375" gradientTransform="matrix(2.628 0 0 -2.628 93.5647 501.899)">
			<stop  offset="0" style="stop-color:#339966"/>
			<stop  offset="1" style="stop-color:#004F32"/>
			<stop  offset="1" style="stop-color:#004F32"/>
		</linearGradient>
		<path id="_170831360" fill="url(#_170831360_1_)" d="M65.853,88.607c-0.015-0.015-0.028-0.03-0.042-0.044V60.989h196.588v27.589
			c-0.006,0.015-0.015,0.015-0.021,0.021L65.853,88.607L65.853,88.607L65.853,88.607z"/>
		<path id="_171137640" fill="#FFFFFF" d="M78.873,65.392h-0.821l-8.4,18.794h2.275l0.036-0.108c0.68-2.288,1.557-4.478,2.407-6.581
			c0,0,0.121-0.301,0.176-0.445c0.208,0,6.289,0,6.496,0c0.878,1.999,1.777,4.294,2.74,7.033l0.038,0.102h3.14L78.873,65.392
			L78.873,65.392L78.873,65.392z M75.182,75.619c0.172-0.415,2.377-5.58,2.64-6.193c0.259,0.613,2.506,5.778,2.684,6.193
			C80.064,75.619,75.612,75.619,75.182,75.619L75.182,75.619L75.182,75.619z"/>
		<path id="_171199256" fill="#FFFFFF" d="M87.865,82.85l0.07,0.072c0.992,1.081,3.229,1.586,4.433,1.586
			c3.942,0,6.702-2.542,6.702-6.193c0-3.026-2.29-3.916-4.503-4.792c-1.966-0.783-3.835-1.505-3.835-3.74
			c0-1.696,1.338-2.922,3.17-2.922c1.465,0,2.572,0.774,3.134,2.19l0.038,0.102h0.5l0.784-2.373l-0.087-0.08
			c-1.071-0.965-2.718-1.308-3.891-1.308c-3.674,0-6.045,2.052-6.045,5.237c0,3.244,2.419,4.185,4.548,5.033
			c1.925,0.744,3.732,1.461,3.732,3.689c0,2.067-1.542,3.696-3.505,3.696c-1.798,0-2.992-0.774-4.153-2.674l-0.044-0.072h-0.5
			L87.865,82.85L87.865,82.85L87.865,82.85z"/>
		<path id="_171234112" fill="#FFFFFF" d="M113.902,65.78h-13.82v1.936l0.178-0.015c1.586-0.168,3.119-0.314,5.618-0.322
			c0,0.329,0,16.867,0,16.867h2.655c0,0,0-16.529,0-16.858c1.876,0,3.67,0.108,5.347,0.314l0.187,0.021V65.78L113.902,65.78
			L113.902,65.78z"/>
		<path id="_171242176" fill="#FFFFFF" d="M123.424,65.392c-5.863,0-9.963,3.952-9.963,9.598c0,5.697,3.988,9.518,9.912,9.518
			c6.123,0,10.247-3.988,10.247-9.919C133.621,68.233,128.496,65.392,123.424,65.392L123.424,65.392z M128.332,81.229
			c-1.304,1.38-2.941,2.082-4.887,2.082c-4.291,0-7.067-3.14-7.067-7.997c0-5.383,2.805-8.723,7.308-8.723
			c2.125,0,4.13,0.935,5.369,2.498c1.361,1.739,1.639,3.552,1.639,5.721c0.008,0.117,0.015,0.248,0.015,0.373
			C130.709,76.948,129.99,79.455,128.332,81.229L128.332,81.229L128.332,81.229z"/>
		<path id="_171242152" fill="#FFFFFF" d="M152.028,65.78h-1.647c0,0,0,13.301,0,13.623c-0.015,0-0.021,0-0.03,0
			c-0.095-0.11-12.575-13.623-12.575-13.623h-1.27v18.406h1.811c0,0,0-13.916,0-14.244c0.015,0,0.024,0,0.038,0
			c0.097,0.11,11.375,12.594,11.375,12.594l1.414,1.65h0.085h0.963V65.78L152.028,65.78L152.028,65.78L152.028,65.78z"/>
		<path id="_171249360" fill="#FFFFFF" d="M181.77,65.78h-0.651l-4.459,8.085c0,0-2.82,5.144-3.076,5.604
			c-2.75-4.588-5.227-9.416-7.336-13.601l-0.044-0.087h-0.935l-0.015,0.153c-0.263,2.718-1.847,13.798-2.538,18.071l-0.036,0.182
			h2.231v-0.159c0-2.593,0.46-6.458,0.95-10.557c0,0,0.208-1.811,0.293-2.534c0.314,0.598,3.776,7.173,5.099,9.882l1.497,3.083h0.5
			l0.042-0.102c1.541-3.537,3.713-7.576,6.687-12.893c0.422,3.17,0.98,9.503,1.287,13.133l0.017,0.146h2.82l-0.025-0.182
			c-0.636-4.463-1.33-10.372-2.144-18.071l-0.015-0.153L181.77,65.78L181.77,65.78L181.77,65.78z"/>
		<path id="_171205240" fill="#FFFFFF" d="M194.393,65.392h-0.825l-8.405,18.794h2.288l0.029-0.108
			c0.683-2.309,1.563-4.508,2.417-6.626c0,0,0.106-0.263,0.157-0.401c0.208,0,6.289,0,6.501,0c0.895,2.044,1.815,4.395,2.735,7.033
			l0.038,0.102h3.144L194.393,65.392L194.393,65.392L194.393,65.392z M190.697,75.619c0.172-0.415,2.379-5.58,2.642-6.193
			c0.263,0.613,2.504,5.778,2.684,6.193C195.58,75.619,191.132,75.619,190.697,75.619z"/>
		<path id="_171209080" fill="#FFFFFF" d="M210.556,75.093c3.322-0.672,5.309-2.564,5.309-5.121c0-2.811-1.972-4.192-6.04-4.192
			h-5.767v18.406h2.648c0,0,0-8.502,0-8.822c0.208,0,0.657,0,0.772,0c0.087,0.108,2.063,2.432,2.063,2.432
			c-0.009-0.009,3.119,4.039,3.119,4.039l1.713,2.352h0.091h3.378C217.841,84.187,210.87,75.481,210.556,75.093L210.556,75.093
			L210.556,75.093z M206.705,74.041c0-0.293,0-6.662,0-6.955c1.092-0.051,2.784-0.123,3.704,0.024
			c1.836,0.299,2.771,1.372,2.771,3.176c0,1.849-1.215,3.199-3.261,3.609C208.768,74.128,207.378,74.086,206.705,74.041z"/>
		<path id="_171209056" fill="#FFFFFF" d="M231.186,65.78h-13.824v1.936l0.18-0.015c1.588-0.168,3.119-0.314,5.61-0.322
			c0,0.329,0,16.867,0,16.867h2.669c0,0,0-16.529,0-16.858c1.87,0,3.666,0.108,5.343,0.314l0.187,0.021V65.78L231.186,65.78
			L231.186,65.78L231.186,65.78z"/>
		<polygon id="_171221600" fill="#FFFFFF" points="233.535,84.187 236.041,84.187 236.041,65.78 233.535,65.78 		"/>
		<path id="_171224520" fill="#FFFFFF" d="M253.82,65.78c0,0,0,13.301,0,13.623c-0.009,0-0.015,0-0.021,0
			c-0.1-0.11-12.575-13.623-12.575-13.623h-1.272v18.406h1.813c0,0,0-13.916,0-14.244c0.015,0,0.021,0,0.03,0
			c0.097,0.11,11.39,12.594,11.39,12.594l1.414,1.65h1.033V65.78L253.82,65.78L253.82,65.78z"/>
	</g>
</g>
</svg>
