<?xml version="1.0" encoding="utf-8"?>
<!-- Generator: Adobe Illustrator 17.0.0, SVG Export Plug-In . SVG Version: 6.00 Build 0)  -->
<!DOCTYPE svg PUBLIC "-//W3C//DTD SVG 1.1//EN" "http://www.w3.org/Graphics/SVG/1.1/DTD/svg11.dtd">
<svg version="1.1"
	 id="svg2" inkscape:version="0.48.2 r9819" sodipodi:docname="FCB.svg" xmlns:dc="http://purl.org/dc/elements/1.1/" xmlns:cc="http://creativecommons.org/ns#" xmlns:rdf="http://www.w3.org/1999/02/22-rdf-syntax-ns#" xmlns:svg="http://www.w3.org/2000/svg" xmlns:inkscape="http://www.inkscape.org/namespaces/inkscape" xmlns:sodipodi="http://sodipodi.sourceforge.net/DTD/sodipodi-0.dtd"
	 xmlns="http://www.w3.org/2000/svg" xmlns:xlink="http://www.w3.org/1999/xlink" x="0px" y="0px" width="500px" height="500px"
	 viewBox="-179 -178 500 500" enable-background="new -179 -178 500 500" xml:space="preserve">
<sodipodi:namedview  id="namedview42" inkscape:window-y="-8" inkscape:current-layer="svg2" inkscape:window-maximized="1" inkscape:pageopacity="0" inkscape:window-width="1280" inkscape:window-height="962" inkscape:pageshadow="2" inkscape:window-x="-8" guidetolerance="10" gridtolerance="10" objecttolerance="10" showgrid="false" inkscape:zoom="1.6388889" borderopacity="1" pagecolor="#ffffff" bordercolor="#666666" inkscape:cx="71" inkscape:cy="72">
	</sodipodi:namedview>
<g id="layer1" transform="translate(-111.77088,-91.029934)">
	<g id="g2427" transform="matrix(0.1892724,0,0,0.1892724,111.6987,62.603897)">
		<g id="g2263" transform="translate(2.485175,13.595533)">
			<g id="g2279">
				<path id="path2239" stroke="#000000" d="M-682.042-705.942c177.579,77.947,469.032,68.718,664.519-78.816
					c273.344,200.28,536.422,179.72,787.259,0c167.236,120.882,424.713,172.495,666.309,81.353l108.307,150.482
					c-282.418,377.428-177.877,738.2,113.421,1055.693l-122.321,124.029c27.71,814.043-602.776,1008.397-964.817,1028.576
					l-194.651,159.258l-193.198-156.885c-646.35-55.819-987.61-396.806-966.498-1028.859l-125.768-127.067
					c245.738-265.803,430.396-629.01,114.724-1054.827L-682.042-705.942z"/>
				<path id="path5105" inkscape:connector-curvature="0" fill="#004D98" d="M-667.326,612.498h2079.778
					c54.661,575.519-310.984,886.371-866.992,916.933l-353.312,0.893C-339.802,1492.084-736.121,1211.227-667.326,612.498z"/>
				<rect id="rect6076" x="229.25" y="619.416" fill="#A50044" width="294.605" height="919.645"/>
				<g id="g6100" transform="translate(-0.132,0)">
					<rect id="rect6088" x="-356.967" y="619.416" fill="#A50044" width="294.605" height="821.899"/>
					<rect id="rect6092" x="-254.251" y="1399.204" fill="#A50044" width="191.889" height="84.661"/>
				</g>
				<g id="g6096" transform="translate(-0.132,0)">
					<rect id="rect6090" x="812.383" y="619.416" fill="#A50044" width="294.605" height="821.899"/>
					<rect id="rect6094" x="812.383" y="1399.204" fill="#A50044" width="191.889" height="84.661"/>
				</g>
				<path id="path4130" fill="#FFFFFF" d="M366.972-515.778v816.856l-992.794,7.181l102.331-393.168l-127.465-470.365
					l628.351-80.788L366.972-515.778z"/>
				<path id="path2187" inkscape:connector-curvature="0" fill="#FFED02" d="M381.334-515.778v816.856l992.794,7.181
					L1271.797-84.909l127.465-470.365l-628.351-80.788L381.334-515.778z"/>
				<rect id="rect2169" x="-206.691" y="-612.793" fill="#DB0030" width="284.65" height="908.808"/>
				<rect id="rect3143" x="-518.77" y="-273.805" fill="#DB0030" width="885.741" height="284.65"/>
				<g id="g2174" transform="translate(-0.132,0)">
					<rect id="rect4118" x="470.561" y="-548.367" fill="#DB0030" width="105.279" height="838.468"/>
					<rect id="rect4120" x="670.41" y="-608.432" fill="#DB0030" width="105.279" height="900.507"/>
					<rect id="rect4122" x="871.567" y="-557.672" fill="#DB0030" width="105.278" height="851.628"/>
					<rect id="rect4124" x="1070.844" y="-526.475" fill="#DB0030" width="105.278" height="819.669"/>
				</g>
				<path id="path4181" inkscape:connector-curvature="0" fill="#EDBB00" stroke="#DEB405" stroke-width="0.9379" d="
					M-19.181-720.053c-183.343,134.383-473.466,148.522-640.014,81.331l-66.705,85.874
					c286.171,402.662,121.753,807.765-105.155,1055.868l104.49,110.584c-42.401,606.915,311.781,957.921,934.425,994.039
					l168.757,140.945l168.425-143.161c362.594-6.253,998.387-209.611,929.882-992.709l105.044-108.811
					c-266.477-295.529-358.323-700.31-100.833-1056.755l-62.605-85.32c-227.836,74.875-488.486,33.371-645.333-80.002
					C535.941-549.613,237.183-532.214-19.181-720.053z M773.302-604.704c141.45,87.827,297.756,112.818,567.215,89.199
					c-134.931,233.456-149.505,511.563-30.028,780.073l-1869.958-1.108C-458.897,23.53-435.821-252.56-593.487-520.824
					c194.355,28.217,384.208,21.456,573.531-81.553C236.84-451.627,501.021-448.87,773.302-604.704z M-625.843,621.584h2005.252
					c52.702,554.886-299.844,854.542-835.919,884.008l-340.728,0.886C-310.117,1469.609-692.171,1198.848-625.843,621.584z"/>
				<path id="path7096" fill="none" stroke="#000000" stroke-width="4" d="M-595.65-517.903
					c157.667,268.264,134.574,544.349,34.001,784.278l1869.916,1.105c-119.477-268.51-104.852-546.621,30.079-780.077
					c-269.459,23.619-425.725-1.347-567.175-89.175c-272.28,155.834-536.548,153.016-793.345,2.267
					C-211.498-496.495-401.295-489.686-595.65-517.903z"/>
				<path id="path4112" fill="none" stroke="#000000" stroke-width="4" d="M-625.861,621.582h2005.219
					c52.702,554.886-299.836,854.595-835.911,884.062l-340.646,0.861C-310.079,1469.635-692.19,1198.847-625.861,621.582z"/>
				<path id="path4134" fill="none" stroke="#000000" stroke-width="4" d="M374.793-489.846v757.678"/>
				<g id="g6097">
					<path id="path2185" inkscape:connector-curvature="0" fill="#EDBB00" stroke="#000000" stroke-width="3" d="M651.334,1053.971
						c0.055,150.566-121.958,272.668-272.524,272.722s-272.668-121.958-272.722-272.524c0-0.066,0-0.132,0-0.198
						c-0.055-150.566,121.958-272.668,272.524-272.722s272.668,121.958,272.722,272.524
						C651.334,1053.839,651.334,1053.905,651.334,1053.971z"/>
					<g id="g4131">
						<path id="path3158" fill="none" stroke="#000000" stroke-width="3.5" d="M221.439,831.904
							c-31.821,115.98-51.554,230.178,40.242,285.051c64.144,38.343,107.518-39.854,119.535-70.15"/>
						<path id="path3160" fill="none" stroke="#000000" stroke-width="3.5" d="M126.422,1163.905
							c53.741-2.453,81.785-6.873,116.256-59.246"/>
					</g>
					<path id="path4141" fill="none" stroke="#000000" stroke-width="3.5" d="M378.956,1048.841
						c53.931-33.15,101.898-17.11,124.181,65.878c52.49-21.092,103.076,19.418,116.256,60.364"/>
					<path id="path4143" fill="none" stroke="#000000" stroke-width="3.5" d="M504.255,1114.719
						c-39.842,96.191-144.639,140.72-291.758,155.381"/>
					<path id="path2191" fill="none" stroke="#000000" stroke-width="3.5" d="M379.038,1052.785
						c-33.101-30.31-84.026-64.996-9.836-154.106c-31.48-39.891-40.057-78.867,1.093-115.853"/>
					<path id="path2193" fill="none" stroke="#000000" stroke-width="3.5" d="M650.09,1070.273
						c-48.416-85.588-161.107-204.184-280.888-172.687"/>
				</g>
			</g>
			<path id="rect2194" d="M-2.468,313.227v0.997h-49.53v96.179v54.516v106.928H1.521V464.92h76.345v-54.516H1.521V368.63h131.748
				v-55.403H-2.468z"/>
			<path id="path3176" stroke="#000000" stroke-width="0.2" d="M402.705,393.928l48.036-25.086
				c-30.661-67.797-154.985-87.077-195.882,0c-42.197,103.864,2.656,200.358,84.331,209.759
				c51.896,7.557,93.023-17.848,110.484-62.981L402.172,488.4c-12.652,31.523-60.889,53.219-97.674,0.534
				c-11.329-23.541-14.234-59.78-1.601-95.005C333.065,352.478,377.164,356.964,402.705,393.928z"/>
			<path id="path5116" stroke="#000000" d="M586.354,313.892l0.997,259.95l141.499-0.554
				c46.042-6.447,106.402-81.816,35.679-140.391c37.39-32.952,32.704-103.438-42.106-118.451L586.354,313.892z M640.759,365.084
				h70.472c30.991,8.919,21.795,38.712,0.997,43.768h-71.47V365.084z M641.313,459.602l74.129,0.997
				c36.668,10.915,28.387,52.701,1.108,59.835l-74.683-0.554L641.313,459.602z"/>
		</g>
	</g>
</g>
</svg>
