<?xml version="1.0" encoding="utf-8"?>
<!-- Generator: Adobe Illustrator 17.0.0, SVG Export Plug-In . SVG Version: 6.00 Build 0)  -->
<!DOCTYPE svg PUBLIC "-//W3C//DTD SVG 1.1//EN" "http://www.w3.org/Graphics/SVG/1.1/DTD/svg11.dtd">
<svg version="1.1"
	 id="svg2" sodipodi:docname="Logo della Scuderia Ferrari (vecchio).svg" inkscape:version="0.48.1 " xmlns:dc="http://purl.org/dc/elements/1.1/" xmlns:inkscape="http://www.inkscape.org/namespaces/inkscape" xmlns:rdf="http://www.w3.org/1999/02/22-rdf-syntax-ns#" xmlns:sodipodi="http://sodipodi.sourceforge.net/DTD/sodipodi-0.dtd" xmlns:svg="http://www.w3.org/2000/svg" xmlns:cc="http://creativecommons.org/ns#"
	 xmlns="http://www.w3.org/2000/svg" xmlns:xlink="http://www.w3.org/1999/xlink" x="0px" y="0px" width="500px" height="500px"
	 viewBox="-105 -55 500 500" enable-background="new -105 -55 500 500" xml:space="preserve">
<sodipodi:namedview  id="namedview30" inkscape:current-layer="svg2" inkscape:window-width="1280" inkscape:pageshadow="2" inkscape:pageopacity="0" inkscape:window-y="-8" inkscape:window-maximized="1" inkscape:window-x="-8" inkscape:window-height="738" inkscape:cy="270" inkscape:cx="200" inkscape:zoom="0.96111111" pagecolor="#ffffff" bordercolor="#666666" guidetolerance="10" showgrid="false" objecttolerance="10" borderopacity="1" gridtolerance="10">
	</sodipodi:namedview>
<g id="g3140" transform="matrix(4.0714283,0,0,4.0663351,-255.9992,-231.91698)">
	<g id="g120" transform="matrix(1.0848811,0,0,-1.0848811,133.49104,65.667336)">
		<path id="path122-4" inkscape:connector-curvature="0" fill="#FFFFFF" d="M8.882,8.942V6.844l-40.727,7.139l-40.723-7.139v2.098
			l40.723,7.186L8.882,8.942z"/>
	</g>
	<g id="g124" transform="matrix(1.0848811,0,0,-1.0848811,133.49104,63.821194)">
		<path id="path126-0" inkscape:connector-curvature="0" fill="#0D8922" d="M8.882,9.388V7.239l-40.727,7.186l-40.723-7.186v2.148
			l40.723,7.183L8.882,9.388z"/>
	</g>
	<g id="g128" transform="matrix(1.0848811,0,0,-1.0848811,133.49104,67.469974)">
		<path id="path130-9" inkscape:connector-curvature="0" fill="#ED1C24" d="M8.882,8.506l-40.727,7.137l-40.723-7.137V1.264
			l0.355,0.198c0.143,0.082,14.593,8.094,40.45,8.094c25.856,0,40.14-8.016,40.282-8.094l0.346-0.201L8.882,8.506z"/>
	</g>
	<g id="g132" transform="matrix(1.0848811,0,0,-1.0848811,98.559817,67.772439)">
		<path id="path134-4" inkscape:connector-curvature="0" fill="#FFF200" d="M0.436,8.433c23.347,0,37.018-6.569,39.23-7.72v-20.849
			c0-11.37-2.674-22.696-7.951-33.664C20.163-77.767,2.789-87.176,0.355-88.406c-2.434,1.231-19.825,10.639-31.373,34.606
			c-5.275,10.968-7.953,22.294-7.953,33.664V0.71C-36.734,1.86-22.92,8.433,0.436,8.433"/>
	</g>
	<g id="g136" transform="matrix(1.0848811,0,0,-1.0848811,98.559817,67.772439)">
		<path id="path138-8" inkscape:connector-curvature="0" fill="#0A0A0A" d="M0.436,8.433c23.347,0,37.018-6.569,39.23-7.72v-20.849
			c0-11.37-2.674-22.696-7.951-33.664C20.163-77.767,2.789-87.176,0.355-88.406c-2.434,1.231-19.825,10.639-31.373,34.606
			c-5.275,10.968-7.953,22.294-7.953,33.664V0.71C-36.734,1.86-22.92,8.433,0.436,8.433 M-40.015,1.741l-0.355-0.198v-21.679
			c0-11.581,2.722-23.111,8.09-34.267C-19.672-80.577-0.132-89.729,0.066-89.819l0.289-0.135l0.289,0.135
			c0.196,0.09,19.722,9.247,32.328,35.415c5.371,11.157,8.093,22.687,8.093,34.267V1.54l-0.347,0.201
			C40.575,1.819,26.292,9.834,0.436,9.834C-25.422,9.834-39.872,1.823-40.015,1.741"/>
	</g>
	<g id="g140" transform="matrix(1.0848811,0,0,-1.0848811,89.942717,131.69993)">
		<path id="path142-8" inkscape:connector-curvature="0" fill="#0A0A0A" d="M-1.648-7.026c-1.926,0.747-3.033,1.159-3.059,2.068
			c-0.011,1.536,1.928,1.168,2.371,1.01c2.504-0.815,3.417-2.682,3.417-2.682S0.667-4.176,0.575-3.71
			C0.484-3.249,0.206-3.305,0.062-3.322c-0.289-0.02-0.302-0.53-0.302-0.53s-6.209,2.608-6.209-1.474
			c0-1.911,2.042-2.227,2.949-2.704c1.84-0.973,4.158-1.55,4.355-3.009c0.179-1.304-0.988-2.762-3.509-2.762
			c-2.52,0-3.6,2.393-3.511,2.858c0.096,0.468,0.56,0.188,0.937,0.188c0.37,0,1.014,0.4,0.709,1.175
			c-0.235,0.593-2.18,0.643-2.18-1.339c0-2.804,2.786-3.651,3.998-3.651c1.217,0,3.709,0.42,4.279,2.972
			C2.176-8.938,0.878-8.018-1.648-7.026 M23.91-4.754c0.471,0.187,1.928,0,3.561,0.446c1.636,0.444,2.81,1.399,2.81,1.399
			s-1.62-0.617-4.234-0.755c-1.211-0.072-2.172-0.271-3.475,0.057C21.266-3.284,19.8-3.06,18.326-3.354
			c-1.469-0.287-2.276-1.142-2.459-2.305c-0.143-0.903,0.908-1.437,1.795-1.216c0.957,0.235,1.246,1.385,1.246,1.385
			s-0.617-0.486-1.257-0.606c-0.643-0.116-0.977,0.333-0.794,0.786c0.34,0.837,0.886,1.062,1.434,1.141
			c0.547,0.078,1.206,0.124,2.431,0.013c1.223-0.119,1.839-0.341,1.511-0.91c-0.394-0.697-0.813-0.768-1.42-2.301
			c-0.268-0.651-0.199-0.98-0.64-0.98c-0.212,0-0.794,0.093-1.238-0.288c-0.54-0.468-0.458-1.089-0.458-1.089
			s0.318,0.646,1.401,0.646c0.235,0,0.083-0.606-0.151-1.087c-0.23-0.476-1.41-3.651-3.883-3.651c-2.645,0-3.033,2.59-2.892,2.93
			c0.255,0.639,0.703,0.058,1.223,0.202c0.504,0.126,0.995,0.94,0.318,1.41c-1.574,1.081-3.07-1.577-1.433-3.913
			c1.548-2.228,4.007-1.385,5.289-0.711c1.281,0.675,1.994,2.042,2.43,2.919c0.43,0.872,0.813,1.843,0.813,1.843
			s0.852,0,1.357,0.202c0.722,0.312,1.02,0.964,1.02,0.964s-0.554-0.332-2.075-0.273c-0.186,0,0.249,0.915,0.658,1.709
			C22.994-5.669,23.533-4.913,23.91-4.754"/>
	</g>
	<g id="g144" transform="matrix(1.0848811,0,0,-1.0848811,97.048477,72.658635)">
		<path id="path146-2" inkscape:connector-curvature="0" fill="#0A0A0A" d="M0.07,7.251c0.039-0.003,0.535,0.232,0.535,0.232
			c0.02,0.042-0.092,0.514-0.092,0.514C0.504,8.012-0.565,9.262-0.565,9.262l-0.052,0.061l-0.02-0.08l-0.111-0.505
			c0,0.006-0.345-0.814-0.345-0.814l-0.016-0.032l0.721-0.37C-0.389,7.524,0.07,7.251,0.07,7.251 M26.121-18.666
			c-0.05,0.062-0.092,0.067-0.117,0.058c-0.024-0.008-0.061-0.03-0.068-0.107c-0.044-0.321-0.447-1.149-0.773-1.271
			c-0.645-0.251-0.983-1.014-1.223-1.57c-0.126-0.285-0.249-0.559-0.343-0.564c-0.044-0.003-0.087,0.04-0.139,0.135
			c-0.401,0.691-0.178,1.748,0,2.598l0.047,0.21c0.148,0.717,0.986,1.723,1.485,2.326l0.223,0.266
			c0.342,0.425,0.427,1.871,0.364,1.979c-0.02,0.008-0.035-0.005-0.044-0.016c-0.006-0.008-0.01-0.015-0.018-0.025
			c-0.003,0.001-0.008,0.001-0.008,0.001v-0.005c-0.023-0.024-0.035-0.027-0.053-0.1c-0.09-0.451-0.915-1.368-2.325-2.587
			c-0.288-0.251-0.62-0.702-0.889-1.065c-0.173-0.239-0.377-0.513-0.432-0.525c-0.347,1.864,0.285,2.929,0.584,3.444l0.138,0.261
			c0.598,1.622,2.135,2.85,2.148,2.863c0.021,0.048,0.021,0.096-0.018,0.127c-0.057,0.048-0.163,0.025-0.336-0.059l-0.093-0.048
			c-0.535-0.259-2.147-1.046-3.138-2.937c-0.712-1.368-0.988-2.891-0.988-4.039c0-0.588,0.072-1.076,0.189-1.396
			c0.35-0.93,0.962-3.232,1.146-4.137c0.116-0.56,0.136-2.488,0.136-3.695c0-0.592-0.003-1.004-0.003-1.021
			c-0.005,0-0.308-0.977-0.308-0.977c0-0.009-0.148-0.774-1.399-2.053c-1.255-1.285-2.66-1.694-2.674-1.702
			c-0.563-0.042-1.077-0.02-1.093,0.053c0,1.471-2.517,4.889-3.803,6.016c-1.315,1.154-2.366,1.978-4.148,3.062
			c-1.819,1.107-3.838,5.74-3.859,5.787c0-0.003-0.177,0.626-0.177,0.626s-0.098,1.251-0.125,1.575
			c0.067-0.037,0.149-0.09,0.149-0.09l0.621-0.362c0.006-0.001,0.709-0.27,0.709-0.27c0.009-0.006,0.934-0.186,0.934-0.186
			l0.516-0.268c0,0.004,0.482-0.312,0.482-0.312l0.749-0.539c0.001-0.001,0.766-0.403,0.766-0.403
			c0.016-0.003,0.92-0.049,0.92-0.049l0.019,0.074l-1.05,0.49c0,0.018-0.376,0.664-0.376,0.664l-0.441,0.629
			c-0.016,0.011-0.544,0.328-0.544,0.328c-0.015,0.006-0.669,0.097-0.673,0.097c0,0.003-0.134,0.12-0.203,0.179
			c0.059,0.033,0.172,0.104,0.172,0.104c0-0.009,0.722-0.092,0.725-0.092c0-0.008,0.64-0.444,0.64-0.444l0.701-0.54
			c0.013-0.008,0.667-0.259,0.667-0.259l0.083-0.035l-0.283,0.747c-0.01,0.014-0.545,0.51-0.545,0.51l-0.794,0.675
			c-0.003,0.006-0.621,0.322-0.621,0.322c-0.008,0.004-0.668,0.226-0.668,0.226l-0.697,0.447c0,0,0.008,0.047,0.014,0.088
			c0.085-0.032,0.963-0.385,0.963-0.385c0.005-0.003,0.843-0.228,0.843-0.228c-0.003,0.001,0.701-0.269,0.701-0.269
			c-0.001,0.001,1.007-0.491,1.007-0.491c0.009-0.005,0.85-0.187,0.85-0.187c0.011,0,1.028,0.182,1.028,0.182
			c0.018,0.008,0.987,0.682,0.987,0.682c0.013,0.019,0.192,0.42,0.192,0.42l0.039,0.092l-0.316-0.13
			c-0.003,0-0.882-0.447-0.882-0.447l-0.607-0.133c0,0.001-0.688,0.136-0.69,0.136h0.003c0,0.006-0.557,0.526-0.557,0.526
			l-0.794,0.766c-0.005,0.005-0.713,0.367-0.713,0.367c-0.011,0.003-0.847,0.139-0.847,0.139c0,0.003-0.509,0.259-0.516,0.265
			c0.003,0,0.003,0.009,0.003,0.024c0,0.061-0.013,0.194-0.02,0.259c0.09-0.01,1.052-0.09,1.052-0.09
			c0.008,0,1.151,0.091,1.151,0.091c0-0.001,0.649-0.131,0.649-0.131c0-0.004,0.658-0.273,0.658-0.273
			c0.005-0.003,0.673-0.091,0.673-0.091l0.12-0.018l-0.75,0.718c-0.006,0.005-0.754,0.544-0.754,0.544
			c-0.009,0.003-0.626,0.228-0.626,0.228c-0.011,0.004-1.043,0.09-1.064,0.09c0.009,0.004,0.01,0.02,0.01,0.047
			c0,0.059-0.01,0.15-0.015,0.197c0.064,0.013,0.486,0.081,0.486,0.081c0-0.001,0.778-0.178,0.778-0.178
			c0-0.003,0.738-0.444,0.738-0.444c0.01-0.003,0.8-0.273,0.8-0.273c0.02,0,1.163,0.178,1.163,0.178l0.069,0.01l-0.347,0.459
			c-0.019,0.016-0.591,0.193-0.596,0.193c0,0.004-0.471,0.356-0.471,0.356L9.65-11.665c-0.009,0.005-0.536,0.183-0.536,0.183
			c-0.013,0.004-0.842,0.135-0.843,0.135c0,0.01-0.412,0.385-0.419,0.394c0.009,0.001,0.038,0.134,0.049,0.191
			c0.068-0.019,0.438-0.121,0.438-0.121l0.566-0.27c0.003,0,0.803-0.252,0.803-0.252l-0.174,0.355
			C9.52-11.043,9.22-10.727,9.22-10.727s-0.196,0.251-0.276,0.353c0.056,0.011,0.121,0.029,0.121,0.029
			c0-0.01,0.855-0.448,0.855-0.448c0.006,0,0.66-0.228,0.667-0.228l0.514-0.481c0.009-0.008,0.98-0.555,0.98-0.555l0.096-0.057
			l-0.175,0.476c-0.004,0.01-0.534,0.685-0.534,0.685l-0.439,0.757c-0.003,0.01-0.799,0.817-0.799,0.817
			c-0.009,0.01-1.02,0.55-1.02,0.55c0,0.004-0.39,0.441-0.39,0.441S8.113-7.666,8.113-7.665c0,0.01-0.072,0.254-0.111,0.381
			C8.121-7.323,8.689-7.51,8.689-7.51l0.794-0.223c0-0.003,0.564-0.355,0.564-0.355c0-0.005,0.471-0.577,0.471-0.577
			c0.018-0.011,0.765-0.329,0.765-0.329c0.014-0.003,1.917-0.247,1.917-0.247l0.109-0.014l-0.523,0.55
			c-0.015,0.01-1.028,0.462-1.028,0.462L11.151-7.8c0,0.01-0.342,0.622-0.342,0.622l-0.355,0.629
			c-0.006,0.01-0.577,0.547-0.577,0.547C9.87-5.995,9.163-5.59,9.163-5.59L8.466-5.009c0,0.004-0.169,0.355-0.278,0.586
			C8.369-4.595,8.67-4.891,8.67-4.891l0.93-0.81c0.01-0.006,0.717-0.322,0.717-0.322l0.602-0.487l0.704-0.717
			c0.024-0.014,1.125-0.167,1.125-0.167l0.134-0.02L11.767-6.45c0,0.02-0.25,0.793-0.25,0.793C11.508-5.641,10.933-5.1,10.933-5.1
			l-0.305,0.356c0,0.009-0.3,0.929-0.3,0.929c-0.009,0.018-0.63,0.644-0.63,0.644c0,0.008-1.007,0.944-1.007,0.948v0.005
			c0,0.013-0.035,0.157-0.057,0.25c0.076-0.039,0.181-0.093,0.181-0.093l0.924-0.536c0.01-0.008,1.112-0.323,1.112-0.323l1.147-0.27
			c0.003,0,1.327-0.215,1.327-0.215L13.01-2.772c-0.02,0.02-0.68,0.289-0.68,0.289c0,0.001-0.611,0.356-0.611,0.356
			c-0.009,0.006-0.755,0.319-0.755,0.319l-0.658,0.269c0,0.008-0.429,0.558-0.665,0.862c0.228-0.153,0.577-0.393,0.577-0.393
			c0.019-0.006,0.596-0.053,0.596-0.053h1.808c0-0.004,0.732-0.4,0.732-0.4c0-0.003,0.624-0.674,0.624-0.674l0.083-0.09
			l-0.078,0.759c-0.008,0.023-0.403,0.516-0.403,0.516c-0.009,0.009-1.069,0.597-1.069,0.597c-0.008,0-0.843,0.317-0.843,0.317
			c-0.008,0-1.275,0.226-1.284,0.226V0.13c0,0.013-0.242,0.303-0.242,0.303c-0.003,0.001-0.928,0.856-0.928,0.856
			C9.207,1.294,8.763,1.52,8.763,1.52c0,0.003-0.143,0.149-0.226,0.237h0.475c0-0.005,0.726-0.444,0.726-0.444
			c0.01-0.003,0.978-0.317,0.978-0.317c0.008-0.001,1.241-0.181,1.241-0.181c0-0.013,0.458-0.53,0.458-0.53
			c0.01-0.004,0.673-0.409,0.673-0.409c0.016-0.006,0.764-0.136,0.764-0.136l0.105-0.018l-1.567,1.923
			c-0.013,0.008-0.762,0.413-0.762,0.413c-0.006,0.005-0.884,0.275-0.884,0.275c0,0.01-0.778,0.889-0.778,0.889
			c-0.008,0.01-0.981,0.593-0.981,0.593c-0.008,0.004-0.569,0.14-0.703,0.17C8.326,4.056,8.47,4.297,8.47,4.301
			c0.003-0.009,0.779,0.342,0.779,0.342c0-0.003,1.135,0.22,1.135,0.22c0.032,0.028,0.12,0.299,0.12,0.299
			c-0.018,0.047-0.499,0.361-0.499,0.361c-0.01,0.004-0.583,0.184-0.583,0.184C9.384,5.703,9.079,5.525,9.079,5.524
			c0,0.003-0.952-0.038-0.952-0.038S6.99,5.753,6.99,5.755c0,0.003-1.169,0.982-1.169,0.982C5.813,6.741,5.284,7.009,5.284,7.009
			c-0.015,0.005-1.945,0.23-1.953,0.23c0,0.027-0.456,0.702-0.456,0.702C2.873,7.948,2.257,8.619,2.257,8.619
			C2.254,8.626,1.464,9.335,1.464,9.335l-0.025-0.05L1.175,8.699c0.001,0.005-0.261-0.398-0.261-0.398V8.289
			c0-0.072,0.038-0.463,0.038-0.463C0.964,7.801,1.22,7.536,1.224,7.531c-0.013,0-0.098-0.406-0.098-0.41
			C1.123,7.147,0.066,7.106,0.066,7.106c0,0.006-0.867,0.401-0.867,0.401c-0.001,0-0.663,0.226-0.663,0.226
			c-0.015,0-1.559-0.044-1.559-0.044c-0.03-0.019-0.295-0.423-0.295-0.423l-0.033-0.052l0.678-0.098
			c0-0.004,0.098-0.067,0.157-0.102c-0.054-0.045-0.174-0.143-0.174-0.143c0,0.009-0.947,0.053-0.947,0.053
			c-0.014-0.001-0.675-0.271-0.675-0.271l-0.068-0.03l0.328-0.22c0.019-0.009,1.43-0.053,1.43-0.053
			c0.001-0.001,1.04-0.269,1.046-0.27c0-0.015,0.201-0.299,0.201-0.299s0.141-0.198,0.193-0.278C-1.249,5.465-1.63,5.254-1.63,5.254
			c0.006,0.003-1.274-0.539-1.274-0.539c-0.004,0-2.645-1.483-2.645-1.483c-0.003,0.001-1.745-0.259-1.745-0.259
			c-0.01-0.003-0.679-0.377-0.679-0.377c-0.015-0.009-0.549-0.751-0.549-0.751c-0.008-0.006-0.311-0.933-0.311-0.933
			c-0.024-1.57,0.039-1.607,0.063-1.621c0.052-0.034,0.502-0.285,0.855-0.102c0.4,0.217,1.25,0.432,1.69,0.525
			c0.217,0.044,0.321-0.034,0.34-0.115C-5.86-0.49-5.926-0.61-6.09-0.655l-0.09-0.028c-0.77-0.208-1.554-0.462-1.53-0.759
			l0.138-0.226c0.345-0.251,1.233-0.13,1.707-0.021l0.495,0.136c0.423,0.133,0.909,0.276,1.327,0.227
			c0.236-0.028,0.447-0.129,0.696-0.245c0.337-0.163,0.722-0.35,1.299-0.386c0.957-0.064,1.611-0.26,1.664-0.316
			c0.126-0.261,0.044-0.649-0.019-0.961l-0.052-0.284c-0.268-2.434-2.984-5.181-4.291-6.501c-0.353-0.357-0.588-0.591-0.637-0.693
			l-0.15-0.345c-0.129-0.323-0.232-0.602-0.645-0.769c-0.242-0.093-0.803-0.516-1.45-1c-0.937-0.701-2.102-1.57-2.419-1.531
			c-0.538,0.062-3.04,1.784-3.147,1.888c-2.439,2.359-3.458,1.875-4.067,1.588l-0.098-0.045c-0.726-0.329-1.488-2.391-1.559-2.833
			l-0.294-1.27l-0.226-0.933c-0.067-0.312-0.367-1.087-0.655-1.837l-0.587-1.63c-0.098-0.379-0.335-0.908-0.524-1.337l-0.261-0.634
			c-0.181-0.746-0.184-4.83,0.13-5.188l0.016-0.016l0.062-0.018c0.313,0.032,0.995,0.732,1.319,1.07l0.076,0.077
			c0.278,0.278,0.571,1.016,0.571,1.329c0,0.307-0.144,0.943-0.198,1.116c-0.443,1.348-0.274,2.632-0.196,3.247l0.033,0.274
			c0.024,0.285,0.309,0.603,0.586,0.906l0.355,0.408c0.191,0.256,0.406,0.341,0.597,0.419l0.314,0.178l0.045,0.05
			c0.21,0.21,0.558,0.56,0.713,1.034l0.299,1.291l0.063,0.342c0.016,0.068,0.052,0.109,0.107,0.119
			c0.121,0.028,0.299-0.064,0.375-0.168l2.157-2.503c0.55-0.468,1.121-1.033,1.121-1.155v-0.009l-0.015-0.003
			c-0.302-0.032-1.822,0.292-2.073,0.366c-2.066,0.605-3.009,0.497-3.738-0.413c-0.829-1.04-0.568-4.234-0.4-4.584
			c0.159-0.318,0.913-4.206,0.949-4.725c0.033-0.51,0.23-1.418,0.437-1.626l0.054-0.058c0.254-0.251,0.929-0.927,1.043-1.591
			c0.127-0.725,1.666-2.662,2.251-2.834c0.09-0.029,0.178-0.009,0.259,0.049c0.448,0.319,0.65,1.867,0.677,2.522
			c0.029,0.817-0.266,1.211-0.576,1.631l-0.12,0.167c-0.228,0.313-0.634,0.423-0.898,0.501c-0.112,0.032-0.268,0.068-0.268,0.102
			c0,0.014-0.034,1.208-0.414,1.438c-0.297,0.186-0.602,1.338-0.635,1.776c-0.033,0.434-0.206,1.487-0.428,1.949
			c-0.231,0.466-0.424,1.32-0.322,1.979c0.037,0.281,0.241,0.37,0.404,0.395c0.287,0.045,0.612-0.076,0.663-0.175
			c0.111-0.227,2.289-1.541,3.023-1.822c0.457-0.175,1.077-0.696,1.621-1.161c0.389-0.324,0.721-0.605,0.93-0.703
			c0.278-0.138,1.077-0.153,1.716-0.163c0.338-0.008,0.693-0.016,0.74-0.044c-0.259-0.105-0.256-0.56-0.237-0.706
			c0.268-1.881,7.116-7.054,7.642-7.346c0.616-0.328,2.814-2.624,3.006-2.936c0.199-0.308,0.394-0.643,0.356-0.901
			c-0.052-0.381,0.101-0.817,0.406-1.175c0.295-0.331,0.677-0.529,1.03-0.529c0.307,0,0.51,0.27,0.66,0.468l0.029,0.045
			c0.41,0.54,1.021,1.331,1.096,2.573c0.08,1.267,0.665,1.774,0.852,1.806c0.087,0.016,0.148-0.009,0.17-0.066
			c0.021-0.061-0.006-0.154-0.119-0.231c-0.252-0.172-0.412-0.733-0.579-1.332c-0.001-0.005-0.067-0.615-0.067-0.615
			c-0.014-0.452-0.029-0.968-0.487-1.468c-0.677-0.737-1.454-2.434-1.66-4.576c-0.121-1.29,0.458-3.15,1.727-5.519l0.09-0.169
			l0.342-0.576c0.347-0.557,0.923-1.482,0.899-1.7c-0.038-0.305-0.067-0.544-0.595-1.209c-0.583-0.728-2.695-3.191-2.903-3.232
			c-0.423,0-0.492-0.052-0.833-0.309l-0.359-0.271c-0.39-0.281-0.458-0.486-0.523-0.673c-0.049-0.138-0.095-0.258-0.275-0.393
			L1.49-56.751c-0.028-0.021-0.107-0.13-0.956-0.982c-0.976-0.966-1.411-2.056-1.261-3.143c0.043-0.337,0.338-0.456,1.204-0.497
			c0.866-0.039,2.848,1.347,2.939,1.803l0.03,0.169c0.072,0.409,0.202,1.097,0.428,1.194c0.27,0.121,0.731,0.655,1.073,1.049
			l0.069,0.068c0.178,0.21,0.223,0.419,0.266,0.619c0.035,0.154,0.071,0.312,0.174,0.457c0.078,0.104,0.199,0.163,0.335,0.227
			c0.264,0.125,0.595,0.289,0.834,0.885c0.237,0.591,1.655,1.607,2.69,2.345c0.531,0.377,0.947,0.679,1.043,0.81
			c0.136,0.178,0.22,0.518,0.22,0.88c0,0.43-0.112,0.891-0.386,1.146c-0.393,0.364-0.76,1.449-0.872,1.786v0.01
			c0,0.141-0.011,0.399-0.035,0.882c-0.003,0.021-0.003,0.043-0.003,0.066c0,1.27,1.891,2.512,2.71,3.05l0.37,0.26
			c2.96,2.608,3.54,4.592,3.648,5.136l0.062,0.654c0.019,0.454,0.032,0.882,0.305,0.94c0.106,0.02,0.284-0.064,0.39-0.194
			c0.067-0.071,0.155-0.215,0.093-0.384c-0.133-0.365-0.182-4.046-0.182-4.2c0.01-0.027,0.321-0.386,0.321-0.386l0.056-0.067
			l0.015,0.086c0.004,0.042,0.175,1.045,0.175,1.401c0,0.393,0.634,2.095,0.793,2.126c0-0.008,0.006-0.018,0.006-0.018
			c0.08-0.24,0.174-0.819,0.174-1.433c0-0.601-0.093-1.232-0.384-1.599c-0.447-0.547-0.799-1.415-1.029-1.986l-0.211-0.489
			c-0.018-0.038-0.032-0.116-0.032-0.211c0-0.466,0.24-1.461,0.398-1.647c0.043-0.042,0.074-0.042,0.1-0.032
			c0.049,0.019,0.098,0.083,0.098,0.473c0,1.49,1.245,2.569,1.264,2.576c1.106,0.875,1.342,2.497,1.342,3.729
			c0,0.935-0.139,1.651-0.14,1.669c-0.005,0.014-0.516,0.755-0.528,0.771c0.024-0.011,0.165,0.106,0.215,0.144
			c0.047-0.058,0.547-0.726,0.547-0.726c0.088-0.119,0.303-0.465,0.303-0.603c0-0.762,0.114-1.286,0.201-1.671l0.019-0.092
			c0.091-0.408,0.64-1.709,0.665-1.765l0.058-0.139l0.016,0.151c0,0.006,0.088,0.685,0,1.27c-0.048,0.324,0.016,0.726,0.08,1.16
			l0.096,0.991c0,0.809-0.111,1.317-0.399,1.782l-0.146,0.22c-0.059,0.092-0.116,0.181-0.109,0.199l0.109,0.049
			c2.325,0.788,3.407,2.502,3.851,3.45c0.465,1.005,0.485,2.555,0.485,2.852c0,0.388-0.016,2.402-0.352,3.434
			c-0.198,0.611-0.136,1.264-0.071,1.973l0.073,1.211c0,0.827,0.437,1.443,0.861,2.037l0.501,0.779
			C26.43-19.398,26.257-18.831,26.121-18.666 M2.204-48.658l1.017-0.485c0.587-0.225,0.964-0.126,1.099-0.069
			C4.462-49.149,5-48.573,5.12-48.082c0.054,0.201,0.025,0.376-0.082,0.505c-0.396,0.467-1.101,2.626-1.36,3.796
			c-0.097,0.432,0.021,1.63,0.11,2.589c0.08,0.828,0.13,1.342,0.09,1.473c-0.072,0.204-0.375,0.401-0.728,0.625l-0.557,0.376
			c-0.294,0.244-0.308,0.576-0.326,0.927l-0.058,0.554c-0.129,0.513-2.738,3.179-3.142,3.2c-0.586,0.04-0.738-0.602-0.776-0.987
			c-0.021-0.228,0.24-1.238,0.476-2.135l0.259-1.082c0.268-1.695,2.071-4.685,2.842-5.965l0.364-0.619
			c0.162-0.362,0.097-0.645-0.183-0.802c-0.271-0.158-2.617,0.088-3.739,0.346c-0.483,0.11-1.079,0.348-1.656,0.582
			c-0.663,0.268-1.294,0.521-1.657,0.542c-0.422,0.024-0.625-0.063-0.779-0.138l-0.255-0.069l-0.252,0.08
			c-0.313,0.139-0.894,0.389-2.48,0.534c-2.311,0.216-2.486-0.25-2.579-0.499c-0.116-0.322,1.301-1.824,1.553-2.024
			c0.319-0.263,1.358-0.658,1.996-0.552c0.723,0.115,1.91,0.265,2.055,0.235l0.235-0.145l0.223-0.158
			c0.201-0.081,1.493-0.154,1.885-0.174c0.451-0.024,1.635-0.269,2.498-0.448l0.968-0.198C0.439-47.778,1.415-48.26,2.204-48.658"/>
	</g>
	<g id="g148" transform="matrix(1.0848811,0,0,-1.0848811,97.452157,118.97481)">
		<path id="path150" inkscape:connector-curvature="0" fill="#FFFFFF" d="M0.168-3.949l0.034,0.052
			C0.264-3.643-1.009-3.25-1.685-3.074C-2.498-2.868-3.47-2.698-3.682-2.833l-0.016-0.006L-3.73-2.895
			C-3.792-3.146-2.521-3.54-1.844-3.717c0.815-0.203,1.784-0.364,2-0.239L0.168-3.949z M-5.209-2.149
			c-0.212,0-0.38-0.114-0.38-0.261c0-0.14,0.168-0.259,0.38-0.259c0.203,0,0.372,0.119,0.372,0.259
			C-4.836-2.266-5.005-2.149-5.209-2.149 M-9.617-1.841c-0.298,0-0.542-0.17-0.542-0.38c0-0.216,0.244-0.379,0.542-0.379
			c0.302,0,0.543,0.163,0.543,0.379C-9.074-2.011-9.315-1.841-9.617-1.841 M0.789-16.283c-0.155,0-0.374-0.125-0.564-0.318
			c-0.202-0.202-0.316-0.425-0.316-0.577c0-0.059,0.016-0.107,0.054-0.14l0.14-0.056c0.15,0,0.379,0.122,0.566,0.319
			c0.279,0.285,0.389,0.586,0.263,0.72C0.931-16.335,0.789-16.283,0.789-16.283z M2.777-13.414c-0.121,0-0.323-0.117-0.496-0.294
			c-0.211-0.211-0.366-0.504-0.25-0.625l0.11-0.039c0.129,0,0.324,0.116,0.5,0.295c0.207,0.212,0.366,0.5,0.246,0.62
			C2.887-13.457,2.777-13.414,2.777-13.414z M7.313-9.227L7.271-9.215c-0.216,0-1.031-0.714-1.727-1.429
			c-0.062-0.063-1.572-1.615-1.372-1.814l0.009-0.011l0.049-0.013c0.22,0,1.033,0.72,1.727,1.425
			c0.064,0.067,1.58,1.612,1.371,1.819L7.313-9.227z M2.759-3.213c-0.192,0-0.361-0.153-0.361-0.341
			c0-0.188,0.169-0.341,0.361-0.341c0.199,0,0.359,0.153,0.359,0.341C3.118-3.366,2.959-3.213,2.759-3.213 M9.009-8.18
			c-0.228,0-0.414-0.179-0.414-0.408c0-0.227,0.186-0.403,0.414-0.403c0.23,0,0.413,0.175,0.413,0.403
			C9.422-8.359,9.239-8.18,9.009-8.18 M6.354-5.247l0.019,0.111C6.378-5.069,6.579-3.526,6.105-2.93
			C5.996-2.796,5.86-2.718,5.693-2.7C5.554-2.689,5.454-2.733,5.401-2.823C5.112-3.291,6.246-5.072,6.296-5.152L6.354-5.247z
			 M4.697,0.289c0.014-0.016,0.048-0.082,0.105-0.077h0.023l0.044,0.063l0.362,1.111l0.285,0.738l0.242,0.559
			c0.072,0.187,0.072,0.316,0,0.386C5.643,3.177,5.401,3.089,5.374,3.079C5.351,3.061,4.689,1.954,4.689,1.954
			C4.559,1.756,4.51,1.487,4.51,1.213C4.51,0.822,4.609,0.434,4.697,0.289 M-15.128,10.723c-0.221,0-0.403-0.179-0.403-0.394
			c0-0.215,0.182-0.391,0.403-0.391c0.225,0,0.405,0.177,0.405,0.391C-14.723,10.544-14.903,10.723-15.128,10.723 M-20.993,18.215
			c-0.191,0-0.346-0.143-0.346-0.321c0-0.168,0.155-0.307,0.346-0.307c0.189,0,0.35,0.139,0.35,0.307
			C-20.643,18.073-20.803,18.215-20.993,18.215 M-18.607,19.598l-0.013,0.009l-0.068,0.008c-0.237-0.054-0.071-1.088,0.05-1.63
			c0.178-0.759,0.41-1.37,0.573-1.472l0.014-0.009l0.066-0.008c0.24,0.057,0.069,1.092-0.054,1.63
			C-18.209,18.891-18.442,19.497-18.607,19.598 M-18.404,23.253c0.174,0.235,0.211,0.499,0.08,0.598l-0.154,0.033
			c-0.122-0.016-0.278-0.122-0.389-0.281c-0.175-0.232-0.208-0.497-0.08-0.597l0.15-0.03C-18.67,22.992-18.516,23.097-18.404,23.253
			 M-18.853,26.601c0.178,0.085,0.449,0.569,0.653,1.178c0.216,0.645,0.333,1.338,0.121,1.413l-0.096-0.008
			c-0.184-0.092-0.452-0.576-0.655-1.182c-0.22-0.648-0.332-1.339-0.127-1.411C-18.958,26.591-18.853,26.601-18.853,26.601z
			 M-16.851,30.976c-0.328,0-0.592-0.159-0.592-0.353c0-0.197,0.264-0.353,0.592-0.353c0.336,0,0.6,0.157,0.6,0.353
			C-16.251,30.817-16.515,30.976-16.851,30.976 M-10.65,26.953c-0.255-0.109-0.663-0.756-0.987-1.58
			c-0.228-0.581-0.399-1.216-0.399-1.597c0-0.178,0.038-0.304,0.126-0.342l0.131,0.01c0.258,0.109,0.663,0.762,0.991,1.58
			c0.227,0.584,0.399,1.218,0.399,1.598c0,0.181-0.04,0.304-0.124,0.338L-10.65,26.953z M-14.034,26.482l0.093,0.04
			c0.12,0.133-0.154,0.513-0.487,0.817c-0.295,0.276-0.602,0.456-0.761,0.446l-0.091-0.039c-0.018-0.02-0.028-0.049-0.028-0.083
			c0-0.173,0.236-0.478,0.514-0.736C-14.496,26.651-14.189,26.471-14.034,26.482 M-13.712,20.864
			c-0.685,0.424-1.873,0.661-1.887,0.668l-0.03-0.073l1.317-0.995c0.218-0.177,1.178-0.771,1.487-0.529
			c0.053,0.047,0.062,0.1,0.058,0.129C-12.775,20.245-13.104,20.482-13.712,20.864 M-0.444,10.021
			c-0.03,0.04-3.418,3.71-4.148,4.672c-0.747,0.986-1.105,1.063-1.467,0.86c-0.056-0.033-0.087-0.085-0.096-0.149
			c-0.052-0.403,0.793-1.372,1.532-2.082c1.034-0.999,4.094-3.336,4.123-3.36C-0.5,9.962-0.444,10.021-0.444,10.021z M13.888,6.458
			l-0.019,0.005l-0.013-0.005c-0.01-0.01-0.251-0.121-0.319-0.356c-0.045-0.155,0.042-0.29,0.107-0.403l0.083-0.153l0.033-0.293
			l0.053-0.441c0.033-0.095,0.115-0.153,0.213-0.15c0.111,0.005,0.241,0.092,0.283,0.261c0.059,0.24,0.086,0.558,0.086,0.978
			C14.396,6.296,13.907,6.45,13.888,6.458 M4.65,11.505c0.05-0.052,0.136-0.066,0.225-0.035c0.111,0.043,0.231,0.153,0.242,0.317
			c0.023,0.216,0.173,0.505,0.393,0.75c0.211,0.241,0.252,0.653-0.04,0.937l-0.285,0.112c-0.183-0.005-0.321-0.151-0.326-0.155
			c-0.011-0.023-0.278-1.37-0.278-1.37v0.003C4.554,11.986,4.529,11.622,4.65,11.505 M22.485,17.082l-0.08-0.014
			c0.003-0.014,0.02-0.605,0.02-1.362c0-1.108-0.039-2.585-0.228-3.247c-0.158-0.54-0.872-1.567-1.447-2.391l-0.668-1
			c-0.021-0.037-0.03-0.078-0.03-0.115c0-0.098,0.05-0.191,0.139-0.252c0.068-0.045,0.311-0.165,0.648,0.24l0.428,0.452
			c0.573,0.569,1.279,1.276,1.779,2.834C23.59,13.938,22.495,17.051,22.485,17.082 M5.177,17.944
			c0.533-0.249,0.721-0.336,0.799-0.362c0.003,0,0.004-0.005,0.004-0.005s0.005,0,0.005,0.003c0.037-0.011,0.048-0.01,0.057,0.006
			c-0.005,0.003-0.027,0.033-0.035,0.043c0.005,0.005,0.011,0.016,0.011,0.016s-0.033,0.015-0.033,0.019
			c-0.355,0.444-2.473,3.454-2.922,5.437c-0.072,0.326-0.157,0.627-0.367,0.749c-0.122,0.071-0.271,0.076-0.456,0.011
			c-0.044-0.011-0.076-0.044-0.093-0.098c-0.02-0.04-0.023-0.101-0.023-0.172c0-0.707,0.754-2.656,1.002-3.059
			C4.484,18.324,5.151,17.956,5.177,17.944 M0.119,26.097c0.106,0.066,0.153,0.186,0.145,0.355
			c-0.035,0.667-0.217,0.742-0.584,0.742c-0.376,0-0.64-0.374-0.64-0.569c0-0.182,0.133-0.34,0.391-0.472
			C-0.42,26.077-0.082,25.965,0.119,26.097 M-5.953,29.184l0.447,0.081c0.395,0.088,0.993,0.221,1.728,0.241
			c0.536,0.015,1.117-0.172,1.541-0.312c0.382-0.129,0.572-0.184,0.649-0.102c0.044,0.052,0.015,0.126-0.009,0.181
			c-0.116,0.249-0.622,1.065-2.27,1.105c-1.076,0.023-1.945-0.703-2.131-1.012c-0.038-0.062-0.049-0.109-0.03-0.143l0.018-0.025
			C-6.01,29.196-5.953,29.184-5.953,29.184z M3.653,28.601c0.178,0,0.327,0.109,0.327,0.246c0,0.134-0.149,0.245-0.327,0.245
			c-0.181,0-0.327-0.111-0.327-0.245C3.326,28.709,3.473,28.601,3.653,28.601 M3.983,29.272c0.187,0,0.34,0.109,0.34,0.245
			s-0.15,0.244-0.34,0.244c-0.193,0-0.343-0.107-0.343-0.244C3.639,29.381,3.794,29.272,3.983,29.272 M4.325,29.973
			c0.199,0,0.37,0.127,0.37,0.29c0,0.16-0.17,0.287-0.37,0.287c-0.202,0-0.367-0.126-0.367-0.287
			C3.957,30.1,4.123,29.973,4.325,29.973 M4.626,31.573c-0.198,0-0.357-0.15-0.357-0.336c0-0.182,0.159-0.329,0.357-0.329
			c0.193,0,0.356,0.148,0.356,0.329C4.982,31.423,4.819,31.573,4.626,31.573 M5.266,32.204c0,0.183-0.165,0.332-0.37,0.332
			c-0.202,0-0.372-0.149-0.372-0.332c0-0.186,0.17-0.332,0.372-0.332C5.101,31.873,5.266,32.019,5.266,32.204 M5.637,33.267
			c0,0.207-0.204,0.379-0.456,0.379c-0.25,0-0.453-0.172-0.453-0.379c0-0.207,0.203-0.375,0.453-0.375
			C5.433,32.892,5.637,33.06,5.637,33.267 M5.837,34.364c0,0.181-0.194,0.333-0.425,0.333c-0.235,0-0.428-0.153-0.428-0.333
			c0-0.187,0.193-0.335,0.428-0.335C5.643,34.03,5.837,34.178,5.837,34.364 M6.211,35.238c0,0.191-0.256,0.335-0.586,0.335
			c-0.323,0-0.583-0.144-0.583-0.335c0-0.186,0.26-0.335,0.583-0.335C5.954,34.903,6.211,35.052,6.211,35.238 M5.329,36.274
			c0-0.174,0.215-0.317,0.499-0.317c0.279,0,0.494,0.143,0.494,0.317c0,0.179-0.215,0.318-0.494,0.318
			C5.544,36.592,5.329,36.454,5.329,36.274 M5.351,36.847c0.104-0.078,0.279-0.107,0.462-0.08c0.288,0.04,0.491,0.198,0.467,0.362
			l-0.085,0.134c-0.1,0.078-0.278,0.109-0.461,0.081c-0.285-0.038-0.492-0.199-0.468-0.364L5.351,36.847L5.351,36.847z
			 M5.829,37.782c0.258,0.021,0.447,0.163,0.43,0.326l-0.083,0.149c-0.088,0.073-0.24,0.11-0.396,0.096
			c-0.25-0.02-0.433-0.155-0.433-0.311v-0.018l0.085-0.143C5.521,37.803,5.669,37.765,5.829,37.782 M5.969,39.396
			c-0.228,0-0.413-0.134-0.413-0.304c0-0.168,0.184-0.303,0.413-0.303c0.226,0,0.409,0.135,0.409,0.303
			C6.378,39.262,6.195,39.396,5.969,39.396 M5.954,40.359c-0.206,0-0.371-0.126-0.371-0.289c0-0.158,0.165-0.288,0.371-0.288
			c0.206,0,0.367,0.13,0.367,0.288C6.322,40.233,6.16,40.359,5.954,40.359 M5.969,41.122c-0.181,0-0.327-0.119-0.327-0.261
			c0-0.144,0.146-0.259,0.327-0.259c0.178,0,0.327,0.115,0.327,0.259C6.296,41.003,6.147,41.122,5.969,41.122 M5.703,41.729
			c0-0.153,0.129-0.276,0.288-0.276c0.157,0,0.279,0.124,0.279,0.276c0,0.15-0.122,0.274-0.279,0.274
			C5.832,42.003,5.703,41.879,5.703,41.729 M5.841,42.87c-0.158,0-0.284-0.12-0.284-0.274c0-0.151,0.126-0.273,0.284-0.273
			c0.158,0,0.284,0.121,0.284,0.273C6.125,42.75,5.999,42.87,5.841,42.87 M0.978,38.207l-0.136,0.015
			c-0.36-0.093-0.975-1.155-1.405-1.941l-0.078-0.135l-1.294-2.426l-0.403-0.773c-0.048-0.071-0.033-0.175,0.037-0.239
			c0.064-0.063,0.173-0.101,0.305-0.014c0.213,0.143,1.002,0.923,1.365,1.538l0.487,0.668c0.312,0.408,0.668,0.862,0.875,1.405
			l0.073,0.186C1.299,37.769,1.376,37.965,0.978,38.207 M2.643,41.587c-0.066,0.1-0.182,0.14-0.269,0.093l-0.232-0.172
			c-0.159-0.135-0.365-0.304-0.54-0.353c-0.428-0.112-1.007-0.304-1.043-0.6V40.52c0-0.082,0.035-0.129,0.071-0.155
			c0.162-0.131,0.555-0.054,0.841,0.053c0.437,0.162,0.706,0.36,1.048,0.672C2.729,41.281,2.719,41.473,2.643,41.587 M0.502,41.423
			c0-0.15,0.077-0.211,0.116-0.228c0.115-0.061,0.278-0.001,0.372,0.135l0.329,0.285c0.178,0.126,0.376,0.271,0.553,0.494
			c0.163,0.212,0.093,0.342,0.034,0.396c-0.11,0.11-0.341,0.136-0.418,0.069l-0.095-0.063c-0.216-0.14-0.723-0.471-0.851-0.874
			C0.515,41.551,0.502,41.483,0.502,41.423 M-1.169,42.312l-0.462-0.326l-0.034-0.037c-0.058-0.053-0.086-0.086-0.048-0.198
			l0.056-0.08l0.122,0.027l0.177,0.062l0.258,0.045c0.251,0.032,0.528,0.068,0.656,0.199l0.17,0.28l0.252,0.406
			c0.124,0.133,0.127,0.227,0.11,0.278c-0.016,0.049-0.056,0.082-0.116,0.093c-0.082,0.018-0.168-0.015-0.225-0.085
			C-0.332,42.885-0.816,42.554-1.169,42.312 M-5.402,42.346c0.162,0,0.29,0.134,0.29,0.295c0,0.163-0.129,0.292-0.29,0.292
			c-0.16,0-0.288-0.129-0.288-0.292C-5.689,42.48-5.562,42.346-5.402,42.346 M-6.716,44.252c-0.067-0.063-0.038-0.198-0.019-0.307
			l0.011-0.076l-0.011-0.045c-0.015-0.04-0.032-0.09,0-0.131c0.024-0.04,0.093-0.059,0.208-0.059
			c0.143-0.003,0.159,0.014,0.21,0.143l0.038,0.098c0.033,0.088,0.033,0.169,0.003,0.23c-0.061,0.11-0.207,0.151-0.319,0.175
			C-6.659,44.294-6.696,44.272-6.716,44.252 M-7.828,44.38c-0.225,0-0.324-0.124-0.405-0.228l-0.1-0.115
			c-0.17-0.145-0.226-0.502-0.202-0.775c0.006-0.111,0.04-0.314,0.151-0.382c0.212-0.129,0.312-0.038,0.53,0.169
			c0.014,0.014,0.168,0.143,0.168,0.143c0.213,0.178,0.458,0.384,0.492,0.694c0.014,0.133-0.019,0.24-0.092,0.319
			C-7.414,44.351-7.654,44.38-7.828,44.38 M-4.818,45.118l0.091,0.028l0.74,0.289l1.076,0.704c0.029,0.021,0.309,0.236,0.251,0.37
			c-0.038,0.09-0.179,0.076-0.282,0.057c-0.294-0.057-0.583-0.198-0.895-0.348l-0.437-0.204l-0.191-0.08
			c-0.665-0.274-1.207-0.52-1.107-0.774C-5.511,45.011-5.23,44.995-4.818,45.118 M-0.523,44.75c0.114,0.013,0.211,0.058,0.269,0.14
			c0.168,0.256,0.177,0.615,0.01,0.939c-0.157,0.311-0.428,0.509-0.707,0.521l0.001-0.003l-0.059,0.01l-0.514-0.044
			c-0.27-0.059-0.521-0.259-0.581-0.454C-2.135,45.756-2.12,45.666-2.05,45.6C-1.637,45.16-0.929,44.719-0.523,44.75 M5.117,45.205
			c0.035,0.11,0.068,0.212,0.014,0.269c-0.049,0.048-0.135,0.044-0.285-0.01c-0.53-0.194-0.615-0.735-0.673-1.132l-0.016-0.121
			c-0.034-0.175,0.057-0.24,0.112-0.258c0.187-0.066,0.518,0.101,0.592,0.23c0.083,0.138,0.542,0.261,0.88,0.355l0.129,0.034
			c0.153,0.045,0.235,0.101,0.247,0.184c0.014,0.105-0.102,0.202-0.21,0.261c-0.095,0.059-0.236,0.02-0.389-0.025
			c-0.145-0.043-0.305-0.083-0.409-0.038C5.053,44.979,5.074,45.075,5.117,45.205 M4.466,47.744
			c-0.096-0.069-0.139-0.164-0.111-0.26l0.02-0.08c0.025-0.095,0.035-0.112,0.12-0.124l0.155-0.027
			c0.204-0.052,0.52,0.072,0.592,0.232c0.024,0.052,0.043,0.153-0.095,0.247C4.915,47.889,4.624,47.857,4.466,47.744 M4.217,48.47
			l0.21-0.109c0.034-0.074,0.095-0.124,0.175-0.145c0.087-0.021,0.174,0.004,0.25,0.062c0.054,0.042,0.067,0.121,0.034,0.227
			C4.828,48.674,4.65,48.86,4.461,48.86c-0.247,0-0.471-0.027-0.471-0.212C3.99,48.547,4.108,48.509,4.217,48.47 M-0.086,46.694
			c0.115-0.044,0.288-0.025,0.449,0.05c0.25,0.114,0.395,0.317,0.336,0.458l-0.119,0.105c-0.11,0.043-0.283,0.024-0.442-0.05
			c-0.216-0.095-0.352-0.251-0.352-0.389c0-0.024,0.004-0.05,0.016-0.069L-0.086,46.694z"/>
	</g>
</g>
</svg>
