<svg fill="none" height="64" viewBox="0 0 64 64" width="64" xmlns="http://www.w3.org/2000/svg" xmlns:xlink="http://www.w3.org/1999/xlink"><mask id="a" height="139" maskUnits="userSpaceOnUse" width="120" x="129" y="41"><path d="m129 41.6605h120v137.9215h-120z" fill="#fff"/></mask><mask id="b" height="52" maskUnits="userSpaceOnUse" width="56" x="160" y="30"><path d="m160.657 30h55.066v51.7808h-55.066z" fill="#fff"/></mask><g transform="matrix(2.3105004 0 0 2.3105004 -16.776594 -37.315011)"><path clip-rule="evenodd" d="m29.851318 42.969096c-2.831776-.893865-4.757465-3.520831-4.757465-6.490937 0-2.971587 1.927911-5.599664 4.757465-6.490937v-3.396983c-1.109415 4.064002-4.364883 6.849854-8.063488 6.849854-1.284965 0-2.519006-.336658-3.628791-.948679.04722 2.590116.720351 5.131344 1.96291 7.406839 2.699928 2.059944 6.07206 3.283801 9.729369 3.285282z" fill="#fff" fill-rule="evenodd" stroke-width=".18518"/><path clip-rule="evenodd" d="m18.159039 32.491414c1.109785.612021 2.343826.948679 3.628791.948679 3.698605 0 6.954073-2.785852 8.063488-6.849854v-4.893424c.925346-.431063 1.557921-1.445424 1.557921-2.605078l-.000926-.102961s-3.362873-.03404-5.684662 1.848488h-.461469c-.626095.292214-1.742731.802941-2.445305 1.618697-.09166.107238-.177403.219328-.253697.336732-.130182.200846-.288326.382027-.46795.543615-.348139.314066-.777017.556374-1.241634.729647-1.035157.578299-2.11161.572651-2.905477.206087-1.044232-.253252-1.753102-.904846-1.459961-1.928967.08555-.298973.256474-.629983.5298-.99201.181477-.241253.315177-.403563.414063-.513801h-.06907c-2.579748-1.882524-6.31724-1.848488-6.31724-1.848488l-.0024.102961c0 1.40398 1.031454 2.594911 2.420861 2.795684.35499.154014.700722.323899 1.036268.509282-.442395 1.440091-.679796 2.934218-.706277 4.439622.759054 2.541654 2.358455 4.548452 4.364883 5.655089z" fill="#fff" fill-rule="evenodd" stroke-width=".18518"/><path clip-rule="evenodd" d="m19.744552 39.898253c-1.242745-2.275495-1.915875-4.816723-1.963096-7.406839-2.006242-1.106637-3.605644-3.113435-4.364883-5.655089-.0013.0932-.0022.186495-.0022.279715 0 5.213156 2.482711 9.846551 6.330201 12.782213z" fill="#2cc28c" fill-rule="evenodd" stroke-width=".18518"/><g mask="url(#a)" transform="matrix(.18518022 0 0 .18518022 -13.88825 10.594779)"><path clip-rule="evenodd" d="m160.776 74.7767c-1.749.8295-3.237 2.0648-4.354 3.5692-1.454 1.955-2.296 4.383-2.296 6.9677 0 3.2208 1.307 6.1378 3.415 8.2457s5.025 3.4146 8.244 3.4146c2.097 0 4.099-.5482 5.82-1.5371 1.231-.7071 2.336-1.645 3.247-2.7724-2.499-4.7413-5.585-9.1282-9.167-13.0584-1.547-1.6964-3.186-3.3088-4.909-4.8293zm-7.856-3.2248c.568-.5321 1.17-1.0298 1.804-1.4905-.418-.2852-.838-.5664-1.262-.8416-.192.7746-.373 1.5514-.542 2.3321zm77.646 100.7591v-68.808c-2.974 4.727-6.551 8.874-10.584 12.309-8.302 7.073-18.513 11.152-29.364 11.152-5.439 0-10.727-1.029-15.701-2.95.422 4.717 1.246 9.394 2.461 13.977 1.639 6.182 3.987 12.175 7.008 17.834 12.979 9.722 28.896 15.74 46.18 16.486zm1.867-115.5118c.139-.0758.284-.1428.432-.202 1.362-.6789 2.567-1.6877 3.537-2.9313 1.001-1.2863 1.753-2.8272 2.18-4.5254-5.702.5382-16.39 2.4175-24.45 8.9511-1.535 1.2475-3.794 1.0149-5.041-.5199-1.248-1.5349-1.015-3.7935.52-5.041 13.562-10.9958 32.903-10.7981 32.958-10.7981 1.985 0 3.596 1.6106 3.596 3.5962l-.009.2364.015.3196c0 4.6012-1.543 8.8797-4.122 12.1924-1.215 1.5575-2.662 2.903-4.291 3.965v23.6811c.047.3322.049.6749 0 1.0193v85.5764c.622-.027 1.233-.059 1.835-.098 1.844-.118 3.634-.294 5.361-.518 1.961-.255 3.761 1.13 4.016 3.091s-1.13 3.76-3.091 4.015c-1.989.259-3.942.455-5.838.575-2.008.131-3.957.198-5.834.198-24.951 0-47.544-10.115-63.897-26.468s-26.468-38.946-26.468-63.8968c0-4.4867.339-8.9777 1.005-13.4255l.021-.1185c.513-3.398 1.227-6.7796 2.138-10.1267-.764-.3775-1.537-.7402-2.32-1.0868-4.435-.7542-8.299-3.0332-11.079-6.2458-2.882-3.3288-4.607-7.6587-4.607-12.3291 0-.1158.008-.2303.018-.3444l-.006-.2116c0-.2082.017-.412.053-.6096l.004-.0266.011-.0631.005-.0249c.306-1.6999 1.811-2.9778 3.594-2.9434.237.0039.469.0326.694.0796 3.928.0836 22.195 1.0011 35.455 10.6776 1.596 1.1621 1.949 3.4024.787 4.9982-1.162 1.5963-3.402 1.949-4.998.7869-9.284-6.7757-21.684-8.6045-27.977-9.0978.471 1.6493 1.295 3.1555 2.389 4.4195 1.778 2.0531 4.277 3.49 7.146 3.9041.421.0588.817.1916 1.173.381 1.878.8234 3.709 1.7247 5.49 2.6987.104.0514.206.1063.304.1673l.016.0104c6.723 3.722 12.739 8.4943 17.835 14.0878 4.613 5.0597 8.486 10.8021 11.467 17.0561 4.409-9.0164 10.306-16.6115 17.19-22.3644 9.012-7.532 19.735-11.9211 31.059-12.2472.163-.004.324.0021.483.0182.424-.1158.84-.2625 1.241-.438zm-19.514 12.3657c5.31-2.7663 11.02-4.4057 16.913-4.7357.237.0675.484.1102.734.1284v21.3534c-2.843 10.064-8.272 18.51-15.248 24.454-7.004 5.966-15.596 9.407-24.7 9.407-8.586 0-16.749-3.068-23.547-8.461-3.001-2.381-5.741-5.211-8.141-8.432 2.125.83 4.437 1.287 6.855 1.287 3.331 0 6.562-.899 9.387-2.524 1.001-.575 1.949-1.241 2.831-1.9937.341.8967.663 1.8047.963 2.7217l.012.03.018.057.01.025c.07.194.153.379.253.552l.043.072.002.006.043.067.004.008.188.267.005.008.011.013.002.004.098.118.01.014.047.051.012.014.047.049.012.015.047.048.014.013.049.049.012.012.051.047.012.012.054.047.012.01.055.047.012.008.055.047.012.008c.178.143.373.263.581.369l.008.006c.135.069.273.131.42.182 1.868.664 3.926-.31 4.591-2.177.717-2.012 1.51-3.9632 2.373-5.8468 1.545 2.0565 3.488 3.7588 5.681 5.0208 2.825 1.625 6.056 2.524 9.387 2.524 5.203 0 9.918-2.112 13.328-5.5227 3.411-3.4103 5.522-8.1255 5.522-13.3297 0-4.144-1.367-8.058-3.73-11.2362-1.455-1.9568-3.288-3.6323-5.41-4.9125zm-21.204 20.6619c.57.3039 1.065.7646 1.414 1.3659 1.046 1.7961 2.528 3.2474 4.261 4.2441 1.72.9889 3.722 1.5371 5.819 1.5371 3.219 0 6.136-1.3067 8.244-3.4146s3.414-5.0249 3.414-8.2457c0-2.5847-.841-5.0127-2.295-6.9677-1.453-1.9529-3.531-3.4591-5.997-4.201-.3-.0897-.579-.2143-.834-.3693-.501.3876-.995.7868-1.484 1.1948-4.774 3.989-9.022 8.9999-12.542 14.8564zm-20.037 54.2342c-.446-1.406-.862-2.821-1.239-4.244-1.678-6.326-2.671-12.855-2.94-19.469-1.688-1.03-3.32-2.172-4.892-3.419-3.6-2.856-6.874-6.268-9.716-10.154 3.027 14.084 9.622 26.845 18.787 37.286z" fill="#147853" fill-rule="evenodd"/></g><g clip-rule="evenodd" fill-rule="evenodd"><path d="m22.022083 19.633907c-.02537.329714-.03333.644668-.04259.921142l.147959-.0059c1.646993-.07829 2.71752-.745202 3.091028-1.01862.154626.651908.08333.999362.142589 1.0941.02185.03507-.06592.09805-.22555.191421-.519615.30301-1.799951.922512-2.534746 1.915263-5.162825.456858-5.864658-.676593-5.864658-.676593.16944-.262363.38573-.543208.654983-.842514 0 0-.0043-.456229.09815-1.062898 0 0 .862755.167959 1.993465.289548-.015.114256-.02778.231661-.03852.353009.01093-.121348.02463-.238679.04037-.352694.04796-.350917.115552-.669241.198698-.958067-.0024-.00037-.0048-.000741-.0072-.0011-.870902-.129015-1.593846-.30164-1.914948-.383731.151292-.4146.363879-.82494.6635-1.161191.0091-.01015.01852-.02031.02796-.03048.152588.04129.971085.14894 1.828654.259641.940345-1.392685 2.336049-1.484757 2.622708-1.472905.0046.00037.0091.000555.01315.000741.01204.0024.02389.0052.03611.0077.138885.03055.273511.0695.401841.117238-.241475.146181-.439248.324935-.601651.527004-.253882.315918-.420544.687796-.531837 1.077897l.28351-.0092c.860533-.04274 1.49959-.346491 1.953467-.680296.186846.321472.332768.613854.447395.878161-.309806.284233-1.196449.943401-2.82085 1.02064zm-5.741697 3.449371c-.484617 2.331085 3.886192 2.438897 5.665218.578873-4.096186.35075-5.338005-.310603-5.665218-.578873z" fill="#fff" stroke-width=".18518"/><g mask="url(#b)" transform="matrix(.18518022 0 0 .18518022 -13.88825 10.594779)"><path d="m198.753 32.9261c-8.448-1.7587-19.927 2.0722-24.108 6.5479 1.558.4207 15.97 2.1284 20.352 2.7933.511-.0083 1.024-.0248 1.532-.0496 4.647-.2308 8.097-1.8711 10.548-3.6737-.057-.0993-.115-.1986-.174-.2974-1.322-2.2429-3.356-3.7408-5.784-4.646-1.305.7894-2.373 1.7547-3.249 2.8459.939-3.0201-.082-3.5788.883-3.5204zm-35.838 34.5132c1.767 1.4487 8.473 5.0201 30.593 3.126.902-.944 1.683-1.9821 2.305-3.1129.365-.6649.78-1.3024 1.233-1.9137-27.88 2.4671-31.67-3.6537-31.67-3.6537-1.329 2.0587-2.118 3.9089-2.461 5.5543zm7.995-21.5301c-.713 1.9594-1.172 3.9384-1.467 5.6863 0 0 4.659.9069 10.765 1.5636 4.162.4493 8.996.7798 13.482.6274.268-.0078.535-.02.799-.0318 8.895-.4228 14.676-4.0242 16.692-5.5007-.33-1.3921-.854-3.0419-1.687-4.9678-1.674 1.5349-6.461 5.0945-15.233 5.5116-.114.0057-.226.0105-.341.0144-4.245.1703-8.736-.2486-12.668-.8308-4.703-.6967-8.607-1.6289-10.342-2.0722z" fill="#2cc28c"/><path d="m192.108 64.3457c-8.892-.061-17.829-1.9734-21.867-2.9618-2.41 3.2962-2.842 6.2009-1.986 8.3885.608 1.5532 1.884 2.8333 3.547 3.6772 1.843.9335 4.149 1.3454 6.611 1.062 4.658-.536 9.808-3.5614 13.695-10.1659zm10.406-25.0306c-2.073 1.8571-3.112 4.2237-3.508 6.6434-.567 3.4755.053 7.0408.885 9.6481 2.373-1.072 4.633-1.9629 6.48-2.6887l2.023-.8029c.073-1.5658-.205-4.5503-3.668-10.4272l.006-.0044-.006-.0095c-.497-.8461-1.16-1.5658-1.936-2.1572zm-23.237 16.6199c1.163-9.2916 4.993-14.8076 9.2-18.0672-2.307.546-4.48 1.392-6.277 2.4501-1.341.789-2.437 1.686-3.157 2.6318-3.145 4.1278-4.902 8.7816-5.793 11.7783 1.6.3692 3.675.8055 6.027 1.207zm12.994-18.6746c-4.927 2.6378-10.111 8.0253-11.461 18.9275 3.706.5744 7.957 1.0189 12.107.9845-1.021-3.4964-1.702-7.9992-.989-12.3635.435-2.6543 1.35-5.2717 2.952-7.6282-.597-.0161-1.203-.0083-1.812.0244zm-26.676 18.4216c.651-2.8377 2.766-10.5491 7.748-17.0866 1.287-1.6877 3.097-3.2004 5.233-4.4583 3.906-2.3013 9.072-3.8322 14.125-4.0952 3.716-.196 7.434.2873 10.668 1.6267.199.0671.393.1507.581.253 1.139.5155 2.209 1.1452 3.194 1.8954 1.478 1.1273 2.758 2.5281 3.757 4.2219l.006-.0039c5.045 8.5596 4.794 13.0767 4.591 15.2317.634 1.7243-.082 3.1616-1.963 4.3377-.108.067-.218.1284-.331.1811-.966.5365-2.407 1.1073-4.22 1.8188-2.362.9275-5.43 2.1362-8.274 3.5326-5.171 12.2146-13.731 17.6187-21.481 18.5096-3.888.4485-7.604-.2447-10.656-1.7922-3.227-1.6346-5.736-4.2293-7.004-7.4689-1.853-4.7292-1.062-10.6614 4.026-16.7034z" fill="#147853"/></g><path d="m21.731906 23.501118c2.071796-.7997 4.399697.231494 5.199305 2.303198.799793 2.071592-.23129 4.399567-2.303086 5.19936-2.071611.799609-4.399512-.231475-5.199305-2.303216-.799794-2.071611.231475-4.399622 2.303086-5.199342z" fill="#fff" stroke-width=".18518"/><path d="m23.402602 30.984603.471839 1.221819 1.705325-.658316.317399-.122404-.471839-1.221819z" fill="#2cc28c" stroke-width=".18518"/><path d="m24.336651 24.641995c-.66813-.295918-1.449591-.337046-2.183645-.05394l-.0013.00037c-.73461.283511-1.286077.839219-1.581625 1.506942-.292955.661019-.336287 1.433331-.0637 2.160793.0074.0158.01389.03209.0187.04902.286659.722147.837384 1.264892 1.497922 1.557106.661094.292955 1.433295.336473 2.160868.06352.01537-.0072.0313-.0137.04778-.01852.722943-.286104 1.266077-.836904 1.558847-1.498238.294622-.665871.336287-1.445017.05648-2.176997l-.0033-.009c-.283541-.734282-.839267-1.285397-1.507027-1.581zm-2.415491-.676019c.90405-.34625 1.863654-.295603 2.683632.06748.822941.364712 1.507923 1.043787 1.857913 1.95017l.000741.0019c.34962.906309.299807 1.869302-.06444 2.691502-.202402.456358-.501098.870421-.882013 1.208375.09629.02741.179069.09852.217957.198884l.468135 1.2133.0033.0087c.06592.170551-.01926.363138-.189995.429062l-2.013835.777387-.0087.0033c-.170551.06611-.363138-.01926-.429247-.189809l-.467951-1.213301-.0035-.0087c-.04481-.115923-.02-.242401.05444-.331843-.483876-.0043-.958123-.109071-1.392555-.301473-.823312-.364805-1.508479-1.044231-1.858469-1.950577l-.0037-.01024c-.345361-.90405-.294436-1.863265.0687-2.682724.36462-.82333 1.044046-1.508145 1.950874-1.858006zm2.143276 7.811383 1.403296-.541652-.232587-.602576-1.40311.541652z" fill="#147853" stroke-width=".18518"/><path d="m22.967243 25.763909c.793868.0375 1.406814.711093 1.369223 1.505016-.03741.793904-.710907 1.406777-1.50496 1.369296-.793867-.03743-1.406629-.71111-1.369222-1.505015.03741-.793812.711092-1.406703 1.504959-1.369297z" fill="#2cc28c" stroke-width=".18518"/><path d="m22.9328 26.490983c.392397.01846.695166.351305.676648.743591-.01852.392267-.351287.695129-.743498.676574-.392397-.01846-.695167-.351305-.676649-.743591.01852-.392267.351472-.695129.743499-.676574z" fill="#147853" stroke-width=".18518"/><path d="m23.304456 26.508556c.187032.0088.331288.167366.322399.354324-.0087.186939-.167403.33125-.35425.32238-.187032-.0088-.331287-.16744-.322398-.354305.0087-.186958.167403-.331269.354249-.322399z" fill="#fff" stroke-width=".18518"/><path d="m24.19147 32.084018 1.979391 5.12764 1.388296-.535911-1.979391-5.127641z" fill="#fff" stroke-width=".18518"/><path d="m25.294773 32.191793-.459432.177402 1.620698 4.198777.459617-.177033zm-1.282373-.571837 1.388111-.536097c.25629-.09889.544615.0287.643502.284993l1.979576 5.127825c.09889.25629-.0287.5448-.284992.643687l-1.388296.535541c-.256475.09889-.5448-.0287-.643687-.284992l-1.979206-5.127456c-.09889-.256289.0287-.544615.284992-.643501z" fill="#147853" stroke-width=".18518"/><path d="m21.156736 28.117865.0096.02496zm1.308299-2.888534-.02593.0097h.0011zm1.62366-.02678c-.522209-.231012-1.132933-.263845-1.707362-.04531l-.02074.008c-.571281.223827-.999603.657945-1.230337 1.178524-.23092.522004-.264253 1.132469-.04556 1.706973l.0078.02081c.224253.571836.658501.999917 1.179042 1.230522.524616.232216 1.138859.264993 1.71588.04185.577392-.222957 1.010158-.659001 1.242374-1.183283.232216-.524745.264623-1.138599.04241-1.715695-.223142-.577244-.659241-1.010232-1.183486-1.242374zm-1.811618-.312211c.649241-.247549 1.338112-.210938 1.92717.0495.591466.261974 1.083675.750461 1.33515 1.401555.251104.651594.214809 1.343594-.04685 1.934707-.26203.591522-.75035 1.083731-1.401629 1.335205-.651649.25166-1.343853.21518-1.934948-.04648-.591651-.26203-1.08423-.750017-1.335335-1.40161l-.003-.0083c-.247586-.649242-.21055-1.337853.04981-1.926708.26203-.591521.750535-1.083785 1.401258-1.334797z" fill="#ccc" stroke-width=".18518"/><path d="m24.716456 36.478159c0 2.970106 1.259596 5.130974 4.091557 6.025209v-12.267264c-2.829739.890902-4.091557 3.270468-4.091557 6.242055z" fill="#2cc28c" stroke-width=".18518"/><path d="m29.673915 42.334669c.350361.110182.544801.484246.434433.834422-.109997.350361-.484246.5448-.834607.434618-1.552551-.489987-2.858627-1.457183-3.776195-2.708816-.917753-1.252189-1.446998-2.788629-1.446998-4.416734 0-1.628845.529985-3.165656 1.448294-4.4184.917753-1.251448 2.226237-2.218644 3.782306-2.708631.350176-.109071.723129.08648.8322.43684.109256.350361-.08629.723314-.436655.8322-1.277744.402582-2.352529 1.19682-3.106398 2.22457-.753498 1.027565-1.187931 2.29142-1.187931 3.633421 0 1.341631.434062 2.605116 1.186449 3.631384.752573 1.027195 1.826618 1.821433 3.105102 2.225126z" fill="#147853" stroke-width=".18518"/><path d="m16.157611 27.079837c-.103886.150626-.310732.188347-.461284.08457-.150737-.103849-.188328-.310677-.08463-.461284.1137-.164662.256474-.296011.415359-.386638l-.00037-.00037c.166291-.09515.351101-.146422.540541-.146422.196291 0 .386471.05507.557392.156273l.02204.01426c.153699.09596.291288.23142.399248.398323.09981.153607.05629.359379-.09722.459043-.1537.09959-.359435.0562-.459062-.09741-.0537-.08272-.118886-.149088-.189254-.194402l-.01389-.0076c-.06833-.04041-.143329-.06265-.219253-.06265-.07333 0-.145737.02039-.210735.05733l-.000371-.000371-.00074.000371c-.07315.04152-.141478.105293-.197773.186902z" fill="#147853" stroke-width=".18518"/></g></g></svg>