<?xml version="1.0" encoding="UTF-8" standalone="no"?>
<svg
   xmlns:dc="http://purl.org/dc/elements/1.1/"
   xmlns:cc="http://creativecommons.org/ns#"
   xmlns:rdf="http://www.w3.org/1999/02/22-rdf-syntax-ns#"
   xmlns:svg="http://www.w3.org/2000/svg"
   xmlns="http://www.w3.org/2000/svg"
   viewBox="0 0 299.99998 300.00833"
   height="300.00833"
   width="300"
   xml:space="preserve"
   version="1.1"
   id="svg7898"><metadata
     id="metadata7904"><rdf:RDF><cc:Work
         rdf:about=""><dc:format>image/svg+xml</dc:format><dc:type
           rdf:resource="http://purl.org/dc/dcmitype/StillImage" /><dc:title></dc:title></cc:Work></rdf:RDF></metadata><defs
     id="defs7902"><clipPath
       id="clipPath7932"
       clipPathUnits="userSpaceOnUse"><path
         id="path7934"
         d="m 0,595.28 841.89,0 L 841.89,0 0,0 0,595.28 Z" /></clipPath></defs><g
     transform="matrix(1.25,0,0,-1.25,-424.5206,605.65166)"
     id="g7906"><g
       id="g7928"><g
         clip-path="url(#clipPath7932)"
         id="g7930"><g
           transform="matrix(1.6639441,0,0,1.6639441,535.69699,483.72129)"
           id="g7958"><path
             id="path7960"
             style="fill:#00b900;fill-opacity:1;fill-rule:nonzero;stroke:none"
             d="m 0,0 -91.246,0 c -14.327,0.019 -26.093,-11.583 -26.114,-25.914 l 0,-91.246 c -0.018,-14.332 11.585,-26.099 25.914,-26.118 l 91.247,0 c 14.33,-0.018 26.091,11.583 26.113,25.917 l 0,91.247 C 25.934,-11.782 14.333,-0.02 0,0" /></g><g
           transform="matrix(1.6639441,0,0,1.6639441,546.02809,375.00068)"
           id="g7962"><path
             id="path7964"
             style="fill:#ffffff;fill-opacity:1;fill-rule:nonzero;stroke:none"
             d="m 0,0 c 0,23.342 -23.4,42.332 -52.165,42.332 -28.761,0 -52.164,-18.99 -52.164,-42.332 0,-20.926 18.558,-38.451 43.626,-41.765 1.699,-0.366 4.011,-1.12 4.596,-2.572 0.526,-1.319 0.344,-3.385 0.168,-4.717 0,0 -0.612,-3.681 -0.744,-4.465 -0.227,-1.319 -1.048,-5.158 4.518,-2.812 5.568,2.346 30.042,17.689 40.986,30.286 l -0.002,0 C -3.621,-17.755 0,-9.342 0,0" /></g><g
           transform="matrix(1.6639441,0,0,1.6639441,441.5933,393.76931)"
           id="g7966"><path
             id="path7968"
             style="fill:#00b900;fill-opacity:1;fill-rule:nonzero;stroke:none"
             d="M 0,0 -3.659,0 C -4.22,0 -4.676,-0.455 -4.676,-1.014 l 0,-22.73 c 0,-0.56 0.456,-1.014 1.017,-1.014 l 3.659,0 c 0.561,0 1.016,0.454 1.016,1.014 l 0,22.73 C 1.016,-0.455 0.561,0 0,0" /></g><g
           transform="matrix(1.6639441,0,0,1.6639441,483.49956,393.76931)"
           id="g7970"><path
             id="path7972"
             style="fill:#00b900;fill-opacity:1;fill-rule:nonzero;stroke:none"
             d="M 0,0 -3.659,0 C -4.22,0 -4.675,-0.455 -4.675,-1.014 l 0,-13.504 -10.416,14.067 c -0.024,0.036 -0.051,0.07 -0.079,0.103 l -0.007,0.006 c -0.02,0.023 -0.04,0.043 -0.061,0.063 -0.006,0.006 -0.012,0.011 -0.019,0.017 -0.017,0.016 -0.035,0.031 -0.054,0.045 -0.008,0.008 -0.017,0.014 -0.026,0.021 -0.018,0.012 -0.035,0.025 -0.053,0.036 -0.01,0.007 -0.02,0.013 -0.031,0.018 -0.018,0.011 -0.036,0.022 -0.054,0.031 -0.011,0.005 -0.021,0.011 -0.032,0.015 -0.019,0.009 -0.038,0.018 -0.058,0.025 -0.012,0.004 -0.022,0.008 -0.033,0.012 -0.02,0.007 -0.04,0.014 -0.061,0.019 -0.011,0.004 -0.023,0.006 -0.035,0.01 -0.02,0.004 -0.039,0.009 -0.058,0.013 -0.014,0.002 -0.029,0.004 -0.043,0.005 -0.018,0.004 -0.036,0.005 -0.054,0.007 -0.017,0.002 -0.034,0.002 -0.052,0.003 -0.013,0 -0.023,0.002 -0.036,0.002 l -3.658,0 c -0.561,0 -1.017,-0.455 -1.017,-1.014 l 0,-22.73 c 0,-0.56 0.456,-1.014 1.017,-1.014 l 3.658,0 c 0.562,0 1.017,0.454 1.017,1.014 l 0,13.5 10.429,-14.085 c 0.072,-0.102 0.161,-0.185 0.258,-0.251 0.003,-0.002 0.007,-0.005 0.01,-0.008 0.021,-0.013 0.042,-0.026 0.063,-0.038 0.01,-0.006 0.019,-0.01 0.029,-0.015 0.015,-0.009 0.032,-0.017 0.048,-0.024 0.017,-0.007 0.032,-0.014 0.05,-0.021 0.01,-0.004 0.02,-0.008 0.03,-0.011 0.024,-0.009 0.046,-0.016 0.069,-0.023 0.005,0 0.01,-0.002 0.015,-0.003 0.083,-0.022 0.17,-0.035 0.26,-0.035 l 3.659,0 c 0.562,0 1.016,0.454 1.016,1.014 l 0,22.73 C 1.016,-0.455 0.562,0 0,0" /></g><g
           transform="matrix(1.6639441,0,0,1.6639441,426.91715,362.04388)"
           id="g7974"><path
             id="path7976"
             style="fill:#00b900;fill-opacity:1;fill-rule:nonzero;stroke:none"
             d="m 0,0 -9.942,0 0,18.051 c 0,0.561 -0.455,1.016 -1.015,1.016 l -3.66,0 c -0.561,0 -1.016,-0.455 -1.016,-1.016 l 0,-22.726 0,-0.002 c 0,-0.273 0.109,-0.52 0.284,-0.702 0.004,-0.005 0.008,-0.01 0.014,-0.015 0.005,-0.005 0.01,-0.009 0.015,-0.014 0.183,-0.176 0.429,-0.284 0.702,-0.284 l 10e-4,0 14.617,0 c 0.561,0 1.014,0.456 1.014,1.017 l 0,3.659 C 1.014,-0.455 0.561,0 0,0" /></g><g
           transform="matrix(1.6639441,0,0,1.6639441,517.12172,384.29914)"
           id="g7978"><path
             id="path7980"
             style="fill:#00b900;fill-opacity:1;fill-rule:nonzero;stroke:none"
             d="m 0,0 c 0.561,0 1.014,0.454 1.014,1.016 l 0,3.659 C 1.014,5.236 0.561,5.692 0,5.692 l -14.617,0 -0.002,0 c -0.274,0 -0.521,-0.11 -0.704,-0.287 -0.004,-0.004 -0.009,-0.007 -0.012,-0.011 -0.006,-0.006 -0.011,-0.012 -0.016,-0.018 -0.174,-0.182 -0.282,-0.428 -0.282,-0.7 l 0,-0.001 0,-22.726 0,-0.001 c 0,-0.273 0.109,-0.52 0.284,-0.702 0.004,-0.005 0.009,-0.011 0.014,-0.015 0.004,-0.005 0.01,-0.01 0.015,-0.014 0.182,-0.175 0.429,-0.284 0.701,-0.284 l 0.002,0 14.617,0 c 0.561,0 1.014,0.456 1.014,1.016 l 0,3.66 c 0,0.56 -0.453,1.016 -1.014,1.016 l -9.941,0 0,3.842 9.941,0 c 0.561,0 1.014,0.455 1.014,1.016 l 0,3.659 c 0,0.561 -0.453,1.017 -1.014,1.017 l -9.941,0 0,3.841 L 0,0 Z" /></g></g></g></g></svg>