<?xml version="1.0" encoding="utf-8"?>
<!-- Generator: Adobe Illustrator 17.0.0, SVG Export Plug-In . SVG Version: 6.00 Build 0)  -->
<!DOCTYPE svg PUBLIC "-//W3C//DTD SVG 1.1//EN" "http://www.w3.org/Graphics/SVG/1.1/DTD/svg11.dtd">
<svg version="1.1" id="图层_1" xmlns="http://www.w3.org/2000/svg" xmlns:xlink="http://www.w3.org/1999/xlink" x="0px" y="0px"
	 width="500px" height="500px" viewBox="0 0 500 500" enable-background="new 0 0 500 500" xml:space="preserve">
<g>
	<path fill="#9E2087" d="M494.106,440.665c0,26.564-26.791,54.687-53.447,54.687H53.695C27.107,495.352,3,467.229,3,440.665V53.621
		C3,27.056,27.107,4.27,53.695,4.27h386.964c26.655,0,53.447,22.786,53.447,49.35V440.665z"/>
	<path fill="#FFFFFF" d="M433.425,263.988h-26.835c-1.512,0-3.022,2.021-3.293,3.476l-9.54,44.547l-9.504,46.265
		c-0.338,1.519-1.849,4.86-3.333,4.86h-16.276h-2.728c-18.813,0-16.654-14.953-12.836-32.768c0.083-0.27,0.135-1.4,0.174-1.567
		l0.394-2.752c0.028-0.111,0.08-0.516,0.08-0.644l0.89-4.7l0.907-4.971c0.282-1.455,0.7-3.674,0.954-5.042l4.347-21.195
		l4.363-22.031c0.31-1.455-0.676-3.476-2.16-3.476h-27.602c-1.499,0-2.971,2.021-3.253,3.476l-4.403,28.56l-6.478,30.024
		c-6.856,31.202-6.546,60.74,30.545,60.74h1.077h58.271c1.512,0,2.982,0,3.265-1.511l12.567-58.529l12.578-59.603
		C435.935,265.738,434.948,263.988,433.425,263.988"/>
	<path fill="#FFFFFF" d="M271.944,327.233c0,0,24.241-66.004,29.722-104.197c7.464-51.021-15.251-125.035-103.255-125.035
		c-87.46,0-125.493,70.665-139.992,147.495c-14.483,77.394,4.509,145.285,91.484,144.744l68.673-0.302l64.18-0.239
		c2.402,0,4.951-2.267,5.576-4.915l11.163-47.777c0.632-2.728-0.867-4.915-3.337-4.915l-10.701-0.103l-10.718-0.064
		c-2.147-0.047-3.308-1.511-3.09-3.587C271.701,327.989,271.757,327.615,271.944,327.233 M238.484,243.253l-10.904,43.49
		l-10.594,36.172c-0.676,2.672-4.171,2.425-6.681,2.425h-51.426c-38.924,0-48.428-31.766-38.924-82.277
		c9.516-51.609,28.978-82.437,67.349-85.73C239.796,152.927,251.158,195.501,238.484,243.253"/>
</g>
</svg>
