<?xml version="1.0" encoding="utf-8"?>
<!-- Generator: Adobe Illustrator 17.0.0, SVG Export Plug-In . SVG Version: 6.00 Build 0)  -->
<!DOCTYPE svg PUBLIC "-//W3C//DTD SVG 1.1//EN" "http://www.w3.org/Graphics/SVG/1.1/DTD/svg11.dtd">
<svg version="1.1" id="图层_1" xmlns="http://www.w3.org/2000/svg" xmlns:xlink="http://www.w3.org/1999/xlink" x="0px" y="0px"
	 width="500px" height="500px" viewBox="0 0 500 500" enable-background="new 0 0 500 500" xml:space="preserve">
<polygon fill="#BCBBBB" points="397.36,453.675 397.36,321.476 441.236,321.476 441.236,497.551 45.208,497.551 45.208,321.476 
	89.085,321.476 89.085,453.675 "/>
<path fill="#F48023" d="M137.52,308.939l215.394,45.016l9.117-43.307l-215.394-45.016L137.52,308.939z M166.011,206.371
	l199.439,92.881l18.234-39.888l-199.439-93.451L166.011,206.371z M221.284,108.361l169.238,140.747l27.921-33.62L249.205,74.742
	L221.284,108.361z M330.69,4.083l-35.329,26.212l131.06,176.646l35.329-26.212L330.69,4.083z M132.961,409.229h219.952v-43.876
	H132.961V409.229z"/>
</svg>
