<?xml version="1.0" encoding="utf-8"?>
<!-- Generator: Adobe Illustrator 17.0.0, SVG Export Plug-In . SVG Version: 6.00 Build 0)  -->
<!DOCTYPE svg PUBLIC "-//W3C//DTD SVG 1.1//EN" "http://www.w3.org/Graphics/SVG/1.1/DTD/svg11.dtd">
<svg version="1.1" id="图层_1" xmlns="http://www.w3.org/2000/svg" xmlns:xlink="http://www.w3.org/1999/xlink" x="0px" y="0px"
	 width="500px" height="500px" viewBox="0 0 500 500" enable-background="new 0 0 500 500" xml:space="preserve">
<rect id="rect7" fill="#FFFFFF" width="500" height="500"/>
<path id="path4" fill="#007ACC" d="M0,250v250h500V0H0V250z M306.641,241.211v22.461h-64.453V468.75h-52.734V263.672H125V218.75
	h181.641V241.211z M433.594,221.484c8.008,1.563,16.992,3.711,20.117,4.883l5.273,2.148v24.414c0,13.477-0.391,24.414-0.781,24.414
	c-0.391,0-4.492-2.148-9.18-4.688c-17.578-9.961-45.703-13.672-62.891-8.594c-4.102,1.172-10.156,4.883-13.281,8.008
	c-4.688,4.492-5.664,7.227-5.664,14.453c0,7.813,0.977,9.961,7.422,16.016c4.102,3.906,19.336,12.891,34.18,20.312
	c31.25,15.43,47.07,28.516,54.297,44.727c6.445,14.453,6.641,44.922,0.391,58.594c-5.859,12.891-18.75,25.977-31.445,32.031
	c-26.953,12.695-70.898,13.867-105.273,2.539l-12.305-4.102v-54.297l9.766,7.031c12.695,9.18,29.102,14.844,46.289,16.016
	c17.188,1.172,29.883-1.953,37.695-9.375c4.883-4.492,5.859-7.031,5.859-14.453c0-14.258-8.203-21.68-41.797-38.086
	c-29.687-14.648-39.063-21.289-47.852-34.18c-19.531-28.32-13.672-71.68,12.5-91.406
	C359.18,220.898,396.094,214.648,433.594,221.484L433.594,221.484z"/>
</svg>
